<svg id="Layer_1" data-name="Layer 1" xmlns="http://www.w3.org/2000/svg" viewBox="0 0 690.19 212.41">
  <defs>
    <style>
      .cls-1 {
        fill: #cbcbcb;
      }

      .cls-2 {
        fill: #ddd;
      }
    </style>
  </defs>
  <title>ICONOS</title>
  <g>
    <g>
      <path class="cls-1" d="M60.8,160.31V146.68h7.91A4.53,4.53,0,0,1,72,147.87,3,3,0,0,1,73,150,3,3,0,0,1,71,152.9a3.33,3.33,0,0,1,2.65,3.42,3.82,3.82,0,0,1-1.23,2.82,4.64,4.64,0,0,1-3.51,1.17Zm1.81-12v4.24h6.16a2.26,2.26,0,0,0,1.65-.61,2.21,2.21,0,0,0,.65-1.57,2,2,0,0,0-.56-1.39,2.73,2.73,0,0,0-2-.67Zm0,5.7v4.72H69a2.89,2.89,0,0,0,2.09-.76,2.27,2.27,0,0,0,.71-1.65,2.16,2.16,0,0,0-.65-1.52,2.6,2.6,0,0,0-1.88-.79Z"/>
      <path class="cls-1" d="M88.43,146.68l-5.6,7.24v6.39H81v-6.39l-5.6-7.24h2.3L82,152.32l4.3-5.64Z"/>
    </g>
    <g>
      <path class="cls-1" d="M116.61,180l0,.06,0,.11a.46.46,0,0,1,.36.16l-.26.35c-.24.13-1.14.79-2.7,2a2.28,2.28,0,0,1-.55.36,1.31,1.31,0,0,0-.54.48,1.79,1.79,0,0,1-.57.48,2.18,2.18,0,0,0-.57.42,4.82,4.82,0,0,1-1.15.73l-2.28,1.23-.26.13a3.16,3.16,0,0,0-1.12.15,5.71,5.71,0,0,1-1,.21,4.69,4.69,0,0,0-.73.2h-.21a5.49,5.49,0,0,0-1.66-.11,1.68,1.68,0,0,1-.26-.16l-.16-.05a.65.65,0,0,1-.31-.13.56.56,0,0,0-.31-.13,3.57,3.57,0,0,1-2.65-2.59c-.35-.87-.52-1.32-.52-1.36a2.57,2.57,0,0,1-.52-1.18,7.13,7.13,0,0,1-.47-3.24c.07-.43.18-1,.34-1.84s.25-1.31.29-1.5a7.4,7.4,0,0,1,.93-2.9,2.59,2.59,0,0,0,.21-.69q.1-.52.15-.69L101,168v-.23l.46-.64q.06-.18,0-.18c.11-.11.16-.19.16-.23l.26-.47c.14,0,.14-.06,0-.17l.26-.47,0-.11a.48.48,0,0,0,.16-.41l.2-.52q.17,0,.21-.24h0v-.06l.63-1.16v-.06l0-.17a2.18,2.18,0,0,1,.26-.47c.07,0,.12-.08.16-.24.1,0,.29-.27.57-.82.17-.39.4-.59.67-.6s.42-.2.21-.58c0-.11,0-.17.16-.17a8.08,8.08,0,0,0,.54-.91,5.24,5.24,0,0,1,.76-1.09,7.48,7.48,0,0,1,1.56-2.46c.13-.15.32-.41.57-.76s.41-.61.52-.76l1-1.36c.07-.12.64-.78,1.71-2l.42-.47a4.9,4.9,0,0,0,.41-.53.71.71,0,0,1,.42-.53,1.56,1.56,0,0,0,.44-.47,4,4,0,0,1,.34-.47,2.54,2.54,0,0,0,.78-.89,4.55,4.55,0,0,1,.67-.71,7.15,7.15,0,0,0,.73-.72l.83-.83a16.47,16.47,0,0,1,3.59-2.93l.47-.37c.07-.07.15-.18.26-.32l.23-.3a1.86,1.86,0,0,1,.23-.18.75.75,0,0,1,.37-.09.26.26,0,0,1,.21-.07,13.87,13.87,0,0,1,3.58-2.65,1.21,1.21,0,0,0,.37-.27,1.75,1.75,0,0,1,.41-.33,1,1,0,0,1,.42-.13,4.22,4.22,0,0,1,.54-.39,6.08,6.08,0,0,1,.76-.46l.54-.28a2.65,2.65,0,0,0,.7-.45c.24-.12.58-.32,1-.58a6.15,6.15,0,0,1,1-.52l3.12-1.26a2.85,2.85,0,0,1,.72-.32,2.41,2.41,0,0,0,.89-.49l.15-.06a.58.58,0,0,1,.21-.07,11.87,11.87,0,0,0,1.4-.16l.89-.38h.33a.83.83,0,0,0,.34-.07,4.89,4.89,0,0,0,.89-.09c.07-.08.19-.09.36,0a.49.49,0,0,0,.36,0l1.51.06c.14,0,.21,0,.21.11a3.68,3.68,0,0,0,1.09.47,4.56,4.56,0,0,0,.39.25l.39.24.31.22a5.84,5.84,0,0,1,2.18,2.95v.28a1.35,1.35,0,0,0,.32.45.83.83,0,0,1,.26.56,2.81,2.81,0,0,0,.15,1.08v.29a1.69,1.69,0,0,0-.15.78,2.29,2.29,0,0,1-.11.77,1.44,1.44,0,0,1-.1.58,10.72,10.72,0,0,1-1.51,2.4l-1.92,2.19a3.21,3.21,0,0,1-2,1.27,1.65,1.65,0,0,1-.83-.14l-.16-.28.63-1.11a1.05,1.05,0,0,0,.41-.53,27.16,27.16,0,0,0,2.24-3.28,6,6,0,0,0,1-3.3v-1.66a5.4,5.4,0,0,0-1.35-3l-1.25-.64a1.55,1.55,0,0,1-.62.19,1.36,1.36,0,0,0-.68.26s-.17.06-.42.07a7.91,7.91,0,0,0-2.28.31,9,9,0,0,1-.94.3c-.41.11-.78.22-1.09.32a4.42,4.42,0,0,0-.88.41,1.92,1.92,0,0,1-.76.31,3.23,3.23,0,0,0-.75.26l-.52.22a3,3,0,0,0-.57.3,2.49,2.49,0,0,0-.42.39l-1.24.56-1.41.8-3.12,2.17a11.81,11.81,0,0,0-1.76,1.33l-.78.54a3.39,3.39,0,0,0-1,.78,1.48,1.48,0,0,1-.52.37,1.45,1.45,0,0,0-.62.25,9.53,9.53,0,0,1-.65.74,6.68,6.68,0,0,0-.71.8,3.06,3.06,0,0,1-1.09,1,9.9,9.9,0,0,0-1,.92,11.82,11.82,0,0,1-1,1,1.13,1.13,0,0,0-.37.3,1.57,1.57,0,0,1-.31.3,11.37,11.37,0,0,1-.75,1c-.33.41-.55.68-.65.79a3,3,0,0,1-.83.78c0,.08-.23.39-.57.94l-.52.76-.47.47a4.22,4.22,0,0,0-1.4,1.71,3.92,3.92,0,0,1-.32.42,1.59,1.59,0,0,0-.26.35,4.38,4.38,0,0,0-1,1.07,1,1,0,0,1-.31.67,1.39,1.39,0,0,0-.36.5c-.14.19-.33.44-.57.73s-.46.57-.65.83a2.93,2.93,0,0,0-.44.84,7.19,7.19,0,0,1-.81,1.41l-.7,1-.52.47c-.11,0-.19.15-.26.33s-.14.26-.21.26a.57.57,0,0,1-.21.24l-.1.06a2,2,0,0,1-.11.92,4.08,4.08,0,0,1-.49.9,6.42,6.42,0,0,0-.44.74l-.21.17a2.29,2.29,0,0,0-.21.41,1.64,1.64,0,0,0,0,.41,10.67,10.67,0,0,1-1,1.46,1.35,1.35,0,0,0-.47,1.11.28.28,0,0,1-.2.29l-.42,1.39a1.65,1.65,0,0,1-.52,1.05,1.75,1.75,0,0,0-.62,1.68s-.09.44-.26,1.21a2.74,2.74,0,0,1-.11.58,2.58,2.58,0,0,0-.1.57,2.3,2.3,0,0,1-.21,1.21.81.81,0,0,0-.15.52v2.86a2.42,2.42,0,0,0,.15,1,3.8,3.8,0,0,1,.21,1c0,.15.1.28.31.39a2.15,2.15,0,0,0,.78.37,9.49,9.49,0,0,0,1.72.39.41.41,0,0,0,.33.11.46.46,0,0,0,.34-.13,1.41,1.41,0,0,1,.78-.23,4.53,4.53,0,0,0,.78-.11l1-.41c.58-.23,1-.43,1.38-.6a4.24,4.24,0,0,0,1.72-1,5.68,5.68,0,0,0,1.3-.65l1-.63.62-.43a3.74,3.74,0,0,0,.93-.66l.37-.42a6.06,6.06,0,0,0,1.12-.64q.54-.39,1.29-1.05l1-.83a5.19,5.19,0,0,1,.57-.4c.27-.18.48-.31.62-.39a2.16,2.16,0,0,0,.62-.57,2.79,2.79,0,0,1,.58-.56l1.14-.85,1.25-1s0-.06.08-.06h.18a.58.58,0,0,0,.21-.07l-.47.82-2.65,2.1a1.73,1.73,0,0,0-.68.48,1.85,1.85,0,0,1-.67.49,9.21,9.21,0,0,1-1.2,1.07c-.52.4-.88.7-1.09.9a.21.21,0,0,0-.21.12.45.45,0,0,0,0,.26c0,.09,0,.14-.08.15l-.57,0-.11.11a1.05,1.05,0,0,1-.15.24l-.11.12a.7.7,0,0,1-.13.26.33.33,0,0,1-.26.09c-.12,0-.2,0-.23.07a.92.92,0,0,0-.37.07,3.87,3.87,0,0,1-1,.84,5.76,5.76,0,0,0-1,.84v0a.43.43,0,0,0,.21.05c-.14.16-.21.14-.21-.05l-.52.25c-.17.09-.47.26-.88.52a6.65,6.65,0,0,1-.94.52s0,0,0,.06a.16.16,0,0,0,0,.11l.16.17,0,.05h.15a.36.36,0,0,1,.21-.24.53.53,0,0,1,.26,0,.26.26,0,0,0,.21,0,15.22,15.22,0,0,0,2.81-1.59l.41-.22a3.22,3.22,0,0,1,.42-.21l1.87-1.22a26.89,26.89,0,0,1,2.29-1.46s.08,0,.15-.12a1.82,1.82,0,0,0,.21-.29,1.37,1.37,0,0,1,.16-.24,11.24,11.24,0,0,1,1.19-1c.17-.12.46-.34.86-.66s.72-.56,1-.72c0-.08.14-.12.31-.13-.07.27-.15.42-.26.47a2.24,2.24,0,0,0,0,.31.73.73,0,0,1,0,.34.32.32,0,0,1-.21.21c-.13,0-.33.24-.57.6a.65.65,0,0,1-.39.15,1.31,1.31,0,0,0-.39.1l-.1.18H120l-.16-.34c-.31.17-.47.31-.47.42a3.56,3.56,0,0,1-1.14,1.65l-1.25.9Q117,179.94,116.61,180Zm3.32-2.18c-.13-.08-.12-.11.06-.12A.17.17,0,0,1,119.93,177.77Zm6.66-6.26c0,.08.1.17.31.28,0,.07,0,.11-.05.11a9.12,9.12,0,0,0-1.17.91,10.71,10.71,0,0,1-1.17.9,3.38,3.38,0,0,1-1.2,1,2.83,2.83,0,0,1-1.19.56,1.36,1.36,0,0,1,.67-.94l.73-.31a10.61,10.61,0,0,1,1.59-1.37C125.82,172.13,126.31,171.75,126.59,171.51Zm2.28-3.17c-.14.27-.31.28-.52,0a10.55,10.55,0,0,0-2.18,1.74c-.17.31-.36.41-.57.31l-.26.46-.31.24a6.25,6.25,0,0,0-1,.79,4.36,4.36,0,0,1-1.14.78h-.26a1.44,1.44,0,0,1,.28-.5,2.71,2.71,0,0,1,.63-.45,3.4,3.4,0,0,0,.49-.3,5.69,5.69,0,0,1,.65-.51l.54-.39a.62.62,0,0,1,.37-.13v-.23c0-.12,0-.19,0-.23l1-.81c.44-.34.72-.57.86-.69a1.36,1.36,0,0,0,.36-.24c.21-.16.38-.23.52-.19v.34Zm.21,1.48a2.9,2.9,0,0,1-1,1.13l-1.14.72c0-.11-.11-.16-.31-.16a.51.51,0,0,0,.18-.2.86.86,0,0,1,.13-.21l0-.11a3.64,3.64,0,0,0,1.46-1.14s.13-.09.28-.13a.65.65,0,0,0,.34-.19h.05Zm-.21-1.82v0l-.52,0a3.67,3.67,0,0,1,1.41-1.37l.36,0a1.5,1.5,0,0,1-.83.84Zm.21.16-.1.12-.11.06v-.29C128.87,168.13,128.94,168.17,129.08,168.16Zm1.09.3a1.74,1.74,0,0,0,.34-.38c.16-.22.3-.33.44-.33H131a1.54,1.54,0,0,1-.26.69l-.36,0Zm1.67-3.26c.2-.51.5-.71.88-.61a1.66,1.66,0,0,1-.62.77h-.26S131.8,165.31,131.84,165.2Zm2.65-1.82-1.41,1.2h-.36a2,2,0,0,1,.88-1.12,3.1,3.1,0,0,0,.57-.48l.32-.35c.1-.12.15-.1.15.05s.11.23,0,.23A.84.84,0,0,1,134.49,163.38Zm-1.41,2.69c.28-.51.57-.71.89-.61a6.89,6.89,0,0,1-.63.77h-.26C133,166.16,133,166.11,133.08,166.07Zm.89-.78a1.32,1.32,0,0,1,1-.78A1.21,1.21,0,0,1,134,165.29Zm2.39-3.86c.1.11.12.16,0,.17a.32.32,0,0,1-.21.35l-.47.41c-.2.13-.22.3,0,.52a2.11,2.11,0,0,1-.21.3c-.1.11-.17.1-.2-.06h-.06v-.06a.41.41,0,0,0-.07-.23.29.29,0,0,1-.08-.16c0-.16,0-.25.05-.29a1.41,1.41,0,0,1,1.09-1Zm3.58-2.2a1.27,1.27,0,0,1-1,.67c-.11,0-.26.1-.47.3a1.85,1.85,0,0,1-.47.36l-.16.12s0-.07-.1-.11-.1-.07-.1-.11,0-.11,0-.23a.35.35,0,0,0,.15-.29,28.38,28.38,0,0,0,3.33-2.35,1.52,1.52,0,0,1,1-.38.68.68,0,0,1-.42.41,4.17,4.17,0,0,0-1,.78,1.38,1.38,0,0,1-.39.48A4.26,4.26,0,0,0,139.94,159.23Zm3.12-2.86a.66.66,0,0,1-.36.47l-.57.37a1.2,1.2,0,0,1,.05-.52,1.5,1.5,0,0,0,.36-.19A.75.75,0,0,1,143.06,156.37Z"/>
      <path class="cls-1" d="M172.74,161.28a1.61,1.61,0,0,0-1.15.73,2.51,2.51,0,0,0-1.51,1.08,31.46,31.46,0,0,0-3.27,1.55.62.62,0,0,0-.1.24l.2.16.47-.19c.21-.08.4-.17.57-.25a3,3,0,0,1,.52-.19v.06h-.05a2.38,2.38,0,0,0-1.35,1.14h-.16a.68.68,0,0,0-.64.34,2.51,2.51,0,0,1-.39.44l-1.51.63a9.87,9.87,0,0,1-3.22,1.55,10.7,10.7,0,0,0-1.07.24l-1.48.37-.52,0c-.38.32-1.06.33-2,0a2.14,2.14,0,0,1-1.45-1.15,1,1,0,0,0-.08-.31,3.3,3.3,0,0,1-.13-.37c-.76-.84-1-2.15-.62-3.92a6.62,6.62,0,0,1,.31-1.3c.17-.56.27-.9.31-1V161c-.1-.11-.17-.12-.21,0l-3.69,3c-.62.4-1.32.91-2.08,1.51-1.42,1.19-2.2,1.84-2.34,1.92s-1.17.88-2.8,2a1.21,1.21,0,0,0-.24.13.56.56,0,0,1-.28.12l-1.72.07a2.31,2.31,0,0,1-1.5-.83,4.18,4.18,0,0,1-.63-2,4,4,0,0,1,.37-1.78c.1-.16.3-.45.59-.88a11.86,11.86,0,0,0,.65-1q.59-.71,3.43-4a40.42,40.42,0,0,1,3.59-3.22,13.6,13.6,0,0,1,3.59-1.73,1.56,1.56,0,0,1,1.42.06,2.28,2.28,0,0,1,1.23.93,1.14,1.14,0,0,1,.15.36.32.32,0,0,1,0,.32.22.22,0,0,1-.26.06,1.4,1.4,0,0,0-1-.1l-.86.17a4.52,4.52,0,0,0-.75.32l-.65.31a19.5,19.5,0,0,0-3.22,2.86l-1.82,2.07a8.12,8.12,0,0,0-.83.83c-.28.32-.58.67-.89,1.07s-.55.68-.72.88a.73.73,0,0,0-.29.53.81.81,0,0,1-.24.52c-.65.75-.95,1.18-.88,1.29l.11,0a.91.91,0,0,0,.41-.1,2.76,2.76,0,0,0,.44-.24l.39-.22a30.81,30.81,0,0,0,4.32-3.07q1.5-1.09,4.41-3.49c.94-.79,2-1.61,3.23-2.46a1.28,1.28,0,0,0,.33-.21.83.83,0,0,1,.24-.16.42.42,0,0,1,.31-.12,1.22,1.22,0,0,0,.81.51,4.33,4.33,0,0,1,.64.18s.13.09.37.16c-.11.15-.07.3.1.45s.26.28.26.39a1.4,1.4,0,0,0,0,.52c0,.26,0,.4-.1.4a3.58,3.58,0,0,0-.24,1,5.52,5.52,0,0,1-.13.81,23.48,23.48,0,0,0-.93,2.38,7.26,7.26,0,0,0-.52,1.45,1.21,1.21,0,0,1-.23.58c-.16.23-.19.42-.08.57a3.65,3.65,0,0,0,1.3.13,10,10,0,0,0,3.89-1.06l2.81-1.48q7.59-3.48,8.47-3.8l2.08-.65a.77.77,0,0,0,.42-.13l.1.16-.05.23-.21.24a8.33,8.33,0,0,0-2.75.85v.05a3.32,3.32,0,0,0,.67.18,3.13,3.13,0,0,1,.52.12A1.5,1.5,0,0,0,172.74,161.28ZM148.67,163l.11-.12h-.11Zm.21-.24c.11,0,.16-.1.16-.29C148.93,162.45,148.88,162.54,148.88,162.73Zm.21-.29c.41,0,.64-.2.67-.54C149.56,161.91,149.33,162.09,149.09,162.44Zm.78-.54a.64.64,0,0,0,.73-.6C150.32,161.31,150.08,161.51,149.87,161.9Zm.88-.72c.45,0,.69-.18.73-.49C151,160.71,150.79,160.87,150.75,161.18Zm.73-.49a.87.87,0,0,0,.78-.65A.82.82,0,0,0,151.48,160.69Zm.83-.66q.42,0,.78-.6Q152.41,159.58,152.31,160Zm.78-.6a.8.8,0,0,0,.78-.6Q153.41,158.79,153.09,159.43Zm.78-.66a.56.56,0,0,0,.73-.54A.73.73,0,0,0,153.87,158.77Zm.88-.72.06-.05h-.06Zm7,8.9a3.8,3.8,0,0,1,.91-.46,2.84,2.84,0,0,0,1-.64l-1.14,0c-.42.09-1,.26-1.77.5s-1.23.38-1.4.42l-.11.06a.84.84,0,0,1-.21.18v.11s0,.06.11.06,0,.05.1.05.38-.14.73-.28a2.32,2.32,0,0,1,.75-.23,2.76,2.76,0,0,1,.86.2Zm2.28-2.72h.11c0-.11-.05-.17-.16-.17h-.1Zm.37,1.65v-.06a.21.21,0,0,0,0-.12C164.35,165.71,164.33,165.77,164.37,165.88Zm.67-.2a.22.22,0,0,0,.06-.17l-.06-.06,0,0q-.36,0-.36.3Zm0-1.83v-.11h-.15Zm.52-.19c.17,0,.26-.12.26-.35l-.31.07a.55.55,0,0,0-.42.3Zm1.66-.8v-.12a1.28,1.28,0,0,0-1.29.56A1.38,1.38,0,0,0,167.17,162.86Zm0-.17a1.23,1.23,0,0,0,1.3-.57A1.58,1.58,0,0,0,167.17,162.69Zm1.3,1.72a.15.15,0,0,1,.11-.06Zm.16-2.29a.8.8,0,0,0,.73-.43l-.63,0C168.66,161.71,168.63,161.85,168.63,162.12Zm.73-.43a5.76,5.76,0,0,0,2.28-.77h.06a3.75,3.75,0,0,0-2.34.71Zm1.09.19.1.05v-.06Zm2.44-1.41.47,0a.69.69,0,0,0-.21.41h-.05Q172.78,160.65,172.89,160.47Zm.62-.14-.1.12A.11.11,0,0,1,173.51,160.33Z"/>
      <path class="cls-1" d="M193.52,157.93c.07,0,.11.15.11.34a2.88,2.88,0,0,1-.42.93,14,14,0,0,1-2.23,2.15,17.23,17.23,0,0,0-2.24,2.08,3,3,0,0,1-2.49,1.12.87.87,0,0,1-.78-.43c0-.11-.09-.25-.16-.42a1.07,1.07,0,0,1-.1-.37,4,4,0,0,1-.47-2.78c0-.08-.05-.15-.16-.23a.24.24,0,0,0-.26,0l-.78.37a6.16,6.16,0,0,0-.78.43c-.34.24-1,.73-2,1.48s-1.85,1.37-2.49,1.89a24.24,24.24,0,0,0-1.85,1.67l-.93.72c-.11.12-.26.28-.47.48s-.36.35-.47.47a12,12,0,0,0-1.77,2.18s-.38.5-1,1.39a19.23,19.23,0,0,0-1.41,2.08,4.4,4.4,0,0,1-.49.79,3.64,3.64,0,0,0-.44.67c-.18.35-.4.46-.68.31l-.18-.07a.3.3,0,0,1-.13-.09h-.1a2.62,2.62,0,0,0-.39-.56,2.62,2.62,0,0,1-.39-.56v-1.31a3.47,3.47,0,0,1,.41-.82c1.6-3.26,2.44-5,2.55-5.18.8-1.56,1.78-3.64,3-6.24.69-1.59,1.09-2.53,1.2-2.84a1.11,1.11,0,0,1,.7-.69.92.92,0,0,1,1,.11l.83.48c.24.42.28.7.1.86a6.21,6.21,0,0,0-.75,1.46c-.26.66-.44,1.08-.54,1.28l-1.41,2.85s-.05,0-.05.12a.29.29,0,0,0,.05.17h.16a42.85,42.85,0,0,1,6.81-5.23c.41-.24,1-.58,1.89-1s1.5-.77,1.95-1a1.87,1.87,0,0,1,1.38-.19,2.13,2.13,0,0,1,1.17.73l.83.94a.87.87,0,0,1-.16,1.2,3.21,3.21,0,0,0-.67.94,2.6,2.6,0,0,1-.42.91,2.41,2.41,0,0,0-.41.9,15.7,15.7,0,0,0,3.37-2.19C192.17,158.84,193.21,158.1,193.52,157.93Z"/>
      <path class="cls-1" d="M218,140.21a.67.67,0,0,1-.63.53v-.51c-.76.45-1.17.87-1.24,1.25a1.68,1.68,0,0,0,1-.32s0-.1.11-.18a.79.79,0,0,0,.15-.24v.46c-.07.08-.15.2-.26.36a4.59,4.59,0,0,1-.33.44,1,1,0,0,1-.34.27.83.83,0,0,0-.11.17,1.28,1.28,0,0,0-.07.21.39.39,0,0,0,0,.14c-.17.2-.46.5-.86.92s-.74.8-1,1.15a4.8,4.8,0,0,0-.65,1c0,.15,0,.23-.15.23q-5.72,6.57-17.41,14.78L195,162.23a2.06,2.06,0,0,1-.52.76,3.75,3.75,0,0,0-.52.59,4,4,0,0,1-.24.52,3.09,3.09,0,0,0-.23.53,2.13,2.13,0,0,1-.34.78,2.75,2.75,0,0,0-.34.67,2.22,2.22,0,0,1-.23.58c-.12.24-.22.43-.29.59a1,1,0,0,1-.13.29,1.52,1.52,0,0,1-.18.29.49.49,0,0,1-.15.12c-.24.24-.23.45.05.63v0a2.77,2.77,0,0,0-.36,1.62c0,.65.26,1,.77,1.06a8.44,8.44,0,0,0,3,0,16.53,16.53,0,0,0,4.62-2.23q2.72-1.76,5.56-3.93c.35-.28.95-.78,1.8-1.52a17.25,17.25,0,0,1,1.95-1.53l.23-.27a1.29,1.29,0,0,1,.29-.27c.07-.27.2-.4.41-.41a.72.72,0,0,0,.78-.49,2.21,2.21,0,0,1,1.09-1,15.38,15.38,0,0,0,2.19-1.86,1.82,1.82,0,0,1,1.5-.45c.24,0,.37,0,.37.16a.47.47,0,0,0,.15.3,1.48,1.48,0,0,0,.29.17.62.62,0,0,1,.23.13c.18,0,.21.22.11.68l-.47.48c-.18.2-.3.29-.37.3a2.4,2.4,0,0,0-1.66.92c-1.07.76-1.8,1.3-2.18,1.62l-2,1.68a1.59,1.59,0,0,0-.52.48.69.69,0,0,1-1,.09s0,.09-.1.15a.25.25,0,0,0-.1.2c.14.26,0,.52-.31.76a3.57,3.57,0,0,0-1.41,1.14,3.28,3.28,0,0,1-1.14.78L205,168a11.26,11.26,0,0,1-1.3,1,16.89,16.89,0,0,1-1.51,1.26,20.85,20.85,0,0,1-2.29,1.4c-.31.2-.88.53-1.71,1a5.13,5.13,0,0,1-1.72.64,12.38,12.38,0,0,1-1.92.3c-2.29-.11-3.81-1.4-4.57-3.89a4.2,4.2,0,0,1,0-1.66,6.68,6.68,0,0,1,.78-2.26,9.09,9.09,0,0,1,.73-1.63c.1.15.19.15.26,0a.83.83,0,0,0,.25-.64h-.25c-.07-.26.08-.57.46-.93.07-.27.18-.43.31-.47l-.05-.17.16.17c.07.22.14.22.21,0h-.06l.06-.17V162a1.08,1.08,0,0,0,.2-.7h-.2a5.9,5.9,0,0,1,1.3-2.39c.1.11.15.18.15.22a.25.25,0,0,0,.11-.23h-.26a.75.75,0,0,1,.62-.83l-.16-.1h.16v.17c.1,0,.16-.06.16-.18h-.16c0-.27,0-.42.16-.46V158h0l0,.12a.72.72,0,0,0,.25-.64H195c0-.19.07-.29.2-.3v.29s.09-.05.16-.15.12-.15.16-.15h-.32a1.08,1.08,0,0,1,.58-.93c.07.22.15.22.26,0h-.26a.59.59,0,0,1,.26-.53v.52a.7.7,0,0,0,.31-.53.52.52,0,0,0,.26-.41l.15-.23h-.15v-.23a6.56,6.56,0,0,1,1.82-2.81,1.6,1.6,0,0,1,.83-1.29,1.23,1.23,0,0,1,.83-1.12v.4l.05.06.11-.06a1.21,1.21,0,0,0,.1-.41h-.26c0-.19.09-.29.26-.29v.28c.07-.19.12-.29.16-.29h-.16v-.23a3.89,3.89,0,0,1,1.25-1.54.21.21,0,0,1,0,.12c.1,0,.16-.08.16-.12h-.21v-.34c.14-.19.37-.54.7-1a13.26,13.26,0,0,1,.8-1.08c.56-.6,1.46-1.6,2.71-3s2.21-2.49,2.91-3.2a15.46,15.46,0,0,1,2.54-2.67l1.35-1.11c.63-.5,1.14-.89,1.54-1.17l1.45-1a16.84,16.84,0,0,1,1.64-1,4.27,4.27,0,0,1,1.77-.29,2.67,2.67,0,0,1,1.56.4,2.49,2.49,0,0,1,.83.65,1.32,1.32,0,0,1,.1,1.14,5.85,5.85,0,0,1-.73,1.4l-.93,1.47a.82.82,0,0,1-.42.44,1.22,1.22,0,0,0-.41.33c-.07,0-.11.1-.11.29h.26a.15.15,0,0,0,.11-.06c.1-.08.17,0,.21.17l-.06.23q0,.22-.36.24c-.35-.18-.64,0-.88.49V139h.15a.8.8,0,0,0,.26-.12s.09,0,.16.11l-.11.12a1.62,1.62,0,0,1-.62.13c-.17,0-.29,0-.34.13a2.58,2.58,0,0,0-.13.52V140s-.07.12-.21.24Zm-26.19,27.11s.06,0,.1-.09.07-.09.1-.09l-.31-.16h-.15v-.86a.24.24,0,0,0-.21.24V167c-.21,0-.31.22-.31.52h.2s.07,0,.11.1l.05.12.16-.24A1.73,1.73,0,0,0,191.76,167.32Zm.72-2.2q.63-.42,0-.57V164c-.14.09-.21.28-.21.58-.34,0-.51.27-.51.77a.68.68,0,0,0,.51-.25.18.18,0,0,0,.11.17l.05,0A.39.39,0,0,0,192.48,165.12Zm.37-1.73c.41-.28.58-.57.52-.88C193,162.53,192.78,162.82,192.85,163.39Zm2.65-4,.15-.07a.16.16,0,0,0-.15-.11v-.51a.54.54,0,0,0-.52.71h.2c0-.12.11-.18.32-.19Zm1.09-2.56a.89.89,0,0,0-.57.88,2.42,2.42,0,0,1,.46-.19A1.7,1.7,0,0,1,196.59,156.79Zm0,0c.21,0,.26-.24.15-.58A.44.44,0,0,0,196.59,156.79Zm1-1.75a.56.56,0,0,0-.34.32.69.69,0,0,0-.08.49C197.44,155.77,197.58,155.49,197.58,155Zm22.29-21.77v-.63a.51.51,0,0,0-.44-.38.54.54,0,0,0-.55.25,8.86,8.86,0,0,1-2,1.67,13.44,13.44,0,0,0-1.15.79,19.31,19.31,0,0,0-1.61,1.26.88.88,0,0,0-.23.24c-.09.12-.16.17-.23.18a6.58,6.58,0,0,0-1.46,1.19,13.12,13.12,0,0,1-1,1A6.37,6.37,0,0,0,210,140c-.5.61-.87,1-1.11,1.28a3.64,3.64,0,0,1-.55.85c-.23.25-.5.55-.83.89s-.57.58-.7.74l-.19.2a1.57,1.57,0,0,0-.18.27,12.63,12.63,0,0,1-1,1.35c-.1.16-.29.41-.57.76s-.46.61-.57.77a1.07,1.07,0,0,1-.1.49,2,2,0,0,1-.42.5l-.36.36a1.34,1.34,0,0,1-.26.41,1.09,1.09,0,0,0-.26.41,2.39,2.39,0,0,0-.42.7,3,3,0,0,0-.36.36l-.31.35a1.92,1.92,0,0,0-.24.41,1.6,1.6,0,0,1-.23.41.67.67,0,0,0-.21.41.74.74,0,0,1-.1.4,2.26,2.26,0,0,1-.29.38,2.07,2.07,0,0,0-.28.39,27.37,27.37,0,0,0-2.24,3.06,2.22,2.22,0,0,0-.34.67,1.68,1.68,0,0,1-.39.67,1.42,1.42,0,0,1-.18.38.85.85,0,0,0-.13.49.57.57,0,0,0,.44-.1,2,2,0,0,0,.47-.45l.29-.36q3.94-3,5-3.9a62.17,62.17,0,0,0,5.71-5.76c.52-.67,1.45-1.68,2.78-3.05a36.72,36.72,0,0,0,2.84-3.16c.44-.56,1-1.36,1.79-2.42s1.24-1.74,1.48-2a5.48,5.48,0,0,0,.44-.71,5.7,5.7,0,0,0,.34-.78,5.93,5.93,0,0,1,.31-.73A11,11,0,0,0,219.87,133.27ZM198.2,154c-.42.32-.62.6-.62.82C198,154.81,198.2,154.54,198.2,154Zm.67-1.11a1.47,1.47,0,0,0-.67,1.11A1.25,1.25,0,0,0,198.87,152.93Zm.37-.3h.26V152A.8.8,0,0,0,199.24,152.63Zm.83-1.23a.66.66,0,0,0-.57.59A.85.85,0,0,0,200.07,151.4Zm1,17.64a2.7,2.7,0,0,0-1.35,1l.41,0a13.18,13.18,0,0,0,2.7-1.61c1.15-.83,1.82-1.3,2-1.42s.81-.63,1.59-1.18a9.83,9.83,0,0,0,1.74-1.46l.18,0,.28,0a1.32,1.32,0,0,1,.21-.46q.42-.3,1.17-.93c.5-.42.86-.71,1.07-.87s.36-.33.67-.63a6,6,0,0,1,.78-.63,4.22,4.22,0,0,0,1.41-1c.1-.2.17-.33.2-.41a1.56,1.56,0,0,0-.52.16,1.09,1.09,0,0,1-.41.16c-.21.2-1.09.94-2.65,2.22-.83.64-1.39,1-1.66,1.2s-.78.57-1.69,1.21a16.8,16.8,0,0,0-2,1.56,13.68,13.68,0,0,1-1,.93c-.39.3-.82.62-1.3,1s-.85.61-1.09.81A1.41,1.41,0,0,1,201.06,169Zm-.47-18.58a.84.84,0,0,0,.39-.07c.05,0,.08-.17.08-.4C200.75,150,200.59,150.2,200.59,150.46Zm1-1.18a2.53,2.53,0,0,1,.78-.49v-.68a1.25,1.25,0,0,1-.19.15l-.18.15-.15.15a.83.83,0,0,0-.16.17,1,1,0,0,0-.08.24A1.51,1.51,0,0,0,201.58,149.28Zm1.09-1.47a.55.55,0,0,0,.26-.64A.51.51,0,0,0,202.67,147.81Zm7.85.45c.48.21.81.05,1-.49l-.2-.28A4.37,4.37,0,0,0,210.52,148.26Zm2.33-2.09c.39-.16.58-.34.58-.53a.73.73,0,0,1-.32-.28.84.84,0,0,0-.2.13.89.89,0,0,0-.24.23.55.55,0,0,0-.08.29C212.77,146,212.85,146.1,212.85,146.17ZM214,145h-.26v-.17s-.11.06-.21.18h.21v.28C213.76,145.28,213.84,145.18,214,145Zm0,0a6.7,6.7,0,0,0,.78-1.23.86.86,0,0,1-.21-.17l-.83.55V144h-.11l.11.17v.57Zm.67,13.87c-.31.09-.47.25-.47.48a.52.52,0,0,0,.63-.31l.1-.12a.34.34,0,0,1-.13,0Zm1-17a.12.12,0,0,1,.1.06l.06.05c0,.2-.19.29-.47.31a.49.49,0,0,0-.21.52.58.58,0,0,0,.05.17.35.35,0,0,1,.05.17c.07,0,.2-.1.37-.3a1.45,1.45,0,0,1,.78-.6.77.77,0,0,1-.11-.31c0-.17-.1-.26-.2-.25s-.16.1-.26.29v-.28l-.06.11A.12.12,0,0,1,215.66,141.89Z"/>
      <path class="cls-1" d="M236.24,158l-3.17,2.4s-.21,0-.62.14l-1.25.39-.62.2a.65.65,0,0,1-.63.42,11,11,0,0,0-2,.25,25.29,25.29,0,0,1-2.81.21l-.47,0h-.65a.67.67,0,0,0-.23,0l-.18.1a.57.57,0,0,0-.21.15,2.8,2.8,0,0,0-.21.26l-.23.32a4.29,4.29,0,0,0-.26.44l-1.82,2.19-.21.35a23.93,23.93,0,0,0-2,1.65,19.61,19.61,0,0,1-2.28,1.77,6.92,6.92,0,0,1-3.38,1.1,3.1,3.1,0,0,1-2.39-1.14,3.87,3.87,0,0,1-.88-2.52,6.4,6.4,0,0,1,.31-1.55,13.44,13.44,0,0,1,2.49-5.65c.14-.19.39-.56.76-1.11a10.9,10.9,0,0,1,.91-1.24,2.07,2.07,0,0,0,.67-1.62,2.75,2.75,0,0,1,.36-1.62,7.81,7.81,0,0,1,1.15-1.24,14.4,14.4,0,0,1,2.08-1.05,1.57,1.57,0,0,1,1-.27,3.1,3.1,0,0,1,1.46-.05,3,3,0,0,0,1.14-.21.86.86,0,0,1,.52-.11,2,2,0,0,1,.47.07l.47.18a4,4,0,0,0,.47.18.28.28,0,0,1,.2.31.42.42,0,0,1-.2.38c-.21,0-.26.07-.16.18a6.24,6.24,0,0,0,.73,1.12,4.79,4.79,0,0,1,.83,4.43c-.42,1.27-.64,1.95-.68,2a4.9,4.9,0,0,0,2.55-.1c.62-.14,1.89-.45,3.79-.94l2.34-.72a2.8,2.8,0,0,0,1.09-.72,10.43,10.43,0,0,1,1.3-.28c.07-.08.18,0,.31.39Zm-15.64,4.18a.36.36,0,0,0,0-.25c0-.1-.09-.14-.16-.14l-.1-.05a.38.38,0,0,1-.16-.17,7.17,7.17,0,0,1-4.42-2.87c-.27-.29-.45-.31-.52,0a27.05,27.05,0,0,0-1.19,2.45c-.52,1.24-1,2.33-1.51,3.26a15.51,15.51,0,0,0-.54,1.48c-.23.67-.41,1.17-.55,1.48s0,.59.47.72l.83,0a2.88,2.88,0,0,0,1.46-.39,23.88,23.88,0,0,0,5.09-4A13,13,0,0,1,220.6,162.13Zm3-6.17a3.13,3.13,0,0,0-1-3.05,1.37,1.37,0,0,0-.41-.39h-.32a11.23,11.23,0,0,0-2,1.51c-.18.12-.85.7-2,1.73L216.65,157q-.42.36,0,.69l.18.22a1.07,1.07,0,0,1,.18.28,3.93,3.93,0,0,0,1.77,1,12.83,12.83,0,0,0,2.75.64.9.9,0,0,0,1-.49A7.83,7.83,0,0,0,223.61,156Z"/>
      <path class="cls-1" d="M253.13,159.32c-.17.24-.35.25-.52,0-.45,0-.73.09-.83.21h.15c0,.08,0,.12-.1.12h.31v.17a9.15,9.15,0,0,1-1,.72,5.57,5.57,0,0,0-1.45,1,1.65,1.65,0,0,0-.47.08c-.21.12-.57.34-1.09.67s-.92.58-1.2.79c-.17,0-.27.1-.28.29s-.1.29-.24.3a1.32,1.32,0,0,0-.33.24,1.55,1.55,0,0,1-.5.3,20.49,20.49,0,0,1-2,1.56,1,1,0,0,0-.47.13,4,4,0,0,0-.47.36,2.45,2.45,0,0,1-.36.3,1,1,0,0,0-.57,1.06c.07.87.12,1.36.15,1.48a4.6,4.6,0,0,1-.31,2.81,7.62,7.62,0,0,1-2,3.05c-.25.28-.94,1-2.08,2.08a2.16,2.16,0,0,1-1.25.79l-.65.17a2.53,2.53,0,0,0-.65.22c-.52.52-1.32.54-2.39.09-.14-.07-.42-.2-.83-.37a7.6,7.6,0,0,1-.89-.43,1.66,1.66,0,0,1-1.19-1.38,3.05,3.05,0,0,1,.1-2.35c0-.08.07-.16.11-.23a1.68,1.68,0,0,0,.21-.3,18.92,18.92,0,0,1,3.48-2.93l1.76-1.38c.45-.28,1.12-.77,2-1.45s1.56-1.18,2.05-1.5a.57.57,0,0,0,0-.81,9.22,9.22,0,0,0-.57-1.09,10.65,10.65,0,0,1-.57-1c-.18-.33-.49-.94-.94-1.82s-.81-1.54-1.09-2a4.91,4.91,0,0,1-.52-2.27,2.17,2.17,0,0,1,.52-1.74,4.06,4.06,0,0,1,1.66-1.2l1.15-.22a4.54,4.54,0,0,1,1.61-.11,4.21,4.21,0,0,1,3,1.6.59.59,0,0,1-.05.92,1.51,1.51,0,0,1-2.08-.27c-.11-.11-.19-.1-.26,0q-.21.81-.78.6c-.21-.14-.64-.1-1.3.11a4.07,4.07,0,0,0-1,.89,1,1,0,0,0-.36,1.22,6.55,6.55,0,0,0,.88,2.48c1,1.65,1.56,2.71,1.77,3.2s.43.5.88.25a39.33,39.33,0,0,1,4.42-2.79.65.65,0,0,1,.47-.25l-.13.26a.63.63,0,0,0-.08.21,2.09,2.09,0,0,0,1.2-.51s.1-.06.2-.18-.08,0-.15,0a.49.49,0,0,0-.18-.05c-.06,0-.08,0-.08.12a1.19,1.19,0,0,0-.37.1,1.4,1.4,0,0,1-.41.1c.17-.31.27-.47.31-.47a48.2,48.2,0,0,0,4.52-2.45l.52,0v.4c-.31.08-.49.19-.52.3a.72.72,0,0,0,.62-.31c.07-.08.07-.21,0-.4a.37.37,0,0,1,.11-.23,16.45,16.45,0,0,1,2.65-1.07,1.46,1.46,0,0,1,1.09.36c.24.18.33.37.26.56l-.42.24-.83.26c-.41.17-.72.17-.93,0a.17.17,0,0,0-.24,0,.54.54,0,0,0-.18.27h-.05a.57.57,0,0,0-.52.3Zm-14.34,13.92a5.8,5.8,0,0,0,1.5-5.26,27.78,27.78,0,0,0-2.39,1.75,16.6,16.6,0,0,1-3.43,2.76,8.8,8.8,0,0,0-2.54,2.32l-.11.18a.6.6,0,0,0-.1.23c-.07.12,0,.17.15.17a1.94,1.94,0,0,0,.6.2l.65.15a3.36,3.36,0,0,0,1.72-.06,1.55,1.55,0,0,0,.33-.1,1.24,1.24,0,0,1,.39-.1,4.22,4.22,0,0,0,2.5-1.52,1.56,1.56,0,0,1,.36-.39A2.79,2.79,0,0,0,238.79,173.24Zm.36-6.42v.06l0,.11a.83.83,0,0,1,.24-.15.89.89,0,0,0,.28-.21s0-.06-.1,0A.54.54,0,0,0,239.15,166.82Zm2.34-1.52a.76.76,0,0,0,.78-.6A.62.62,0,0,0,241.49,165.3Zm.83-.66a1.45,1.45,0,0,0,1.25-.9A2.15,2.15,0,0,0,242.32,164.64Zm2.34-.94c.31,0,.47-.13.47-.36l-.47,0v-.23a1,1,0,0,0-1,.61l.78,0,.26-.35Zm.52-.36c.48.17.83,0,1-.61h-.42c0,.23-.24.35-.62.37a.56.56,0,0,1,.57-.37v-.17c-.59-.09-.95.1-1.09.56l.52,0Zm1-.61c.34,0,.55-.08.62-.2C246.49,162.43,246.29,162.5,246.22,162.73Zm.62-.31a.2.2,0,0,0,.26,0,.33.33,0,0,0,.16-.32C247,162.05,246.88,162.15,246.84,162.42Zm1-.61c.31.06.48,0,.52-.25C248,161.57,247.86,161.66,247.83,161.81Zm.52-.25a.54.54,0,0,0,.57-.42A.54.54,0,0,0,248.35,161.56Zm1.19-.73a.44.44,0,0,0,.42-.24h-.42a2.08,2.08,0,0,1,.11-.57c-.38-.07-.7.13-.94.6l.83,0Zm1.51-1.26v-.17h-.21a.18.18,0,0,0-.15.06h-.05c0,.08.1.11.2.11a.21.21,0,0,0,.21.11v.17a1.13,1.13,0,0,1,.26,0,.55.55,0,0,0,.31,0c.07,0,.12-.11.16-.26v-.11Z"/>
      <path class="cls-1" d="M290.86,129.55l-.78,0q.15-.18.21-.18a4.7,4.7,0,0,0,1.19-.27l1.09,0a.88.88,0,0,0,.45.18,2.57,2.57,0,0,0,.54,0l.47-.05a.26.26,0,0,0,.05-.17c-.1,0-.15,0-.15-.05s-.06,0-.06-.11v-.06l1.2-.05s.08.07.13.2.13.18.23.13a.9.9,0,0,1,.21-.12l.16-.06c.1,0,.17,0,.2.05a5,5,0,0,0,.84.2,5.26,5.26,0,0,1,.83.19,11.49,11.49,0,0,1,1.82,1.08,5.39,5.39,0,0,1,1.35,1.78c0,.08.14.35.31.82s.29.84.36,1.1a6.3,6.3,0,0,1,0,2.29s-.05.28-.15.72a4.44,4.44,0,0,0-.16,1c0,.12-.09.31-.15.58a2.77,2.77,0,0,0-.11.63.42.42,0,0,1-.08.18.35.35,0,0,0-.07.17,1.29,1.29,0,0,1-.11.69,1.21,1.21,0,0,1-.21.32,2.06,2.06,0,0,0-.2.32,1.14,1.14,0,0,0,0,.52.65.65,0,0,1-.21.87s-.09,0-.16.12a.29.29,0,0,1-.21.12c-.17.08-.19.22-.05.4a2.21,2.21,0,0,1,.11.45c0,.12-.07.18-.11.18s-.1,0-.1,0a.37.37,0,0,1-.05-.17q-.11,0-.21.18c-.11,0-.16,0-.16.12a1,1,0,0,1-.36.81.56.56,0,0,0-.05.75s0,.12,0,.25a.31.31,0,0,1-.18.27c0-.08,0-.12-.05-.11a.42.42,0,0,0-.11-.29.44.44,0,0,1,0,.15.39.39,0,0,0,0,.14v.11h.16a.21.21,0,0,1-.05.12l-.06.05a.25.25,0,0,1-.05-.17h-.15a.26.26,0,0,0-.13.21l-.06.26a1.49,1.49,0,0,0,0,.17.38.38,0,0,1-.26.18,2.26,2.26,0,0,0-.31.12.42.42,0,0,0-.11.47.65.65,0,0,1-.05.69c0,.07-.08.18-.13.31a1.43,1.43,0,0,0-.08.26h-.2a.54.54,0,0,0-.21-.05c-.07,0-.11.08-.11.12v.17a2,2,0,0,1,.52.15c.11,0,.16,0,.16.06s-.12.12-.16.12a1.38,1.38,0,0,0-.72.42q-.1,0,0,.12c0,.15.05.19.15.11l.16-.07.21-.12a21,21,0,0,0,2.8-.9h.11l.1.06V149a3.1,3.1,0,0,0-.62.28,1.46,1.46,0,0,1-.84.24.89.89,0,0,0-.62.25,3.28,3.28,0,0,1-.65.25l-.6.19a2.79,2.79,0,0,0-.93.61,9.49,9.49,0,0,1-1.35,1.54,1.24,1.24,0,0,1-.21.58s-.1.11-.21.21a2.54,2.54,0,0,0-.28.29,2.43,2.43,0,0,0-.24.32l-.57.71-.1.06-.19.41a1,1,0,0,1-.28.41l-.68.66-.78,1a1,1,0,0,1-.2.18.63.63,0,0,0-.21.24l-.21.21-.26.24a.26.26,0,0,0-.1.2.55.55,0,0,1-.16.26.91.91,0,0,1-.21.15.69.69,0,0,0-.15.13,3.34,3.34,0,0,1-.34.27,14.95,14.95,0,0,1-.5.44c-.06.08-.13.16-.18.24a1.06,1.06,0,0,1-.13.18,2.11,2.11,0,0,1-.52.59l-.41.41a.8.8,0,0,0-.52.36.91.91,0,0,1-.63.71c-.31.17-.41.34-.31.53-.31.35-.52.53-.62.54s-.31.09-.31.24,0,.05.15.05c-.1.12-.15.1-.15-.05a.69.69,0,0,0-.21.21,1.5,1.5,0,0,1-.16.2c-.17-.11-.33,0-.46.31a.15.15,0,0,1-.16.17,2.79,2.79,0,0,0-.78.6,5.13,5.13,0,0,1-.73.66,1.66,1.66,0,0,0-.73.77c-.24.28-.41.42-.52.42s-.15.05-.15.12a1,1,0,0,1-.39.5,3.48,3.48,0,0,0-.44.39,1,1,0,0,0-.52.33.93.93,0,0,1-.57.34,5.38,5.38,0,0,1-1.1.84c-.79.6-1.61,1.17-2.44,1.69a9.87,9.87,0,0,1-1.53.75c-.71.29-1.1.46-1.17.5h-.1c-.07,0-.59.08-1.56.23a3,3,0,0,1-1.51.17,3.39,3.39,0,0,1-2.81-1.67,8.48,8.48,0,0,1-.78-1.57.74.74,0,0,1-.15-.51,2.11,2.11,0,0,1,.15-1,2.34,2.34,0,0,1-.15-.85c.07-.27.12-.41.15-.41l.63-2.25a2.05,2.05,0,0,1,.15-.46.83.83,0,0,0,.24-.36,1,1,0,0,1,.28-.41l.05.11h.06c0-.07-.07-.11-.11-.11a1.33,1.33,0,0,1,.11-.63s.22-.48.67-1.34a10.27,10.27,0,0,1,1-1.47l.05.06a.14.14,0,0,1,.06.11.34.34,0,0,1,.15-.18H269v-.34a10.5,10.5,0,0,0,.6-1.05,9.45,9.45,0,0,1,.65-1.12l1.14-1.7,1.67-2.52a5.46,5.46,0,0,1,.31-.58l.15-.24a1.12,1.12,0,0,1,.26-.29c0-.08-.09-.21-.18-.4a2,2,0,0,0-.23-.39c0-.07-.13-.23-.29-.47a1.63,1.63,0,0,0-.39-.48,1.41,1.41,0,0,1-.26-.61c0-.08-.12-.25-.26-.51a2,2,0,0,0-.41-.56,2.24,2.24,0,0,1-.26-1,2.47,2.47,0,0,1-.26-.5,2.83,2.83,0,0,0-.08-.89,4.38,4.38,0,0,1-.13-.88,2.44,2.44,0,0,0,0-1.2,6.19,6.19,0,0,1,1-3.59,13.15,13.15,0,0,1,2.49-2.72,16.29,16.29,0,0,1,2.86-2l.88-.61a15.73,15.73,0,0,1,2.4-1.17,3.55,3.55,0,0,0,.72-.55l-.31,0a.21.21,0,0,1-.05-.12h.05c0-.08.14-.12.31-.12V133a.41.41,0,0,0,.42-.24h.21s.05-.06.05-.17h-.05a.36.36,0,0,0-.21-.05,1.61,1.61,0,0,1,.62-.42.31.31,0,0,1,.11.17c-.14.08-.16.16-.06.23h.11l1.5-.62,1.67-.7a.21.21,0,0,1,.15-.06.76.76,0,0,0,.21,0,.52.52,0,0,1,.21,0l.05-.12a.62.62,0,0,1,.11-.17.4.4,0,0,0-.16-.06c.1-.11.16-.09.16.06l.62,0a.37.37,0,0,1,.15-.06l-.05-.05a.73.73,0,0,1-.15-.11H287s0,0,0-.05a3,3,0,0,1,1.3-.39l.1-.12,1.77-.41v.23a6.93,6.93,0,0,0,1-.1C291,129.6,290.93,129.55,290.86,129.55Zm3.27,22.76a1.26,1.26,0,0,0-.1-.68.38.38,0,0,0-.47-.1,7.12,7.12,0,0,0-.67.83,1.81,1.81,0,0,1-.42.41,1.63,1.63,0,0,0-.42.42l-.15.06-.21.12a.82.82,0,0,1,.47-.76.14.14,0,0,1,.1-.06.31.31,0,0,0-.26-.1h-.31l-.1.17c-.21.05-.49.14-.84.26a6.33,6.33,0,0,0-.62.26,3.34,3.34,0,0,1-.75.25,1.9,1.9,0,0,0-.76.32l-.23.06-.29.13a1.05,1.05,0,0,1-.26,0l-.2-.05a.8.8,0,0,1-.32.07.65.65,0,0,0-.31.07,3.61,3.61,0,0,1-1.56.34l-2.28.09-2.91.1a2.75,2.75,0,0,1-1.15-.13H279a.32.32,0,0,0-.16-.05,2.61,2.61,0,0,1-.78-.17,2.66,2.66,0,0,0-.72-.18.88.88,0,0,1-.55-.29c-.22-.2-.41-.28-.54-.24a1.82,1.82,0,0,1-.52-.44.34.34,0,0,0-.47.08,17.29,17.29,0,0,0-1.25,2l-1,1.35a4.67,4.67,0,0,0-.31.44c-.1.18-.21.37-.31.59a4.94,4.94,0,0,1-.26.49,1.64,1.64,0,0,1-.26.33c-.1.1-.19.18-.26.26a9.5,9.5,0,0,1-.86,1.64c-.43.7-.73,1.23-.91,1.57a1.79,1.79,0,0,1-.23.47l-.29.47a5.35,5.35,0,0,0-.31.64,4.66,4.66,0,0,1-.78,1.52l-.05.06a.11.11,0,0,0-.05.17,5.63,5.63,0,0,1-.37,1c0,.11-.07.29-.13.54a1.75,1.75,0,0,1-.18.55,3.66,3.66,0,0,0-.26,1.62,4.39,4.39,0,0,0,.05.91.56.56,0,0,0,.42.21l.36.05a1.09,1.09,0,0,1,.32,0,1.2,1.2,0,0,0,.36,0,3.85,3.85,0,0,0,1.48-.11,8.72,8.72,0,0,1,1.38-.22c.07,0,.15-.06.26-.18.34-.09.86-.26,1.56-.52a.2.2,0,0,1,.26-.18.4.4,0,0,1,.21.08.24.24,0,0,0,.15.08l.16-.18a.28.28,0,0,1,.2-.29c.21.3.42.29.63,0l-.63,0a1,1,0,0,1,.5-.42,1.84,1.84,0,0,0,.44-.24,34.52,34.52,0,0,0,3.33-2.19h.26c-.11.31-.54.69-1.3,1.14L275.74,168l-.06.17a2.73,2.73,0,0,0,1.56-.63c.07,0,.35-.23.83-.57a3.25,3.25,0,0,1,1.2-.59.17.17,0,0,1,.16-.12,11.26,11.26,0,0,1,1.19-1c.52-.4.88-.7,1.09-.9,0,0,.05,0,.13-.06H282q0-.18.21-.18c0,.07-.07.15-.21.23v.17q.53.17.63-.42l-.42,0c.18-.31.38-.48.63-.48v.22a.55.55,0,0,0,.57-.47h-.37c0-.15.12-.23.37-.24l.21-.24c.31-.47.6-.71.88-.72v.17a.18.18,0,0,1,.15-.06l-.15-.11a.43.43,0,0,1,.1-.29,2.67,2.67,0,0,1,.29-.27,1.85,1.85,0,0,0,.23-.21.25.25,0,0,1,.21-.12l.16-.06v.23c.17,0,.26-.09.26-.24h-.26a.56.56,0,0,1,.15-.46,2.54,2.54,0,0,1,.47-.39c.21-.14.36-.25.47-.34h.15v.28l.16-.17c-.07-.08-.12-.11-.16-.11.25-.47.42-.72.52-.76s.16-.14.37,0c-.18.08-.26.16-.26.24s.15-.08.26-.24.31-.15.31-.41l-.05-.17.05-.06a5.64,5.64,0,0,1,1.09-1.24.59.59,0,0,1,.57-.42c.11-.16.17-.24.21-.24v.23c.17,0,.26-.09.26-.24h-.26c0-.15.09-.23.26-.24v.23a.42.42,0,0,0,.26-.07l1.71-2.06a.25.25,0,0,0,.11-.24.19.19,0,0,1-.18-.1.16.16,0,0,1,0-.23.85.85,0,0,0,.34-.36l.23-.35.37-.36v.52l.41-.42a2.6,2.6,0,0,0,.42-.44A1.79,1.79,0,0,1,294.13,152.31Zm-26.24,11-.05.06.05.11Zm0-1.6v.06h.1Zm.31,1.08c-.1,0-.12.06-.05.17l.05-.06Zm.21-.47c-.11,0-.16.2-.16.46C268.36,162.78,268.41,162.63,268.41,162.36Zm.15-.18c-.07,0-.1.07-.1.18S268.6,162.3,268.56,162.18Zm.21-.29v-.17C268.6,161.73,268.6,161.78,268.77,161.89Zm.16-.41c0,.12,0,.18-.11.18C269,161.65,269,161.6,268.93,161.48Zm.05-1.6-.05.12H269Zm.21,1.19-.05,0v.11S269.19,161.11,269.19,161.07Zm.15-1.83,0,.11C269.36,159.35,269.38,159.31,269.34,159.24Zm.06,1.25a.46.46,0,0,0-.06.18S269.4,160.61,269.4,160.49Zm.15-1.72-.05.06h.05Zm0,1.6s0,.06,0,.06,0,0,0,.06S269.62,160.45,269.55,160.37ZM270,158l-.05.18.05-.06Zm.1,1.37c-.14,0-.17.07-.1.18a.16.16,0,0,1,0-.12Zm.21-.46c-.07,0-.14.19-.21.46C270.21,159.34,270.28,159.18,270.28,158.92Zm2.18,11.93a2,2,0,0,0,.94-.49,1.52,1.52,0,0,1-.68-.09c-.07,0-.2,0-.39,0a1.8,1.8,0,0,1-.39.1l-1.45.05h-.11a.37.37,0,0,1-.15.06c-.07,0-.11,0-.11.06a.1.1,0,0,1,.11.11l.62.21Zm-2.18-13.31c-.14,0-.16.07,0,.18A.24.24,0,0,1,270.28,157.54Zm.05-.17a.26.26,0,0,1-.05.17C270.42,157.54,270.44,157.48,270.33,157.37Zm.16,1.25a.64.64,0,0,0-.21.3C270.35,158.91,270.42,158.82,270.49,158.62Zm.1-.12s0,.08-.1.12C270.63,158.62,270.66,158.58,270.59,158.5Zm.26-1.84c-.1,0-.12.07-.05.18Zm.16-.23a.05.05,0,0,1-.06.06s-.05,0-.05.06C271.08,156.54,271.11,156.5,271,156.43Zm.05,1.31c-.11,0-.12.07-.05.18A.3.3,0,0,0,271.06,157.74Zm.15-.23,0,.17C271.23,157.68,271.25,157.62,271.21,157.51Zm.21.56h-.05l.05.06Zm.11-1c-.11,0-.14.1-.11.18C271.49,157.14,271.53,157.08,271.53,157Zm.2-.24a.35.35,0,0,0-.2.24C271.66,157,271.73,157,271.73,156.8Zm-.1-1.25-.05.06h.05Zm.16,1.08a.38.38,0,0,1-.06.17C271.87,156.8,271.89,156.74,271.79,156.63Zm.31-1.67v-.17C271.92,154.79,271.92,154.85,272.1,155Zm0,1.2c-.14,0-.16,0,0,.12A.16.16,0,0,1,272.15,156.16Zm0-1.43s.09,0,.16-.12C272.24,154.69,272.18,154.73,272.15,154.73Zm.05,1.14-.05.17C272.29,156,272.31,156,272.2,155.87Zm0-13.44.11-.06h-.11Zm.26,11.89-.1.17C272.46,154.49,272.5,154.43,272.46,154.32Zm28.17-17.93a.28.28,0,0,0-.05-.36c-.11-.1-.16-.16-.16-.2a.39.39,0,0,1-.1-.28,7.05,7.05,0,0,1,.1-1.43,1.92,1.92,0,0,0-.15-.63,1.7,1.7,0,0,1-.16-.62,2.44,2.44,0,0,0-.1-.57,3.93,3.93,0,0,0-2-2.16l-.78-.28a6.35,6.35,0,0,1-.73-.29c-.34-.1-.59-.09-.72,0a1,1,0,0,1-.63.25,7.14,7.14,0,0,0-2.39.37,4.13,4.13,0,0,0-1.76.35c-.28.13-.46.16-.52.08l-.73,0a1.29,1.29,0,0,0-.73.37,5.93,5.93,0,0,1-1,.44,1.51,1.51,0,0,1-.39.12,2.66,2.66,0,0,0-.52.19,2,2,0,0,0-.39.3c-.1.05-.15.05-.15,0a.39.39,0,0,0-.57.08,2.9,2.9,0,0,1-.52.42,2.85,2.85,0,0,0-.63.25.54.54,0,0,1-.31.16.44.44,0,0,0-.26.09,1.93,1.93,0,0,1-1.25.62l-.1.06a.82.82,0,0,1-.39.39,1.3,1.3,0,0,1-.34.15.91.91,0,0,0-.47.48l-.26.29a7.4,7.4,0,0,1-.88.44,5.43,5.43,0,0,0-1.14.67,13.91,13.91,0,0,1-2,1.45l-.68.65a3.26,3.26,0,0,1-.31.33l-.33.3a3.09,3.09,0,0,1-.29.21,3.09,3.09,0,0,0-.29.21l-.28.24-.26.26a.88.88,0,0,0-.21.35s-.07.14-.21.3a6.54,6.54,0,0,0-1.82,2.75c-.17.85-.26,1.33-.26,1.44a1.07,1.07,0,0,1-.05.75c-.07.16-.07.25,0,.29a3.79,3.79,0,0,1,.08.62c0,.27,0,.44,0,.52a1.37,1.37,0,0,0,.05.34,2,2,0,0,1,.05.34,11.08,11.08,0,0,0,.78,1.86,1.88,1.88,0,0,0,1,1.1q.15.06.36-.12l2.08-2.83a27.12,27.12,0,0,0,1.77-2.12l.31-.24c.07-.08.22-.25.47-.51s.43-.44.57-.56l1.09-1v-.06a.21.21,0,0,0,.05-.12,3.37,3.37,0,0,1,.36-.47l1.36-1.25c.27-.2.66-.52,1.16-1s.81-.7.91-.77a13.82,13.82,0,0,1,1.93-1.31,17.91,17.91,0,0,0,1.82-1.18.27.27,0,0,1,.2-.12,9,9,0,0,1,1.77-.58c.07-.12.21-.13.42-.05s.34.1.41,0,.14-.08.31,0l.21,0a5.1,5.1,0,0,0,.63.43,2.22,2.22,0,0,1,1,1.33.25.25,0,0,1-.11.29,1.11,1.11,0,0,1-.21.18l-.1-.05h-.1a.25.25,0,0,0-.42,0c-.17.08-.3,0-.36-.1a.74.74,0,0,0-.16-.11l0-.11a4.4,4.4,0,0,0-1.46.05,25.94,25.94,0,0,0-3.38,1.9l-.57.48a14.78,14.78,0,0,0-1.66,1.32,22.48,22.48,0,0,1-1.71,1.55,5.92,5.92,0,0,0-.55.51c-.26.25-.46.44-.6.56a2,2,0,0,0-.67.83,2.11,2.11,0,0,1-.55.59,1.18,1.18,0,0,0-.49.71,1,1,0,0,0-.73.71.79.79,0,0,1-.34.35,1.19,1.19,0,0,0-.34.3c-.14.16-.2.26-.2.3a8.53,8.53,0,0,1-1,1.41,9.16,9.16,0,0,0-1.15,1.47c-.27.28-.39.47-.36.58s.23.26.57.44c.07,0,.11,0,.11.05a3.34,3.34,0,0,1,1.66.51,1.23,1.23,0,0,0,.47,0l2.49-.09a14.15,14.15,0,0,0,2.6-.27,3.45,3.45,0,0,1,.94-.17q.62-.06.93-.12a5.85,5.85,0,0,1,.73-.2,3.49,3.49,0,0,1,.52-.14,3,3,0,0,0,.52-.13.41.41,0,0,1,.21,0,.5.5,0,0,0,.15.05,2.47,2.47,0,0,1,.89-.4c.38-.11.62-.19.72-.23l.06,0c-.07.12-.08.22,0,.29s.13.09.23,0a2.76,2.76,0,0,1,1.2-.27,1.34,1.34,0,0,0,.88-.55,1.55,1.55,0,0,0-.83.2,1.93,1.93,0,0,1-.57.08h-.11a.1.1,0,0,1,.11-.11.7.7,0,0,1,.52-.25,3.8,3.8,0,0,0,1.25-.39l.62-.2a2.8,2.8,0,0,0,.62-.25,10.34,10.34,0,0,0,1.15-.73.36.36,0,0,0,.2-.29.78.78,0,0,1,.11-.29l.83-1.23.1-.07v-.17a7.7,7.7,0,0,0,.6-1.11,5.91,5.91,0,0,1,.7-1.17.81.81,0,0,0,.11-.51,2.3,2.3,0,0,0-.37.24c-.07-.46.06-.75.37-.87v.63a3.75,3.75,0,0,0,.65-1,4.21,4.21,0,0,1,.59-1,8.62,8.62,0,0,0,.37-.87,2.56,2.56,0,0,0,.05-.58l-.21.24a5.57,5.57,0,0,1-.73,1.4.33.33,0,0,1-.2.18l-.05.06a3.63,3.63,0,0,1,.46-1.28,4.52,4.52,0,0,0,.37-.87l.15-.12.16.11a.52.52,0,0,1,.05.28c.14,0,.21-.08.21-.23v-.4c-.14,0-.21-.15-.21-.34a1.59,1.59,0,0,1,.31-.7v-.06l.11.11v.52l.15-.18a6.1,6.1,0,0,0,.42-1.67v-.06l-.05-.11s-.06,0-.06.11a.21.21,0,0,0-.1.12,1.3,1.3,0,0,1-.1.18c-.14-.57-.11-.93.1-1.09s.1-.08.1-.24h-.1v-.12s-.07,0-.1,0,.1-.06.1,0h.1v.11c.07,0,.12.05.13.14a.48.48,0,0,0,.08.2v.11l.05.06.11-.06V137A1.81,1.81,0,0,1,300.63,136.39Zm-27.91,18.78c-.07.07-.08.13-.05.17S272.72,155.28,272.72,155.17Zm.16-1.5-.11.06h.11Zm.21,1.08a.24.24,0,0,0-.06.17C273.1,154.92,273.12,154.86,273.09,154.75Zm.41,14.34a.1.1,0,0,1-.1-.05C273.43,169.12,273.47,169.13,273.5,169.09Zm-.1,1.27.05-.06.05-.06s-.05,0-.05-.06A.62.62,0,0,1,273.4,170.36Zm.1-17.63h-.05l.05.11Zm.11-13.67c-.14,0-.18.06-.11.17A.2.2,0,0,1,273.61,139.06Zm0,15c-.14,0-.18,0-.11.11S273.54,154.09,273.61,154.05Zm.05-.18a.62.62,0,0,1-.05.18l.1-.12Zm.21-15.22a.43.43,0,0,0-.06.17C273.88,138.74,273.9,138.68,273.87,138.65Zm.1,31.46,0-.06.16-.07-.21-.22c-.07,0-.12,0-.16.07v.11Zm.21-17c-.11,0-.14.06-.11.17Zm.05-.06q.15,0,.15-.18A.16.16,0,0,0,274.23,153.05Zm.31-14.89-.1.07.1.11v-.18Zm-.1,14.65c.1,0,.13-.06.1-.17Zm.46-1.85.06-.05h-.06Zm.47,17.49c.14,0,.21-.08.21-.23h-.31c-.18,0-.26.08-.26.24Zm0-31.06c-.07,0-.08.06-.05.17A.26.26,0,0,0,275.37,137.39Zm0,.57-.05-.05V138Zm-.05,12.19v.11l.05-.11Zm.21-12.88,0,.06h0Zm.21,12.58a.41.41,0,0,1,.05-.18C275.72,149.68,275.7,149.73,275.74,149.85Zm.31-12.94c-.11,0-.14.1-.11.17A.4.4,0,0,0,276.05,136.91Zm0,13.61c-.11,0-.14.06-.11.18a.17.17,0,0,1,.06-.12Zm0-1.2q.21,0,.21-.12A.29.29,0,0,0,276.05,149.32Zm.15-12.59a.35.35,0,0,0-.1.17C276.2,136.86,276.24,136.81,276.2,136.73Zm.06,12.47c.13-.12.2-.22.2-.3S276.32,149,276.26,149.2Zm.05.91a.3.3,0,0,1-.05.18C276.32,150.21,276.34,150.15,276.31,150.11Zm.21-1.32a.14.14,0,0,1-.06.11A.14.14,0,0,0,276.52,148.79Zm.1-12.3c-.07,0-.1.08-.1.11h.1Zm.42,11.88-.06-.11c-.07,0-.1,0-.1.12Zm0,.8q-.17,0-.06.12A.17.17,0,0,0,277,149.17Zm0-.12c0-.07,0-.09.1-.06Zm.36-1.27c-.07,0-.09.06-.05.18Zm.16-12h-.06l.06.06Zm-.06,11.9c.11,0,.13-.06.06-.17Zm.26-11.28h-.05l.05.12Zm.21-.86h0l0,0Zm0,11.61h0v-.06Zm.42-11.23s0,.1,0,.17l.1-.11S278.46,136,278.39,136Zm.57-.25-.11.06a.05.05,0,0,0,.06.06h.15Zm1.61,28.83a2.78,2.78,0,0,0-.7.57,1.73,1.73,0,0,1-.81.52h-.15a.7.7,0,0,1,.41-.53c.14-.12.5-.38,1.09-.78a.51.51,0,0,1,.37-.13Zm-1.51-29.75-.1.12h.1Zm.57,18.46h.06l-.06-.06Zm.21-8.19h.05l-.05-.06Zm5.56,8a.26.26,0,0,1-.31-.21,2.9,2.9,0,0,1-.65.08,2.9,2.9,0,0,0-.65.08,4.29,4.29,0,0,1-1.09.15l-2.5.1a.18.18,0,0,1-.15.12l.05.05.1,0a5.29,5.29,0,0,0,1,.19,3.18,3.18,0,0,1,1,.25l1.2,0c.69,0,1.09-.12,1.19-.28h.26a.53.53,0,0,0,.45,0,.59.59,0,0,1,.39,0l.67,0a1.82,1.82,0,0,0,.5-.13.64.64,0,0,1,.54,0,1.84,1.84,0,0,1,1-.21l.41-.13a2.1,2.1,0,0,1,1.1-.39l.57,0a3.18,3.18,0,0,1,1.14-.27c.1-.19.23-.25.36-.18a.49.49,0,0,0,.32-.24,1,1,0,0,1-.37-.11c-.17-.06-.29-.08-.36,0a1.43,1.43,0,0,0-.36.1,1.53,1.53,0,0,1-.42.1l-.73-.2h-.31s-.05.06-.05.18a.41.41,0,0,1,0,.23,1.65,1.65,0,0,1-1-.14,1.31,1.31,0,0,0-.84.09v.12a5.16,5.16,0,0,1-.83.08c-.1,0-.16,0-.18.1s0,.1.08.14l-.21.23q-.15.18-.21.15a1.11,1.11,0,0,0-.26,0s-.05-.05-.05-.16a.31.31,0,0,1-.15-.09.3.3,0,0,0-.21-.07c-.21,0-.26.1-.16.29V153l-.1.07Zm-4.67-19.85c-.11,0-.16,0-.16.12l-.05-.11s.1-.06.21-.06Zm.72,30.47a.8.8,0,0,1-.67.48c0-.31.17-.46.41-.47Zm-.52,2a.26.26,0,0,1,.05-.17C280.85,165.56,280.83,165.62,280.93,165.73Zm.16-.35a.7.7,0,0,0-.11.18C281.09,165.51,281.12,165.46,281.09,165.38Zm.05-31.52h-.05l.05.11Zm.62-1.23v.18h-.31C281.45,132.7,281.56,132.64,281.76,132.63Zm0,30.84a.29.29,0,0,1-.31.24c0-.27,0-.42.11-.46A.63.63,0,0,1,282,163s-.07.12-.13.23A.82.82,0,0,1,281.76,163.47Zm.11-30.9v.06h-.11v0Zm.05,32.15.1-.06h-.15Zm0-31.35v.06h.1Zm.52,29.27c0,.15,0,.23-.05.23a.4.4,0,0,0-.16.07l-.15.06.15-.35Zm-.05-29.51-.11.06h.11Zm.26,31a.24.24,0,0,0,.21-.24A.21.21,0,0,0,282.65,164.12Zm.05-1.83a1,1,0,0,1,.52-.25c-.07.27-.19.41-.36.41h-.06C282.73,162.46,282.7,162.4,282.7,162.29Zm.36,1.13c0,.15-.07.23-.2.24C282.86,163.5,282.92,163.42,283.06,163.42Zm.26-1.38c0-.16,0-.23.11-.24A.37.37,0,0,1,283.32,162Zm.47-30.34-.1.12-.05.06a.15.15,0,0,0-.11-.06l.21-.18Zm-.26,30.1c0-.15,0-.23.11-.23C283.64,161.72,283.6,161.8,283.53,161.8Zm.11,1.6.26-.24c0-.11-.09-.17-.26-.16,0,.11,0,.17-.11.17v.23Zm.26-2,.1.11s0,.05-.05.06h-.21C283.74,161.45,283.79,161.39,283.9,161.39Zm.25,1.53.11-.17C284.15,162.75,284.12,162.81,284.15,162.92Zm.16-.29a.29.29,0,0,0,.21-.12Q284.31,162.51,284.31,162.63Zm.05-31.12v-.06c.07,0,.11,0,.11.05Zm.52-.25h-.15l.1-.07S284.88,131.22,284.88,131.26Zm-.05.92h-.1l.1,0Zm.21,28.13c-.11-.11-.09-.16,0-.17Zm.1-7.44c.11,0,.14-.06.11-.17A.4.4,0,0,0,285.14,152.87Zm0,7.27c0-.08,0-.12.11-.12S285.25,160.13,285.14,160.14Zm.11,1.77a.3.3,0,0,0,.05-.18C285.16,161.74,285.14,161.8,285.25,161.91Zm.05-.18c.14,0,.21-.08.21-.23C285.37,161.5,285.3,161.58,285.3,161.73Zm.47-.47c.13,0,.2-.07.2-.18S285.77,161.15,285.77,161.26Zm.46-.25a.1.1,0,0,1,.11-.11l-.13,0a.34.34,0,0,0-.13,0,.83.83,0,0,0-.11.17Zm-.2-1.59c0-.11,0-.17.05-.17A.29.29,0,0,1,286,159.42Zm.05-.17.1-.07v.06Zm.1-6.41c.14,0,.16-.07.05-.18a.16.16,0,0,1-.05.12Zm0,6.34a.35.35,0,0,0,.05-.17C286.3,159.12,286.29,159.18,286.18,159.18Zm.52-27.82-.1.06h.1c.28.14.43.1.47-.13a.8.8,0,0,0-.21,0Zm0,29.12v-.06l.05-.06C286.65,160.37,286.63,160.41,286.7,160.48Zm1.2-29.39c-.42,0-.66.08-.73.2l.67,0,.06-.06.05,0Zm-.63,28.68s.07-.06.11-.17c0,0,0,.06-.11.06S287.2,159.7,287.27,159.77Zm0-7c0-.08,0-.12.05-.12h.42q0,.16-.42.18Zm.57-22.33a.14.14,0,0,0-.1.06h-.05a.21.21,0,0,0,.15.05.15.15,0,0,1,.11-.06Zm-.1,22.2v-.06h.1v.06Zm.1-.24v0h0Zm.11.11-.11.06v-.11A.14.14,0,0,0,288,152.48Zm.15,4.63.11.11-.11.06-.05-.05Zm-.05,1.83.05-.06-.05-.11Zm.83-28.86-.62,0c0,.12,0,.18.05.17l.57,0,.11-.06Zm-.31.81a.51.51,0,0,0-.26,0l-.05.06Zm0,21.63c-.07,0-.07-.09,0-.17Zm.11,4.06c0-.08,0-.12.1-.12v.11Zm.1,1.76a.21.21,0,0,1,.05-.11l-.15.06Zm.05-.11q.1,0,.21-.3Q288.83,157.95,288.83,158.23Zm.21-6.53.1.11s.06,0,.06-.12Zm0,6.23c.24-.08.36-.2.36-.35H289Zm.31-2.12,0,.05a.48.48,0,0,1-.15.29l-.11-.11Zm.21-25.87h-.05l.05.06c.28.07.45,0,.52-.19A1.14,1.14,0,0,0,289.56,129.94Zm-.05,27.52c.07,0,.1-.06.1-.18S289.51,157.34,289.51,157.46Zm.21-.24c.06,0,.1-.06.1-.17h-.1Zm1-1.41a1.44,1.44,0,0,1-.62.77,1.38,1.38,0,0,1,.13-.52A1,1,0,0,1,290.7,155.81Zm-.26-.9c-.1,0-.12-.06-.05-.09s.11,0,.11-.09Zm.06-.18c0-.11.06-.19.2-.23C290.67,154.65,290.6,154.73,290.5,154.73Zm.2,1.08c-.07-.34.11-.59.52-.76a.05.05,0,0,1,.06.06v0C291.1,155.55,290.91,155.77,290.7,155.81Zm.05-1.71a2.7,2.7,0,0,1,.94-.73c0,.27,0,.43-.1.47-.35.28-.54.49-.57.65h-.32A.91.91,0,0,1,290.75,154.1Zm.94-24.81-.1.18.05.05.73,0,.05-.06v-.11s0-.06-.05,0Zm.47,25.15s0,0,0-.06v-.11A.41.41,0,0,0,292.16,154.44Zm.21-3.66.93,0a.57.57,0,0,0,.52-.42,2.73,2.73,0,0,0-1.45.4Zm.36,1h-.1l-.11-.06a.72.72,0,0,0-.1.18l-.05.06s.12-.06.26-.07Zm-.1,2.18.1-.18-.16.07S292.63,153.89,292.63,154Zm.1-.18c.14,0,.21-.12.21-.23S292.76,153.64,292.73,153.79Zm.42-1c0,.19-.07.29-.21.29v-.11a.62.62,0,0,0,.05-.18s0-.06.1-.06Zm.72-.83.06.06c0,.22-.14.34-.42.35,0,0-.05,0-.05-.05v-.12C293.49,152,293.63,151.93,293.87,151.92Zm-.05-1.6a.42.42,0,0,1,.26-.07.06.06,0,0,1,.05-.06l-.05-.11C293.91,150.09,293.82,150.17,293.82,150.32Zm.68,1.29v-.11h-.06C294.44,151.57,294.46,151.61,294.5,151.61Zm1.45-1.88H296l-.05-.11h-.05Zm.21-1.84v-.12h-.05Zm.1-.58.06.11h.05A.1.1,0,0,0,296.26,147.31Zm.21-1.66.16-.18.05.17a.23.23,0,0,1-.16.23A.44.44,0,0,0,296.47,145.65Zm.73-1c-.1-.11-.09-.17.05-.17Zm.67-1.34c0,.08-.06.18-.2.3C297.67,143.47,297.74,143.37,297.87,143.36Zm-.1,5.33h.05s0,.06-.05.06Zm.37-5.62c0,.11-.09.21-.27.29V143c0-.11.09-.21.27-.29Zm.05,2.05.05-.11-.05-.06Zm1,3.06h.11l-.11.06a.33.33,0,0,0-.2.13l-.16-.11a.21.21,0,0,0,.13-.09.21.21,0,0,1,.13-.09C299.14,148.06,299.17,148.1,299.17,148.18Zm.37-8.08c.14,0,.21-.14.21-.41C299.61,139.73,299.54,139.87,299.54,140.1Zm.1,7.83h.05a.77.77,0,0,1,.42-.13c0,.19-.17.25-.42.19C299.66,148,299.64,148,299.64,147.93Zm.11-9.27.1-.12,0,.11a.06.06,0,0,0,0,.06Zm.15-.41,0-.11,0-.06Zm1,9.35-.1.11a2.3,2.3,0,0,1-.63.08c0-.11,0-.17.06-.17Zm-.15-12.07V135a.4.4,0,0,0-.16-.06s0,.06-.05.06v.52l.05.11s0,.06.05.06S300.79,135.57,300.79,135.53Zm0,12.76s0,.05.1.05l-.15.06a.19.19,0,0,1-.16-.05l.1-.06Zm.41-.93c.07,0,.11,0,.11.11h-.11a0,0,0,0,1-.05-.05S301.22,147.36,301.25,147.36Zm0,.91.11,0-.11.07s0-.06-.05-.06Zm.47-1.16s.1-.06.21-.06a.3.3,0,0,1,.21,0v.12l-.21.06c-.11,0-.18,0-.21-.05Zm.78-.2s0-.06.05-.06l.52,0c-.07.12-.24.18-.52.19Zm1.51-.51c0,.22-.09.34-.26.35l-.68,0a.29.29,0,0,1,.05-.17.9.9,0,0,0,.26-.07l.37-.12C303.89,146.25,304,146.24,304,146.4Z"/>
      <path class="cls-1" d="M346,125.22a.42.42,0,0,1-.11.46s-.08,0-.15.12-.13.12-.16.12l-.39.3-.34.24a3.06,3.06,0,0,1-.31.3,3.06,3.06,0,0,0-.31.3,2.18,2.18,0,0,1-.78.54,6.66,6.66,0,0,0-.83.66l-.42.3a3.55,3.55,0,0,0-.47.42s-.05.06-.15.06a.48.48,0,0,0-.24.13q-.12.12-.18.12l-.36.35s-.07.06-.21.07a.5.5,0,0,0-.52.3c0,.16-.09.2-.26.13s-.19-.11-.26,0l-.1.12a.83.83,0,0,1-.11.17.57.57,0,0,1-.13.21.25.25,0,0,0-.07.14,7.72,7.72,0,0,0-1.25,1,.39.39,0,0,0-.21.3c0,.11,0,.17-.05.17a1.87,1.87,0,0,1-.26.13,3.43,3.43,0,0,1-.68.59.94.94,0,0,1-.23.44l-.23.27a2.41,2.41,0,0,1-.37.41l-.15.06a1.23,1.23,0,0,1-.26.47,1.09,1.09,0,0,0-.26.41,1.37,1.37,0,0,0-.16.24,1.56,1.56,0,0,0-.73.77c0,.15-.1.23-.21.23-.13.16-.35.45-.65.88a8.4,8.4,0,0,1-.7.95,3.11,3.11,0,0,1-.31.47,1.56,1.56,0,0,0-.15.17,1.11,1.11,0,0,0-.21.18.16.16,0,0,0,0,.12c0,.11,0,.17,0,.17a.66.66,0,0,0,.31,0l2.55-.09,1.19,0a1,1,0,0,0,.62.1h.11c.1,0,1.29,0,3.56,0s3.49-.06,3.66-.1a.62.62,0,0,1,.63,0c.1.08.29.07.57,0h.31a.71.71,0,0,0,.36,0l1,0,.26,0,.21,0c.07-.08.17-.08.31,0a.1.1,0,0,0,.1.05c0,.39-.08.62-.25.7l-.06.17a.63.63,0,0,1-.36.25h-.36c-.07,0-.11.08-.11.23s-.05.12-.15.12l-.42,0c-.14.08-.21.06-.21-.05l.05-.06a.17.17,0,0,0,.06-.12l.1-.06h-2l-4.72.09q-4.22.06-4.68.09l-3.54.13a.45.45,0,0,0-.46.47c-.14.27-.26.41-.37.42-.27,0-.41.11-.41.3l-.05.11a.46.46,0,0,0-.06.18l-.15.32c-.07.13-.12.24-.16.32a2.87,2.87,0,0,0-.57.76,3.44,3.44,0,0,0-.57.88,1,1,0,0,1-.26.47,4.48,4.48,0,0,0-.57.94.74.74,0,0,1-.16.2c-.07.06-.1.11-.1.15a1.25,1.25,0,0,0-.58.71,1.33,1.33,0,0,1-.36.52c-.07,0-.1.09-.1.24a6.63,6.63,0,0,1-.37.67l-.36.61a4.17,4.17,0,0,0-.31.47.51.51,0,0,1-.16.35,9.41,9.41,0,0,0-.73,1.12,8.65,8.65,0,0,1-.62,1.1v.29a1.77,1.77,0,0,0-.31.41.5.5,0,0,0-.1.18l-.11.2a2.09,2.09,0,0,0-.1.21.46.46,0,0,0,0,.23c0,.08-.18.31-.42.7a1.77,1.77,0,0,1-.21.41,1.77,1.77,0,0,0-.21.41,3,3,0,0,1-.52.82,1.32,1.32,0,0,1-.05.28,1.57,1.57,0,0,1-.41.71,1.18,1.18,0,0,0-.21.35l-.16.35a1.47,1.47,0,0,1-.47.87.44.44,0,0,1,0,.15.56.56,0,0,0,0,.2s0,0,0,0a.15.15,0,0,1-.05.08,4,4,0,0,1-.47.88.77.77,0,0,0-.21.52c0,.12-.12.27-.36.47s-.12.14-.05.18.14.18.1.22a1.4,1.4,0,0,1-.21.47l-.46.87a4.3,4.3,0,0,0-.16.44,1.21,1.21,0,0,1-.21.43,1.6,1.6,0,0,0-.23.41,1.88,1.88,0,0,1-.18.35l-.21.24s0,.06,0,.17l0,.17a.31.31,0,0,1,0,.35,2.42,2.42,0,0,0-.37.64.62.62,0,0,0,0,.4,2.39,2.39,0,0,1-.26.76,3.26,3.26,0,0,0-.41.93,9.09,9.09,0,0,0-.42,1.1,2.15,2.15,0,0,1-.21.55,3.36,3.36,0,0,0-.2.49l-.08.09a.11.11,0,0,1-.08,0c-.14.08-.16.2-.05.35v.23a1.47,1.47,0,0,0-.13.17c-.05.08-.1.14-.13.18l-.16.41q-.11.41-.15.63a3.57,3.57,0,0,1-.16.46c-.1.28-.19.49-.26.64a1.85,1.85,0,0,0-.18.55,1.55,1.55,0,0,1-.13.44q-.06.23-.21.66c-.1.29-.17.51-.21.67a.41.41,0,0,1-.05.23,2.13,2.13,0,0,0-.26.7,1.92,1.92,0,0,0-.21.69l0,.12a.51.51,0,0,0-.05.17,8.62,8.62,0,0,0-.26,1,.62.62,0,0,1-.05.18l-.05.11a11.85,11.85,0,0,0-.26,1.38,1,1,0,0,1-.08.32,1,1,0,0,0-.08.32c-.14.69-.21,1.06-.21,1.09v.29c0,.15.07.23.21.22l.57,0a2.42,2.42,0,0,1,.49-.25l.5-.19q.15-.12.57-.39a4.84,4.84,0,0,0,.62-.45s.07,0,.11-.12a8,8,0,0,1,.78-.72,6.73,6.73,0,0,0,.83-.77,5.26,5.26,0,0,1,.93-.95,2.43,2.43,0,0,0,.21-.29,1.94,1.94,0,0,1,.21-.3c.31-.47.5-.76.57-.88a2.35,2.35,0,0,1,.47-.47,1,1,0,0,0,.57-.71,3.15,3.15,0,0,1,1-1.24c.1,0,.21-.23.31-.58,0-.08.05-.12.16-.12a.72.72,0,0,0,.1-.18.63.63,0,0,1,.1-.17,1.68,1.68,0,0,1,.21-.3,1.08,1.08,0,0,0,.21-.29,1.16,1.16,0,0,1,.26-.35l.1.11.06.11a.63.63,0,0,1,0,.34c-.07.08-.27.35-.6.8s-.6.79-.81,1a.36.36,0,0,0-.1.23,3.17,3.17,0,0,1-.68.77,2.8,2.8,0,0,1-.44.62,4.31,4.31,0,0,0-.44.56,6.46,6.46,0,0,1-.83,1.11l-1.41,1.6a2.44,2.44,0,0,1-.38.33,1.18,1.18,0,0,0-.39.39,1,1,0,0,1,.2.16.44.44,0,0,0,.31,0,20,20,0,0,0,1.51-1.54l.78-.92.78-.92s.11-.06.21-.17h.21l.05.28a1.68,1.68,0,0,1-.21.3,2.59,2.59,0,0,0-.47.64c-.1.08-.1.16,0,.23a.83.83,0,0,1-.2.29.56.56,0,0,1-.32.07.51.51,0,0,1-.13.12l-.13.12a1.9,1.9,0,0,1-.46,1.11c-.28.31-.47.55-.58.7a.75.75,0,0,1-.26.36,1.22,1.22,0,0,0-.26.29l0,.06a.21.21,0,0,0-.05.12,2.8,2.8,0,0,0-.57.51,2.35,2.35,0,0,1-.62.5l-.16.13-.05.05a8.15,8.15,0,0,1-1.46,1H314a1.69,1.69,0,0,1-.55.07,1,1,0,0,0-.54.14,2.74,2.74,0,0,0-.55-.1,1.22,1.22,0,0,1-.55-.15,1.24,1.24,0,0,0-.41-.44c-.21-.22-.31-.35-.31-.39l-.21-.36a1.62,1.62,0,0,1-.21-.42.53.53,0,0,1-.16-.34v-2.92a.5.5,0,0,1,.21-.35s.05-.06.16-.06.21,0,.21-.07v-.57H311c-.14,0-.21-.11-.21-.23a.42.42,0,0,0,.11-.29c0-.26.17-.35.41-.24,0,0,.06,0,.08,0a.24.24,0,0,0,0-.15.86.86,0,0,0,.08-.35.65.65,0,0,1,.13-.4v-.46l.15-.06c.14-.08.21-.07.21,0a1.62,1.62,0,0,0,.05.4.16.16,0,0,0,.16-.18,1,1,0,0,1,.08-.35,1.19,1.19,0,0,0,.07-.34,1,1,0,0,1,.11-.35c.07-.16.12-.27.15-.35s.06-.11.16-.12v-.8l-.16.12c0,.15-.1.23-.2.24a2.45,2.45,0,0,1,.05-.58,1.85,1.85,0,0,0,.15-.4.43.43,0,0,1,.16.28v.34s.1-.06.21-.18v-.63a.26.26,0,0,1-.21-.28v-.17l-.16.18a1.83,1.83,0,0,0-.05.46l-.21.18a.16.16,0,0,1-.15-.11v-.23a4.73,4.73,0,0,0,.41-1.22.46.46,0,0,1,.08-.17c.05-.08.1-.14.13-.18s.05-.06.16-.06v.51a.49.49,0,0,0-.21.36v.28H313v-.63c.1,0,.15-.08.15-.23a1,1,0,0,1,.05-.35c.07,0,.19-.14.37-.41a.34.34,0,0,1,.1-.23v.06c.07.22.18.29.31.21a.15.15,0,0,1,.11-.06,1.37,1.37,0,0,1-.26,1h-.16v-.34a.21.21,0,0,0-.05-.12v0l-.05.06-.21.23a.85.85,0,0,1,0,.23.83.83,0,0,1-.05.2,1.45,1.45,0,0,1-.08.21.51.51,0,0,0-.05.17.14.14,0,0,0-.1.06H313v.41a.36.36,0,0,1,.2,0h.16v-.23s.07-.12.21-.24v-.28a.9.9,0,0,1,.1-.35v.63h-.1c0,.27-.07.43-.21.47a1,1,0,0,1-.16.63.76.76,0,0,1-.07.24,1.67,1.67,0,0,0-.11.31c0,.1,0,.21,0,.32a.29.29,0,0,0-.21.12v.4l0,.11c.07,0,.11,0,.11,0a5,5,0,0,1,.46-.76V174c-.07-.15-.05-.25,0-.29s.21-.2.21-.46a3.07,3.07,0,0,1,.11-.87h.05a1.25,1.25,0,0,1,.41-.53,1.43,1.43,0,0,1,.26-.46v-.35s0,0,0-.05v-.18a2.09,2.09,0,0,0,.13-.37,1.11,1.11,0,0,1,.19-.38.84.84,0,0,0,.2-.64v-.28l.06-.12s0-.06.05-.06a1,1,0,0,0,.36-.64.31.31,0,0,1,0-.23.52.52,0,0,0,.31-.36l.32-.87c.06,0,.1-.25.1-.63,0,0,0-.09,0-.17a2.42,2.42,0,0,0,.36-.36,1,1,0,0,1,.11-.35c.07-.15.12-.27.15-.35a1.36,1.36,0,0,1,.37-.92,2,2,0,0,0,.31-1c.1-.27.21-.43.31-.47l.05-.11a4,4,0,0,1,.52-1.05.2.2,0,0,0,.06-.15.18.18,0,0,0-.06-.14V161a1,1,0,0,0,.32-.64c0-.08,0-.12.1-.12a2.27,2.27,0,0,0,.42-.7,3.51,3.51,0,0,1,.2-.58,6.07,6.07,0,0,0,.29-.58c.12-.28.2-.45.23-.53s.09-.38.37-.7a3.62,3.62,0,0,0,.21-.35,1.18,1.18,0,0,1,.31-.41v-.17c0-.08,0-.19.05-.35a.41.41,0,0,0,0-.4v-.06a.42.42,0,0,0,.21-.4h.2a2.94,2.94,0,0,0,.13-.32.8.8,0,0,0,.08-.26c.21-.16.28-.28.21-.35s0-.17.05-.17.07,0,.11-.12l.1-.06a.17.17,0,0,0,.1-.24c0-.07,0-.11.06-.11l.1-.12.05-.06a7.72,7.72,0,0,0,.47-1.11c0-.15.05-.23.16-.23a.28.28,0,0,0,.2-.29v-.35a.18.18,0,0,0-.1.06l-.1.07c-.07,0-.12,0-.13,0a.38.38,0,0,1,0-.2V151l-.1.12a7,7,0,0,0-.68.71c-.07,0-.1,0-.1.06s0-.23.1-.46a.93.93,0,0,0,.21-.64.75.75,0,0,0,.57-.59c0-.08.07-.18.1-.29a.67.67,0,0,1,.11-.24,2.07,2.07,0,0,1,.36-.35c0-.08.1-.06.21,0s.08.13.15.05a1.31,1.31,0,0,0,.26-.53c0-.11,0-.17-.05-.17q-.36,0-.36-.21a.56.56,0,0,0,.36-.59.15.15,0,0,0,.11-.06c0-.07.07-.12.1-.12a1.79,1.79,0,0,0,.52-.64,3.12,3.12,0,0,1,.36-.65h.21c.11,0,.16.05.16.16h.05a.74.74,0,0,1,.13-.21l.16-.17a.25.25,0,0,0,.07-.15.65.65,0,0,0,.16-.46l.21-.24h.1v-.18c-.07,0-.1.07-.1.18a.24.24,0,0,0-.21.24h-.16c-.14,0-.2-.06-.2-.22v-.17l.41-.42a1.35,1.35,0,0,0,.16-.46l.1-.06.11-.12h.1v.4c.07.07.12.11.15.11a.15.15,0,0,0,.11-.06.14.14,0,0,1,.1-.06q.11-.24.21-.24a.65.65,0,0,1,.36-.64l.06-.12a1.14,1.14,0,0,0,.15-.46,1.08,1.08,0,0,1-.15.14,1.37,1.37,0,0,1-.21.15l-.16.07H327c-.07,0-.07-.07,0-.11s.17-.22.31-.41.24-.34.31-.42.14-.19.21-.46a1,1,0,0,1,.16-.46.37.37,0,0,0-.37.24.7.7,0,0,1-.36.41q0-.41-.21-.45c-.24-.18-.4-.17-.47,0-.07,0-.17.1-.31.3a.26.26,0,0,1-.26.18h-.47a.55.55,0,0,0-.41.19l-.11-.11v-.06a.58.58,0,0,1,.21-.2.47.47,0,0,0,.21-.21l.1-.06-.1-.17a.16.16,0,0,0-.21-.05,2.65,2.65,0,0,1-.39.33,2.65,2.65,0,0,0-.39.33,1.29,1.29,0,0,1-.41.36c0,.11-.14.17-.32.18q0-.41-.15-.45c0-.15-.17-.28-.42-.39,0,0,0-.11.06-.23s.1,0,.1-.06c.14-.31.29-.37.47-.19h.2a6.92,6.92,0,0,1,.68-.25h.21c.21.07.33,0,.36-.07s.11-.06.11-.17,0-.06-.11-.06a2,2,0,0,0-.88.15l-.63,0a.44.44,0,0,1-.31,0,1.13,1.13,0,0,0-.31,0,1.93,1.93,0,0,1-.57.08c-.21,0-.33.05-.36.13a2.47,2.47,0,0,1-.89.14l-1.19,0a.37.37,0,0,0-.31.12,1,1,0,0,1-.55.14,1.63,1.63,0,0,0-.55.08q-.15,0-.15.12l1.71-.07a.62.62,0,0,1,.18,0,.57.57,0,0,0,.24.05l.05.23a.68.68,0,0,0-.21.23l-.15.24a.92.92,0,0,1-.37.07l-.2.24h-.26a.52.52,0,0,0-.47.18.71.71,0,0,0-.31.07,1.1,1.1,0,0,1-.68.2.88.88,0,0,1-.26-.08.37.37,0,0,0-.31,0,.69.69,0,0,1-.47.13.42.42,0,0,0-.21.06h-.15a.36.36,0,0,0-.18.09.59.59,0,0,1-.24.1,1.34,1.34,0,0,0-.39.1.71.71,0,0,1-.44,0,.93.93,0,0,0-.52.14,2.22,2.22,0,0,1-.83.14,1.1,1.1,0,0,0-.68.2s-.15.06-.36.07a1.26,1.26,0,0,0-.57.13s-.11,0-.21,0a.64.64,0,0,0-.62-.09,1,1,0,0,1-.63.2,2.13,2.13,0,0,0-.78.2s-.12.06-.26.06a.69.69,0,0,0-.47.11,1.44,1.44,0,0,1-.36.15,2.24,2.24,0,0,1-.83.26.63.63,0,0,0-.36.13,1.63,1.63,0,0,1-.58.08.66.66,0,0,0-.41.19,2,2,0,0,0-.94,1c-.27.46-.57,1-.88,1.57a11,11,0,0,1-.73,1.46,8.84,8.84,0,0,0-.41.93l-.11.18a4.1,4.1,0,0,0-.67,1.34l-.16.35a1.53,1.53,0,0,1-.21.35c-.14.23-.26.45-.36.64l-.1.12a1,1,0,0,1,0,.23c0,.08,0,.14-.05.2s-.05.13-.08.2a.41.41,0,0,0-.05.18L302,155c-.09.18-.15.31-.19.38a1.93,1.93,0,0,1-.07.35c-.06.19-.1.35-.13.46a.28.28,0,0,1-.16.29,1.3,1.3,0,0,0-.21.64,1,1,0,0,1-.26.7,1.49,1.49,0,0,0-.26.58c0,.15-.13.46-.28.92a6.19,6.19,0,0,0-.29,1,1.09,1.09,0,0,0-.21.64.3.3,0,0,1-.05.29.6.6,0,0,0-.1.23.83.83,0,0,1-.21.58.43.43,0,0,0-.16.35,4.71,4.71,0,0,1-.15.46,1.56,1.56,0,0,0-.11.41,3.2,3.2,0,0,1-.26.75v.35a1.91,1.91,0,0,1-.1.51,2.48,2.48,0,0,0-.1.41,3.18,3.18,0,0,0-.21,1.09,1,1,0,0,1-.08.32,1.12,1.12,0,0,0-.08.37,3.74,3.74,0,0,1,0,.69c0,.16,0,.25-.1.29a8,8,0,0,0-.06,1.32.14.14,0,0,0,.08.11c.05,0,.08.08.08.11a.47.47,0,0,0,.13.11c.05,0,.1,0,.13,0l.1-.06a.4.4,0,0,1,.16-.06,2.21,2.21,0,0,0,.78-.43l.23-.16a2.6,2.6,0,0,0,.29-.24,1.21,1.21,0,0,1,.26-.2,1.35,1.35,0,0,0,.26-.27q.15-.21.21-.21a3.81,3.81,0,0,0,.83-1.06,1.19,1.19,0,0,0,.31-.24l.21-.24a2.33,2.33,0,0,1,.47-.64c.24-.24.64-.68,1.19-1.31.07-.11.21-.31.42-.59s.36-.48.46-.64a1.82,1.82,0,0,1,.78-.72c.11-.08.16-.15.16-.23a1.28,1.28,0,0,1,.36-.36l.11-.12.1-.11q.11-.24.21-.24a2,2,0,0,0,.36-.44,1.55,1.55,0,0,1,.31-.39,3.83,3.83,0,0,1,.5-.67l.44-.51a.56.56,0,0,0,.1-.14.86.86,0,0,1,.16-.18l.16-.15,0-.12v-.17c0-.15.1-.23.21-.23a.43.43,0,0,0,.41-.3,10.81,10.81,0,0,0,.78-.83c.38-.44.68-.75.88-.95H311l0,.06-.15.2a1.35,1.35,0,0,0-.16.27,10.82,10.82,0,0,0-.93,1.12.63.63,0,0,1-.42.3l-1.09,1.41a1.8,1.8,0,0,0-.16.21l-.15.21-1.25,1.41a.21.21,0,0,1,0,.12l-.11.12a3.5,3.5,0,0,1-.83,1.12l-1,1.15-.93,1.09c-.11.12-.24.29-.42.5l-.36.45v.05a.5.5,0,0,0,0,.23c.17,0,.27,0,.31-.07a7.54,7.54,0,0,1,1.14-1.12,3,3,0,0,1,.63-.89,1,1,0,0,1,.26-.29l.2-.18c.11,0,.16-.1.16-.18s.62-.77,1.45-1.71l1.46-1.66a4.61,4.61,0,0,1,.36-.47,2.71,2.71,0,0,0,.37-.47,2.38,2.38,0,0,1,.47-.59s0-.06.1-.06a.21.21,0,0,0,.16-.06,5.46,5.46,0,0,0,.77-1.06,1.71,1.71,0,0,0,.58-.51l.36-.44a.22.22,0,0,1,.08-.18l.18-.15a.53.53,0,0,0,.16-.2,2,2,0,0,1,.2-.35l.21-.24.47-.47q0-.18.15-.18A2.66,2.66,0,0,0,314,154c0-.07.07-.11.2-.12A2.9,2.9,0,0,0,315,153c0-.15.16-.23.37-.24V153c-.11,0-.16.2-.16.47q-.21,0-.21.12a.54.54,0,0,0-.36.47.14.14,0,0,1,.16.16,1.72,1.72,0,0,1-.37.71.53.53,0,0,0-.41.41c0,.08-.13.22-.37.41a2.43,2.43,0,0,1-.67.37,1,1,0,0,1-.05.35l-.21.38a3.87,3.87,0,0,1-.26.38l-.26.3a1.22,1.22,0,0,0-.68.82s-.07,0-.1.12l-.11.06a4.15,4.15,0,0,0-.52.53,1.22,1.22,0,0,0-.33.27c-.13.14-.22.21-.29.21a1.64,1.64,0,0,1-.05.41,8.73,8.73,0,0,0-.63.76,6.7,6.7,0,0,1-.83,1.06s0,.06-.1.07l-.1.06s-.11.06-.21.18a2.47,2.47,0,0,1-.57.7,2.41,2.41,0,0,0-.42.65q-.31.36-.36.36a3.92,3.92,0,0,1-.78.83,5.55,5.55,0,0,1-.63.65c-.07,0-.1,0-.1.12a10.64,10.64,0,0,1-.73.88,3.19,3.19,0,0,1-.41.56,2.68,2.68,0,0,0-.47.73l-.29.3-.28.3c-.14.15-.34.39-.6.71l-.73.85a8.61,8.61,0,0,1-.65.68,1.57,1.57,0,0,1-.31.3.74.74,0,0,1-.23.15.84.84,0,0,0-.29.21,2.62,2.62,0,0,1-1.4.34,1.39,1.39,0,0,1-.94-.37,7.55,7.55,0,0,1-.88-.88,2.69,2.69,0,0,1-.21-.85,2.33,2.33,0,0,0-.1-.79.7.7,0,0,1-.06-.32.67.67,0,0,0-.05-.31v-.4a1.12,1.12,0,0,1,.31-.7.15.15,0,0,0,0-.23c-.24-.06-.31-.2-.2-.39a1.09,1.09,0,0,0,.1-.46v-.57a1.9,1.9,0,0,0,.18-.53c.05-.23.1-.4.13-.52a2.42,2.42,0,0,1,0-.25.49.49,0,0,1,.08-.26l.15-.7a1.67,1.67,0,0,1,.08-.28,1.35,1.35,0,0,0,.08-.35.57.57,0,0,0,0-.29l.1-.12.06-.11c0-.19,0-.31.05-.35l0-.11a.41.41,0,0,0,.05-.18.48.48,0,0,0,.05-.23.58.58,0,0,1,.16-.35s.09-.12.26-.24h.05a.32.32,0,0,0,.21-.24c0-.07,0-.11-.05-.11s0-.11-.05-.11-.21,0-.21-.11a1.62,1.62,0,0,1,.05-.4c0-.08.1-.25.18-.52s.17-.48.23-.64a1.42,1.42,0,0,0,.06-.46.37.37,0,0,1,.05-.17.68.68,0,0,0,.05-.17.28.28,0,0,1,.08-.15l.13-.18a.42.42,0,0,0,.05-.2.8.8,0,0,1,.11-.32.87.87,0,0,0,.1-.32.79.79,0,0,1,.1-.32.77.77,0,0,0,.11-.31,6.35,6.35,0,0,0,.31-.7c.14-.35.22-.58.26-.7s.05-.11.15-.12a.74.74,0,0,1,.06-.34,3.46,3.46,0,0,0,.31-.79,3.11,3.11,0,0,1,.31-.78l.31-.73c.14-.33.24-.57.31-.72a11.65,11.65,0,0,1,.84-1.75,1.74,1.74,0,0,0,.36-.76,1.06,1.06,0,0,1,.26-.24,1.59,1.59,0,0,1,.15-.46c.07-.23,0-.34-.26-.33a1.13,1.13,0,0,0-.44.13,1.72,1.72,0,0,1-.33.12,3.21,3.21,0,0,1-.68.29,2.32,2.32,0,0,0-.73.34,16.77,16.77,0,0,1-2.18,1.39.94.94,0,0,1-.52.2.36.36,0,0,1-.21-.05c-.31-.26-.47-.46-.47-.62a.15.15,0,0,0-.05-.11l-.05-.11a1.16,1.16,0,0,1,0-.69,6.71,6.71,0,0,1,.57-1,1.61,1.61,0,0,0,.42-.3,10.76,10.76,0,0,1,3.38-1.61l.78-.37a1.71,1.71,0,0,0,.72-.26l.47-.19a1.53,1.53,0,0,1,.47-.13l1-.32a.63.63,0,0,0,.36-.25c.52-.93.8-1.42.83-1.46a.93.93,0,0,0,.26-.35,1.86,1.86,0,0,1,.42-.7,2.46,2.46,0,0,0,.41-.65,1.12,1.12,0,0,1,.18-.23c.09-.08.13-.14.13-.18a3.26,3.26,0,0,0,.63-.94s.05,0,.05-.06a3.41,3.41,0,0,0,.62-.82l.26-.27a.81.81,0,0,0,.26-.44,7,7,0,0,0,.68-.71c.07-.08.16-.19.28-.35L311,136a6.34,6.34,0,0,1,.47-.64q.1-.12.36-.36a2.45,2.45,0,0,0,.37-.41,11.7,11.7,0,0,0,.83-.89,9.58,9.58,0,0,1,1.4-1.37.56.56,0,0,0,.26-.35.72.72,0,0,1,.42-.42l1.14-.9a1.2,1.2,0,0,0,.26-.29.84.84,0,0,1,.29-.21,1.09,1.09,0,0,0,.28-.22,2.1,2.1,0,0,1,1.3-.33h.1a1.56,1.56,0,0,1,1.46.4,1.38,1.38,0,0,1,.62.66.32.32,0,0,1,.06.23,3.31,3.31,0,0,1-.42,1,1.23,1.23,0,0,0-.18.32,2.12,2.12,0,0,1-.24.38,1.24,1.24,0,0,0-.2.35,1.34,1.34,0,0,1-.21.35,3.11,3.11,0,0,1-.83,1.12.84.84,0,0,1-.58.36l-.2.13h-.21l0-.11v-.23a2.43,2.43,0,0,0,.1-.52,1.45,1.45,0,0,1,.16-.57,5.85,5.85,0,0,1,.41-1.34.35.35,0,0,0-.05-.22l0,.06c-.11,0-.16.06-.16.17a8.77,8.77,0,0,1-1.35,1.2,2.08,2.08,0,0,0-.47.42,6,6,0,0,1-1,1l-.41.47-.83.95a4.39,4.39,0,0,0-.52.53.89.89,0,0,0-.24.24.76.76,0,0,1-.23.24.81.81,0,0,0-.31.24,1.92,1.92,0,0,1-.31.49,3.64,3.64,0,0,0-.32.44l-.1.07-.16.17a6.5,6.5,0,0,1-1,1.36,7.22,7.22,0,0,0-.83,1.17.77.77,0,0,1-.13.12l-.13.12-.13.18a.67.67,0,0,1-.13.17s0,.11-.13.21a1,1,0,0,0-.18.32,1.11,1.11,0,0,1-.21.18,1.35,1.35,0,0,0-.2.18.43.43,0,0,0-.11.4s.05.12.16.23h.26q.25,0,.15-.18h-.15a0,0,0,0,0-.05,0h-.06a.16.16,0,0,0-.1-.05l.1-.12a.92.92,0,0,1,.37-.07h.36a.39.39,0,0,1,.31-.13.8.8,0,0,0,.32-.07,1.56,1.56,0,0,1,.38-.13,1.43,1.43,0,0,0,.39-.13,2.06,2.06,0,0,0,.58-.08,2,2,0,0,1,.57-.07,2.73,2.73,0,0,1,.52-.19c0-.08,0-.12.1-.12l.83,0a1,1,0,0,1,.78-.26,1.29,1.29,0,0,0,.47-.08,1.4,1.4,0,0,1,.42-.07,1.12,1.12,0,0,1,.41-.07.77.77,0,0,0,.42-.13,1.12,1.12,0,0,1,.41-.07,1.63,1.63,0,0,0,.83-.21,3.35,3.35,0,0,1,.73-.08,1.82,1.82,0,0,0,.78-.14.47.47,0,0,1,.31-.07l1.2-.22a6.55,6.55,0,0,1,.83-.09,2,2,0,0,0,1-.2s.07,0,.21,0h.2a5.19,5.19,0,0,1,1-.09h.26a8.29,8.29,0,0,1,2.13-.25H326a.56.56,0,0,0,.52-.31l.1-.06h.21v.06l.05.06a.75.75,0,0,0,.42-.13h.15a.14.14,0,0,0,.06.11c0,.12,0,.17.1.17a1,1,0,0,1,.47-.16.66.66,0,0,0,.41-.16l.11.06.1.05c.11,0,.16-.08.16-.12v-.34a6.62,6.62,0,0,1,1-1,5.25,5.25,0,0,0,.46-.44,2.88,2.88,0,0,1,.52-.45l.26-.3q.06-.28.42-.3l.21-.24a2.87,2.87,0,0,0,.83-.77l.21-.12a1.11,1.11,0,0,0,.57-.83c-.14,0-.23,0-.26.13a1.6,1.6,0,0,1-.21.18l-.21.18-.15.12a.61.61,0,0,0-.21.23s-.07,0-.1.12-.07.12-.11.12-.07-.17-.21-.16v-.23a.21.21,0,0,0,.21-.24l.47-.24a1.49,1.49,0,0,0,.31-.42c.07,0,.11,0,.11-.12a.41.41,0,0,0,.15-.17v-.06h0l.21-.24c.11,0,.16-.06.16-.18a1.38,1.38,0,0,1,.36-.58.86.86,0,0,1,.42-.13.34.34,0,0,1,.1-.23l.94-1.07.26-.29a3.67,3.67,0,0,0,.31-.42,1,1,0,0,1,.26-.29.86.86,0,0,0,.26-.35,3.06,3.06,0,0,1,.31-.3,3.06,3.06,0,0,0,.31-.3c.31-.32.75-.79,1.3-1.42a.86.86,0,0,1,.29-.3,1.5,1.5,0,0,0,.33-.35c.21-.24.56-.6,1-1.07s1-.84,1.3-1.08l.6-.34a5.15,5.15,0,0,0,.55-.33,2.08,2.08,0,0,1,1.19-.39l.73,0a1.35,1.35,0,0,1,.57.15l.31.16a.62.62,0,0,0,.31.39A.84.84,0,0,1,346,125.22Zm-48.44,39.72v-.23c-.07,0-.1.08-.1.24Zm.21-1.09a.1.1,0,0,0-.11-.11l-.05.06c0,.11,0,.17.05.17Zm.21-.58c0-.12,0-.17-.11-.17h-.05v.23h.05Zm.15-.81H298l.1.11Zm-.1,1.72.1-.17c0-.12,0-.14-.1-.06v.23Zm.31.68a.28.28,0,0,0-.1-.17l-.06.12.06.11C298.26,164.92,298.29,164.89,298.29,164.86Zm.21-.64c0-.11,0-.17-.11-.17s-.05.06-.05.17l.05.12C298.46,164.33,298.5,164.3,298.5,164.22Zm.05-2.29c.1-.12.12-.2.05-.23v-.06a.21.21,0,0,0-.05.23Zm0,1.37h.05l-.05-.06Zm.21-2.29s-.05.11-.05.23a0,0,0,0,1,.05,0,.39.39,0,0,0,.05-.23Zm.05,1.83v-.06c0-.08,0-.12-.05-.11s-.05,0-.05.11l.05.06v0Zm.1-3.61c0,.11,0,.17,0,.17l.06-.12v-.11A.49.49,0,0,1,299,159v.05a.21.21,0,0,0,0,.12Zm0,1.37a.05.05,0,0,0,.06-.06v-.23l-.11.12v.11S298.93,160.6,299,160.6Zm0,1.49V162l0,.12Zm.06-1.78c.14,0,.21-.08.21-.24v-.4c-.14.09-.21.18-.21.3Zm.1-1.95v.23s.07-.06.11-.17v-.12Zm0,3.09h.05l-.05-.11Zm.42-4.19c-.25.5-.35.81-.31.93h.1a7.22,7.22,0,0,0,.26-.92Zm-.16,2.24q.11-.24.21-.24c0-.08-.07-.11-.21-.11s-.15,0-.15.12v.4C299.33,159.67,299.38,159.61,299.38,159.5Zm.21.85v-.46a.21.21,0,0,1-.16.06.9.9,0,0,0,0,.4l.11.06S299.55,160.35,299.59,160.35Zm.05-3.38a.41.41,0,0,0-.05.23q.15,0,.15-.18c.07-.08,0-.11-.1-.11Zm-.05,2.92a.28.28,0,0,0,.21-.3.45.45,0,0,0-.21-.33Zm.21-3.56c0,.12,0,.17.05.17s.1,0,.1-.06v-.23Zm.15,1.31c-.1,0-.14.07-.1.18Zm.05,0h.16v-.4q0-.24.21-.24v-.57h-.11a1.81,1.81,0,0,0-.31,1S300,157.53,300,157.64Zm.16-2.06a.24.24,0,0,0-.16.23v.4l.16-.35Zm-.1,3,.05-.06a.21.21,0,0,0,.05-.12l-.1,0a.05.05,0,0,0-.06.06v.11A.05.05,0,0,0,300.06,158.56Zm.31-3.39c-.11,0-.18.08-.21.23v.18a.21.21,0,0,0,.21-.24Zm0,2.63v-.17h-.21v.17a.18.18,0,0,1,0,.11A.74.74,0,0,1,300.37,157.8Zm.15-3.27q-.15,0-.15.24v.4a.57.57,0,0,0,.15-.24Zm-.1,1.78a6.36,6.36,0,0,0,.42-.93.24.24,0,0,0,.1-.23l-.1-.11-.06.06,0,.06a1.41,1.41,0,0,1-.31.52,4.28,4.28,0,0,0-.05.75Zm-.05,1.32a.57.57,0,0,0,.15-.24V157h-.15Zm.41-3.85,0,.06a.19.19,0,0,0-.1,0,.09.09,0,0,0-.05.09c0,.08.05.11.15.11s.11,0,.11-.12a.36.36,0,0,0,.1-.23Zm-.15.69v-.06s-.05.05-.05.12Zm-.05,2.52a.21.21,0,0,0,.05-.11S300.58,156.92,300.58,157Zm.26-.52v-.06a.16.16,0,0,1,.05-.12l.05-.11-.16.12C300.75,156.41,300.77,156.47,300.84,156.47Zm.2-3.16c-.07,0-.1.08-.1.24v.17A.63.63,0,0,0,301,153.31Zm-.1,2.87a1,1,0,0,0,.1-.29l-.05-.06s-.05,0-.05.06Zm.1-1.66-.05.11v.06A.23.23,0,0,0,301,154.52Zm.21-1.62c-.07,0-.1.07-.1.18v.23l.1-.23Zm-.05,1.49s-.05,0-.05.12,0-.06.05-.06Zm.05,1v-.22c-.07,0-.1.06-.1.17a.13.13,0,0,0,.05.11Zm0,13-.05.06-.05.06h.05Zm.16-15.74s0-.08,0-.11a.07.07,0,0,0-.07-.06v.11a.27.27,0,0,0-.11.24A.16.16,0,0,0,301.41,152.67Zm0,2.29v-.12l-.16.07v.17A.18.18,0,0,0,301.41,155Zm0,13.21-.21.24A.34.34,0,0,0,301.46,168.17Zm.16-.12c-.11,0-.16,0-.16.12Zm.15-16.31v-.06l-.1.07Zm.05,16.08c-.1,0-.15,0-.15.11S301.82,167.89,301.82,167.82Zm.21-.24q-.15,0-.21.24a.55.55,0,0,0,.16-.18Zm-.15-16.3v.06h.1Zm0,2.29c.06,0,.1,0,.1-.12s0-.06,0-.17l-.15.06v.23Zm.31-1.44v-.35a.16.16,0,0,0-.16.18.39.39,0,0,0,.05.23Zm-.16,1h.05v-.06Zm.21,14q-.21,0-.21.24v.17a2.14,2.14,0,0,0,.37-.42Zm-.05-15.39c.14,0,.21-.08.21-.23v-.12A.32.32,0,0,0,302.19,151.78Zm.1-1.37-.05.06h.05Zm.11,1a.78.78,0,0,0,.31-.64C302.5,150.84,302.4,151.05,302.4,151.43Zm.2,15.33a.51.51,0,0,0-.2.4s.05,0,.05-.06.1-.06.21-.17.31-.15.31-.42A1.22,1.22,0,0,0,302.6,166.76Zm0-16.82-.15.06c0,.08,0,.11.05.11A.19.19,0,0,1,302.6,149.94Zm.11-.41c-.07,0-.11.08-.11.24v.17C302.67,149.9,302.71,149.76,302.71,149.53Zm0,2.41h0l0-.06Zm.15-2.41c.11,0,.16-.16.16-.35-.11,0-.16.08-.16.23Zm.05,1.08v-.17s-.05,0-.05.12v.17A.21.21,0,0,0,302.86,150.61Zm.11-1.54c.13,0,.2-.13.2-.36A.34.34,0,0,0,303,149.07Zm.2-.36c.07,0,.11-.06.11-.17S303.17,148.6,303.17,148.71Zm.26-.86a.37.37,0,0,0-.15.06,1.13,1.13,0,0,1,.1.57,1.06,1.06,0,0,0,.31-.81.14.14,0,0,1-.1.06A.55.55,0,0,1,303.43,147.85Zm0-3.09c.11,0,.18,0,.21-.07s-.05,0-.05-.11a.21.21,0,0,0-.21.12Zm0,4.69v-.06h-.05Zm.21-.47h-.05v0Zm-.05,1.09h.05l-.05-.11Zm.1-2.4a.23.23,0,0,0,.11-.07h.05a1.7,1.7,0,0,1,.23-.44,1.61,1.61,0,0,0,.24-.43s0-.06-.05-.06-.18,0-.21.07A1.74,1.74,0,0,0,303.69,147.67Zm.21.68c.07.07.18,0,.31-.25a.53.53,0,0,1,.06-.23h-.21c-.18,0-.23.14-.16.41Zm.11-3.9-.11.06H304c.13.07.24.07.31,0s.1-.07.1-.18A.71.71,0,0,1,304,144.45Zm-.11,4.75H304v-.06Zm.31-.41v-.06l-.1.06Zm.06-1s.05,0,.05-.12Zm.67-3.52a.15.15,0,0,1,.11-.06s0-.06-.11-.05h-.31c-.1,0-.16,0-.16.12Zm-.41,3v-.11a.26.26,0,0,0,.1-.24.16.16,0,0,0-.16.18C304.47,147.29,304.49,147.35,304.53,147.35Zm.1-.35a.14.14,0,0,1,.1-.06l-.05-.05S304.63,146.93,304.63,147Zm.05,1h.05l-.05-.11Zm.37-.87.05.06a.41.41,0,0,1,0-.18C305.11,147.06,305.08,147.1,305.05,147.1Zm.1-.12a.35.35,0,0,1,.16-.06l-.06,0S305.22,146.94,305.15,147Zm2.34-4V143a.3.3,0,0,0,.05-.18Zm.21-.24-.11.06h.11Zm3.43.9h.1l-.1-.05a2.62,2.62,0,0,1-.89-.14,1.48,1.48,0,0,0-.83,0c0,.08-.14.12-.31.13a2.22,2.22,0,0,0-.83.14.29.29,0,0,0-.42.19s-.08.06-.15.18v0a.15.15,0,0,0,.15.05h.21a1.21,1.21,0,0,0,.42-.08,2.59,2.59,0,0,1,.62-.08.65.65,0,0,0,.41-.13,2.47,2.47,0,0,1,.89-.14A1.67,1.67,0,0,0,311.13,143.61Zm-3.23,18.26,0,.11h0Zm.58-.6h-.11l.11.05Zm.46-.64s-.08,0-.15.06l.1.06s.05,0,.05,0,0,0,.06,0Zm.63-.88-.06.06h.06Zm.57-.42-.1.11a.23.23,0,0,1,.15.05A.23.23,0,0,1,310.14,159.33Zm.21-.47c-.07,0-.11,0-.11.12V159C310.31,159,310.35,159,310.35,158.86Zm.2-.24a.15.15,0,0,1-.07.12.14.14,0,0,0-.08.12C310.5,158.85,310.55,158.78,310.55,158.62Zm.16-.06-.1-.05v.11S310.64,158.56,310.71,158.56Zm.42,19.26c.06,0,.1-.06.1-.17a.16.16,0,0,0-.05-.11v.05a.27.27,0,0,1,0,.12A.22.22,0,0,0,311.13,177.82Zm.1-22.14h-.05v-.05Zm0,23.51v-.05l-.05.05Zm.21-21.57-.05.06v0A.16.16,0,0,0,311.44,157.62Zm-.05,18c.1-.11.19-.18.26-.18v.4h-.11A.22.22,0,0,1,311.39,175.58Zm0,5.21a.21.21,0,0,0,.05-.12h-.05Zm2.91-37.87c.1,0,.15-.06.15-.17s-.05-.06-.15-.05a.91.91,0,0,1-.63,0c-.07-.15-.17-.15-.31,0a.34.34,0,0,1-.18.09l-.18,0a1,1,0,0,0-.34.1,1.59,1.59,0,0,1-.39.1.91.91,0,0,0-.34.12.77.77,0,0,1-.34.13s0,.06,0,.06a.21.21,0,0,0,.21.11l.31,0a3.82,3.82,0,0,1,.89-.26h.31a2,2,0,0,1,.93-.2s.05,0,.05,0S314.26,142.93,314.3,142.92Zm-2.65,14.46a.37.37,0,0,0-.11.23Zm-.06,20.48,0,.18a.33.33,0,0,0,.11.22V178S311.59,177.94,311.59,177.86Zm0,1.72s.06,0,.06-.12v-.34c-.07,0-.11,0-.11.12v.34Zm.26-22.38s-.1.06-.2.18S311.75,157.32,311.85,157.2Zm0,17.91c0,.15-.07.23-.2.23a1.6,1.6,0,0,1,.1-.63.51.51,0,0,1,.05-.17.19.19,0,0,1,.21.1v.18C311.91,174.82,311.85,174.92,311.85,175.11Zm-.2.23v0Zm.36,2.85s.05,0,.05-.06,0,0-.05,0,0-.12-.05-.12h-.11a.28.28,0,0,1-.2.29V179l.15-.07a1.89,1.89,0,0,0,.11-.37A1.43,1.43,0,0,1,312,178.19Zm-.26-22.7a.3.3,0,0,1,.08-.2l.18-.21.16-.18a.22.22,0,0,0-.11-.22.2.2,0,0,1,.11-.18c.1-.15.19-.23.26-.24,0,.19.17.25.41.16.07-.08.11-.06.11.05v.06l-.11.12a.76.76,0,0,0-.47.36l-.52.59c-.07.08-.1.08-.1,0ZM312,157c-.1,0-.16.06-.16.18A.16.16,0,0,0,312,157Zm-.16,19.45v.23l.11.06a.06.06,0,0,0,.05-.06v-.46A.76.76,0,0,0,311.85,176.42Zm.11-2.17H312l-.05.06Zm.1.56H312c0-.08,0-.12.05-.12Zm.11-17.9c0-.08,0-.12-.11-.12V157Zm-.11,18.36v-.46h.16v.46s-.05,0-.05.06Zm.16,2.11v0a.37.37,0,0,0-.05-.23c-.07,0-.11.08-.11.12v.11a.24.24,0,0,0,.11.23C312.17,177.44,312.18,177.38,312.22,177.38Zm.21-2.92c0,.15-.07.23-.21.23v-.4a.29.29,0,0,1,.21-.12Zm-.06,2.17a.46.46,0,0,0,.06-.23c-.11,0-.16,0-.16.12s0,.17.1.17Zm.21-22.54c0,.11-.05.17-.15.17S312.48,154.09,312.58,154.09Zm-.15,22.31a.41.41,0,0,0,.15-.35v-.28c-.1,0-.15.08-.15.23Zm.15-20.08-.1.12v.05l0-.06A.18.18,0,0,0,312.58,156.32Zm.05-2.29v.05h-.05Zm-.05,19.05h0Zm.11-19.11V154h-.06A.05.05,0,0,1,312.69,154Zm.15,2a.34.34,0,0,0-.21.07v.29a.43.43,0,0,0,.16-.1l.21-.15-.05,0A.15.15,0,0,0,312.84,156Zm0,19.57s0-.09-.1-.17l-.06.12v.29C312.74,175.65,312.79,175.57,312.79,175.53Zm.16-33.47-.11.06a.32.32,0,0,0,.16,0l.05-.06a0,0,0,0,0-.05-.05Zm.1,29a.17.17,0,0,1,.1.17H313C313,171.12,313,171.06,313.05,171.06Zm-.05.23v0Zm.15-15.85c-.07,0-.1.06-.1.17S313.15,155.55,313.15,155.44Zm.21,15.21-.1.11a.55.55,0,0,0-.11-.16c0-.31.11-.46.31-.47a.41.41,0,0,1,0,.34Zm.31-15.58a.47.47,0,0,0-.47.37C313.48,155.43,313.64,155.31,313.67,155.07Zm-.21-1.3h0l0-.06Zm.11,15.61a2.68,2.68,0,0,1,.47-1s0-.06,0-.06V169L314,169a2.57,2.57,0,0,1-.31.59v0c-.07.12-.1.1-.1,0Zm.31-14.48c-.07,0-.1.06-.1.17S313.88,155,313.88,154.9Zm-.1,15.5.05.12-.05,0Zm.31-15.74c-.14,0-.21.07-.21.18S314,154.78,314.09,154.66Zm-.21,15.05.21-.12a.34.34,0,0,0,0,.23.05.05,0,0,1-.06.06A.17.17,0,0,1,313.88,169.71ZM314,173H314l-.06-.12Zm.26-18.54c-.1,0-.15.08-.15.23A.33.33,0,0,0,314.24,154.43Zm0,13.72q0,.18-.15.18v-.28c.07-.08.1-.09.1,0S314.24,168.08,314.24,168.15Zm.06,1c-.07.23-.14.37-.21.41V169h.15C314.35,169,314.37,169.07,314.3,169.18Zm-.06,1.55-.05.06h-.1a1.36,1.36,0,0,1,.1-.63l.31-.7s.06-.06.16-.06a1.21,1.21,0,0,1-.16.69A1.7,1.7,0,0,0,314.24,170.73Zm.26-28.84v-.06c0-.08-.07-.11-.2-.11a.7.7,0,0,1-.11.18h.31Zm-.05,12.36c-.1,0-.15.06-.15.17S314.45,154.36,314.45,154.25Zm.16,12.92v.23l-.21.23-.1,0,.15-.35A.21.21,0,0,1,314.61,167.17Zm.05-13.16s-.1.06-.21.18Q314.55,154.19,314.66,154Zm-.16,14.25h.11v.11h-.11A.08.08,0,0,1,314.5,168.26Zm.32.9c0,.12-.06.18-.16.18v-.23l0-.11C314.78,169,314.82,169.05,314.82,169.16Zm0-16.82s-.07,0-.11-.05a.08.08,0,0,1,0-.11,1.13,1.13,0,0,0,.31-.76.43.43,0,0,1,.26-.41c.11,0,.18,0,.21,0a.62.62,0,0,1-.05.18.16.16,0,0,1-.05.11.09.09,0,0,0,.05.09.09.09,0,0,1,.05.08c.11,0,.11,0,0,.17a1.88,1.88,0,0,1-.62.71Zm.62-9.69.05-.06s.07-.06.11-.06l-.78,0-.11.12s0,.06.11,0A1.16,1.16,0,0,0,315.44,142.65Zm-.73,23.77c0-.11,0-.15.11-.12S314.78,166.42,314.71,166.42Zm.37-.53a.24.24,0,0,1-.16.24.11.11,0,0,1-.1.12,1.24,1.24,0,0,0,.05-.41c0-.11.05-.17.15-.17h.06Zm-.21,2.58a.7.7,0,0,1,.36-.58,1,1,0,0,1-.1.35,1.1,1.1,0,0,0-.11.29.37.37,0,0,1-.15.06Zm.26-14.76-.11-.06a.23.23,0,0,1,.21-.12Zm-.05,12.93c0-.12,0-.18.05-.18l.05-.06.1-.11.11.16v.23a.24.24,0,0,0-.13,0l-.13,0h-.05A.07.07,0,0,1,315.08,166.64Zm.31-15.35c0,.08-.05.12-.16.12l0,.06C315.35,151.47,315.39,151.41,315.39,151.29Zm-.16,2.13a.48.48,0,0,0,.16-.41l.41,0a1.93,1.93,0,0,1-.15.41c-.18.16-.31.2-.42.13Zm0,12,0-.06c0-.11,0-.17,0-.17s.11,0,.11.05Zm.11,2.28s-.05.12-.16.24v-.29l0-.06C315.35,167.58,315.39,167.62,315.39,167.65Zm.41-14.88c-.07-.12-.12-.17-.15-.17l-.11.06a.49.49,0,0,0-.15.12.56.56,0,0,1,.21-.46,1.76,1.76,0,0,1,.46-.48,2,2,0,0,1,.63-.6v.41l.2.22a1.25,1.25,0,0,1-.05.4,1.15,1.15,0,0,0-.36.36.6.6,0,0,1-.68.31Zm-.36,14.31a1.22,1.22,0,0,1-.05-.4.64.64,0,0,0,.21-.24,3.37,3.37,0,0,1,.2-.57c.07,0,.11,0,.11-.07a3.74,3.74,0,0,1-.05.69,1.33,1.33,0,0,0-.26.64c-.07,0-.11,0-.11.06Zm.05-2.35h-.05v-.23c0-.12.05-.08.16.1S315.56,164.69,315.49,164.73Zm0,1.26-.05-.11v-.12h.05V166Zm.11-23.46.1-.06-.05-.05S315.6,142.46,315.6,142.53Zm.1-.92-.05-.05v.06Zm.31,21.5.05-.06.06.12c-.07.49-.21.79-.42.87l-.05.12v-.23A3.06,3.06,0,0,1,316,163.11Zm-.21,1.61.11-.12v.29s-.05,0-.05,0S315.8,164.84,315.8,164.72Zm.11,15.84a.15.15,0,0,1-.11.06l.06.12A.62.62,0,0,0,315.91,180.56Zm.62-30.45a.75.75,0,0,1,.36-.07l-.05.17a2.26,2.26,0,0,1-.39.44,4.54,4.54,0,0,0-.33.33H316c-.07,0-.1,0-.1-.08s0-.1.1-.14.16-.19.26-.33A3.84,3.84,0,0,1,316.53,150.11Zm-.62,14.49c0-.23.07-.36.21-.4v.17C316.12,164.52,316.05,164.6,315.91,164.6Zm.21,1c0,.15-.07.23-.21.23v-.17c0-.15.07-.23.21-.23Zm0,14.76a.35.35,0,0,0-.11.23A.37.37,0,0,0,316.12,180.33Zm.1-16.31s0,0,0,.11a.27.27,0,0,0-.15.07Zm.1,1a.33.33,0,0,1-.2.35v-.12C316.12,165.13,316.18,165.05,316.32,165.05Zm.42-22.62c.07,0,.1-.06.1-.17l-.52,0-.05.17h.05A.41.41,0,0,0,316.74,142.43Zm-.05,21.74a1.17,1.17,0,0,1-.13.44,1,1,0,0,0-.13.32h-.11v-.23A.52.52,0,0,1,316.69,164.17Zm.05-2.74a.35.35,0,0,1,.21-.13q.1.12,0,.18a2.91,2.91,0,0,0-.11.4l-.15.35h-.21s-.05,0-.05-.06A3.14,3.14,0,0,1,316.74,161.43Zm-.31,2.07v-.12h.05C316.48,163.46,316.46,163.5,316.43,163.5Zm.26-.59c0,.23-.07.37-.21.41l0-.17C316.53,163,316.58,162.92,316.69,162.91Zm-.16-13.2h.1v.12Zm.16,2a.07.07,0,0,0-.11,0,.21.21,0,0,0-.05.11h.1Zm-.06-10.35a.94.94,0,0,0,.89,0,2.38,2.38,0,0,0-.78,0A.15.15,0,0,0,316.63,141.35Zm.84,9.35a2.72,2.72,0,0,0-.42.53h-.36v-.05a8.64,8.64,0,0,1,.83-.89l.05.11v.06a.21.21,0,0,1-.05.12A.14.14,0,0,0,317.47,150.7Zm-.63,12.15a.37.37,0,0,1-.15.06.16.16,0,0,0,.05-.11Zm0,1.15-.15.17v-.28c0-.23.07-.37.2-.41l.06-.12a.41.41,0,0,1,.1.29.5.5,0,0,0-.1.17Zm1.61-21.86s.06-.06.06-.17l-1.25,0-.16.07a.37.37,0,0,1-.15.06.17.17,0,0,0-.06.12l1.41-.06A.37.37,0,0,0,318.45,142.14Zm-1.56,7.21a.18.18,0,0,1,.16-.12.2.2,0,0,1-.1.18Zm.37.27a1,1,0,0,1-.37.42v-.12c0-.15,0-.24.06-.26A1,1,0,0,1,317.26,149.62ZM317.05,161c-.07,0-.1,0-.1,0a5.07,5.07,0,0,1,.62-1.34c0-.07.05-.11.16-.12s.1.05.1.17l-.1.12-.06.06a.49.49,0,0,0-.1.34c0,.08,0,.12-.1.12a2.13,2.13,0,0,1-.37.7S317.05,161.05,317.05,161Zm.42-12.14V149a.26.26,0,1,1-.21-.28h.05Zm-.37,2.36h0Zm0,11.67s0-.12.16-.23V163l-.11.06C317.08,163,317.07,162.94,317.1,162.9Zm0-11.56v.06s0-.06,0-.17Zm.32-2c-.11.15-.18.23-.21.23C317.26,149.47,317.33,149.39,317.47,149.39Zm-.21,13.05.05-.06h.16l0,.06a.28.28,0,0,1-.26.24Zm.05-1.15.05.11h-.05Zm.73-12.55a1.39,1.39,0,0,1-.57.65V149l.2-.13C317.71,148.79,317.83,148.74,318,148.74Zm-.57,2.42,0-.06v.06Zm.26,9.43-.06-.06a.66.66,0,0,0-.1-.34,3.28,3.28,0,0,1,.26.22.21.21,0,0,1-.05.12Zm0,1-.06-.11h.06Zm.41-11.63a.36.36,0,0,0-.1.23c-.11,0-.16-.09-.16-.16s-.05-.06-.05-.17c.35-.4.64-.71.88-.95v.4a.64.64,0,0,0-.15.23A.93.93,0,0,0,318.14,150Zm.16-8.82a.73.73,0,0,1,.26-.06c.07,0,.1,0,.1-.06h-.1l-.05-.06h-.21a1.35,1.35,0,0,0-.37.07h-.05l.05,0a.12.12,0,0,0,0,.09l.08,0A.63.63,0,0,0,318.3,141.17Zm-.42,7.11a0,0,0,0,1,.05-.05v.17Zm.05,2.23h-.05l.05,0Zm-.05,8.41v-.11l.05.11Zm0,2.23V161a.94.94,0,0,1,.37-.47l.05.06s.05,0,.05.05a.7.7,0,0,1-.42.53Zm.05-12.75h0Zm0,2.06.11-.07v.06Zm.63-2.32c0,.19-.07.31-.21.35l-.16.18-.15.07v-.35a.29.29,0,0,0,.31-.24Zm-.52,2.08c.07,0,.1-.08.1-.23l.42,0c-.11.31-.28.45-.52.42Zm.26,8.06a.21.21,0,0,1-.16.06l-.05-.05.05-.06Zm-.21,1.21v-.06h.16l.05.06a.18.18,0,0,1-.16.12Zm.16-11.45s.05,0,.05-.06a.35.35,0,0,0,.05.17s-.05,0-.05-.05S318.28,148,318.25,148Zm0,11h.1l-.05.12S318.25,159.1,318.25,159Zm.26-.12s-.06.06-.16.06a.19.19,0,0,0,.1-.17Zm.15-1.21h-.15a.05.05,0,0,1-.06-.06.37.37,0,0,1,.11-.23c.1,0,.15,0,.15.05S318.7,157.65,318.66,157.69Zm.21-9.67a.39.39,0,0,1-.31.12.41.41,0,0,1,.05-.17l.05-.06a1.09,1.09,0,0,0,.26-.41q.1,0,.21-.18c.1-.12.16-.19.16-.23s.2-.09.2-.24h.32v.06A6,6,0,0,1,318.87,148Zm-.31,1.55c.1,0,.15-.08.15-.23h.37v0a1.86,1.86,0,0,1-.52.59Zm.1,8.92-.1-.05c0-.11,0-.17.1-.17s0,0,0,0A.68.68,0,0,0,318.66,158.49Zm-.1,1a.09.09,0,1,1,.1.11Zm.57-12.15q-.21,0-.21.18h-.15l-.11-.06v-.11a.56.56,0,0,1,.47-.25Zm-.05,1.38c0,.15-.12.23-.37.24A.34.34,0,0,1,319.08,148.7Zm-.37,10.65c0-.23.07-.36.21-.41v.17Q318.92,159.35,318.71,159.35Zm.21-.58s.05-.12.16-.23c0,.23-.05.36-.16.4Zm.26-2.35s0,.05-.1.06-.05,0-.05-.09a.19.19,0,0,1,.05-.14s.05,0,.05,0,0,0,.05,0l.11.05C319.29,156.35,319.25,156.41,319.18,156.42Zm-.1-7.09h0Zm.21-2.47v.23h-.16C319.13,146.94,319.18,146.86,319.29,146.86Zm-.16.46v0Zm1.25.36a.21.21,0,0,0,.21-.24H321l-.05.11c0,.08-.07.12-.11.12A13.15,13.15,0,0,1,319.7,149a.56.56,0,0,1-.41.07c0-.23-.06-.36-.16-.39v-.12a.23.23,0,0,1,.16-.23h.2v.11c0,.12.07.17.11.17a.27.27,0,0,0,.21-.29c.06,0,.13-.09.2-.24,0,0,.08,0,.13-.09a.21.21,0,0,1,.13-.09A.37.37,0,0,0,320.38,147.68Zm-1.25,1.64c0-.11.05-.17.16-.17A.15.15,0,0,1,319.13,149.32Zm.26,9c-.07.15-.16.23-.26.23v-.05a1.76,1.76,0,0,1,.36-.87h.06s.05.06.05.17l-.05.23A1.69,1.69,0,0,1,319.39,158.3Zm-.05-11.5s.08,0,.15,0h-.2Zm0,10.07q0-.18.15-.18a.43.43,0,0,1-.1.29C319.29,157,319.27,157,319.34,156.87Zm0-1.09s.05-.06.15-.06,0,.08-.1.12Zm1.4-14.87q.21,0,.21-.18l-1.46.06-.1.06.1.11Zm-.73,7.18a.55.55,0,0,0-.2.24h-.32c0-.35.21-.49.52-.42Zm-.52,7.4q0-.12.21-.3c0,.27-.07.45-.21.53Zm.11.8v.17c0,.15,0,.23-.11.23A.6.6,0,0,1,319.6,156.29Zm0,22c0,.08,0,.12-.11.12v-.17C319.56,178.12,319.6,178.14,319.6,178.25Zm.1-22h-.1l.1-.07Zm.05-1.2.06,0a.15.15,0,0,1-.11.06A.21.21,0,0,1,319.75,155.08Zm0,1.09v.05h-.05A0,0,0,0,1,319.75,156.17Zm.16-13.17h0Zm.1,3.66c0,.11-.07.17-.2.18S319.87,146.67,320,146.66Zm-.05-3.6h0V143S320,143,320,143.06Zm0,3.09s0-.06.1-.06a.13.13,0,0,1-.05.11Zm.26,8.23c0,.23-.09.34-.26.35v-.06a.54.54,0,0,1,.21-.41Zm-.21,1.09c.1,0,.16,0,.16.05v.06H320l0-.06S320,155.51,320,155.47Zm0,1.37,0-.11a.14.14,0,0,0,.1-.06A.29.29,0,0,0,320,156.84Zm.05-10.75c0-.15.05-.23.16-.24A.31.31,0,0,1,320,146.09Zm.11.45h.05a.21.21,0,0,1-.16.06Zm.62.21a.66.66,0,0,1,.42-.13v.17a.24.24,0,0,0-.21.24.88.88,0,0,0-.36.41.57.57,0,0,0-.21.24s-.11.06-.21.17H320c0-.23.05-.36.16-.41a3.79,3.79,0,0,0,.28-.35Zm.42,8.28c-.14,0-.21.18-.21.4h-.05a.15.15,0,0,1-.11.06,1.66,1.66,0,0,1-.26.55c-.14.22-.22.36-.26.44s-.19.18-.26.18v-.29a2.27,2.27,0,0,0,.37-.64,6.51,6.51,0,0,0,.57-1.16v-.18c.1-.11.17-.17.21-.17l.15-.07a.61.61,0,0,1-.1.46S321.16,154.8,321.16,155Zm-.89-7.12h-.1v-.06h.1Zm0-2.06a.35.35,0,0,1,.11-.23Zm0,9.1c0-.08,0-.12.11-.12v.28h-.06S320.27,155.06,320.27,155Zm.32-9.57c.1-.12.15-.1.15.05v.17l-.36,0Zm-.21,9.27c.1-.15.17-.23.21-.23h.15a.67.67,0,0,1-.36.42Zm.15-8.7a1.31,1.31,0,0,0,.26-.35,1.34,1.34,0,0,1,.37-.18c0,.15,0,.25-.06.28l-.41.48a.34.34,0,0,1-.21-.05A.62.62,0,0,1,320.53,146Zm.16,7.49v-.17a.26.26,0,0,1,.05.17s0,.06-.05.06Zm.1-7.84h0Zm.52,8.16a.67.67,0,0,0-.36.64h-.16a1.85,1.85,0,0,1,.21-.92.58.58,0,0,1,.21-.07l.1.06Zm1.46-11.95c.07.11.05.17,0,.17a1.68,1.68,0,0,0-.47.42.81.81,0,0,1-.68.54l-.41,0a.63.63,0,0,1-.26-.05l-.11-.11a.71.71,0,0,0,.13-.38,1.62,1.62,0,0,1,.08-.37s0-.06.1-.06a2.16,2.16,0,0,1,.52-.25l.58,0,.41,0C322.72,141.7,322.77,141.73,322.77,141.81Zm-1.61,5a.2.2,0,0,0,.2-.18h.21l.05.11v.23c-.24.16-.46.33-.67.49V147A.21.21,0,0,0,321.16,146.79Zm2-6.2a.21.21,0,0,1,.05-.11v-.06l-2,.08a.05.05,0,0,0-.06.06l-.1.11,1.72-.06Zm-1.92,4.65a.5.5,0,0,1,.52-.3.62.62,0,0,1-.57.48C321.16,145.3,321.17,145.24,321.21,145.24Zm.36,1.08a2.84,2.84,0,0,1-.26.23h-.15a.41.41,0,0,1,.26-.41l.1-.06h.1a.12.12,0,0,1,0,.14C321.63,146.28,321.61,146.31,321.57,146.32Zm-.41.24v0Zm0,5.55a.75.75,0,0,1,.36-.42c0,.27-.07.45-.21.53h-.1A.13.13,0,0,1,321.16,152.11Zm0,21.62s0-.06.1-.06a.16.16,0,0,1-.1,0h0l0,0Zm0-29.06h.1a.24.24,0,0,1,.21-.13c0,.12,0,.18-.16.18a.07.07,0,0,1-.1,0A.08.08,0,0,1,321.21,144.67Zm.31,8.34a.58.58,0,0,1-.21.07c-.07,0-.1,0-.1-.06s.12-.06.15-.17l.06-.06A.23.23,0,0,1,321.52,153Zm-.16-6.4h-.05v-.06h.05v.06h0Zm.16,7.32c0,.15,0,.23-.16.23v-.4h.16Zm-.1,1.2v-.06l-.06,0A.14.14,0,0,0,321.42,155.13Zm.1-10.59c0-.15.07-.23.21-.23C321.73,144.46,321.66,144.54,321.52,144.54Zm0,7.15a.42.42,0,0,1,.21-.4v.17C321.73,151.61,321.66,151.69,321.52,151.69Zm.1,2a.14.14,0,0,1-.1.06c0-.07,0-.11.05-.11S321.62,153.66,321.62,153.69Zm.11-9.38c0-.12,0-.18.1-.18S321.8,144.31,321.73,144.31Zm0,.63c0-.12,0-.18.1-.18S321.8,144.93,321.73,144.94Zm.21,5.82a1.47,1.47,0,0,1,.31-.29v.34l-.13.12a.77.77,0,0,0-.13.12.16.16,0,0,0-.05.12l-.21.12A.79.79,0,0,1,321.94,150.76Zm-.21,1.33c0-.12,0-.17.1-.18v.23l-.05.06S321.73,152.16,321.73,152.09Zm.1-7.33.11-.06v.06Zm.11,7.15h0Zm1.09-8.57a.9.9,0,0,1,.36-.07s0,.06-.05.06l-.47.53c-.21.24-.36.44-.47.59s-.15.07-.36.07v-.17c0-.15,0-.22-.1-.22a.41.41,0,0,1,.1-.29.35.35,0,0,1,.16-.06l.05.11a.14.14,0,0,0,.05.11.06.06,0,0,0,.1,0A7.25,7.25,0,0,0,323,143.34Zm-1.09,1.36c0-.11,0-.17.1-.18S322,144.7,321.94,144.7Zm0,.92H322v.06Zm.05,7.2h-.05v-.23a3,3,0,0,1,.46-.7h.06l.1.05A1.61,1.61,0,0,1,322,152.82Zm.26,19.27q-.06.22-.21.24Zm.15-21.86q0,.22-.15.24c0-.23.05-.37.15-.41Zm-.15.58v0ZM322.4,172s0,.06-.15.06,0-.08.1-.12Zm.16-28.61s0-.06-.1,0a.24.24,0,0,0,.15-.07s0,.06,0,.06S322.56,143.38,322.56,143.42Zm.05,6.58h-.05s-.07.06-.1.06,0-.17.1-.18S322.61,149.92,322.61,150Zm.16-7.5v.11h0Zm0,.68s0,0,0,.12v-.17Zm0,6.3v.11l0-.11Zm0,22,0-.05a.12.12,0,0,1,.1-.06S322.77,171.37,322.77,171.44Zm.05-20.42A.26.26,0,0,0,323,151l-.06-.06C322.85,150.94,322.82,151,322.82,151Zm0,20.19c0-.08.05-.12.16-.12S322.92,171.21,322.82,171.21Zm.1-26.37c-.1-.11-.07-.23.11-.35h.15v.63s0,.06-.05.06-.1,0-.1,0A.41.41,0,0,1,322.92,144.84Zm.21,3.94a2.05,2.05,0,0,1,.26-.24.84.84,0,0,1-.21.58h-.05c-.07,0-.1-.06-.1-.17A.28.28,0,0,1,323.13,148.78Zm-.1,1.72c.1,0,.15,0,.15-.07v-.17a.37.37,0,0,0-.15.06v.18Zm.1,20.41V171c-.07,0-.1,0-.1.12A.19.19,0,0,1,323.13,170.91Zm.94-30.58q.15,0,.15-.12h-.05a.16.16,0,0,0-.1-.05,3.82,3.82,0,0,0-.73.08l-.16.18A4,4,0,0,0,324.07,140.33Zm-.89,4.15c0-.15.07-.23.21-.23C323.39,144.4,323.32,144.48,323.18,144.48Zm.21,5.54q-.11,0-.21.18S323.29,150.14,323.39,150Zm-.21,1.21c.14,0,.21-.12.21-.23v-.12A.32.32,0,0,0,323.18,151.23Zm.21-8a.23.23,0,0,1,.16-.23C323.55,143.19,323.49,143.27,323.39,143.27Zm.36.45c.14-.16.25-.24.32-.24s0,.22-.11.46a.36.36,0,0,0-.21.24,1.21,1.21,0,0,1-.36.07.39.39,0,0,1,.16-.27A.82.82,0,0,0,323.75,143.72Zm-.36,4.82c0-.19.05-.31.16-.35v.34Zm.05,1.31a.68.68,0,0,0-.05.17C323.49,150,323.51,150,323.44,149.85Zm-.05.92c.1,0,.16-.05.16-.12S323.39,150.69,323.39,150.77Zm.05-8.18v-.12h.11A.11.11,0,0,1,323.44,142.59Zm.16,27.68h0c0,.11,0,.17-.1.17s-.11-.05-.11-.17Zm-.05-27.8v-.06h.05Zm.05.57q0-.18.15-.18A.16.16,0,0,1,323.6,143Zm.47,4.67a.37.37,0,0,0-.11.23c-.21.09-.33.17-.36.25v-.35c.28-.47.48-.84.62-1.11a.71.71,0,0,1,.37-.35h.05v.06a1.78,1.78,0,0,1-.42.87A.63.63,0,0,0,324.07,147.71Zm-.47,2.94a.5.5,0,0,0,.15-.41c-.1,0-.15.08-.15.23Zm.15-.47c.07,0,.11,0,.11-.12a0,0,0,0,0-.05-.05Zm.06,19.62c0-.23.08-.34.26-.35s.07.26-.11.46l-.1.06C323.75,169.86,323.74,169.8,323.81,169.8Zm.2-20,.06-.17C324,149.6,324,149.66,324,149.77Zm.16-2h-.1v-.06h.1Zm-.1,21.69.1-.12v.11Zm.1-19.91c.07,0,.1-.14.1-.41C324.07,149.18,324,149.31,324.17,149.54Zm.1-6.3-.1.23C324.17,143.32,324.2,143.24,324.27,143.24Zm0,5.15a.14.14,0,0,0-.1.06h.05Zm0,20.88v.06h-.05S324.19,169.27,324.22,169.27Zm.16-26h0Zm.1,4.91-.21.12A.29.29,0,0,0,324.48,148.15Zm-.21,1a2.94,2.94,0,1,1,.11-.09C324.34,149.1,324.31,149.13,324.27,149.13Zm.11-6.06.05.05s-.05,0-.05.12Zm.26,4.85a.59.59,0,0,0-.16.23C324.59,148,324.64,148,324.64,147.92Zm-.16,1a.16.16,0,0,0,.16-.18C324.53,148.72,324.48,148.78,324.48,148.9Zm.11-5.38s0-.06.05-.06h.21c0,.08-.06.11-.16.12S324.59,143.55,324.59,143.52Zm.1,5.2c.1-.05.16-.16.16-.35-.11,0-.18.08-.21.23A.21.21,0,0,0,324.69,148.72Zm0-5.84h.1V143Zm.16,4.63c-.11,0-.16.08-.16.23v.18c.1,0,.16-.08.16-.24Zm.15-4.24c0,.12-.05.17-.15.18s0-.17,0-.17Zm-.15,2.52a.31.31,0,0,1,.2-.12.88.88,0,0,1-.05.29h-.1S324.85,145.87,324.85,145.79Zm0,1.55a.29.29,0,0,1,0,.17.18.18,0,0,1,.15-.06Zm0,.91a.27.27,0,0,0,.2-.12C324.92,148.14,324.85,148.18,324.85,148.25Zm.41-3h.16a.71.71,0,0,1-.37.41v-.23Q325.05,145.28,325.26,145.26Zm-.21,2.87a.82.82,0,0,0,.37-.64C325.17,147.54,325.05,147.75,325.05,148.13Zm.21-1.95.11-.06v.06Zm.11.51v.11a.51.51,0,0,0,.05-.17Zm.05-1.43c0-.27.07-.42.21-.47v.46Zm0,2.23c.14,0,.21-.08.21-.24v-.17A.44.44,0,0,0,325.42,147.49Zm.78-3.12-.11.12-.1.06s-.09,0-.16.12a.29.29,0,0,1-.2.12.69.69,0,0,1,.15-.46c.07-.15.14-.29.21-.41s.14-.18.31-.18C326.23,144.12,326.2,144.33,326.2,144.37Zm-.57,2.65c.1,0,.15-.06.15-.17S325.63,146.91,325.63,147Zm.05-5.78.1-.06C325.71,141.19,325.68,141.21,325.68,141.24Zm.15,5.6a.82.82,0,0,0,.37-.64H326A.55.55,0,0,0,325.83,146.84Zm.68-5.91c0-.08,0-.12-.05-.12a0,0,0,0,0,0-.05,3.7,3.7,0,0,1-.52.19l-.06.12.16.11.05,0C326.28,141.3,326.44,141.2,326.51,140.93Zm-.31,5.27c.07,0,.1-.08.1-.23v-.12C326.23,145.9,326.2,146,326.2,146.2Zm.21-6.3a.17.17,0,0,0-.16.12s.05,0,.05.06.16,0,.16-.07Zm.62,2.9a2.38,2.38,0,0,1-.29.44,3.29,3.29,0,0,0-.33.49l-.11-.11a.65.65,0,0,1,.16-.46,2.69,2.69,0,0,1,.62-.65A.57.57,0,0,1,327,142.8Zm.31,1.76a.74.74,0,0,0,.1-.46l-.1.11-.26.13q0,.16-.21.24v.4a.79.79,0,0,1-.36.24q0,.17-.21.18v.34a.52.52,0,0,0,.42-.3c.13,0,.2-.2.2-.47A.85.85,0,0,0,327.34,144.56Zm-.88.49s0,.06,0,.17h.1C326.51,145.1,326.49,145.05,326.46,145.05Zm.26-1.1q-.11.18-.21.18s.07,0,.1-.09S326.68,144,326.72,144Zm.1-.12h.05a.18.18,0,0,1-.15.06Zm-.1.06v0Zm.15-4.46-.05.11v.06A.29.29,0,0,0,326.87,139.43Zm1,1.73.21-.23s.08,0,.15,0c.14.19.3.18.47,0l.11-.06H329c0-.15-.1-.23-.21-.22l-.72,0a1.6,1.6,0,0,1-.94.26.38.38,0,0,0-.26.13v.11c0,.08,0,.12.1.11a.67.67,0,0,1,.16-.06.13.13,0,0,1,.21,0,.74.74,0,0,0,.31.22A1.06,1.06,0,0,1,327.86,141.16Zm-.78-1.28-.05.05a.23.23,0,0,1-.11.07H327a.5.5,0,0,0,.26,0c.21,0,.33,0,.36-.07h.16a.32.32,0,0,1-.16-.05l0,0Zm.21,2.39c0,.16-.11.23-.21.24A.24.24,0,0,1,327.29,142.27Zm.31-3.16s-.05.06-.16.07A.26.26,0,0,1,327.6,139.11Zm-.16,5q.31,0,.42-.42l-.42,0Zm1.46-1.95a.48.48,0,0,0,.21-.35v-.05l-.05-.06-.24.18-.28.18c0,.12,0,.18-.11.18,0,.27-.07.42-.21.46a.09.09,0,0,1-.05.09.08.08,0,0,1-.1,0s0-.06-.05-.06a.7.7,0,0,0-.37.42h.16l.1.11a.82.82,0,0,0-.05.46l.05.06a.18.18,0,0,0,.11,0c.13.07.2,0,.2-.12v-.29a.27.27,0,0,1,.21-.29l.11-.24A1.9,1.9,0,0,1,328.9,142.15Zm-1.09-3.67-.11.06v-.06Zm.41,3.81q-.25,0-.15.24a.37.37,0,0,0-.05.17h.2Zm-.1-3.6h-.05a.18.18,0,0,1,.15-.07Zm-.05,2.92.05-.06h-.05Zm.15-3.09c0-.23.21-.35.52-.36C328.71,138.39,328.54,138.51,328.22,138.52Zm0,3.72h.21v-.17Q328.22,142.06,328.22,142.24Zm.21-.18h.11c0-.07,0-.11-.06-.11S328.43,142,328.43,142.06Zm.31-3.9q0-.18.21-.18A.64.64,0,0,1,328.74,138.16Zm.11-.81,0,.11h0Zm.1.57c0-.12.05-.17.16-.18S329.06,137.92,329,137.92Zm.16,3.14.1-.12.11-.12-.37,0V141a.16.16,0,0,0,.05.11l.06.06S329.11,141.1,329.11,141.06Zm0-3.32q0-.23.36-.24a.21.21,0,0,1-.21.24Zm.21,1.25h-.06a.2.2,0,0,1-.1.07c.07,0,.1,0,.1.05A.17.17,0,0,1,329.32,139Zm-.06.92v-.11l-.1.11Zm.21-1.15c-.1,0-.15.08-.15.23,0,0,0-.07.07-.12A.12.12,0,0,0,329.47,138.76Zm-.15,2.06h.2c-.07-.11-.12-.16-.15-.16S329.32,140.71,329.32,140.82Zm.36-4v.23h-.16l-.15,0c0-.12,0-.18.1-.18l.11-.12Zm-.21.64h0Zm0,0c0-.12.06-.18.16-.18A.16.16,0,0,1,329.52,137.5Zm.06,1.14v-.06a.24.24,0,0,0-.06.18Zm0,2.29a.11.11,0,0,0,.1-.12h-.16Q329.52,140.93,329.58,140.93Zm1.09-1.93a.35.35,0,0,1,.05-.17l0-.12h0c-.14,0-.21,0-.21-.11a.2.2,0,0,1-.05-.14.24.24,0,0,1,.05-.14,5.33,5.33,0,0,0,.62-.82v-.12h-.05a4.83,4.83,0,0,0-.62.48,3.2,3.2,0,0,1-.42.3c-.07,0-.1,0-.1.07s.1,0,.1.11.18,0,.11.11a3.54,3.54,0,0,0-.29.38c-.12.18-.22.3-.28.38v.06s.05,0,.15,0c.21-.16.33-.26.37-.3s.22-.05.25,0a.62.62,0,0,1,.11.17l.05,0C330.61,139.12,330.67,139,330.67,139Zm-1-1.74v-.17h.21Q329.89,137.26,329.68,137.26Zm0,3.55.1-.12v-.06C329.71,140.64,329.68,140.69,329.68,140.81Zm1.19-4.68c.11-.12.21-.14.32-.07a.05.05,0,0,0-.06.06l-.41.48a1,1,0,0,0-.47.41,1,1,0,0,1-.36.07,1.53,1.53,0,0,1,.21-.35s0-.07.07-.11a.17.17,0,0,0,.08-.12.59.59,0,0,0,.42-.19C330.77,136.19,330.84,136.13,330.87,136.13Zm-.62.37q-.15,0-.15.12c-.11,0-.16,0-.16-.05s0-.09,0-.15.07-.09.1-.09h.11a.14.14,0,0,1,.1-.06Zm-.15.23v0Zm.25-.58c0,.08,0,.12-.1.12a.41.41,0,0,1,.1-.18Zm.63,2.38s-.11.06-.21.18C330.91,138.7,331,138.65,331,138.53Zm0,.69a.16.16,0,0,0,.15-.18v-.12a.33.33,0,0,0-.2.13l-.06.11C330.87,139.28,330.91,139.3,331,139.22Zm3,1.66.16.22-.42.47a.31.31,0,0,1-.15.07l-.57,0c-.11,0-.13-.07-.06-.23l.21-.24-.05-.05a5.13,5.13,0,0,0-1.35-.06c-.07,0-.16.06-.26.18h-.31l-.11-.05-.15-.17V141s.08,0,.15-.12l1.41-.05,1.24,0a.47.47,0,0,1,.16,0Zm-3-2.46c.14,0,.17,0,.1-.12Zm.21-3.16c.1-.08.15,0,.15.11v.23h0c-.14,0-.21,0-.21-.11Zm0,.74c0-.11.05-.17.15-.17S331.29,136,331.19,136Zm0,2.92c.1-.12.15-.19.15-.23S331.19,138.77,331.19,138.92Zm.31-3.44a.52.52,0,0,1,.41-.07v.17l-.2.12a1.64,1.64,0,0,1-.37.13v-.23C331.45,135.6,331.5,135.56,331.5,135.48Zm-.16,3.21q.21,0,.21-.18Q331.4,138.51,331.34,138.69Zm.21-1h-.05a.15.15,0,0,1-.11.06.1.1,0,0,1,.11.11A.29.29,0,0,1,331.55,137.65Zm.16-.23a.37.37,0,0,0-.16.23A.76.76,0,0,0,331.71,137.42Zm-.16,1c.21,0,.26-.12.16-.34C331.6,138.09,331.55,138.2,331.55,138.39Zm.57-3.45a.21.21,0,0,0-.21.24h-.15c-.11,0-.16-.05-.16-.16V135a.65.65,0,0,0,.18-.15c.06-.06.1-.09.13-.09s.11-.08.11,0,.1,0,.1.05Zm-.52,1.11c.11.07.16.13.16.16s-.16,0-.16-.11Zm.31,1.19c-.1,0-.15.06-.15.17h.15Zm-.15.8c.1,0,.15-.06.15-.17S331.76,137.93,331.76,138Zm.15-2.63v0Zm.11.28a.1.1,0,0,1-.11-.11h.21Zm.1,1.31s-.1.06-.21.18S332,137.12,332.12,137Zm-.21.81c.21,0,.32-.15.32-.41h-.32Zm.32-1-.11.23h.11Zm.15-2.3-.05-.05h.16Zm.37,2.51c.13-.12.15-.24.05-.35a.15.15,0,0,0-.11.06h-.15l-.05.06c0,.15-.06.23-.16.23v.4C332.4,137.39,332.54,137.25,332.75,137Zm-.37-.33s-.05,0-.05.11h.16Zm0,4.75a.4.4,0,0,1,.16-.07v.06s-.05.06-.16.06Zm.31-7.22h.11v.12h-.31A.27.27,0,0,1,332.69,134.18Zm-.2.23v0Zm.41-.36v.12h-.1v-.11Zm.11-.11v.11h-.11A.1.1,0,0,1,333,133.94Zm0,2.57a.29.29,0,0,0,.2-.12v-.23a.78.78,0,0,0-.31.35Zm-.06-.74v.06s.06,0,.06-.06Zm.26-2.07v.23H333A.55.55,0,0,1,333.21,133.7Zm0,1.89-.15.18.1-.12S333.16,135.63,333.16,135.59Zm.16-2.07s.05.06.05.17h-.16C333.21,133.58,333.25,133.53,333.32,133.52Zm-.11,2.64c.11,0,.16-.06.16-.18A.16.16,0,0,0,333.21,136.16Zm.37-1.9a.14.14,0,0,1-.08.11c-.05,0-.08.08-.08.12A.32.32,0,0,0,333.58,134.26Zm-.16,1.66c.11,0,.16-.06.16-.18A.16.16,0,0,0,333.42,135.92Zm.36-1.78a.27.27,0,0,0-.2.12A.36.36,0,0,0,333.78,134.14Zm-.2,1.6c.07,0,.13-.08.2-.23A.33.33,0,0,0,333.58,135.74Zm.26-1.78a.05.05,0,0,0-.06.06h.06Zm-.06,1.55c.11,0,.16-.06.16-.18S333.78,135.39,333.78,135.51Zm.26-2.18H334l.05.11Zm-.05,1.94s.05,0,.05-.11Zm.37-2.41c.1.22.2.22.31,0Zm.26.9a.68.68,0,0,0,.41-.53.53.53,0,0,0-.47.31v.22Zm0,5.84-.06.11h.06Zm10.44.92c.18,0,.26.07.26.22l-.47,0c-.13,0-.2.1-.2.29a.88.88,0,0,0-.37.08c-.14.08-.21.06-.21,0l-.1-.17a25.39,25.39,0,0,1-3.72.17c-2.37,0-3.59.06-3.66.1a.35.35,0,0,0-.21.13h-.15a.31.31,0,0,0-.21-.11l-.31,0a.51.51,0,0,1-.37-.22l-.52,0c-.1,0-.17,0-.2-.05l.2-.18h.06l.88,0,4.63-.09C343.16,140.57,344.72,140.54,345.06,140.52Zm-10.18-7.91s-.11.06-.21.18S334.77,132.73,334.88,132.61Zm.1-.18a.33.33,0,0,0-.1.18c.07,0,.1,0,.1-.06Zm.16.8c.07,0,.1-.08.1-.23A.32.32,0,0,0,335.14,133.23Zm.1-.23a1,1,0,0,0,.21-.18Q335.24,132.82,335.24,133Zm.21-.24c.1,0,.15-.06.15-.18S335.45,132.64,335.45,132.76Zm.21-.18.1-.06v-.12A.33.33,0,0,0,335.66,132.58Zm.2,8.91.11-.06h.21s0,0-.06.06l-.1.06,0-.06Zm.21-10.24.11-.06h-.11Zm.11,10.06h.05l-.05.12Zm.2-10.36q-.15,0-.15.18A.16.16,0,0,0,336.38,131Zm-.1,1.55a.33.33,0,0,0,.1-.18l-.1.06Zm.21-1.73-.06.06-.05.06h.05S336.49,130.85,336.49,130.77Zm-.11,1.55s.11-.06.21-.18S336.49,132.21,336.38,132.32Zm0,9.1v0Zm.11,0-.06.06s0-.05-.05-.05Zm.1-9.32a.12.12,0,0,0,.1-.06h-.05Zm.26-1.67s0,0,0-.12h0Zm.16-.18.05-.12-.05.06a.15.15,0,0,1-.11.06Zm7.79,10.92c-.1,0-.15,0-.15-.11h.2l.06,0S344.87,141.16,344.8,141.16Zm.89-.43.15.11v.06a.66.66,0,0,1-.41.24c-.14,0-.19-.07-.16-.22,0,0,.05-.06.05-.18Zm-.26,0h0Z"/>
    </g>
    <g>
      <path class="cls-2" d="M61.35,35.44H73.67V95.79h30v10.86H61.35Z"/>
      <path class="cls-2" d="M109.2,33.67h12.94v11.9H109.2Zm.62,23h11.7v50h-11.7Z"/>
      <path class="cls-2" d="M156,106.65H145.39l-18.48-50H139l8.36,24.85A110.08,110.08,0,0,1,150.72,94h.42c.94-4.17,2-8.45,3.34-12.52l8.45-24.85h11.59Z"/>
      <path class="cls-2" d="M225.67,81.17a19,19,0,0,1-.21,3.45H186.83c0,7.83,6.89,14.62,14.93,14.62a12.93,12.93,0,0,0,11.17-5.64h12c-3.34,7.62-10.55,14.82-23.18,14.82-15.35,0-26.62-11.27-26.62-27.25,0-14.09,9.6-26.2,25.37-26.2C217.73,55.07,225.67,68.43,225.67,81.17Zm-38.74-5h27c-.73-6.68-5.85-12.42-13.47-12.42C192.47,63.74,187.56,69.69,186.93,76.16Z"/>
      <path class="cls-2" d="M251.35,35.44h18.06c14.73,0,24,6.48,24,18.07,0,8-5.64,13.05-12.22,15v.21c11,1.36,16.6,9.08,16.6,17.75,0,13.26-10.65,20.15-24.43,20.15h-22ZM269,45.26h-5.85V64.68h6.37c7.62,0,11.59-4,11.59-10C281.11,48.28,276.3,45.26,269,45.26Zm2.82,29.13h-8.67V96.73h9.61c8.35,0,12.52-4.28,12.52-11.17S280.48,74.39,271.82,74.39Z"/>
      <path class="cls-2" d="M354.61,81.17a19,19,0,0,1-.21,3.45H315.77c0,7.83,6.89,14.62,14.93,14.62a12.94,12.94,0,0,0,11.17-5.64h12c-3.34,7.62-10.55,14.82-23.18,14.82-15.35,0-26.63-11.27-26.63-27.25,0-14.09,9.61-26.2,25.38-26.2C346.67,55.07,354.61,68.43,354.61,81.17Zm-38.74-5h27c-.73-6.68-5.84-12.42-13.46-12.42C321.41,63.74,316.5,69.69,315.87,76.16Z"/>
      <path class="cls-2" d="M363.86,31.48h11.69v75.17H363.86Z"/>
      <path class="cls-2" d="M437.42,105.08c0,18.38-8.35,28.4-26.42,28.4-14,0-23-7.73-24.95-19.63h11.7c1.35,5.54,5.32,9.92,13.78,9.92,9.6,0,14.72-6.16,14.72-17.23v-6.26H426A21.81,21.81,0,0,1,409,108c-13.15,0-24.43-10.24-24.43-26.52,0-15.25,10.54-26.42,24.85-26.42a20.06,20.06,0,0,1,16.49,8h.32V56.64h11.17Zm-25.89-7.31c8.14,0,14.93-6.57,14.93-16.08,0-10-6.48-16.6-14.72-16.6-10.13,0-15.25,8.36-15.25,16.4S401.4,97.77,411.53,97.77Z"/>
      <path class="cls-2" d="M479.6,66.24a36.27,36.27,0,0,0-5.85-.52c-7.93,0-12.63,5.22-12.63,15.66v25.27h-11.7v-50h11.49v7.1h.31c2.3-4.28,7.31-8.67,14-8.67a26.31,26.31,0,0,1,4.39.31Z"/>
      <path class="cls-2" d="M535.87,106.65H524.49v-6.37h-.31a21.17,21.17,0,0,1-17.13,8.14c-11.27,0-24-9-24-26.83,0-15.87,11.28-26.52,24.85-26.52a19.85,19.85,0,0,1,16.39,8.35h.21V56.64h11.38Zm-25.68-8.46c7.72,0,14.82-6.68,14.82-16.29,0-10.12-6.57-16.81-14.72-16.81-10.33,0-15.24,8.36-15.24,16.5C495.05,89.94,499.85,98.19,510.19,98.19Z"/>
      <path class="cls-2" d="M547.93,56.64h11.59V62.9h.21A18.21,18.21,0,0,1,575,55c10.34,0,19.42,6.78,19.42,22.86v28.82h-11.7V78.46c0-8.56-4.07-13.16-10.75-13.16-7.31,0-12.32,5.12-12.32,14.83v26.52H547.93Z"/>
      <path class="cls-2" d="M629.44,55c15.66,0,26.72,11.48,26.72,26.62,0,14.72-11.17,26.83-26.72,26.83-15.25,0-26.73-11.69-26.73-26.83C602.71,66.14,614.3,55,629.44,55Zm0,43c8.87,0,14.93-7.1,14.93-16.39,0-8.87-5.64-16.29-14.93-16.29-9,0-14.83,7-14.83,16.29C614.61,91.2,621.4,98,629.44,98Z"/>
    </g>
  </g>
</svg>
