<svg id="Layer_1" data-name="Layer 1" xmlns="http://www.w3.org/2000/svg" viewBox="0 0 349.77 333.84">
  <defs>
    <style>
      .cls-1 {
        fill: #231f20;
      }

      .cls-2 {
        fill: #ddd;
      }
    </style>
  </defs>
  <title>ICONOS</title>
  <g>
    <polygon class="cls-1" points="337.48 81 19.07 81 19.07 215.09 160.6 215.09 173.58 237.57 186.56 215.09 337.48 215.09 337.48 81"/>
    <g>
      <g>
        <path class="cls-2" d="M64.54,174.86v-5.25h3a1.74,1.74,0,0,1,1.28.46,1.15,1.15,0,0,1,.35.83,1.17,1.17,0,0,1-.75,1.11,1.28,1.28,0,0,1,1,1.32,1.45,1.45,0,0,1-.47,1.08,1.76,1.76,0,0,1-1.35.45Zm.7-4.63v1.63h2.37a.88.88,0,0,0,.64-.23.86.86,0,0,0,.25-.61.75.75,0,0,0-.22-.53,1.06,1.06,0,0,0-.77-.26Zm0,2.2v1.81h2.45a1.09,1.09,0,0,0,.81-.29.89.89,0,0,0,.27-.63.84.84,0,0,0-.25-.59,1,1,0,0,0-.72-.3Z"/>
        <path class="cls-2" d="M75.41,169.61l-2.15,2.79v2.46h-.71V172.4l-2.15-2.79h.88l1.65,2.17,1.66-2.17Z"/>
      </g>
      <g>
        <path class="cls-2" d="M86.14,182.44l0,0,0,0a.2.2,0,0,1,.14.06l-.1.14c-.09.05-.44.3-1,.77l-.21.14q-.18.09-.21.18a.88.88,0,0,1-.22.19.73.73,0,0,0-.22.16,2.12,2.12,0,0,1-.45.28l-.88.48-.1,0a1.28,1.28,0,0,0-.43.06,1.77,1.77,0,0,1-.37.08l-.28.08h-.08a2.13,2.13,0,0,0-.64,0l-.1-.06-.06,0a.28.28,0,0,1-.12,0,.21.21,0,0,0-.12-.05,1.39,1.39,0,0,1-1-1c-.14-.34-.2-.51-.2-.52a1,1,0,0,1-.2-.46,2.77,2.77,0,0,1-.19-1.25c0-.16.08-.4.13-.71s.1-.51.12-.58a2.79,2.79,0,0,1,.36-1.12,1.37,1.37,0,0,0,.08-.26,1.1,1.1,0,0,1,.06-.27l.32-.94v-.09l.18-.25s0-.06,0-.06l.06-.09.1-.18s0,0,0-.07l.1-.18,0,0a.21.21,0,0,0,.06-.16l.08-.2s.07,0,.08-.09h0v0l.24-.45v0l0-.07a.9.9,0,0,1,.1-.18s0,0,.06-.09.11-.1.22-.31.15-.23.26-.23.16-.08.08-.23a.07.07,0,0,1,.06-.07,2,2,0,0,0,.21-.35,1.62,1.62,0,0,1,.29-.41A2.89,2.89,0,0,1,83,173a2,2,0,0,0,.22-.3c.1-.13.16-.23.2-.29l.4-.53s.25-.3.67-.77a1.43,1.43,0,0,1,.16-.18,1.45,1.45,0,0,0,.16-.21.26.26,0,0,1,.16-.2.59.59,0,0,0,.17-.18,1.45,1.45,0,0,1,.13-.18,1,1,0,0,0,.3-.35,2,2,0,0,1,.26-.27,3.66,3.66,0,0,0,.28-.28l.32-.32a6.3,6.3,0,0,1,1.38-1.13l.18-.14.1-.12.09-.12.09-.07a.32.32,0,0,1,.14,0,.1.1,0,0,1,.08,0,5.24,5.24,0,0,1,1.39-1,.54.54,0,0,0,.14-.11.61.61,0,0,1,.16-.12.24.24,0,0,1,.16-.05.91.91,0,0,1,.21-.15,1.54,1.54,0,0,1,.29-.18l.21-.11a1.14,1.14,0,0,0,.27-.17l.39-.23A3,3,0,0,1,92,165l1.2-.48a1.25,1.25,0,0,1,.28-.13.84.84,0,0,0,.34-.18l.06,0,.08,0,.55-.07.34-.14H95l.13,0a1.62,1.62,0,0,0,.34,0s.07,0,.14,0,.11,0,.14,0l.58,0s.08,0,.08,0a1.34,1.34,0,0,0,.42.19l.15.09.15.09.12.09a2.27,2.27,0,0,1,.84,1.14v.11a.6.6,0,0,0,.12.17.3.3,0,0,1,.1.22,1,1,0,0,0,.06.41v.11a.67.67,0,0,0-.06.3.8.8,0,0,1,0,.3.48.48,0,0,1,0,.22,4.28,4.28,0,0,1-.58.93l-.74.84a1.22,1.22,0,0,1-.78.5.91.91,0,0,1-.32-.06l-.06-.11L96,169a.45.45,0,0,0,.16-.21,10.39,10.39,0,0,0,.86-1.27,2.21,2.21,0,0,0,.4-1.27v-.64a2.09,2.09,0,0,0-.52-1.17l-.48-.25a.59.59,0,0,1-.24.08.49.49,0,0,0-.26.1.38.38,0,0,1-.16,0,3.27,3.27,0,0,0-.88.13l-.36.11-.43.12a2.11,2.11,0,0,0-.34.16.61.61,0,0,1-.29.12l-.29.1-.2.09a.75.75,0,0,0-.22.11,1.1,1.1,0,0,0-.16.15l-.48.22-.54.3-1.2.84a4.44,4.44,0,0,0-.68.51l-.3.22a1.13,1.13,0,0,0-.41.3s-.07.07-.2.14a.6.6,0,0,0-.24.09,2.08,2.08,0,0,1-.25.29c-.12.13-.21.23-.27.31a1.14,1.14,0,0,1-.42.39,4.58,4.58,0,0,0-.37.35c-.17.18-.3.3-.39.38a.36.36,0,0,0-.14.12.36.36,0,0,1-.12.11,4.18,4.18,0,0,1-.29.4l-.25.3a1.16,1.16,0,0,1-.32.3s-.09.15-.22.36l-.2.3-.18.18a1.57,1.57,0,0,0-.54.66l-.12.16a.41.41,0,0,0-.1.14,1.71,1.71,0,0,0-.41.41.35.35,0,0,1-.12.26.59.59,0,0,0-.14.19,2.85,2.85,0,0,1-.22.28l-.25.32a1.29,1.29,0,0,0-.17.33,2.35,2.35,0,0,1-.31.54c-.17.24-.25.37-.27.38l-.2.19s-.07.06-.1.12,0,.1-.08.1a.31.31,0,0,1-.08.1l0,0a.79.79,0,0,1,0,.35,1.53,1.53,0,0,1-.19.35,2.21,2.21,0,0,0-.17.29l-.08.06a.59.59,0,0,0-.08.16.78.78,0,0,0,0,.16,5.21,5.21,0,0,1-.4.56.48.48,0,0,0-.18.43.1.1,0,0,1-.08.11l-.16.54a.66.66,0,0,1-.2.4.67.67,0,0,0-.24.65s0,.17-.1.47a1.78,1.78,0,0,1,0,.22.85.85,0,0,0,0,.22,1,1,0,0,1-.08.47.28.28,0,0,0-.06.2v1.1a.81.81,0,0,0,.06.4,1.57,1.57,0,0,1,.08.39q0,.09.12.15a.69.69,0,0,0,.3.14,4.44,4.44,0,0,0,.66.16.26.26,0,0,0,.26,0,.48.48,0,0,1,.3-.09,1.77,1.77,0,0,0,.3,0l.39-.15.53-.23a1.57,1.57,0,0,0,.66-.38A2.53,2.53,0,0,0,84,183l.41-.25.24-.16a1.52,1.52,0,0,0,.36-.26l.14-.16a2.32,2.32,0,0,0,.43-.24c.14-.11.31-.24.5-.41l.37-.32.22-.15.24-.16a.71.71,0,0,0,.24-.21.88.88,0,0,1,.22-.22l.44-.33.48-.39s0,0,0,0h.07a.11.11,0,0,0,.08,0l-.18.31-1,.82A.55.55,0,0,0,87,181a.69.69,0,0,1-.26.19,3.35,3.35,0,0,1-.46.41c-.2.16-.34.27-.42.35a.08.08,0,0,0-.08,0,.1.1,0,0,0,0,.09s0,.06,0,.06H85.5l0,0-.06.09,0,0a.3.3,0,0,1,0,.1.15.15,0,0,1-.1,0,.14.14,0,0,0-.09,0l-.14,0a1.59,1.59,0,0,1-.37.32,2.5,2.5,0,0,0-.39.33v0l.08,0c-.06.06-.08.05-.08,0l-.2.1a2.08,2.08,0,0,0-.35.2,4,4,0,0,1-.36.2s0,0,0,0a.08.08,0,0,0,0,0l.06.07,0,0h.06a.16.16,0,0,1,.08-.1.19.19,0,0,1,.1,0,.11.11,0,0,0,.08,0,5.75,5.75,0,0,0,1.09-.62L85,183a.59.59,0,0,1,.16-.08l.72-.47a7.91,7.91,0,0,1,.88-.56l.06-.05a.62.62,0,0,0,.08-.12l.06-.09a4,4,0,0,1,.46-.39,3.55,3.55,0,0,0,.33-.25l.37-.28a.14.14,0,0,1,.12-.05.25.25,0,0,1-.1.18s0,.07,0,.12a.18.18,0,0,1,0,.13.14.14,0,0,1-.08.09s-.12.09-.22.22a.26.26,0,0,1-.15.06l-.15,0,0,.07h0l-.06-.13c-.12.06-.18.12-.18.16a1.35,1.35,0,0,1-.44.64l-.48.34A.11.11,0,0,0,86.14,182.44Zm1.28-.84s0,0,0,0S87.43,181.58,87.42,181.6ZM90,179.18s0,.07.12.11,0,.05,0,.05a2.61,2.61,0,0,0-.45.34,3.27,3.27,0,0,1-.46.35,1.21,1.21,0,0,1-.46.39,1.19,1.19,0,0,1-.46.22.54.54,0,0,1,.26-.36l.28-.12a3.62,3.62,0,0,1,.62-.53C89.69,179.42,89.88,179.28,90,179.18Zm.88-1.22c-.06.11-.12.11-.2,0a3.64,3.64,0,0,0-.84.67c-.07.12-.14.16-.22.12l-.11.18-.11.09a2.49,2.49,0,0,0-.41.3,1.56,1.56,0,0,1-.44.31h-.1a.86.86,0,0,1,.11-.19,1.06,1.06,0,0,1,.24-.18l.19-.11a3.11,3.11,0,0,1,.25-.2l.22-.15a.22.22,0,0,1,.14-.05v-.09s0-.07,0-.09l.39-.31.33-.27.14-.09c.08-.06.14-.09.2-.07V178Zm.08.57a1.21,1.21,0,0,1-.4.44l-.44.28c0-.05,0-.07-.12-.07l.07-.07s0-.07,0-.08l0-.05a1.37,1.37,0,0,0,.56-.44l.11,0a.23.23,0,0,0,.13-.07h0Zm-.08-.7v0h-.2a1.38,1.38,0,0,1,.54-.53h.14a.55.55,0,0,1-.32.32Zm.08.06,0,.05,0,0v-.11S90.89,177.89,91,177.89Zm.42.12a.75.75,0,0,0,.13-.15.31.31,0,0,1,.17-.13h0a.66.66,0,0,1-.1.27h-.22Zm.64-1.26c.08-.19.19-.27.34-.23,0,.07-.09.17-.24.29H92S92,176.79,92,176.75Zm1-.7-.54.46h-.14a.8.8,0,0,1,.34-.44,1.24,1.24,0,0,0,.22-.18l.12-.14s.06,0,.06,0,0,.09,0,.09A.32.32,0,0,1,93,176.05Zm-.54,1c.11-.19.22-.27.34-.23a1.92,1.92,0,0,1-.24.3h-.1S92.46,177.1,92.49,177.08Zm.34-.29a.55.55,0,0,1,.4-.31A.45.45,0,0,1,92.83,176.79Zm.92-1.5c0,.05,0,.07,0,.07s0,.12-.08.14l-.18.16c-.08,0-.08.11,0,.2l-.08.11s-.06,0-.08,0h0v0a.16.16,0,0,0,0-.09l0-.06a.2.2,0,0,1,0-.11.53.53,0,0,1,.42-.37Zm1.39-.84a.54.54,0,0,1-.38.26s-.1,0-.18.11a.47.47,0,0,1-.19.14l-.06,0s0,0,0,0,0,0,0-.05,0,0,0-.08a.2.2,0,0,0,.06-.12,10.4,10.4,0,0,0,1.28-.91.56.56,0,0,1,.38-.14.28.28,0,0,1-.16.16,1.33,1.33,0,0,0-.38.3.6.6,0,0,1-.15.18A.7.7,0,0,0,95.14,174.45Zm1.2-1.1a.27.27,0,0,1-.14.18l-.22.14c0-.12,0-.18,0-.2l.14-.07A.24.24,0,0,1,96.34,173.35Z"/>
        <path class="cls-2" d="M107.78,175.24a.62.62,0,0,0-.44.28,1,1,0,0,0-.58.42,9.65,9.65,0,0,0-1.26.6.16.16,0,0,0,0,.09l.08.06.18-.07.22-.1a.8.8,0,0,1,.2-.07v0h0a.9.9,0,0,0-.52.44h-.06a.26.26,0,0,0-.25.13,1,1,0,0,1-.15.17l-.58.24a3.89,3.89,0,0,1-1.25.6l-.41.09-.57.15h-.2c-.15.13-.41.13-.78,0a.82.82,0,0,1-.56-.44.35.35,0,0,0,0-.12,1.21,1.21,0,0,1-.05-.14,1.68,1.68,0,0,1-.24-1.52,2.62,2.62,0,0,1,.12-.5c.06-.21.11-.34.12-.39v0s-.07-.05-.08,0l-1.42,1.15a9.47,9.47,0,0,0-.81.59c-.54.46-.84.7-.9.73s-.45.34-1.08.79l-.09.05a.25.25,0,0,1-.11.05l-.66,0a.89.89,0,0,1-.58-.32,1.66,1.66,0,0,1-.24-.76,1.44,1.44,0,0,1,.14-.69l.23-.34.25-.38c.14-.18.59-.7,1.32-1.55a14.83,14.83,0,0,1,1.38-1.24,5.12,5.12,0,0,1,1.39-.67.63.63,0,0,1,.55,0,1,1,0,0,1,.47.36l.06.14a.16.16,0,0,1,0,.12.1.1,0,0,1-.1,0,.5.5,0,0,0-.37,0l-.33.07a.89.89,0,0,0-.29.12l-.26.12a7.81,7.81,0,0,0-1.24,1.1l-.7.8a3.22,3.22,0,0,0-.32.32c-.11.12-.22.26-.34.41s-.21.27-.28.34a.29.29,0,0,0-.11.2.34.34,0,0,1-.09.21c-.26.28-.37.45-.34.49l0,0a.45.45,0,0,0,.16,0l.17-.1a.56.56,0,0,1,.15-.08A12.21,12.21,0,0,0,97.92,176c.39-.28,1-.73,1.71-1.34a13.78,13.78,0,0,1,1.24-.95l.13-.08s.07-.06.09-.06a.15.15,0,0,1,.12,0,.49.49,0,0,0,.31.2l.25.06s0,0,.14.07a.11.11,0,0,0,0,.17c.07.06.1.11.1.15a.63.63,0,0,0,0,.2c0,.1,0,.15,0,.16a1.24,1.24,0,0,0-.09.37,2.75,2.75,0,0,1,0,.31,8.92,8.92,0,0,0-.36.92,3,3,0,0,0-.2.56.42.42,0,0,1-.09.22c-.06.1-.07.17,0,.23a1.71,1.71,0,0,0,.5.05,3.94,3.94,0,0,0,1.5-.41l1.08-.57c2-.9,3-1.39,3.27-1.47l.8-.25a.25.25,0,0,0,.16-.05l0,.06,0,.09-.08.09a3.26,3.26,0,0,0-1.06.33v0a1.2,1.2,0,0,0,.26.07.59.59,0,0,1,.2.05Zm-9.28.65,0,0h0Zm.08-.09s.06,0,.06-.11S98.58,175.73,98.58,175.8Zm.08-.11c.16,0,.25-.08.26-.21S98.76,175.55,98.66,175.69Zm.3-.21a.25.25,0,0,0,.29-.23C99.14,175.25,99.05,175.33,99,175.48Zm.35-.28c.17,0,.26-.07.28-.19C99.41,175,99.32,175.08,99.31,175.2Zm.28-.19c.13,0,.23-.09.3-.25A.31.31,0,0,0,99.59,175Zm.32-.25a.44.44,0,0,0,.3-.23C100,174.56,99.93,174.64,99.91,174.76Zm.3-.23a.34.34,0,0,0,.3-.24Q100.33,174.28,100.21,174.53Zm.3-.26c.16,0,.25,0,.28-.21A.28.28,0,0,0,100.51,174.27Zm.34-.27,0,0h0Zm2.68,3.42a1.88,1.88,0,0,1,.35-.17,1.14,1.14,0,0,0,.39-.25l-.44,0c-.16,0-.38.1-.68.19l-.54.16,0,0s0,0-.08.06v0s0,0,0,0,0,0,0,0l.28-.11a.87.87,0,0,1,.29-.09,1,1,0,0,1,.33.08Zm.89-1h0a.06.06,0,0,0-.07-.07h0Zm.14.63v0s0,0,0-.05S104.54,177,104.56,177Zm.26-.07a.14.14,0,0,0,0-.07l0,0,0,0c-.1,0-.14,0-.14.11Zm0-.71v0h-.06Zm.2-.07c.06,0,.1,0,.1-.14l-.12,0c-.08,0-.14,0-.16.11Zm.64-.31v0a.48.48,0,0,0-.5.22A.54.54,0,0,0,105.64,175.85Zm0-.07a.47.47,0,0,0,.5-.22A.61.61,0,0,0,105.64,175.78Zm.5.67a.05.05,0,0,1,0,0Zm.06-.89a.3.3,0,0,0,.28-.16h-.24S106.2,175.46,106.2,175.56Zm.28-.16a2.36,2.36,0,0,0,.88-.3h0a1.41,1.41,0,0,0-.9.27Zm.42.07,0,0v0Zm.94-.54H108a.27.27,0,0,0-.08.16h0C107.84,175,107.82,175,107.84,174.93Zm.24-.06,0,0A0,0,0,0,1,108.08,174.87Z"/>
        <path class="cls-2" d="M115.8,174s0,.06,0,.13a1.21,1.21,0,0,1-.16.36,5.77,5.77,0,0,1-.86.82,7.16,7.16,0,0,0-.87.81,1.13,1.13,0,0,1-1,.43.32.32,0,0,1-.3-.17,1.16,1.16,0,0,0-.06-.16.33.33,0,0,1,0-.14,1.54,1.54,0,0,1-.18-1.07.12.12,0,0,0-.06-.09.1.1,0,0,0-.1,0l-.3.15a2,2,0,0,0-.3.16l-.79.57c-.4.29-.72.53-1,.73s-.49.42-.72.64l-.36.28-.18.19-.18.18a4.91,4.91,0,0,0-.68.84l-.4.53a8,8,0,0,0-.54.81,1.33,1.33,0,0,1-.19.3,1.37,1.37,0,0,0-.17.26c-.07.14-.15.18-.26.12l-.07,0a.09.09,0,0,1-.05,0h0a1.05,1.05,0,0,0-.15-.21.71.71,0,0,1-.15-.22v-.51a1.18,1.18,0,0,1,.16-.31c.61-1.26.94-1.92,1-2q.46-.9,1.14-2.4c.27-.61.42-1,.46-1.1a.41.41,0,0,1,.27-.26.33.33,0,0,1,.37,0l.32.18c.1.16.11.27.05.33a2.16,2.16,0,0,0-.3.56c-.1.26-.17.42-.21.5l-.54,1.1s0,0,0,0a.12.12,0,0,0,0,.07h.06a16.69,16.69,0,0,1,2.63-2l.73-.39.75-.39a.72.72,0,0,1,.53-.08.89.89,0,0,1,.45.28l.32.37a.33.33,0,0,1-.06.46,1.26,1.26,0,0,0-.26.37.77.77,0,0,1-.16.34,1.25,1.25,0,0,0-.16.35,6,6,0,0,0,1.3-.84C115.28,174.3,115.68,174,115.8,174Z"/>
        <path class="cls-2" d="M125.21,167.11a.25.25,0,0,1-.24.21v-.2c-.29.17-.45.34-.48.48a.56.56,0,0,0,.38-.12s0,0,0-.07a.41.41,0,0,0,0-.09v.18l-.1.13a1.09,1.09,0,0,1-.13.17.32.32,0,0,1-.13.11l0,.06a.34.34,0,0,1,0,.08.35.35,0,0,1,0,.06,4.15,4.15,0,0,1-.33.35l-.4.45a1.76,1.76,0,0,0-.25.38q0,.09-.06.09a38.09,38.09,0,0,1-6.71,5.7l-.42.52a.92.92,0,0,1-.2.3,1,1,0,0,0-.2.23l-.09.2a1,1,0,0,0-.09.2.94.94,0,0,1-.13.3.76.76,0,0,0-.13.26c0,.06,0,.13-.09.22a2.17,2.17,0,0,0-.11.23.64.64,0,0,1,0,.11l-.07.11-.06.05c-.1.09-.09.17,0,.24v0a1,1,0,0,0-.14.62c0,.25.1.38.31.41a3.36,3.36,0,0,0,1.16,0,6.85,6.85,0,0,0,1.78-.86c.7-.46,1.41-1,2.15-1.52l.69-.59a7.21,7.21,0,0,1,.75-.59l.09-.1s.08-.09.11-.1.08-.16.16-.16a.28.28,0,0,0,.3-.19.89.89,0,0,1,.42-.39,6.25,6.25,0,0,0,.84-.72.72.72,0,0,1,.58-.17c.1,0,.14,0,.14.06a.33.33,0,0,0,.06.12l.11.06.09,0c.07,0,.08.09,0,.27l-.18.18c-.06.08-.11.11-.14.11a1,1,0,0,0-.64.36q-.61.44-.84.63l-.78.64a.61.61,0,0,0-.2.19.26.26,0,0,1-.38,0,.07.07,0,0,1,0,.06.09.09,0,0,0,0,.08c0,.1,0,.2-.12.29a1.24,1.24,0,0,0-.54.44,1.31,1.31,0,0,1-.44.3l-.22.23a3.47,3.47,0,0,1-.51.37,5.73,5.73,0,0,1-.58.49,7.13,7.13,0,0,1-.88.54l-.66.37a2.25,2.25,0,0,1-.66.25,3.86,3.86,0,0,1-.74.11,1.86,1.86,0,0,1-1.77-1.5,1.67,1.67,0,0,1,0-.63,2.52,2.52,0,0,1,.3-.88,3.71,3.71,0,0,1,.28-.62c0,.05.08.05.1,0a.3.3,0,0,0,.1-.24h-.1c0-.1,0-.22.19-.36s.06-.17.12-.18l0-.07.06.07c0,.08.05.08.08,0h0l0-.07v.06a.4.4,0,0,0,.08-.26h-.08a2.24,2.24,0,0,1,.5-.92.21.21,0,0,1,.06.08.1.1,0,0,0,0-.09H116a.29.29,0,0,1,.24-.32l-.06,0h.06V174s.06,0,.06-.07h-.06c0-.1,0-.16.06-.17V174h0l0,.05a.31.31,0,0,0,.1-.25h-.08c0-.07,0-.11.08-.11v.11s0,0,.06-.06a.11.11,0,0,1,.06-.06h-.12a.4.4,0,0,1,.22-.36c0,.09.06.08.1,0h-.1a.21.21,0,0,1,.1-.2v.2a.27.27,0,0,0,.12-.21.18.18,0,0,0,.1-.16l.06-.09H117v-.08a2.54,2.54,0,0,1,.7-1.09.63.63,0,0,1,.32-.5.48.48,0,0,1,.32-.43v.16l0,0,0,0a.37.37,0,0,0,0-.16h-.1c0-.07,0-.11.1-.11v.11c0-.07,0-.11.06-.11h-.06v-.09a1.64,1.64,0,0,1,.48-.59,0,0,0,0,1,0,0s.06,0,.06,0h-.08v-.13c.06-.08.15-.21.27-.4a4.63,4.63,0,0,1,.31-.42c.22-.23.56-.61,1-1.16s.86-1,1.13-1.23a5.57,5.57,0,0,1,1-1l.52-.43.59-.45.56-.4c.22-.15.43-.29.63-.4a1.62,1.62,0,0,1,.69-.11,1.1,1.1,0,0,1,.6.15,1,1,0,0,1,.32.26.52.52,0,0,1,0,.44,3,3,0,0,1-.28.54l-.36.56a.32.32,0,0,1-.16.17c-.1.06-.15.1-.16.13s0,0,0,.11h.1l0,0s.06,0,.08.07l0,.09c0,.06,0,.09-.14.09s-.25,0-.35.19v.09h.06l.11,0,.06,0,0,.05a.85.85,0,0,1-.24.05c-.07,0-.12,0-.14,0a1.13,1.13,0,0,0,0,.2v0s0,.05-.08.09Zm-10.1,10.46s0,0,0,0,0,0,0,0l-.13-.06H115v-.33a.09.09,0,0,0-.07.09v.24c-.09,0-.13.09-.13.21h.08s0,0,0,.05v0l.06-.09C115.07,177.61,115.1,177.59,115.11,177.57Zm.29-.85c.16-.11.16-.18,0-.22v-.2c-.06,0-.08.11-.08.22s-.21.11-.21.3a.28.28,0,0,0,.21-.1.08.08,0,0,0,0,.07l0,0A.2.2,0,0,0,115.4,176.72Zm.14-.67c.16-.11.22-.22.2-.33S115.51,175.83,115.54,176.05Zm1-1.56.06,0a.07.07,0,0,0-.06,0v-.2a.2.2,0,0,0-.2.27h.08c0-.05,0-.07.12-.07Zm.42-1a.33.33,0,0,0-.22.34l.18-.08A.62.62,0,0,1,117,173.51Zm0,0c.08,0,.1-.1.06-.23A.18.18,0,0,0,117,173.51Zm.38-.68a.24.24,0,0,0-.13.13.32.32,0,0,0,0,.19C117.31,173.11,117.36,173,117.36,172.83Zm8.6-8.39v-.24a.2.2,0,0,0-.17-.15.21.21,0,0,0-.21.09,3.6,3.6,0,0,1-.77.65l-.44.3c-.28.2-.48.37-.62.49a.38.38,0,0,0-.09.09c0,.05-.06.07-.09.07a2.9,2.9,0,0,0-.56.46l-.38.37a2.25,2.25,0,0,0-.47.47c-.19.23-.34.4-.43.49a1.42,1.42,0,0,1-.21.33l-.32.34a2.86,2.86,0,0,0-.27.29.3.3,0,0,0-.07.08.2.2,0,0,0-.07.1c-.16.24-.29.41-.38.52l-.22.29a2.55,2.55,0,0,0-.22.3.58.58,0,0,1,0,.19,1.23,1.23,0,0,1-.17.19l-.14.14a.37.37,0,0,1-.1.16.77.77,0,0,0-.1.15,1.34,1.34,0,0,0-.16.28l-.14.13-.12.14-.09.16a.76.76,0,0,1-.09.16.28.28,0,0,0-.08.15.29.29,0,0,1,0,.16.92.92,0,0,1-.11.15l-.11.14a11.17,11.17,0,0,0-.86,1.18,1,1,0,0,0-.13.26.74.74,0,0,1-.15.26.66.66,0,0,1-.07.15.35.35,0,0,0,0,.18.18.18,0,0,0,.17,0,.76.76,0,0,0,.18-.18l.11-.13c1-.78,1.66-1.28,1.92-1.51a23.66,23.66,0,0,0,2.21-2.22,15.17,15.17,0,0,1,1.07-1.17,13.37,13.37,0,0,0,1.09-1.22q.27-.33.69-.93c.29-.41.48-.68.58-.8s.12-.18.17-.27.09-.19.13-.3a2,2,0,0,1,.12-.28A4.77,4.77,0,0,0,126,164.44Zm-8.36,8c-.16.12-.24.23-.24.31C117.52,172.74,117.6,172.64,117.6,172.45Zm.26-.43a.57.57,0,0,0-.26.43A.5.5,0,0,0,117.86,172Zm.14-.12h.1v-.24A.3.3,0,0,0,118,171.9Zm.32-.47a.26.26,0,0,0-.22.23A.34.34,0,0,0,118.32,171.43Zm.38,6.8a1.13,1.13,0,0,0-.52.39h.16a5.07,5.07,0,0,0,1-.63c.44-.31.71-.5.79-.54a6,6,0,0,1,.61-.45,4.31,4.31,0,0,0,.67-.57h.07l.11,0a.38.38,0,0,1,.08-.18l.45-.36.41-.33.26-.24a1.77,1.77,0,0,1,.3-.25,1.54,1.54,0,0,0,.54-.39l.08-.16a.49.49,0,0,0-.2.06.46.46,0,0,1-.16.06c-.08.08-.42.37-1,.86a6.07,6.07,0,0,1-.64.46c-.08.07-.3.22-.65.47a7,7,0,0,0-.77.6,5,5,0,0,1-.41.36c-.14.11-.31.24-.5.37L119,178A.49.49,0,0,1,118.7,178.23Zm-.18-7.16c.08,0,.13,0,.15,0s0-.07,0-.16S118.52,171,118.52,171.07Zm.38-.46a1.1,1.1,0,0,1,.3-.19v-.26s0,0-.07.06l-.07.06-.06.05-.06.07,0,.09S118.9,170.57,118.9,170.61Zm.42-.57a.19.19,0,0,0,.1-.24A.2.2,0,0,0,119.32,170Zm3,.18c.19.08.31,0,.38-.19l-.08-.11A2.11,2.11,0,0,0,122.35,170.22Zm.9-.81c.15-.06.22-.13.22-.2a.3.3,0,0,1-.12-.11l-.08.05-.09.09a.2.2,0,0,0,0,.11C123.22,169.36,123.25,169.39,123.25,169.41Zm.42-.45h-.1v-.07l-.08.07h.08v.11S123.63,169,123.67,169Zm0,0a2.41,2.41,0,0,0,.3-.48l-.08-.06-.32.21v-.07h0l0,.06v.22Zm.26,5.35q-.18,0-.18.18a.19.19,0,0,0,.24-.12l0,0h-.1Zm.4-6.55,0,0,0,0c0,.07-.07.11-.18.11a.22.22,0,0,0-.08.2.25.25,0,0,0,0,.07.11.11,0,0,1,0,.07.32.32,0,0,0,.14-.12.58.58,0,0,1,.3-.23l0-.12c0-.07,0-.1-.08-.1s-.06,0-.1.12v-.11l0,0S124.35,167.76,124.33,167.76Z"/>
        <path class="cls-2" d="M132.27,174l-1.22.93-.24.05-.48.15-.25.08a.23.23,0,0,1-.24.16,4.29,4.29,0,0,0-.76.1,9.47,9.47,0,0,1-1.08.08h-.52l-.07,0a.16.16,0,0,0-.08.06.49.49,0,0,0-.08.1l-.09.12a1.94,1.94,0,0,0-.1.17l-.7.84-.08.14a9.13,9.13,0,0,0-.78.64,8.19,8.19,0,0,1-.89.68,2.5,2.5,0,0,1-1.3.42,1.17,1.17,0,0,1-.92-.44,1.47,1.47,0,0,1-.34-1,2.7,2.7,0,0,1,.12-.6,5.2,5.2,0,0,1,1-2.17l.29-.43c.14-.21.26-.37.35-.48A.76.76,0,0,0,124,173a1.13,1.13,0,0,1,.14-.63,3.53,3.53,0,0,1,.44-.48,5.4,5.4,0,0,1,.81-.4.61.61,0,0,1,.38-.11,1.31,1.31,0,0,1,.56,0,1,1,0,0,0,.44-.08.4.4,0,0,1,.2,0,.66.66,0,0,1,.18,0l.18.07.18.07s.08.05.08.12a.16.16,0,0,1-.08.14c-.08,0-.1,0-.06.07a2.18,2.18,0,0,0,.28.43,1.86,1.86,0,0,1,.32,1.71c-.16.49-.25.75-.26.78a1.81,1.81,0,0,0,1,0l1.47-.37.9-.27a1.2,1.2,0,0,0,.42-.28s.21-.05.5-.11t.12.15Zm-6,1.62a.17.17,0,0,0,0-.1s0-.06-.06-.06h0a.13.13,0,0,1-.06-.07,2.77,2.77,0,0,1-1.71-1.1c-.1-.12-.17-.12-.2,0-.29.57-.44.89-.46.94-.2.48-.39.9-.58,1.26q-.07.18-.21.57t-.21.57c0,.14,0,.23.18.28h.32a1,1,0,0,0,.56-.15,9.57,9.57,0,0,0,2-1.55A4,4,0,0,1,126.24,175.57Zm1.16-2.38A1.21,1.21,0,0,0,127,172a.58.58,0,0,0-.16-.15h-.12a3.84,3.84,0,0,0-.78.58c-.07,0-.33.27-.79.67l-.44.45a.16.16,0,0,0,0,.27.3.3,0,0,1,.07.08l.08.11a1.41,1.41,0,0,0,.68.37,4.82,4.82,0,0,0,1.06.25.35.35,0,0,0,.4-.19A3.07,3.07,0,0,0,127.4,173.19Z"/>
        <path class="cls-2" d="M138.78,174.49c-.07.09-.13.09-.2,0s-.28,0-.32.08h.06s0,0,0,0h.12v.07l-.4.28a1.81,1.81,0,0,0-.56.37.48.48,0,0,0-.18,0l-.42.26a4.66,4.66,0,0,0-.46.3.1.1,0,0,0-.11.11q0,.12-.09.12s-.06,0-.13.09a.93.93,0,0,1-.19.12,7,7,0,0,1-.77.6.41.41,0,0,0-.18,0l-.18.14a.49.49,0,0,1-.14.11.41.41,0,0,0-.22.41q0,.51.06.57a1.82,1.82,0,0,1-.12,1.09,2.84,2.84,0,0,1-.76,1.17c-.09.11-.36.38-.8.8a.79.79,0,0,1-.48.31l-.25.06a1,1,0,0,0-.25.09c-.2.2-.51.21-.92,0l-.32-.14-.35-.16a.66.66,0,0,1-.46-.54,1.21,1.21,0,0,1,0-.9.36.36,0,0,0,0-.09.49.49,0,0,0,.08-.12,7.46,7.46,0,0,1,1.35-1.13l.68-.53c.17-.11.43-.29.77-.56s.6-.45.79-.58a.22.22,0,0,0,0-.31,2.94,2.94,0,0,0-.22-.42,3.74,3.74,0,0,1-.22-.4l-.36-.7a8.72,8.72,0,0,0-.42-.77,1.79,1.79,0,0,1-.2-.88.81.81,0,0,1,.2-.66,1.54,1.54,0,0,1,.64-.47l.44-.08a1.82,1.82,0,0,1,.62,0,1.61,1.61,0,0,1,1.14.62.23.23,0,0,1,0,.36.58.58,0,0,1-.8-.11s-.07,0-.1,0-.15.28-.3.23-.25,0-.5,0a1.66,1.66,0,0,0-.38.34.39.39,0,0,0-.14.47,2.52,2.52,0,0,0,.34,1c.37.63.6,1,.68,1.23s.17.2.34.1a16.22,16.22,0,0,1,1.71-1.08.23.23,0,0,1,.18-.09.93.93,0,0,0-.05.1.2.2,0,0,0,0,.08.83.83,0,0,0,.46-.2s0,0,.08-.07a.07.07,0,0,1-.06,0l-.07,0a0,0,0,0,0,0,.05.33.33,0,0,0-.14,0l-.16,0q.09-.18.12-.18a17.82,17.82,0,0,0,1.74-.95h.2v.16c-.12,0-.19.07-.2.11a.28.28,0,0,0,.24-.11s0-.09,0-.16a.12.12,0,0,1,0-.09,5.87,5.87,0,0,1,1-.41.51.51,0,0,1,.42.14c.1.07.13.14.1.21l-.16.1-.32.1c-.16.06-.28.06-.36,0s-.05,0-.09,0a.23.23,0,0,0-.07.1h0a.22.22,0,0,0-.2.11Zm-5.53,5.36a2.24,2.24,0,0,0,.58-2,8.62,8.62,0,0,0-.92.68,6.67,6.67,0,0,1-1.32,1.06,3.25,3.25,0,0,0-1,.9l0,.07a.18.18,0,0,0,0,.08s0,.07.06.07a.72.72,0,0,0,.23.08l.25.06a1.24,1.24,0,0,0,.66,0,.34.34,0,0,0,.13,0l.15,0a1.63,1.63,0,0,0,1-.58.48.48,0,0,1,.14-.15Zm.14-2.47v0l0,0,.09-.06a.31.31,0,0,0,.11-.08s0,0,0,0A.21.21,0,0,0,133.39,177.38Zm.9-.59a.29.29,0,0,0,.3-.23A.24.24,0,0,0,134.29,176.79Zm.32-.25a.58.58,0,0,0,.48-.35A.8.8,0,0,0,134.61,176.54Zm.9-.37c.13,0,.19,0,.19-.14h-.19V176a.4.4,0,0,0-.4.24h.31l.09-.14Zm.2-.14c.19.07.33,0,.41-.23H136c0,.09-.1.14-.25.14,0-.09.1-.13.23-.14v-.06c-.23,0-.37,0-.43.21h.2Zm.41-.23c.13,0,.21,0,.24-.08C136.22,175.68,136.14,175.71,136.12,175.8Zm.24-.12s.06,0,.1,0a.15.15,0,0,0,.06-.13C136.42,175.54,136.37,175.57,136.36,175.68Zm.38-.24c.12,0,.18,0,.2-.09S136.75,175.38,136.74,175.44Zm.2-.09a.22.22,0,0,0,.22-.17A.22.22,0,0,0,136.94,175.35Zm.46-.29a.16.16,0,0,0,.16-.09h-.16a.74.74,0,0,1,0-.23q-.23,0-.36.24h.32Zm.58-.48v-.07h-.08l-.06,0h0a655622064481.52,655622064481.52,0,0,0,.16.08v.07l.1,0h.12s.05-.05.06-.11v0Z"/>
        <path class="cls-2" d="M153.33,163H153l.08-.06a1.84,1.84,0,0,0,.46-.11l.42,0a.3.3,0,0,0,.17.08h.21l.18,0a.08.08,0,0,0,0-.07s-.06,0-.06,0,0,0,0,0v0l.46,0s0,0,.05.08a.07.07,0,0,0,.09.05l.08-.05.06,0s.07,0,.08,0a2.34,2.34,0,0,0,.32.07,2,2,0,0,1,.33.08,6.34,6.34,0,0,1,.7.41,2,2,0,0,1,.52.69l.12.32c.06.18.11.32.14.42a2.6,2.6,0,0,1,0,.88s0,.11-.06.28a1.8,1.8,0,0,0-.06.37s0,.12-.06.22a.9.9,0,0,0,0,.24.13.13,0,0,1,0,.07.13.13,0,0,0,0,.07.61.61,0,0,1,0,.27,1.23,1.23,0,0,1-.08.12.49.49,0,0,0-.08.12.34.34,0,0,0,0,.2.26.26,0,0,1-.08.34.07.07,0,0,0-.06,0,.15.15,0,0,1-.08,0c-.07,0-.08.08,0,.15a1.63,1.63,0,0,1,0,.18s0,.07,0,.07,0,0,0,0a.11.11,0,0,1,0-.07s-.06,0-.08.07-.06,0-.06.05a.46.46,0,0,1-.14.31.22.22,0,0,0,0,.29s0,0,0,.1a.13.13,0,0,1-.07.1s0-.05,0,0a.16.16,0,0,0,0-.11.43.43,0,0,0,0,0,.13.13,0,0,0,0,.06v0h.06a.08.08,0,0,1,0,0l0,0a.08.08,0,0,1,0-.07h-.06a.1.1,0,0,0,0,.08.44.44,0,0,0,0,.1.2.2,0,0,0,0,.07.2.2,0,0,1-.1.07.35.35,0,0,0-.12,0,.14.14,0,0,0,0,.18.23.23,0,0,1,0,.26l0,.12a.3.3,0,0,0,0,.1h-.09a.11.11,0,0,0-.08,0s0,0,0,0v.07l.21.06s.05,0,.05,0l-.05.05a.5.5,0,0,0-.29.16s0,0,0,0,0,.08.06.05l.06,0,.08,0a8.24,8.24,0,0,0,1.09-.35h0l0,0v.11a.77.77,0,0,0-.24.1.52.52,0,0,1-.32.09.38.38,0,0,0-.24.1l-.26.1-.23.07a1.11,1.11,0,0,0-.36.24,3.56,3.56,0,0,1-.52.59.4.4,0,0,1-.08.22l-.08.08-.11.12-.09.12-.22.28,0,0s0,.08-.07.16a.37.37,0,0,1-.11.15l-.26.26-.3.4a.3.3,0,0,1-.08.07.22.22,0,0,0-.08.09l-.08.09-.1.09a.09.09,0,0,0,0,.08.21.21,0,0,1-.06.1l-.08.06-.06,0a.81.81,0,0,1-.13.11c-.06,0-.1.07-.11.1a.18.18,0,0,0-.08.07l-.07.09-.05.07a.85.85,0,0,1-.2.22l-.16.17c-.11,0-.18.08-.2.14a.39.39,0,0,1-.24.27c-.12.06-.16.13-.12.2q-.18.21-.24.21T151,176s0,0,.06,0-.06,0-.06,0l-.08.08-.06.08c-.07,0-.13,0-.19.12s0,.07-.06.07a1,1,0,0,0-.3.23,1.73,1.73,0,0,1-.28.25.69.69,0,0,0-.28.3c-.09.11-.16.16-.2.16s-.06,0-.06,0a.35.35,0,0,1-.15.19l-.17.15a.32.32,0,0,0-.2.13.35.35,0,0,1-.22.13,2.71,2.71,0,0,1-.42.32,11.29,11.29,0,0,1-.94.65,3.57,3.57,0,0,1-.59.29,2.86,2.86,0,0,0-.45.2h0l-.6.09a1.49,1.49,0,0,1-1.67-.58,3.85,3.85,0,0,1-.3-.61.28.28,0,0,1-.06-.2.74.74,0,0,1,.06-.37.88.88,0,0,1-.06-.33c0-.1,0-.16.06-.16l.24-.87.06-.18s.06-.06.09-.13a.44.44,0,0,1,.11-.16l0,0h0s0,0,0,0a.57.57,0,0,1,0-.24s.09-.19.26-.52a4.19,4.19,0,0,1,.4-.57l0,0a.06.06,0,0,1,0,.05.22.22,0,0,1,.06-.07h-.1v-.13a3,3,0,0,0,.23-.41,4.62,4.62,0,0,1,.25-.42l.45-.66.64-1a1.76,1.76,0,0,1,.12-.23l.06-.09c0-.06.07-.1.1-.11a1.13,1.13,0,0,1-.07-.15l-.09-.16s0-.09-.11-.18a.77.77,0,0,0-.15-.18.45.45,0,0,1-.1-.24l-.1-.19a.73.73,0,0,0-.16-.22.86.86,0,0,1-.1-.37.78.78,0,0,1-.1-.2,1.17,1.17,0,0,0,0-.34,1.31,1.31,0,0,1-.05-.34.9.9,0,0,0,0-.46,2.3,2.3,0,0,1,.4-1.38,4.52,4.52,0,0,1,1-1.05,6.2,6.2,0,0,1,1.1-.79l.34-.24a6,6,0,0,1,.92-.45c.19-.12.28-.19.28-.21h-.12s0,0,0-.05h0a.14.14,0,0,1,.12-.05v.09a.15.15,0,0,0,.16-.09h.08s0,0,0-.06h0s0,0-.08,0a.57.57,0,0,1,.24-.16.09.09,0,0,1,0,.06s-.06.06,0,.09h0l.58-.24.65-.27s0,0,.06,0h.16l0,0a.16.16,0,0,1,0-.07l-.06,0s.06,0,.06,0h.24l.06,0,0,0-.06,0h-.06s0,0,0,0a1.16,1.16,0,0,1,.5-.15l0-.05L153,163v.09a3.07,3.07,0,0,0,.38,0S153.36,163,153.33,163Zm1.26,8.78c0-.15,0-.23,0-.26a.14.14,0,0,0-.18,0c-.14.17-.23.27-.26.32a.79.79,0,0,1-.16.16.6.6,0,0,0-.16.16l-.06,0-.08.05a.31.31,0,0,1,.18-.29.05.05,0,0,1,0,0,.13.13,0,0,0-.1,0h-.12l0,.07a1.59,1.59,0,0,0-.32.1l-.24.09a1,1,0,0,1-.29.1.92.92,0,0,0-.29.12l-.09,0a.23.23,0,0,0-.11.05l-.1,0-.08,0-.12,0-.12,0a1.41,1.41,0,0,1-.6.13l-.89,0-1.12,0a1,1,0,0,1-.44-.05h0l-.06,0a.88.88,0,0,1-.3-.07,1.16,1.16,0,0,0-.28-.06.38.38,0,0,1-.21-.12q-.14-.11-.21-.09a.66.66,0,0,1-.2-.17.13.13,0,0,0-.18,0,5.86,5.86,0,0,0-.48.77l-.38.52a1.25,1.25,0,0,0-.12.17l-.12.23c0,.08-.08.14-.1.19a.6.6,0,0,1-.11.12l-.09.11a5,5,0,0,1-.33.63q-.26.41-.36.6a.5.5,0,0,1-.09.18c0,.08-.08.14-.11.19a2.2,2.2,0,0,0-.12.24,1.73,1.73,0,0,1-.3.59l0,0a.06.06,0,0,0,0,.07,3,3,0,0,1-.14.38s0,.11-.05.21a.73.73,0,0,1-.07.21,1.49,1.49,0,0,0-.1.62,1.65,1.65,0,0,0,0,.35.23.23,0,0,0,.16.09h.14l.12,0,.14,0a1.52,1.52,0,0,0,.57-.05,3.3,3.3,0,0,1,.54-.08.22.22,0,0,0,.1-.07l.6-.2c0-.06,0-.08.1-.07l.08,0,.06,0,.06-.07A.1.1,0,0,1,147,178c.08.11.16.11.24,0H147c0-.06.09-.11.19-.16a.58.58,0,0,0,.17-.1,11.9,11.9,0,0,0,1.28-.84h.1c0,.12-.21.26-.5.43l-.72.5,0,.06a1,1,0,0,0,.6-.24l.32-.22a1.29,1.29,0,0,1,.46-.23s0,0,.06-.05l.46-.39c.2-.15.34-.27.42-.34s0,0,0,0h.07a.07.07,0,0,1,.08-.07s0,.06-.08.09v.07c.14,0,.22,0,.24-.17H150q.1-.18.24-.18v.08a.2.2,0,0,0,.22-.18h-.14c0-.05.05-.09.14-.09l.08-.09c.12-.18.24-.27.35-.28v.07a.05.05,0,0,1,.05,0l-.05,0a.15.15,0,0,1,0-.11.57.57,0,0,1,.11-.1l.09-.08a.08.08,0,0,1,.08-.05l.06,0v.08c.06,0,.1,0,.1-.09h-.1a.22.22,0,0,1,.06-.18.71.71,0,0,1,.18-.15l.18-.13h.06v.11l.06-.07s-.05,0-.06,0a.83.83,0,0,1,.2-.3c0-.06.06,0,.14,0-.07,0-.1.06-.1.09s.06,0,.1-.09.12-.06.12-.16l0-.07,0,0a2.41,2.41,0,0,1,.42-.48.22.22,0,0,1,.22-.16c0-.06.07-.09.08-.09v.09c.07,0,.1,0,.1-.1h-.1c0-.06,0-.09.1-.09v.08l.1,0,.66-.8s0,0,0-.09a.08.08,0,0,1-.07,0,.06.06,0,0,1,0-.09s.08-.06.13-.14l.09-.13.14-.14v.2l.16-.16a.9.9,0,0,0,.16-.17ZM144.47,176l0,0,0,0Zm0-.62v0h0Zm.12.42s0,0,0,.06l0,0Zm.08-.18s-.06.07-.06.17S144.67,175.76,144.67,175.66Zm.06-.07s0,0,0,.07S144.75,175.63,144.73,175.59Zm.08-.12v-.06Q144.72,175.41,144.81,175.47Zm.06-.15s0,.06,0,.06S144.9,175.36,144.87,175.32Zm0-.62,0,0h0Zm.08.46,0,0v0S145,175.17,145,175.16Zm.06-.71,0,.05S145.05,174.48,145,174.45Zm0,.49,0,.06S145.05,175,145.05,174.94Zm.06-.67,0,0h0Zm0,.62s0,0,0,0a0,0,0,0,0,0,0S145.14,174.92,145.11,174.89Zm.16-.91,0,.07,0,0Zm0,.53c-.05,0-.06,0,0,.06l0,0Zm.08-.18s0,.07-.08.18S145.39,174.43,145.39,174.33Zm.85,4.6a.77.77,0,0,0,.36-.19.56.56,0,0,1-.26,0,.3.3,0,0,0-.15,0l-.15,0-.57,0h0l-.06,0s0,0,0,0,0,0,0,0l.25.08Zm-.85-5.13s-.06,0,0,.07A.12.12,0,0,1,145.39,173.8Zm0-.07a.08.08,0,0,1,0,.07C145.45,173.8,145.46,173.77,145.41,173.73Zm.06.48a.48.48,0,0,0-.08.12S145.45,174.29,145.47,174.21Zm.05,0s0,0-.05,0S145.54,174.2,145.52,174.17Zm.1-.71s-.05,0,0,.07Zm.06-.09,0,0s0,0,0,0S145.72,173.4,145.68,173.37Zm0,.51s0,0,0,.06A.08.08,0,0,0,145.7,173.88Zm.06-.1,0,.07S145.77,173.83,145.76,173.78Zm.08.22h0l0,0Zm0-.4s-.06,0,0,.07S145.88,173.62,145.88,173.6Zm.08-.09a.14.14,0,0,0-.08.09C145.93,173.6,146,173.57,146,173.51Zm0-.48,0,0h0Zm.06.42a.39.39,0,0,1,0,.06S146,173.49,146,173.45Zm.12-.65v-.06Q146,172.74,146.1,172.8Zm0,.46c-.06,0-.06,0,0,.05A.06.06,0,0,1,146.12,173.26Zm0-.55.06,0Zm0,.44,0,.07S146.18,173.2,146.14,173.15Zm0-5.18,0,0h0Zm.1,4.58,0,.07S146.25,172.6,146.24,172.55Zm10.86-6.91a.12.12,0,0,0,0-.14.29.29,0,0,1-.1-.18,2.61,2.61,0,0,1,0-.56.75.75,0,0,0-.06-.24.69.69,0,0,1-.06-.24,1.15,1.15,0,0,0,0-.22,1.54,1.54,0,0,0-.76-.83l-.31-.11a1.8,1.8,0,0,1-.28-.11.32.32,0,0,0-.28,0,.33.33,0,0,1-.24.1,2.78,2.78,0,0,0-.92.14,1.56,1.56,0,0,0-.68.14c-.11,0-.17.06-.2,0h-.28a.49.49,0,0,0-.28.14,2.19,2.19,0,0,1-.38.17.64.64,0,0,1-.15.05l-.2.07a.44.44,0,0,0-.15.12s-.06,0-.06,0-.14-.05-.22,0a.92.92,0,0,1-.2.16.73.73,0,0,0-.24.1.23.23,0,0,1-.13.06.19.19,0,0,0-.1,0,.76.76,0,0,1-.48.24l0,0a.27.27,0,0,1-.15.15l-.13.06a.39.39,0,0,0-.18.18l-.1.11a1.43,1.43,0,0,1-.34.17,2.6,2.6,0,0,0-.44.26,4.82,4.82,0,0,1-.78.56l-.26.25-.12.13-.13.11-.11.08-.11.09a.53.53,0,0,0-.11.09l-.1.1a.34.34,0,0,0-.08.14l-.08.11a2.43,2.43,0,0,0-.7,1.06,4.69,4.69,0,0,0-.1.56.48.48,0,0,1,0,.29c0,.06,0,.09,0,.11s0,.13,0,.24,0,.17,0,.19a.42.42,0,0,0,0,.14.83.83,0,0,1,0,.13,3.43,3.43,0,0,0,.3.71.7.7,0,0,0,.38.43s.08,0,.14-.05l.8-1.09a7.24,7.24,0,0,0,.68-.82l.12-.09.18-.19.22-.22.42-.39v0a.06.06,0,0,0,0-.05,1.52,1.52,0,0,1,.14-.18l.52-.48c.11-.08.26-.2.45-.37l.36-.3a4.39,4.39,0,0,1,.74-.5,7.76,7.76,0,0,0,.7-.46s0,0,.08,0a3.51,3.51,0,0,1,.68-.22c0-.05.08-.05.16,0s.13,0,.16,0,.05,0,.12,0l.08,0a1.93,1.93,0,0,0,.24.17.83.83,0,0,1,.4.51.1.1,0,0,1,0,.12l-.08.07,0,0h0a.09.09,0,0,0-.16,0c-.07,0-.11,0-.14,0l-.06,0,0,0a1.62,1.62,0,0,0-.56,0,9.43,9.43,0,0,0-1.3.73l-.22.19a4.71,4.71,0,0,0-.64.51c-.15.15-.37.35-.66.59a1.55,1.55,0,0,0-.22.2l-.23.22a.84.84,0,0,0-.26.32.58.58,0,0,1-.21.22.5.5,0,0,0-.19.28.38.38,0,0,0-.28.27c0,.05-.06.09-.13.14a.3.3,0,0,0-.13.11c-.05.06-.08.1-.08.12a3.29,3.29,0,0,1-.38.54,3.35,3.35,0,0,0-.44.57c-.11.1-.15.18-.14.22s.09.1.22.17,0,0,0,0a1.27,1.27,0,0,1,.64.2.48.48,0,0,0,.18,0l1,0a5.16,5.16,0,0,0,1-.11,1.49,1.49,0,0,1,.37-.06l.36,0,.28-.08.2,0,.2-.05.08,0,.06,0a1.2,1.2,0,0,1,.34-.16l.28-.08,0,0a.09.09,0,0,0,0,.11s.05,0,.09,0a1,1,0,0,1,.46-.11.48.48,0,0,0,.34-.21.54.54,0,0,0-.32.08l-.22,0h0s0-.05,0-.05a.25.25,0,0,1,.2-.09A1.76,1.76,0,0,0,154,171l.24-.08a1,1,0,0,0,.24-.09,4.42,4.42,0,0,0,.44-.29.12.12,0,0,0,.08-.11.53.53,0,0,1,0-.11l.32-.48,0,0v-.07a2.27,2.27,0,0,0,.23-.42,1.68,1.68,0,0,1,.28-.45.1.1,0,1,0-.1-.11c0-.18,0-.29.14-.34v.25a1.46,1.46,0,0,0,.25-.4,1.27,1.27,0,0,1,.23-.39l.14-.34a1,1,0,0,0,0-.22l-.08.09a2.62,2.62,0,0,1-.28.54.19.19,0,0,1-.08.07l0,0a1.4,1.4,0,0,1,.18-.49,2.07,2.07,0,0,0,.14-.34l.06,0,.06,0a.2.2,0,0,1,0,.11c.05,0,.08,0,.08-.09v-.16c-.06,0-.08-.05-.08-.13a.58.58,0,0,1,.12-.27v0l0,.05v.19l.06-.07a2.4,2.4,0,0,0,.16-.64v0l0-.05s0,0,0,.05,0,0,0,0l0,.07c-.06-.22,0-.36,0-.42s0,0,0-.09h0v0a.05.05,0,0,1,0,0s0,0,0,0h0v0s0,0,.05.05,0,.07,0,.08V166l0,0,0,0v-.06C157.08,165.74,157.08,165.66,157.1,165.64Zm-10.76,7.24s0,.05,0,.07S146.34,172.93,146.34,172.88Zm.06-.58,0,0h0Zm.08.42a.08.08,0,0,0,0,.07S146.49,172.77,146.48,172.72Zm.16,5.53s0,0,0,0S146.62,178.27,146.64,178.25Zm0,.49,0,0,0,0s0,0,0,0A.25.25,0,0,1,146.6,178.74Zm0-6.8h0l0,.05Zm0-5.27c-.06,0-.07,0,0,.07A.08.08,0,0,1,146.68,166.67Zm0,5.78c-.06,0-.07,0,0,0S146.65,172.46,146.68,172.45Zm0-.07a.25.25,0,0,1,0,.07l0,0Zm.08-5.87a.11.11,0,0,0,0,.07S146.79,166.53,146.78,166.51Zm0,12.13,0,0a.07.07,0,0,1,.06,0l-.08-.09s0,0-.06,0v.05Zm.08-6.55s-.06,0,0,.07Zm0,0A.07.07,0,0,0,147,172S146.92,172,146.92,172.07Zm.12-5.74,0,0,0,0v-.06Zm0,5.64s.05,0,0-.06Zm.18-.71,0,0h0Zm.18,6.74s.08,0,.08-.09h-.12c-.07,0-.1,0-.1.09Zm0-12s0,0,0,.06A.08.08,0,0,0,147.36,166Zm0,.22,0,0v0Zm0,4.7v0l0,0Zm.08-5,0,0h0Zm.08,4.85a.12.12,0,0,1,0-.07S147.49,170.79,147.5,170.83Zm.12-5s-.06,0,0,.07S147.62,165.86,147.62,165.84Zm0,5.25s-.06,0,0,.07,0,0,0,0Zm0-.46s.08,0,.08,0S147.65,170.6,147.62,170.63Zm.06-4.86a.13.13,0,0,0,0,.07S147.69,165.8,147.68,165.77Zm0,4.81c.05-.05.08-.08.08-.11S147.73,170.51,147.7,170.58Zm0,.35a.12.12,0,0,1,0,.07S147.73,171,147.72,170.93Zm.08-.51s0,0,0,.05S147.8,170.44,147.8,170.42Zm0-4.74s0,0,0,0h0Zm.16,4.58,0,0s0,0,0,0Zm0,.31s-.05,0,0,0A.08.08,0,0,0,148,170.57Zm0,0s0,0,0,0Zm.14-.49s0,0,0,.07Zm.06-4.61h0l0,0Zm0,4.59s.05,0,0-.07Zm.1-4.35h0l0,0Zm.08-.33h0l0,0Zm0,4.48h0v0Zm.16-4.33s0,0,0,.06l0,0S148.55,165.48,148.52,165.48Zm.22-.1,0,0s0,0,0,0h.06Zm.62,11.12a1.21,1.21,0,0,0-.27.22.59.59,0,0,1-.31.19h-.06a.28.28,0,0,1,.16-.21l.42-.3a.2.2,0,0,1,.14,0ZM148.78,165l0,0h0Zm.22,7.12h0l0,0Zm.08-3.16h0l0,0Zm2.15,3.1c-.07,0-.11,0-.12-.08a.81.81,0,0,1-.25,0,.84.84,0,0,0-.26,0,1.72,1.72,0,0,1-.42.06l-1,0a.05.05,0,0,1-.06,0l0,0,0,0a1.83,1.83,0,0,0,.4.08,1.25,1.25,0,0,1,.4.09h.47c.26,0,.41-.05.45-.11h.11s.09,0,.17,0a.3.3,0,0,1,.15,0h.26a.93.93,0,0,0,.19-.06.26.26,0,0,1,.21,0,.6.6,0,0,1,.38-.08l.16,0a.68.68,0,0,1,.42-.15h.22a1.1,1.1,0,0,1,.44-.1c0-.08.09-.1.14-.08s.08,0,.12-.09l-.14,0c-.07,0-.11,0-.14,0l-.14,0a.41.41,0,0,1-.16,0l-.28-.07h-.12s0,0,0,.07a.2.2,0,0,1,0,.09.65.65,0,0,1-.4-.06.49.49,0,0,0-.32,0v0a2.13,2.13,0,0,1-.32,0s-.07,0-.07,0,0,0,0,.06,0,0-.08.09l-.08.06h-.1s0,0,0-.07a.09.09,0,0,1-.06,0l-.08,0c-.08,0-.1,0-.06.11v0l0,0Zm-1.81-7.65s-.06,0-.06,0l0,0a.13.13,0,0,1,.08,0Zm.28,11.74a.28.28,0,0,1-.26.19c0-.12.07-.18.16-.18Zm-.2.78a.11.11,0,0,1,0-.06C149.47,176.89,149.46,176.91,149.5,177Zm.06-.13,0,.07S149.58,176.85,149.56,176.82Zm0-12.16h0l0,0Zm.24-.47v.07h-.12S149.74,164.2,149.82,164.19Zm0,11.89a.1.1,0,0,1-.12.09c0-.1,0-.16,0-.17a.33.33,0,0,1,.18-.1l0,.09S149.84,176.07,149.82,176.08Zm0-11.91v0h0v0Zm0,12.4,0,0h-.06Zm0-12.09v0h0Zm.2,11.28c0,.06,0,.09,0,.09l-.06,0-.06,0,.06-.13Zm0-11.38,0,0h0Zm.1,12a.08.08,0,0,0,.08-.09A.08.08,0,0,0,150.16,176.33Zm0-.7a.41.41,0,0,1,.2-.1c0,.11-.07.16-.14.16h0S150.18,175.67,150.18,175.63Zm.14.43c0,.06,0,.09-.08.1A.09.09,0,0,1,150.32,176.06Zm.1-.53c0-.06,0-.09,0-.09A.12.12,0,0,1,150.42,175.53Zm.18-11.7,0,0,0,0a.05.05,0,0,0,0,0l.08-.07Zm-.1,11.61c0-.06,0-.09,0-.09S150.53,175.44,150.5,175.44Zm0,.62.1-.1s0-.06-.1-.06,0,.07,0,.07v.09Zm.1-.78,0,0s0,0,0,0h-.08S150.6,175.28,150.64,175.28Zm.1.59,0-.07S150.73,175.83,150.74,175.87Zm.06-.11a.14.14,0,0,0,.09,0C150.83,175.71,150.8,175.73,150.8,175.76Zm0-12v0s0,0,0,0Zm.2-.1H151l0,0A0,0,0,0,1,151,163.66Zm0,.36h0l0,0Zm.08,10.85c0-.05,0-.07,0-.07Zm0-2.87s.05,0,0-.07S151.13,172,151.13,172Zm0,2.8s0-.05,0-.05S151.17,174.8,151.13,174.8Zm0,.68a.12.12,0,0,0,0-.07C151.13,175.42,151.13,175.44,151.17,175.48Zm0-.07c.05,0,.08,0,.08-.09S151.19,175.36,151.19,175.41Zm.18-.18s.08,0,.08-.07S151.37,175.19,151.37,175.23Zm.18-.09s0,0,0,0h-.1a.16.16,0,0,0,0,.07Zm-.08-.62s0-.06,0-.07A.12.12,0,0,1,151.47,174.52Zm0-.07,0,0v0Zm0-2.47c.05,0,.06,0,0-.06a.08.08,0,0,1,0,0Zm0,2.45a.25.25,0,0,0,0-.07S151.57,174.43,151.53,174.43Zm.2-10.73,0,0h0c.1.06.16,0,.18-.05l-.08,0Zm0,11.23v0l0,0S151.7,174.9,151.73,174.93Zm.46-11.33c-.16,0-.26,0-.28.07h.26l0,0,0,0ZM152,174.66s0,0,0-.07,0,0,0,0S151.92,174.63,152,174.66Zm0-2.72s0,0,0,0h.16c0,.05-.07.07-.16.08Zm.22-8.61s0,0,0,0h0l.06,0s0,0,0,0Zm0,8.56v0h0v0Zm0-.09v0h0Zm0,0,0,0v0Zm.06,1.78,0,0,0,0,0,0Zm0,.71,0,0,0,0Zm.32-11.13h-.24s0,.06,0,.06h.22l0,0Zm-.12.31-.1,0,0,0Zm0,8.34s0,0,0-.07Zm0,1.57s0-.05,0-.05v0Zm0,.68s0,0,0-.05l-.06,0Zm0-.05s0,0,.08-.11S152.55,174,152.55,174.06Zm.08-2.52,0,.05s0,0,0-.05Zm0,2.41c.09,0,.14-.08.14-.14h-.14Zm.12-.82,0,0a.17.17,0,0,1-.06.11l0,0Zm.08-10h0l0,0c.11,0,.17,0,.2-.08A.39.39,0,0,0,152.83,163.16Zm0,10.6s0,0,0-.06S152.81,173.72,152.81,173.76Zm.08-.08s0,0,0-.07h0Zm.38-.55a.58.58,0,0,1-.24.3.46.46,0,0,1,.05-.2A.35.35,0,0,1,153.27,173.13Zm-.1-.35s0,0,0,0,0,0,0,0Zm0-.07s0-.07.08-.09S153.23,172.71,153.19,172.71Zm.08.42c0-.13,0-.23.2-.29,0,0,0,0,0,0v0C153.42,173,153.35,173.11,153.27,173.13Zm0-.66a1,1,0,0,1,.36-.28c0,.1,0,.16,0,.18s-.21.19-.22.25h-.12A.36.36,0,0,1,153.29,172.47Zm.36-9.57,0,.07,0,0h.28l0,0v0s0,0,0,0Zm.18,9.7s0,0,0,0v0Zm.08-1.41.36,0a.2.2,0,0,0,.2-.16,1.17,1.17,0,0,0-.56.16Zm.14.39h0l0,0a.43.43,0,0,0,0,.07l0,0,.1,0Zm0,.84,0-.07-.06,0S154,172.39,154,172.42Zm0-.07a.09.09,0,0,0,.08-.09S154.06,172.29,154.05,172.35Zm.16-.4c0,.07,0,.11-.08.11v0a.25.25,0,0,0,0-.07l0,0Zm.28-.32,0,0c0,.09,0,.14-.16.14l0,0v-.05C154.34,171.66,154.4,171.63,154.49,171.63Zm0-.62.1,0s0,0,0,0l0,0C154.51,170.92,154.47,171,154.47,171Zm.26.5v0h0S154.72,171.51,154.73,171.51Zm.56-.73h0l0,0h0Zm.08-.71v0h0Zm0-.22,0,.05h0S155.44,169.85,155.41,169.85Zm.08-.64.06-.07,0,.07a.1.1,0,0,1-.06.09A.15.15,0,0,0,155.49,169.21Zm.28-.36s0-.07,0-.07Zm.27-.52s0,.07-.08.11S156,168.33,156,168.33Zm0,2h0s0,0,0,0Zm.14-2.16s0,.08-.1.11v-.16s0-.08.1-.11Zm0,.79,0,0,0,0Zm.38,1.18h0l0,0a.08.08,0,0,0-.08,0l-.06,0,0,0s0,0,.05,0A0,0,0,0,1,156.54,170.19Zm.14-3.12s.08,0,.08-.16S156.68,167,156.68,167.07Zm0,3h0a.25.25,0,0,1,.16-.05c0,.08-.07.1-.16.07S156.72,170.11,156.72,170.09Zm0-3.57,0-.05,0,0s0,0,0,0Zm.06-.16,0,0,0,0Zm.4,3.6,0,0-.24,0s0-.07,0-.07Zm-.06-4.65v-.2l-.06,0s0,0,0,0v.2l0,.05s0,0,0,0S157.16,165.33,157.16,165.31Zm0,4.92s0,0,0,0l-.06,0s0,0-.06,0l0,0Zm.16-.36a0,0,0,0,1,0,0h0s0,0,0,0S157.32,169.87,157.34,169.87Zm0,.35,0,0,0,0s0,0,0,0Zm.18-.45.08,0s.07,0,.08,0v0l-.08,0a.13.13,0,0,1-.08,0Zm.3-.07s0,0,0,0h.2a.24.24,0,0,1-.2.07Zm.58-.2c0,.09,0,.13-.1.14H158a.12.12,0,0,1,0-.07l.1,0,.14-.05C158.35,169.44,158.39,169.44,158.4,169.5Z"/>
        <path class="cls-2" d="M174.57,161.33a.16.16,0,0,1,0,.18l-.06.05s-.05,0-.06,0l-.15.12a.5.5,0,0,1-.13.09l-.12.12-.12.11a.81.81,0,0,1-.3.21,2.37,2.37,0,0,0-.32.26.91.91,0,0,0-.16.11l-.18.16s0,0-.06,0a.14.14,0,0,0-.09.05l-.07,0a.88.88,0,0,0-.14.14s0,0-.08,0-.18,0-.2.11,0,.08-.1,0-.08,0-.1,0l0,.05,0,.07,0,.08a.09.09,0,0,0,0,0,2.43,2.43,0,0,0-.48.37.15.15,0,0,0-.08.12s0,.06,0,.06a.22.22,0,0,1-.11.05,1,1,0,0,1-.26.23.32.32,0,0,1-.09.17.48.48,0,0,1-.09.1.54.54,0,0,1-.14.16l-.06,0a.33.33,0,0,1-.1.18.59.59,0,0,0-.1.16l-.06.09a.65.65,0,0,0-.28.29c0,.06,0,.09-.08.09l-.25.34a3.29,3.29,0,0,1-.27.37.9.9,0,0,1-.12.18l-.06.07a.3.3,0,0,0-.08.07.08.08,0,0,0,0,0s0,.07,0,.07a.23.23,0,0,0,.12,0l1,0,.46,0a.46.46,0,0,0,.24,0h0s.5,0,1.38,0,1.34,0,1.41,0a.23.23,0,0,1,.24,0s.11,0,.22,0h.64l.1,0h.08s.07,0,.12,0,0,0,0,0c0,.15,0,.24-.1.27l0,.07a.21.21,0,0,1-.14.09h-.14s0,0,0,.09,0,0-.06.05h-.16c-.05,0-.08,0-.08,0l0,0a.08.08,0,0,0,0-.05l0,0h-.76l-1.82,0-1.81,0-1.36.05q-.17,0-.18.18c-.05.1-.1.16-.14.16s-.16,0-.16.12l0,0a.25.25,0,0,0,0,.07.66.66,0,0,1-.06.12.66.66,0,0,0-.06.12,1,1,0,0,0-.22.3,1.15,1.15,0,0,0-.22.34.37.37,0,0,1-.1.18,1.31,1.31,0,0,0-.22.36l-.06.08a.07.07,0,0,0,0,.06.41.41,0,0,0-.22.27.8.8,0,0,1-.14.2s0,0,0,.09l-.14.26a1.9,1.9,0,0,0-.14.24.9.9,0,0,0-.12.18.19.19,0,0,1-.06.13,3.63,3.63,0,0,0-.29.43,2.32,2.32,0,0,1-.24.43v.11a.69.69,0,0,0-.12.16l0,.07a.3.3,0,0,1,0,.08l0,.08a.24.24,0,0,0,0,.08,1.77,1.77,0,0,1-.16.27.48.48,0,0,1-.08.16,1.18,1.18,0,0,0-.08.16,1.32,1.32,0,0,1-.2.32.34.34,0,0,1,0,.11.57.57,0,0,1-.16.27,1.05,1.05,0,0,0-.08.13l-.06.14a.55.55,0,0,1-.18.33.13.13,0,0,1,0,.06.19.19,0,0,0,0,.08h0s0,0,0,0a1.52,1.52,0,0,1-.18.34.32.32,0,0,0-.08.2c0,.05-.05.11-.14.18s0,.06,0,.07,0,.07,0,.09a.51.51,0,0,1-.08.18l-.18.33-.06.17a.54.54,0,0,1-.08.17.45.45,0,0,0-.09.16.61.61,0,0,1-.07.13l-.08.09a.1.1,0,0,0,0,.07l0,.07a.1.1,0,0,1,0,.13.91.91,0,0,0-.14.25.22.22,0,0,0,0,.15.86.86,0,0,1-.1.29,1.64,1.64,0,0,0-.16.36,4.06,4.06,0,0,0-.16.43,1.45,1.45,0,0,1-.08.21.87.87,0,0,0-.08.19l0,0,0,0c-.06,0-.06.07,0,.13v.09s0,0,0,.07l-.05.06-.06.16c0,.11,0,.19-.06.25a1.16,1.16,0,0,1-.06.17l-.1.25a.73.73,0,0,0-.07.21.72.72,0,0,1-.05.17l-.08.26a1.68,1.68,0,0,0-.08.25.14.14,0,0,1,0,.09.78.78,0,0,0-.1.27.64.64,0,0,0-.08.27l0,0a.11.11,0,0,0,0,.07,2.27,2.27,0,0,0-.1.38l0,.07,0,0a4.41,4.41,0,0,0-.1.53.45.45,0,0,1,0,.13.35.35,0,0,0,0,.12c-.06.27-.08.41-.08.42v.11c0,.06,0,.09.08.09h.22l.19-.1.19-.07.22-.15.24-.18,0,0a3.13,3.13,0,0,1,.3-.28,2.46,2.46,0,0,0,.32-.3,1.73,1.73,0,0,1,.36-.36.62.62,0,0,0,.08-.12,1,1,0,0,1,.08-.11l.22-.34a.69.69,0,0,1,.18-.18.4.4,0,0,0,.22-.27,1.28,1.28,0,0,1,.38-.48s.08-.09.12-.23,0,0,.06,0a.16.16,0,0,0,0-.07l0-.07a.59.59,0,0,1,.08-.11.49.49,0,0,0,.08-.12l.1-.13s0,0,0,0l0,0a.17.17,0,0,1,0,.14l-.23.3a3.56,3.56,0,0,1-.31.4.18.18,0,0,0,0,.09,1.45,1.45,0,0,1-.26.3.88.88,0,0,1-.17.23,2.27,2.27,0,0,0-.17.22,2,2,0,0,1-.32.43l-.54.62-.15.12a1,1,0,0,0-.15.15.3.3,0,0,1,.08.07.16.16,0,0,0,.12,0,8.11,8.11,0,0,0,.58-.59l.3-.36.3-.35s0,0,.08-.07h.08l0,.11a.33.33,0,0,1-.08.11.84.84,0,0,0-.18.25s0,.06,0,.09l-.08.11a.21.21,0,0,1-.12,0l0,.05-.05,0a.72.72,0,0,1-.18.43,2.38,2.38,0,0,0-.22.27.31.31,0,0,1-.1.14.32.32,0,0,0-.1.11l0,0s0,0,0,.05a1,1,0,0,0-.22.19.92.92,0,0,1-.24.2l-.06.05,0,0a3.52,3.52,0,0,1-.56.39h-.06l-.21,0a.36.36,0,0,0-.21.05l-.21,0a.4.4,0,0,1-.21-.06.46.46,0,0,0-.17-.17q-.12-.12-.12-.15a1.32,1.32,0,0,0-.08-.14,1.18,1.18,0,0,1-.08-.16.18.18,0,0,1-.06-.13v-1.12a.21.21,0,0,1,.08-.14s0,0,.06,0,.08,0,.08,0v-.22h0s-.08,0-.08-.08a.16.16,0,0,0,0-.12c0-.1.07-.13.16-.09h0s0,0,0-.06,0-.05,0-.13a.26.26,0,0,1,.06-.15v-.18l.06,0c.05,0,.08,0,.08,0a.41.41,0,0,0,0,.16.07.07,0,0,0,.06-.07.39.39,0,0,1,0-.13.5.5,0,0,0,0-.14.3.3,0,0,1,0-.13.64.64,0,0,1,.06-.14s0,0,.06,0V180l-.06,0c0,.06,0,.09-.08.1a.79.79,0,0,1,0-.23.67.67,0,0,0,.06-.15.17.17,0,0,1,.06.11V180l.08-.07v-.24a.1.1,0,0,1-.08-.11v-.07l-.06.07a.5.5,0,0,0,0,.18.3.3,0,0,0-.08.07.07.07,0,0,1-.06,0v-.09a2.57,2.57,0,0,0,.16-.47.13.13,0,0,1,0-.07l.05-.07s0,0,.06,0v.2a.16.16,0,0,0-.08.13v.11h.08v-.24s.06,0,.06-.09a.28.28,0,0,1,0-.14s.07,0,.14-.16a.09.09,0,0,1,0-.08v0c0,.08.06.11.12.08s0,0,0,0a.57.57,0,0,1-.1.37h-.06v-.13s0,0,0,0v0l0,0-.08.09s0,.06,0,.09a.31.31,0,0,0,0,.08l0,.08a.11.11,0,0,0,0,.07s0,0,0,0h0v.15l.08,0H162v-.09s0,0,.08-.09v-.11a.3.3,0,0,1,0-.13v.24h0c0,.1,0,.16-.08.18a.46.46,0,0,1-.06.25.42.42,0,0,1,0,.09.28.28,0,0,0,0,.12.49.49,0,0,0,0,.12.1.1,0,0,0-.08.05v.15l0,0s0,0,0,0a2.5,2.5,0,0,1,.18-.29v-.09c0-.06,0-.09,0-.11s.08-.08.08-.18a1.06,1.06,0,0,1,0-.33h0a.44.44,0,0,1,.16-.21.52.52,0,0,1,.1-.18V179s0,0,0,0v-.07l.05-.14a.35.35,0,0,1,.07-.15.31.31,0,0,0,.08-.24v-.11l0-.05s0,0,0,0a.46.46,0,0,0,.14-.25.08.08,0,0,1,0-.09.22.22,0,0,0,.12-.14l.12-.33s0-.1,0-.24,0,0,0-.07l.14-.14a.3.3,0,0,1,0-.13l.06-.14a.56.56,0,0,1,.14-.36.73.73,0,0,0,.12-.37c0-.11.08-.17.12-.19l0,0a1.41,1.41,0,0,1,.2-.41.08.08,0,0,0,0-.05.14.14,0,0,0,0-.06v-.06a.41.41,0,0,0,.12-.25s0,0,0,0a.9.9,0,0,0,.16-.26,2,2,0,0,1,.08-.23,2.17,2.17,0,0,0,.11-.22l.09-.21s0-.14.14-.26a1.09,1.09,0,0,0,.08-.14.44.44,0,0,1,.12-.16v-.07a.23.23,0,0,1,0-.13.14.14,0,0,0,0-.15v0a.17.17,0,0,0,.08-.16h.08a.73.73,0,0,0,0-.12.33.33,0,0,0,0-.1c.08-.06.11-.11.08-.13s0-.07,0-.07,0,0,0-.05l0,0s.06-.05,0-.09a.06.06,0,0,1,0-.05l0,0,0,0a2.46,2.46,0,0,0,.18-.43q0-.09.06-.09a.1.1,0,0,0,.08-.11v-.13l0,0,0,0s0,0-.05,0a.24.24,0,0,1,0-.07v-.07l0,.05-.26.27s0,0,0,0,0-.09,0-.18a.33.33,0,0,0,.08-.25.28.28,0,0,0,.22-.23.28.28,0,0,0,0-.11l0-.09.14-.14s0,0,.08,0,0,0,.06,0a.42.42,0,0,0,.1-.2s0-.06,0-.06-.14,0-.14-.09a.2.2,0,0,0,.14-.22s0,0,0,0,0,0,.05,0a.76.76,0,0,0,.2-.25,1,1,0,0,1,.14-.25h.08a.05.05,0,0,1,.06.06h0a.22.22,0,0,1,0-.08l.06-.07a.09.09,0,0,0,0-.05.28.28,0,0,0,.06-.18l.08-.09h0v-.06s0,0,0,.07a.08.08,0,0,0-.08.09h-.06c-.06,0-.08,0-.08-.09v-.06a1,1,0,0,1,.16-.16.59.59,0,0,0,.06-.18l0,0,0,0h0v.15s0,0,.06,0,0,0,0,0l0,0c0-.06.05-.09.08-.09a.25.25,0,0,1,.14-.25l0-.05a.38.38,0,0,0,.06-.18l-.06.06-.08.06-.06,0h0s0,0,0,0l.12-.16.12-.16s0-.07.08-.18a.38.38,0,0,1,.06-.17.13.13,0,0,0-.14.09.32.32,0,0,1-.14.16c0-.1,0-.16-.08-.17s-.16-.07-.18,0-.07,0-.12.12a.11.11,0,0,1-.1.07h-.18a.23.23,0,0,0-.16.08l0,0v0a.15.15,0,0,1,.08-.08.2.2,0,0,0,.08-.08l0,0,0-.07a.07.07,0,0,0-.08,0,1.16,1.16,0,0,1-.15.13.86.86,0,0,0-.16.13.48.48,0,0,1-.16.14s0,.06-.12.07,0-.16-.06-.18-.06-.11-.16-.15,0,0,0-.09,0,0,0,0,.12-.14.18-.07h.08l.27-.09h.08c.08,0,.12,0,.14,0s0,0,0-.07,0,0,0,0c-.19,0-.31,0-.35.06H166s-.06,0-.12,0l-.12,0a.54.54,0,0,1-.22,0c-.08,0-.12,0-.14,0a1,1,0,0,1-.34.06h-.46a.22.22,0,0,0-.12,0,.36.36,0,0,1-.21.05.7.7,0,0,0-.21,0s-.06,0-.06,0l.66,0a.11.11,0,0,1,.07,0s.07,0,.09,0l0,.09-.08.09a.17.17,0,0,1-.06.09.22.22,0,0,1-.14,0l-.08.09h-.1c-.09,0-.15,0-.18.07a.21.21,0,0,0-.12,0,.43.43,0,0,1-.26.07l-.1,0a.13.13,0,0,0-.12,0,.32.32,0,0,1-.18,0l-.08,0h-.06l-.07,0-.09,0-.15,0c-.08,0-.13,0-.17,0a.32.32,0,0,0-.2.05.82.82,0,0,1-.32.06.37.37,0,0,0-.26.08.33.33,0,0,1-.14,0,.55.55,0,0,0-.22.05s0,0-.08,0a.24.24,0,0,0-.24,0,.44.44,0,0,1-.25.08,1.05,1.05,0,0,0-.3.07s0,0-.1,0a.28.28,0,0,0-.18,0l-.14.06a.87.87,0,0,1-.32.1.24.24,0,0,0-.14,0,.45.45,0,0,1-.22,0,.28.28,0,0,0-.16.07.76.76,0,0,0-.36.37c-.11.18-.22.38-.34.61a4.18,4.18,0,0,1-.28.56,2.89,2.89,0,0,0-.16.36l0,.07a1.52,1.52,0,0,0-.26.51.64.64,0,0,0-.06.14.49.49,0,0,1-.08.13l-.14.25,0,0s0,.06,0,.08,0,.06,0,.08l0,.08a.11.11,0,0,0,0,.07s0,.08-.07.14l-.07.15a.87.87,0,0,1,0,.13l-.05.18c0,.06,0,.1-.06.11a.45.45,0,0,0-.08.25.45.45,0,0,1-.1.27.43.43,0,0,0-.1.22c0,.06,0,.18-.11.36a2.28,2.28,0,0,0-.11.4.39.39,0,0,0-.08.25.16.16,0,0,1,0,.11.16.16,0,0,0,0,.09.33.33,0,0,1-.08.22.16.16,0,0,0-.06.13,1.89,1.89,0,0,0-.06.18.64.64,0,0,0-.05.16,1.29,1.29,0,0,1-.09.29v.13a1.15,1.15,0,0,1,0,.2.66.66,0,0,0,0,.16,1.11,1.11,0,0,0-.08.42.35.35,0,0,1,0,.12.44.44,0,0,0,0,.15,1.51,1.51,0,0,1,0,.26c0,.06,0,.1,0,.11s0,.23,0,.51c0,0,0,0,0,0s0,0,0,0l.05,0h.05l0,0,.06,0a.89.89,0,0,0,.3-.16l.09-.06.11-.09.1-.09a.45.45,0,0,0,.1-.1c0-.05.06-.08.08-.08a1.48,1.48,0,0,0,.32-.41l.12-.09.08-.09a.73.73,0,0,1,.18-.25l.46-.5.16-.23.18-.25a.74.74,0,0,1,.3-.28.12.12,0,0,0,.06-.09s.06-.07.14-.13l0,0,0,0c0-.06.05-.09.08-.1a.52.52,0,0,0,.14-.17c.05-.08.09-.13.12-.14a1.23,1.23,0,0,1,.19-.27,1.66,1.66,0,0,0,.17-.19.09.09,0,0,0,0-.06l.06-.06.06-.06,0-.05v-.06c0-.06,0-.09.08-.09a.16.16,0,0,0,.16-.12,2.55,2.55,0,0,0,.3-.32l.34-.37h.06l0,0a.33.33,0,0,1-.06.08l-.06.11c-.22.25-.34.4-.36.43s-.06.08-.16.11l-.42.55-.06.08a.28.28,0,0,1-.06.08l-.48.54a.06.06,0,0,1,0,.05l0,0a1.41,1.41,0,0,1-.32.44l-.38.44-.36.42-.16.19-.14.18v0a.29.29,0,0,0,0,.09c.06,0,.11,0,.12,0a2.76,2.76,0,0,1,.44-.43.94.94,0,0,1,.24-.34.44.44,0,0,1,.1-.12l.08-.07a.07.07,0,0,0,.06-.07c.05-.07.24-.29.56-.66l.56-.64.14-.18a.63.63,0,0,0,.14-.18,1.12,1.12,0,0,1,.18-.23s0,0,0,0l.06,0a2.13,2.13,0,0,0,.3-.41.77.77,0,0,0,.23-.2,1.19,1.19,0,0,1,.14-.17s0-.05,0-.07l.07,0,.06-.08a.75.75,0,0,1,.08-.14l.08-.09a1.4,1.4,0,0,1,.18-.18s0-.07.06-.07a1,1,0,0,0,.32-.37s0,0,.08,0a1.18,1.18,0,0,0,.3-.34c0-.06.06-.09.14-.1V172s-.06.07-.06.18-.08,0-.08,0-.14.11-.14.18.06,0,.06.07a.76.76,0,0,1-.14.27.2.2,0,0,0-.16.16s-.05.08-.14.16a1.39,1.39,0,0,1-.26.14.39.39,0,0,1,0,.13l-.08.15-.1.15-.1.11a.51.51,0,0,0-.27.32s0,0,0,0l0,0a1.62,1.62,0,0,0-.2.2.4.4,0,0,0-.12.11c-.05.05-.09.08-.12.08a.41.41,0,0,1,0,.16l-.24.29a2.31,2.31,0,0,1-.32.41s0,0,0,0l0,0s0,0-.08.07a.76.76,0,0,1-.22.27,1.32,1.32,0,0,0-.16.25l-.14.14a1.32,1.32,0,0,1-.3.32,2,2,0,0,1-.24.25s0,0,0,0a2.54,2.54,0,0,1-.28.34,1,1,0,0,1-.16.22,1.26,1.26,0,0,0-.18.28l-.11.12-.11.11-.23.27-.28.34-.25.26-.12.11-.09.06a.24.24,0,0,0-.11.08,1,1,0,0,1-.54.13.5.5,0,0,1-.36-.14,3.66,3.66,0,0,1-.35-.34,1.1,1.1,0,0,1-.08-.33.8.8,0,0,0,0-.3.37.37,0,0,1,0-.12.24.24,0,0,0,0-.13v-.15a.41.41,0,0,1,.12-.27.06.06,0,0,0,0-.09c-.09,0-.12-.07-.08-.15a.39.39,0,0,0,0-.18v-.22a.57.57,0,0,0,.07-.2c0-.09,0-.15.05-.2a.77.77,0,0,0,0-.1.41.41,0,0,1,0-.1l.06-.27a.36.36,0,0,1,0-.11c0-.06,0-.1,0-.13a.28.28,0,0,0,0-.11l0,0v0c0-.08,0-.12,0-.14l0,0a.25.25,0,0,0,0-.07.29.29,0,0,0,0-.09.16.16,0,0,1,.06-.13s0,0,.1-.09h0a.18.18,0,0,0,.08-.09s0-.05,0-.05,0,0,0,0-.08,0-.08,0a.41.41,0,0,1,0-.16l.07-.2a1.54,1.54,0,0,1,.09-.24.9.9,0,0,0,0-.18.11.11,0,0,1,0-.07.25.25,0,0,0,0-.07.09.09,0,0,1,0-.05l0-.07a.19.19,0,0,0,0-.08.24.24,0,0,1,0-.12.41.41,0,0,0,0-.12.3.3,0,0,1,0-.13.41.41,0,0,0,0-.12l.12-.27.1-.27s0,0,.06,0a.28.28,0,0,1,0-.14,1.14,1.14,0,0,0,.12-.3,1.14,1.14,0,0,1,.12-.3c0-.06.06-.15.12-.28s.09-.22.12-.28a4.79,4.79,0,0,1,.32-.67.7.7,0,0,0,.14-.3l.1-.09a.59.59,0,0,1,.06-.18c0-.09,0-.13-.1-.13a.51.51,0,0,0-.17.05.35.35,0,0,1-.13,0,1,1,0,0,1-.26.11.89.89,0,0,0-.28.13,5.73,5.73,0,0,1-.84.54.47.47,0,0,1-.2.08s-.07,0-.08,0-.19-.18-.19-.24a0,0,0,0,0,0,0l0,0a.57.57,0,0,1,0-.26,3.34,3.34,0,0,1,.23-.41.67.67,0,0,0,.16-.11,4,4,0,0,1,1.3-.62l.3-.15a.53.53,0,0,0,.28-.1l.18-.07a.62.62,0,0,1,.18,0l.38-.12s.09,0,.14-.1c.2-.36.31-.55.32-.56a.35.35,0,0,0,.1-.14.77.77,0,0,1,.16-.27.82.82,0,0,0,.16-.25l.07-.09s.05-.05.05-.06a1.27,1.27,0,0,0,.24-.37s0,0,0,0a1.19,1.19,0,0,0,.24-.32l.1-.1a.28.28,0,0,0,.1-.17l.27-.27.11-.14.1-.14.18-.25.15-.13.14-.16s.14-.15.32-.35a3.55,3.55,0,0,1,.54-.52.23.23,0,0,0,.1-.14.25.25,0,0,1,.16-.16l.44-.35a.52.52,0,0,0,.1-.11.31.31,0,0,1,.11-.08l.11-.08a.76.76,0,0,1,.5-.13h0a.61.61,0,0,1,.56.15.56.56,0,0,1,.24.26s0,0,0,.09a1.37,1.37,0,0,1-.16.38.44.44,0,0,0-.07.12.49.49,0,0,1-.09.15.49.49,0,0,0-.08.13.58.58,0,0,1-.08.14,1.15,1.15,0,0,1-.32.43.33.33,0,0,1-.22.14l-.08.05h-.08l0,0v-.09a1,1,0,0,0,0-.2.54.54,0,0,1,.06-.23,2.59,2.59,0,0,1,.16-.51.2.2,0,0,0,0-.09l0,0a.05.05,0,0,0-.06.06,3.53,3.53,0,0,1-.52.47.63.63,0,0,0-.18.16,4.33,4.33,0,0,1-.4.39l-.16.18-.32.36a2.12,2.12,0,0,0-.2.21l-.09.09-.09.09a.35.35,0,0,0-.12.1l-.12.19a.67.67,0,0,0-.12.17l0,0-.07.07a2.44,2.44,0,0,1-.4.52,3.65,3.65,0,0,0-.32.45.12.12,0,0,1,0,.05l-.05.05-.05.06s0,.06,0,.07,0,0-.05.08a.54.54,0,0,0-.07.13l-.08.07-.08.06a.19.19,0,0,0,0,.16.3.3,0,0,0,.06.09h.1c.07,0,.09,0,.06-.07h-.06s0,0,0,0h0s0,0,0,0l0,0a.26.26,0,0,1,.14,0h.14a.17.17,0,0,1,.12-.05.17.17,0,0,0,.12,0l.15-.05a.41.41,0,0,0,.15,0,.71.71,0,0,0,.23,0l.21,0,.21-.07s0-.05,0-.05H162a.42.42,0,0,1,.3-.1.42.42,0,0,0,.18,0l.16,0,.16,0a.38.38,0,0,0,.16-.05.35.35,0,0,1,.16,0,.62.62,0,0,0,.32-.08.9.9,0,0,1,.28,0,.76.76,0,0,0,.3-.06.22.22,0,0,1,.12,0l.46-.09a2.33,2.33,0,0,1,.32,0,.74.74,0,0,0,.38-.08s0,0,.08,0h.08a2.76,2.76,0,0,1,.38,0h.1a3.33,3.33,0,0,1,.83-.09h.08a.22.22,0,0,0,.2-.11l0,0h.08v0l0,0a.28.28,0,0,0,.16-.05h.06a0,0,0,0,0,0,0s0,.07,0,.07a.38.38,0,0,1,.18-.06.27.27,0,0,0,.16-.07l0,0,0,0s.06,0,.06,0v-.13a3.35,3.35,0,0,1,.4-.37l.18-.17a1.38,1.38,0,0,1,.2-.18l.1-.11c0-.07.07-.11.16-.12l.08-.09a1,1,0,0,0,.32-.3l.08,0a.44.44,0,0,0,.22-.32.1.1,0,0,0-.1.05l-.08.07a.3.3,0,0,0-.08.07l-.06,0a.22.22,0,0,0-.08.09s0,0,0,.05a.11.11,0,0,1,0,.05c0-.05,0-.07-.08-.07v-.09c.05,0,.08,0,.08-.09l.18-.09a.49.49,0,0,0,.12-.16s0,0,0-.05a.09.09,0,0,0,.06-.07v0h0l.08-.09s.06,0,.06-.07a.65.65,0,0,1,.14-.22.37.37,0,0,1,.16-.05.18.18,0,0,1,0-.09l.36-.41.1-.12a.51.51,0,0,0,.12-.16l.1-.11a.25.25,0,0,0,.1-.14l.12-.11.13-.12.49-.54a.66.66,0,0,1,.12-.12.55.55,0,0,0,.13-.14c.08-.09.21-.23.4-.41l.5-.41.23-.13.21-.13a.84.84,0,0,1,.46-.15H174a.39.39,0,0,1,.22.06l.12.06a.22.22,0,0,0,.12.15C174.52,161.27,174.56,161.3,174.57,161.33Zm-18.68,15.32v-.09s0,0,0,.09Zm.09-.42s0,0,0,0l0,0s0,.07,0,.06Zm.07-.22s0-.07,0-.07h0V176h0Zm.07-.32h0l0,0Zm0,.67,0-.07s0,0,0,0v.09Zm.12.26s0,0,0-.07v.09S156.2,176.63,156.2,176.62Zm.08-.25s0-.06,0-.06,0,0,0,.06l0,0A0,0,0,0,0,156.28,176.37Zm0-.88c0-.05,0-.08,0-.09v0s0,.06,0,.09Zm0,.53h0l0,0Zm.08-.89s0,.05,0,.09a0,0,0,0,1,0,0,.14.14,0,0,0,0-.09Zm0,.71v0s0,0,0,0,0,0,0,0l0,0v0Zm0-1.39s0,.06,0,.06l0,0v-.05a.1.1,0,0,1,0-.06v0a.06.06,0,0,0,0,.05Zm0,.53s0,0,0,0v-.08l0,0v0S156.44,175,156.46,175Zm0,.57v-.05l0,.05Zm0-.68a.09.09,0,0,0,.08-.1v-.15a.12.12,0,0,0-.08.11Zm0-.76v.09s0,0,0-.07v0Zm0,1.19h0v0Zm.16-1.61q-.15.28-.12.36h0a3.47,3.47,0,0,0,.1-.35Zm-.06.86c0-.06,0-.09.08-.09s0,0-.08,0-.06,0-.06,0v.16S156.62,174.59,156.62,174.55Zm.08.33v-.18a.09.09,0,0,1-.06,0,.19.19,0,0,0,0,.15l0,0S156.68,174.88,156.7,174.88Zm0-1.3s0,0,0,.09a.07.07,0,0,0,.06-.07s0,0,0,0Zm0,1.12a.1.1,0,0,0,.08-.11.19.19,0,0,0-.08-.13Zm.08-1.37s0,.07,0,.07,0,0,0,0v-.08Zm.06.51s-.06,0,0,.06Zm0,0h.06v-.15c0-.06,0-.09.08-.09v-.22h0a.68.68,0,0,0-.12.38A.14.14,0,0,1,156.86,173.84Zm.06-.8a.1.1,0,0,0-.06.09v.15l.06-.13Zm0,1.15,0,0s0,0,0,0l0,0s0,0,0,0v0S156.86,174.19,156.88,174.19Zm.12-1.31s-.07,0-.08.09V173c.05,0,.08,0,.08-.09Zm0,1v-.07h-.08v.07a.08.08,0,0,1,0,0A.15.15,0,0,1,157,173.9Zm.06-1.26s-.06,0-.06.09v.15s.06-.07.06-.09Zm0,.68a2.83,2.83,0,0,0,.16-.36.1.1,0,0,0,0-.09l0,0,0,0,0,0a.94.94,0,0,1-.12.2,1.11,1.11,0,0,0,0,.29Zm0,.51c0-.05.06-.07.06-.09v-.15H157Zm.16-1.48,0,0h0s0,0,0,0,0,0,.06,0a0,0,0,0,0,0-.05.18.18,0,0,0,0-.09Zm-.06.26v0s0,0,0,0Zm0,1s0,0,0-.05S157.08,173.56,157.08,173.59Zm.1-.21v0a0,0,0,0,1,0,0l0,0-.06,0S157.15,173.38,157.18,173.38Zm.08-1.21s0,0,0,.09v.06A.27.27,0,0,0,157.26,172.17Zm0,1.1,0-.11,0,0s0,0,0,0Zm0-.64,0,0v0A.14.14,0,0,0,157.26,172.63Zm.08-.62s0,0,0,.07v.09l0-.09Zm0,.57s0,0,0,0,0,0,0,0Zm0,.38v-.09s0,0,0,.07a0,0,0,0,0,0,0Zm0,5,0,0,0,0h0Zm.06-6.07a.09.09,0,0,0,0,0l0,0v.05s0,0,0,.09S157.4,172,157.4,171.92Zm0,.88v0l-.06,0v.07S157.38,172.83,157.4,172.8Zm0,5.1-.08.09A.18.18,0,0,0,157.42,177.9Zm.06-.05s-.06,0-.06.05Zm.06-6.29v0l0,0Zm0,6.2s-.06,0-.06,0S157.56,177.79,157.56,177.76Zm.08-.09s-.07,0-.08.09l.06-.07Zm-.06-6.29v0h0Zm0,.89s0,0,0-.05,0,0,0-.07l-.06,0v.09Zm.12-.56v-.13s-.06,0-.06.07,0,.07,0,.08Zm-.06.4h0v0Zm.08,5.4c-.06,0-.08,0-.08.09v.07a1.07,1.07,0,0,0,.14-.16Zm0-5.93a.09.09,0,0,0,.08-.09v-.05A.13.13,0,0,0,157.7,171.58Zm0-.53,0,0h0Zm0,.39a.29.29,0,0,0,.12-.25C157.82,171.21,157.78,171.3,157.78,171.44Zm.08,5.91a.19.19,0,0,0-.08.16s0,0,0,0a.21.21,0,0,0,.08-.06c.08,0,.12-.06.12-.16A.42.42,0,0,0,157.86,177.35Zm0-6.48-.06,0s0,0,0,0A.05.05,0,0,1,157.86,170.87Zm0-.16s0,0,0,.09v.07S157.9,170.8,157.9,170.71Zm0,.93h0l0,0Zm.06-.93s.06-.06.06-.14-.06,0-.06.09Zm0,.42v-.07s0,0,0,.05v.06Zm0-.6c.05,0,.08-.05.08-.14S158,170.46,158,170.53Zm.08-.14s0,0,0-.06S158.08,170.35,158.08,170.39Zm.1-.33-.06,0a.43.43,0,0,1,0,.22.4.4,0,0,0,.12-.31l0,0S158.21,170,158.18,170.06Zm0-1.19s.07,0,.08,0,0,0,0,0a.08.08,0,0,0-.08,0Zm0,1.81v0h0Zm.08-.18h0v0Zm0,.42h0l0,0Zm0-.93,0,0h0a.4.4,0,0,1,.09-.17.56.56,0,0,0,.09-.17s0,0,0,0l-.08,0A.72.72,0,0,0,158.28,170Zm.08.26s.07,0,.12-.09a.29.29,0,0,1,0-.09h-.08c-.07,0-.09.06-.06.16Zm0-1.5,0,0h0s.09,0,.12,0,0,0,0-.07A.25.25,0,0,1,158.4,168.75Zm0,1.83h0v0Zm.12-.16v0l0,0Zm0-.37s0,0,0-.05Zm.26-1.36,0,0s0,0,0,0h-.12s-.06,0-.06,0Zm-.16,1.18v-.05s0,0,0-.09-.06,0-.06.07S158.59,169.87,158.6,169.87Zm0-.14,0,0,0,0S158.64,169.7,158.64,169.73Zm0,.38h0l0-.05Zm.14-.34,0,0,0-.06S158.81,169.77,158.8,169.77Zm0,0,.06,0,0,0S158.87,169.71,158.84,169.73Zm.9-1.56v0s0,0,0-.06Zm.08-.09,0,0h0Zm1.32.35h0a1.11,1.11,0,0,1-.34-.06.58.58,0,0,0-.32,0s0,0-.12,0a1.07,1.07,0,0,0-.32.06.11.11,0,0,0-.16.07s0,0-.06.07v0l.06,0H160a.57.57,0,0,0,.16,0,.78.78,0,0,1,.24,0,.25.25,0,0,0,.16-.05,1.11,1.11,0,0,1,.35-.06A.56.56,0,0,0,161.14,168.43Zm-1.24,7,0,0h0Zm.22-.23h0l0,0Zm.18-.25s0,0-.06,0l0,0h0s0,0,0,0Zm.24-.34,0,0h0Zm.22-.16,0,0a.08.08,0,0,1,.06,0A.11.11,0,0,1,160.76,174.49Zm.08-.18a0,0,0,0,0,0,0v0S160.84,174.35,160.84,174.31Zm.08-.1s0,0,0,0,0,0,0,0S160.92,174.27,160.92,174.21Zm.06,0,0,0v0S161,174.19,161,174.19Zm.16,7.43s0,0,0-.07a0,0,0,0,0,0,0v0a.06.06,0,0,1,0,0S161.14,181.6,161.14,181.62Zm0-8.54h0v0Zm0,9.07v0l0,0Zm.08-8.32v0A.06.06,0,0,0,161.26,173.83Zm0,6.92a.26.26,0,0,1,.1-.07v.16h0S161.25,180.8,161.25,180.75Zm0,2a.06.06,0,0,0,0,0h0Zm1.12-14.6s.06,0,.06-.07,0,0-.06,0a.29.29,0,0,1-.24,0c0-.06-.07-.05-.12,0l-.07,0-.07,0-.13,0a.34.34,0,0,1-.15,0,.36.36,0,0,0-.13,0,.47.47,0,0,1-.14.05s0,0,0,0a.08.08,0,0,0,.09,0h.12a1.44,1.44,0,0,1,.34-.1H162a1,1,0,0,1,.36-.08s0,0,0,0Zm-1,5.58a.14.14,0,0,0,0,.09Zm0,7.89,0,.07a.14.14,0,0,0,0,.09v-.11S161.32,181.66,161.32,181.63Zm0,.67s0,0,0-.05v-.13s0,0,0,0v.14Zm.11-8.63s0,0-.08.07Zm0,6.9c0,.06,0,.09-.08.09a.55.55,0,0,1,0-.24.11.11,0,0,1,0-.07.08.08,0,0,1,.08,0v.07S161.43,180.5,161.43,180.57Zm-.08.09v0Zm.14,1.1,0,0s0,0,0,0,0-.05,0-.05h0a.12.12,0,0,1-.08.12v.28l.06,0,0-.15A.39.39,0,0,1,161.49,181.76Zm-.1-8.75a.08.08,0,0,1,0-.08l.07-.08.06-.07a.13.13,0,0,0,0-.09.08.08,0,0,1,0-.07c0-.05.07-.09.1-.09s.06.1.16.06,0,0,0,0v0l0,0a.25.25,0,0,0-.18.14l-.2.23s0,0,0,0Zm.1.57s-.06,0-.06.07A.07.07,0,0,0,161.49,173.58Zm-.06,7.5v.09l0,0a0,0,0,0,0,0,0V181S161.43,181.06,161.43,181.08Zm0-.84h0l0,0Zm0,.22h0s0-.05,0-.05Zm0-6.91a0,0,0,0,0,0,0v.07Zm0,7.08v-.17h.06v.17s0,0,0,0Zm.06.82v0a.14.14,0,0,0,0-.09s0,0,0,0v.05s0,.07,0,.08S161.55,181.45,161.57,181.45Zm.08-1.13c0,.06,0,.09-.08.09v-.15a.1.1,0,0,1,.08,0Zm0,.84a.29.29,0,0,0,0-.09s-.06,0-.06.05,0,.06,0,.06Zm.08-8.7s0,.07-.06.07A.07.07,0,0,1,161.71,172.46Zm-.06,8.61a.16.16,0,0,0,.06-.13v-.11s-.06,0-.06.09Zm.06-7.74,0,0v0l0,0Zm0-.89v0h0Zm0,7.35h0Zm0-7.37v0h0S161.73,172.42,161.75,172.42Zm.06.77-.08,0v.11l.06,0,.08-.06,0,0Zm0,7.54,0-.06,0,0v.11S161.79,180.75,161.79,180.73Zm.06-12.9,0,0a.07.07,0,0,0,.06,0l0,0s0,0,0,0Zm0,11.18a.07.07,0,0,1,0,.06h-.06C161.87,179,161.87,179,161.89,179Zm0,.09v0Zm.06-6.11s0,0,0,.06S161.93,173,161.93,173Zm.08,5.86,0,.05,0-.07q0-.18.12-.18a.23.23,0,0,1,0,.13Zm.12-6a.17.17,0,0,0-.18.14A.19.19,0,0,0,162.13,172.85Zm-.08-.51h0l0,0Zm0,6a1,1,0,0,1,.18-.38s0,0,0,0v.24l0,0-.12.23v0c0,.05,0,0,0,0Zm.12-5.58s0,0,0,.06S162.21,172.82,162.21,172.78Zm0,6,0,0,0,0Zm.12-6.07c-.06,0-.08,0-.08.07Zm-.08,5.8.08-.05s0,.05,0,.09,0,0,0,0A.05.05,0,0,1,162.21,178.49Zm0,1.26h0l0,0Zm.1-7.15s-.06,0-.06.09S162.35,172.63,162.35,172.6Zm0,5.29s0,.07-.06.07v-.11s0,0,0,0S162.35,177.86,162.35,177.89Zm0,.4a.37.37,0,0,1-.08.15v-.24h.06S162.39,178.24,162.37,178.29Zm0,.59,0,0h0a.51.51,0,0,1,0-.25l.12-.27s0,0,.06,0a.49.49,0,0,1-.06.27A.43.43,0,0,0,162.35,178.88Zm.1-11.12v0s0,0-.08,0l0,.07h.12Zm0,4.77s-.06,0-.06.07A.07.07,0,0,0,162.43,172.53Zm.06,5v.09l-.08.09,0,0,.06-.14Zm0-5.08s0,0-.08.07S162.48,172.48,162.51,172.43Zm-.06,5.5h0v0h0A0,0,0,0,1,162.45,177.93Zm.12.35a.07.07,0,0,1-.06.07v-.09l0,0S162.57,178.23,162.57,178.28Zm0-6.49s0,0,0,0a0,0,0,0,1,0,0,.44.44,0,0,0,.12-.29.15.15,0,0,1,.1-.16s.06,0,.08,0l0,.06s0,0,0,0,0,0,0,0l0,0s0,0,0,.07a.73.73,0,0,1-.24.27Zm.24-3.73,0,0a.05.05,0,0,1,0,0h-.3l0,0s0,0,0,0A.59.59,0,0,0,162.81,168.06Zm-.28,9.16s0-.06,0,0A0,0,0,0,1,162.53,177.22Zm.14-.2a.1.1,0,0,1-.06.09,0,0,0,0,1,0,0,.49.49,0,0,0,0-.15c0-.05,0-.07.06-.07h0Zm-.08,1a.24.24,0,0,1,.14-.22.58.58,0,0,1,0,.13.36.36,0,0,0,0,.11l-.06,0Zm.1-5.69,0,0a.08.08,0,0,1,.08-.05Zm0,5s0-.06,0-.06l0,0a.1.1,0,0,1,0-.05l0,.06v.09l0,0h-.07S162.65,177.32,162.67,177.3Zm.12-5.91s0,0-.06,0l0,0A.07.07,0,0,0,162.79,171.39Zm-.06.82a.21.21,0,0,0,.06-.16H163a.67.67,0,0,1-.06.16c-.07.06-.12.08-.16.05Zm0,4.61,0,0c0-.05,0-.07,0-.07s0,0,0,0Zm0,.88a.3.3,0,0,1-.06.09v-.11l0,0S162.79,177.68,162.79,177.7ZM163,172c0-.05,0-.07-.06-.07l0,0-.06,0a.22.22,0,0,1,.08-.18.77.77,0,0,1,.18-.18.75.75,0,0,1,.24-.23v.15l.08.09a.61.61,0,0,1,0,.15c-.08.07-.13.11-.14.14a.22.22,0,0,1-.26.12Zm-.14,5.52a.41.41,0,0,1,0-.16.24.24,0,0,0,.08-.09A.93.93,0,0,1,163,177s0,0,0,0a1.65,1.65,0,0,1,0,.27.49.49,0,0,0-.1.25s0,0,0,0Zm0-.91h0v-.09s0,0,.06,0S162.85,176.55,162.83,176.57Zm0,.49,0-.05v0h0v.09Zm0-9.05,0,0,0,0S162.87,168,162.87,168Zm0-.35,0,0v0ZM163,176l0,0,0,.05c0,.19-.08.3-.16.33l0,0v-.09A.85.85,0,0,1,163,176Zm-.08.62,0,0v.11s0,0,0,0S163,176.61,163,176.57Zm0,6.11,0,0,0,0Zm.24-11.75.14,0,0,.07a1,1,0,0,1-.15.17l-.13.13h0s0,0,0,0a.07.07,0,0,1,0-.06l.1-.12Zm-.24,5.59c0-.09,0-.14.08-.16v.07C163.07,176.49,163,176.52,163,176.52Zm.08.37c0,.06,0,.09-.08.09v-.06c0-.06,0-.09.08-.09Zm0,5.69a.12.12,0,0,0,0,.09A.18.18,0,0,0,163.07,182.58Zm0-6.28s0,0,0,0l-.06,0Zm0,.39a.13.13,0,0,1-.08.14v-.05C163.07,176.72,163.1,176.69,163.15,176.69Zm.16-8.72s0,0,0-.07h-.2l0,.07h0A.17.17,0,0,0,163.31,168Zm0,8.39a.47.47,0,0,1,0,.16l-.05.12h0v-.09A.2.2,0,0,1,163.29,176.36Zm0-1.07s.05,0,.08,0,0,.05,0,.06a.8.8,0,0,0,0,.16l-.06.13h-.08a0,0,0,0,1,0,0A1.35,1.35,0,0,1,163.31,175.29Zm-.12.8v0h0S163.2,176.09,163.19,176.09Zm.1-.22c0,.09,0,.14-.08.16l0-.07Q163.23,175.87,163.29,175.87Zm-.06-5.09h0v0Zm.06.77a0,0,0,0,0,0,0l0,0h0Zm0-4a.32.32,0,0,0,.34,0,1.08,1.08,0,0,0-.3,0Zm.32,3.61a1,1,0,0,0-.16.2h-.14v0c.19-.21.29-.33.32-.35l0,.05v0a.05.05,0,0,1,0,0Zm-.24,4.69-.06,0s0,0,0-.05Zm0,.44-.06.07v-.12c0-.08,0-.14.08-.15l0-.05a.15.15,0,0,1,0,.11.43.43,0,0,0,0,.07Zm.62-8.43s0,0,0-.07l-.48,0-.06,0-.06,0a.08.08,0,0,0,0,0l.54,0Zm-.6,2.78a.06.06,0,0,1,.06,0,.08.08,0,0,1,0,.07Zm.14.1a.36.36,0,0,1-.14.16v0a.16.16,0,0,1,0-.1Zm-.08,4.4s0,0,0,0a2.3,2.3,0,0,1,.24-.52s0,0,.06,0,0,0,0,.07l0,0,0,0a.17.17,0,0,0,0,.13s0,0,0,.05a.94.94,0,0,1-.14.27S163.43,175.15,163.43,175.14Zm.16-4.69v.05a.28.28,0,0,1-.16.07.29.29,0,0,1,.08-.18h0Zm-.14.91h0Zm0,4.5a.3.3,0,0,1,.06-.09v.14l0,0S163.44,175.88,163.45,175.86Zm0-4.45v0s0,0,0-.07Zm.12-.76c0,.06-.07.09-.08.09S163.54,170.65,163.59,170.65Zm-.08,5,0,0h.06l0,0a.1.1,0,0,1-.1.09Zm0-.45,0,0h0Zm.28-4.84a.46.46,0,0,1-.22.25v-.15l.08-.05S163.73,170.41,163.81,170.4Zm-.22.94,0,0v0Zm.1,3.63,0,0a.22.22,0,0,0,0-.13l.1.08s0,0,0,0Zm0,.4,0,0h0Zm.16-4.48a.12.12,0,0,0,0,.09s-.06,0-.06-.07,0,0,0-.06a4.64,4.64,0,0,1,.34-.37v.16s-.06.07-.06.09A.3.3,0,0,0,163.85,170.89Zm.06-3.4.1,0s0,0,0,0h0l0,0h-.08a.32.32,0,0,0-.14,0h0l0,0a0,0,0,0,0,0,0h0Zm-.16,2.74s0,0,0,0v.07Zm0,.86h0l0,0Zm0,3.24v0l0,0Zm0,.86v-.07a.35.35,0,0,1,.14-.18l0,0s0,0,0,0a.28.28,0,0,1-.16.2Zm0-4.92h0Zm0,.8,0,0v0Zm.24-.9a.13.13,0,0,1-.08.14l-.06.07-.06,0v-.13a.1.1,0,0,0,.12-.09Zm-.2.81s0,0,0-.09H164c0,.12-.11.17-.2.16Zm.1,3.1a.06.06,0,0,1-.06,0l0,0,0,0Zm-.08.47v0h.06l0,0s0,.05-.06.05Zm.06-4.42s0,0,0,0a.25.25,0,0,0,0,.07,0,0,0,0,1,0,0S163.9,170.13,163.89,170.13Zm0,4.24h0l0,0S163.89,174.4,163.89,174.37Zm.1-.05s0,0-.06,0a.08.08,0,0,0,0-.07Zm.06-.46H164a0,0,0,0,1,0,0,.12.12,0,0,1,0-.09s.06,0,.06,0A.2.2,0,0,1,164.05,173.86Zm.08-3.74a.13.13,0,0,1-.12,0l0-.06,0,0a.48.48,0,0,0,.1-.15s0,0,.08-.07a.3.3,0,0,0,.06-.09.09.09,0,0,0,.08-.09h.12v0A1.79,1.79,0,0,1,164.13,170.12Zm-.12.61a.08.08,0,0,0,.06-.09h.14v0a.74.74,0,0,1-.2.23Zm0,3.43,0,0s0-.06,0-.06,0,0,0,0Zm0,.38.06,0,0,.06Zm.22-4.68s-.08,0-.08.07h-.06l0,0v0a.2.2,0,0,1,.18-.09Zm0,.53c0,.06-.05.09-.14.09S164.13,170.39,164.21,170.39Zm-.14,4.1c0-.08,0-.14.08-.15v.06C164.15,174.46,164.12,174.49,164.07,174.49Zm.08-.22a.3.3,0,0,1,.06-.09c0,.09,0,.14-.06.16Zm.1-.91s0,0,0,0,0,0,0,0a.08.08,0,0,1,0,0h0l0,0,0,0S164.28,173.36,164.25,173.36Zm0-2.73h0Zm.08-.95v.09h-.06Q164.23,169.68,164.29,169.68Zm-.06.18v0Zm.48.13s.08,0,.08-.09h.14l0,0s0,.05,0,.05a6,6,0,0,1-.42.52.23.23,0,0,1-.16,0q0-.14-.06-.15v0a.1.1,0,0,1,.06-.09h.08v0c0,.05,0,.07,0,.07a.12.12,0,0,0,.08-.12s0,0,.08-.09,0,0,.05,0l0,0A.12.12,0,0,0,164.71,170Zm-.48.64s0-.07.06-.07S164.27,170.63,164.23,170.63Zm.1,3.46c0,.06-.06.09-.1.09v0a.71.71,0,0,1,.14-.34h0s0,0,0,.07l0,.09Zm0-4.43s0,0,.06,0h-.08Zm0,3.88s0-.07.06-.07a.15.15,0,0,1,0,.11S164.28,173.57,164.31,173.54Zm0-.42s0,0,.06,0,0,0,0,0Zm.54-5.73c.06,0,.08,0,.08-.07l-.56,0,0,0,0,0Zm-.28,2.76a.36.36,0,0,0-.08.09h-.12c0-.13.08-.19.2-.16Zm-.2,2.86s0-.07.08-.12c0,.11,0,.17-.08.2Zm0,.3v.07c0,.06,0,.09,0,.09A.24.24,0,0,1,164.41,173.31Zm0,8.47s0,.05,0,.05v-.07S164.41,181.74,164.41,181.78Zm0-8.47h0l0,0Zm0-.46,0,0,0,0Zm0,.42v0h0Zm.06-5.08h0Zm0,1.41c0,.05,0,.07-.08.07A.07.07,0,0,1,164.57,169.6Zm0-1.39h0v0A0,0,0,0,1,164.55,168.21Zm0,1.19s0,0,0,0,0,0,0,.05Zm.1,3.18c0,.09,0,.13-.1.13v0a.23.23,0,0,1,.08-.16Zm-.08.42s.06,0,.06,0v0h-.06l0,0Zm0,.53,0,0a.05.05,0,0,0,0,0A.14.14,0,0,0,164.55,173.53Zm0-4.15q0-.09.06-.09A.12.12,0,0,1,164.57,169.38Zm0,.18h0a.08.08,0,0,1-.06,0Zm.24.08a.22.22,0,0,1,.16,0v.06s-.08,0-.08.09a.47.47,0,0,0-.14.16.36.36,0,0,0-.08.09l-.08.07h-.06c0-.08,0-.14.06-.15l.11-.14Zm.16,3.19s-.08.07-.08.16h0l0,0a.49.49,0,0,1-.1.21l-.1.17c0,.05-.07.07-.1.07v-.11a.71.71,0,0,0,.14-.25,1.75,1.75,0,0,0,.22-.45v-.06c0-.05.07-.07.08-.07l.06,0a.22.22,0,0,1,0,.18A.42.42,0,0,0,165,172.83Zm-.34-2.75h0v0h0Zm0-.79a.18.18,0,0,1,0-.09Zm0,3.51a0,0,0,0,1,0-.05v.11h0S164.67,172.84,164.67,172.8Zm.12-3.69c0-.05.06,0,.06,0v.06h-.14Zm-.08,3.57c0-.06.07-.09.08-.09h.06c0,.06-.06.11-.14.16Zm.06-3.35a.41.41,0,0,0,.1-.14l.14-.07c0,.06,0,.1,0,.11l-.16.18a.09.09,0,0,1-.08,0A.25.25,0,0,1,164.77,169.33Zm.06,2.89v-.07s0,0,0,.07,0,0,0,0Zm0-3h0Zm.2,3.15a.26.26,0,0,0-.14.25h-.06a.81.81,0,0,1,.08-.36l.08,0,0,0Zm.56-4.61s0,.07,0,.07a.55.55,0,0,0-.18.16c0,.1-.11.17-.26.21H165a.16.16,0,0,1-.1,0l0,0a.2.2,0,0,0,0-.14,1,1,0,0,1,0-.15l0,0a1.22,1.22,0,0,1,.2-.1h.38S165.63,167.7,165.63,167.73Zm-.62,1.92a.08.08,0,0,0,.08-.07h.08l0,0v.09l-.26.19v-.16C165,169.74,165,169.71,165,169.65Zm.76-2.39a.08.08,0,0,1,0,0v0l-.78,0s0,0,0,0l0,0,.66,0Zm-.74,1.79a.2.2,0,0,1,.2-.11.22.22,0,0,1-.22.18A.1.1,0,0,1,165,169.05Zm.14.42a.49.49,0,0,1-.1.09H165a.19.19,0,0,1,.1-.16l0,0h0s0,0,0,.05S165.19,169.47,165.17,169.47Zm-.16.09v0Zm0,2.14a.32.32,0,0,1,.14-.16c0,.11,0,.17-.08.21h0S165,171.72,165,171.7Zm0,8.34s0,0,0,0l0,0h0l0,0Zm0-11.21h0a.08.08,0,0,1,.08,0,.05.05,0,0,1-.06.06s0,0,0,0A.05.05,0,0,1,165,168.83Zm.12,3.22s-.05,0-.08,0l0,0a.09.09,0,0,0,.06-.07l0,0A.1.1,0,0,1,165.15,172.05Zm-.06-2.47h0v0h0v0h0Zm.06,2.82q0,.09-.06.09v-.15h.06Zm0,.47v0l0,0S165.1,172.85,165.11,172.87Zm0-4.08a.09.09,0,0,1,.08-.1C165.23,168.75,165.21,168.78,165.15,168.79Zm0,2.75a.16.16,0,0,1,.08-.15v.06C165.23,171.51,165.21,171.54,165.15,171.54Zm0,.77s0,0,0,0,0-.05,0-.05S165.19,172.3,165.19,172.31Zm0-3.62s0-.06,0-.06S165.26,168.69,165.23,168.69Zm0,.25c0-.05,0-.07,0-.07S165.26,168.94,165.23,168.94Zm.08,2.24.12-.11v.13l-.05.05,0,0s0,0,0,.05l-.08,0A.34.34,0,0,1,165.31,171.18Zm-.08.51s0-.06,0-.06v.08l0,0S165.23,171.72,165.23,171.69Zm0-2.82,0,0v0Zm0,2.76h0Zm.42-3.31.14,0s0,0,0,0l-.18.2a2.15,2.15,0,0,0-.18.23s-.06,0-.14,0v-.07c0-.06,0-.09,0-.08a.21.21,0,0,1,0-.12l.06,0,0,0s0,0,0,.05,0,0,0,0A1.15,1.15,0,0,0,165.73,168.32Zm-.42.53s0-.07,0-.07S165.34,168.85,165.31,168.85Zm0,.35h0v0Zm0,2.78h0v-.09a1.06,1.06,0,0,1,.18-.27h0l0,0A.58.58,0,0,1,165.33,172Zm.1,7.43c0,.06,0,.09-.08.09Zm.06-8.43q0,.09-.06.09c0-.09,0-.14.06-.16Zm-.06.22v0Zm.06,8.18s0,0-.06,0,0,0,0,0Zm.06-11s0,0,0,0a.08.08,0,0,0,.06,0s0,0,0,0Zm0,2.54h0a.05.05,0,0,1,0,0s0-.07,0-.07S165.57,170.86,165.57,170.89Zm.06-2.89v0h0Zm0,.26s0,0,0,.05v-.07Zm0,2.43v0l0,0Zm0,8.47,0,0,0,0S165.63,179.13,165.63,179.16Zm0-7.88a.08.08,0,0,0,.06,0l0,0S165.65,171.27,165.65,171.28Zm0,7.79s0,0,.06,0S165.69,179.07,165.65,179.07Zm0-10.17s0-.09,0-.14h.06V169s0,0,0,0,0,0,0,0A.21.21,0,0,1,165.69,168.9Zm.08,1.52.1-.09a.3.3,0,0,1-.08.22h0s0,0,0-.07Zm0,.66s.06,0,.06,0V171l-.06,0v.07Zm0,7.87v0a0,0,0,0,0,0,0A.1.1,0,0,1,165.77,179Zm.36-11.79c.05,0,.06,0,.06,0h0s0,0-.05,0l-.28,0-.06.07A1.73,1.73,0,0,0,166.13,167.16Zm-.34,1.6c0-.06,0-.09.08-.09S165.85,168.76,165.79,168.76Zm.08,2.14s-.05,0-.08.07S165.83,170.94,165.87,170.9Zm-.08.47c.06,0,.08-.05.08-.1v0A.13.13,0,0,0,165.79,171.37Zm.08-3.07a.08.08,0,0,1,.06-.09A.08.08,0,0,1,165.87,168.3Zm.14.17a.58.58,0,0,1,.12-.1s0,.09,0,.18a.18.18,0,0,0-.08.09.29.29,0,0,1-.14,0s0-.06.06-.1A.31.31,0,0,0,166,168.47Zm-.14,1.86c0-.08,0-.12.06-.14v.13Zm0,.5a.25.25,0,0,0,0,.07S165.92,170.87,165.89,170.83Zm0,.36s.06,0,.06-.05S165.87,171.16,165.87,171.19Zm0-3.16v0h0S165.92,168,165.89,168ZM166,178.7h0c0,.05,0,.07,0,.07s0,0,0-.06Zm0-10.72v0h0Zm0,.22a.05.05,0,0,1,.06-.06A.05.05,0,0,1,166,168.2Zm.18,1.81a.18.18,0,0,0,0,.09.28.28,0,0,0-.14.09v-.13c.11-.18.19-.33.24-.43a.29.29,0,0,1,.15-.14h0v0a.57.57,0,0,1-.16.34A.25.25,0,0,0,166.13,170Zm-.18,1.13A.18.18,0,0,0,166,171s-.06,0-.06.09ZM166,171s0,0,0-.05,0,0,0,0Zm0,7.56c0-.08,0-.13.1-.13s0,.1,0,.18l0,0S166,178.53,166,178.52Zm.08-7.72,0-.07S166.1,170.76,166.11,170.8Zm.07-.77h-.05v0h.05Zm-.05,8.36.05,0v0Zm.05-7.68s0-.05,0-.15S166.12,170.63,166.18,170.71Zm0-2.43,0,.09Q166.18,168.28,166.21,168.28Zm0,2,0,0h0Zm0,8v0h0S166.18,178.32,166.19,178.32Zm.06-10h0Zm0,1.9-.08,0A.09.09,0,0,0,166.29,170.18Zm-.08.38a.1.1,0,0,0,.08-.07l0,0Zm0-2.34,0,0s0,0,0,0Zm.1,1.87s-.06.07-.06.09S166.35,170.1,166.35,170.09Zm-.06.37c.05,0,.06,0,.06-.06A.06.06,0,0,0,166.29,170.46Zm.05-2.07s0,0,0,0h.09s0,0-.06,0S166.34,168.4,166.34,168.39Zm0,2s.06-.06.06-.13-.07,0-.09.09S166.36,170.38,166.38,170.39Zm0-2.24h0v.05Zm.06,1.78s-.06,0-.06.09v.07s.06,0,.06-.09Zm.06-1.64c0,.05,0,.07-.06.07s0-.06,0-.06Zm-.06,1a.1.1,0,0,1,.08-.05.52.52,0,0,1,0,.11h0S166.44,169.3,166.44,169.27Zm0,.59a.14.14,0,0,1,0,.07s0,0,.06,0Zm0,.36a.15.15,0,0,0,.08-.05C166.46,170.17,166.44,170.19,166.44,170.22Zm.16-1.16h.06a.3.3,0,0,1-.14.16v-.09S166.54,169.06,166.6,169.06Zm-.08,1.11a.34.34,0,0,0,.14-.25C166.56,169.94,166.52,170,166.52,170.17Zm.08-.75,0,0v0Zm0,.19v0l0-.07Zm0-.55c0-.1,0-.16.08-.18v.18Zm0,.86c.05,0,.08,0,.08-.09v-.07A.17.17,0,0,0,166.66,169.92Zm.3-1.2s0,0,0,0l0,0a.07.07,0,0,0-.06,0,.15.15,0,0,1-.08,0,.28.28,0,0,1,.06-.18.53.53,0,0,1,.08-.15c0-.05.05-.07.12-.07A1.71,1.71,0,0,0,167,168.72Zm-.22,1s.06,0,.06-.07S166.74,169.7,166.74,169.74Zm0-2.23,0,0S166.76,167.5,166.76,167.51Zm.06,2.16a.33.33,0,0,0,.14-.25h-.06A.2.2,0,0,0,166.82,169.67Zm.26-2.28s0,0,0,0,0,0,0,0l-.2.07,0,0,.06,0,0,0C167,167.53,167.05,167.5,167.08,167.39Zm-.12,2s0,0,0-.08v-.05S167,169.35,167,169.42ZM167,167s0,0-.06,0a0,0,0,0,1,0,0s.06,0,.06,0Zm.24,1.12a.76.76,0,0,1-.11.17.88.88,0,0,0-.13.19l0,0a.28.28,0,0,1,.06-.18,1.12,1.12,0,0,1,.24-.25A.2.2,0,0,1,167.28,168.11Zm.12.68a.34.34,0,0,0,0-.18l0,0a.23.23,0,0,0-.1.05s0,.07-.08.09V169a.33.33,0,0,1-.14.1s0,.06-.08.06v.14a.21.21,0,0,0,.16-.12c.05,0,.08-.08.08-.18A.4.4,0,0,0,167.4,168.79Zm-.34.19s0,0,0,.07h0C167.08,169,167.07,169,167.06,169Zm.1-.42s-.06.07-.08.07l0,0S167.14,168.56,167.16,168.56Zm0-.05h0s0,0-.06,0Zm0,0v0Zm.06-1.73,0,.05v0A.14.14,0,0,0,167.22,166.81Zm.38.67.08-.09a0,0,0,0,1,.06,0c0,.07.11.07.18,0l0,0H168c0-.06,0-.09-.08-.09h-.28a.59.59,0,0,1-.36.1.12.12,0,0,0-.1.05v0s0,.05,0,.05a.09.09,0,0,1,.06,0s0,0,.08,0a.28.28,0,0,0,.12.08Zm-.3-.49,0,0,0,0h0l.1,0c.08,0,.12,0,.14,0h.06l-.06,0,0,0Zm.08.92c0,.06,0,.09-.08.09S167.32,167.93,167.38,167.91Zm.12-1.22s0,0-.06,0A.06.06,0,0,1,167.5,166.69Zm-.06,1.92c.08,0,.13-.05.16-.16h-.16Zm.56-.75a.19.19,0,0,0,.08-.13v0l0,0-.09.07-.11.07c0,.05,0,.07,0,.07s0,.17-.08.18a.05.05,0,0,1,0,0h0s0,0,0,0a.27.27,0,0,0-.14.16h.06l0,.05c0,.08,0,.14,0,.17l0,0s0,0,0,0,.08,0,.08,0v-.11a.11.11,0,0,1,.08-.12l0-.09A.65.65,0,0,1,168,167.86Zm-.42-1.41,0,0v0Zm.16,1.47q-.11,0-.06.09a.1.1,0,0,0,0,.06h.08Zm0-1.39h0l.06,0Zm0,1.13,0,0h0Zm.06-1.2c0-.09.08-.13.2-.14S167.86,166.46,167.74,166.46Zm0,1.44h.08v-.06C167.76,167.83,167.74,167.85,167.74,167.9Zm.08-.07h0s0,0,0,0S167.82,167.8,167.82,167.83Zm.12-1.51s0-.06.08-.07S168,166.32,167.94,166.32Zm0-.31,0,.05h0Zm0,.22s0-.07.06-.07S168.06,166.23,168,166.23Zm.06,1.21,0,0,0-.05H168v0a.05.05,0,0,0,0,0l0,0S168.08,167.46,168.08,167.44Zm0-1.28c0-.06.06-.09.14-.09s0,.09-.08.09Zm.08.48h0a.05.05,0,0,1,0,0s0,0,0,0Zm0,.36V167l0,.05Zm.08-.44s-.06,0-.06.08a.05.05,0,0,1,0,0Zm-.06.79h.08s-.05-.07-.06-.07S168.16,167.31,168.16,167.35Zm.14-1.53v.09h-.06l-.06,0s0-.06,0-.06l0-.05Zm-.08.25h0Zm0,0s0-.07.06-.07S168.28,166.07,168.24,166.07Zm0,.44v0a.08.08,0,0,0,0,.06Zm0,.88a0,0,0,0,0,0,0h-.06S168.25,167.39,168.26,167.39Zm.42-.74a.25.25,0,0,1,0-.07l0,0h0s-.08,0-.08,0a.1.1,0,0,1,0-.12,1.74,1.74,0,0,0,.24-.31v0h0l-.24.19-.16.12s0,0,0,0,0,0,0,0,.07,0,0,0l-.11.15a1.49,1.49,0,0,1-.11.15v0s0,0,.06,0l.14-.11s.09,0,.1,0a.43.43,0,0,1,0,.07l0,0Zm-.38-.67v-.07h.08A.07.07,0,0,1,168.3,166Zm0,1.37,0,0v0S168.3,167.3,168.3,167.35Zm.46-1.81s.08,0,.12,0,0,0,0,0l-.16.18a.41.41,0,0,0-.18.16.32.32,0,0,1-.14,0,.58.58,0,0,1,.08-.14.05.05,0,0,1,0,0s0,0,0,0a.19.19,0,0,0,.16-.07Zm-.24.14s-.06,0-.06,0-.06,0-.06,0,0,0,0-.06a.05.05,0,0,1,0,0h0a.05.05,0,0,1,0,0Zm-.06.09v0Zm.1-.22s0,0,0,0,0,0,0-.06Zm.24.92s0,0-.08.07S168.8,166.51,168.8,166.47Zm0,.26s.06,0,.06-.07v0s-.05,0-.08,0l0,0S168.77,166.76,168.8,166.73Zm1.16.64.06.09-.16.18a.07.07,0,0,1-.06,0h-.22s-.05,0,0-.08l.08-.1,0,0a2.5,2.5,0,0,0-.52,0s-.06,0-.1.07h-.12l0,0-.06-.06v0l.06,0,.54,0,.48,0,.06,0Zm-1.16-1s.07,0,0,0Zm.08-1.21s.06,0,.06,0v.09h0s-.08,0-.08,0Zm0,.28a.07.07,0,0,1,.06-.07C168.94,165.47,168.92,165.49,168.88,165.49Zm0,1.13.06-.09S168.88,166.56,168.88,166.62Zm.12-1.33a.23.23,0,0,1,.16,0v.07l-.08,0-.14,0v-.08S169,165.32,169,165.29Zm-.06,1.24a.07.07,0,0,0,.08-.07A.08.08,0,0,0,168.94,166.53Zm.08-.4h0l0,0a0,0,0,0,1,0,0A.11.11,0,0,1,169,166.13Zm.06-.09s-.05,0-.06.09A.3.3,0,0,0,169.08,166Zm-.06.37c.08,0,.1,0,.06-.13S169,166.34,169,166.41Zm.22-1.33a.08.08,0,0,0-.08.09h-.06s-.06,0-.06-.07v0l.07-.06,0,0s0,0,0,0,0,0,0,0Zm-.2.43s.06.05.06.06-.06,0-.06,0Zm.12.46s-.06,0-.06.07h.06Zm-.06.31s.06,0,.06-.07S169.1,166.23,169.1,166.28Zm.06-1v0Zm0,.11s0,0,0,0h.08Zm0,.51s0,0-.08.07Zm-.08.31c.08,0,.12-.06.12-.16h-.12Zm.12-.4,0,.09h0Zm.06-.89,0,0h.06Zm.14,1c.05-.05.06-.09,0-.14s0,0,0,0h-.06l0,0q0,.09-.06.09V166S169.4,166,169.48,165.87Zm-.14-.13s0,0,0,0h.06Zm0,1.83.06,0v0s0,0-.06,0Zm.12-2.78h0v0h-.12A.1.1,0,0,1,169.46,164.79Zm-.08.09v0Zm.16-.14v0h0v0Zm0,0v0h0S169.55,164.7,169.58,164.7Zm0,1s0,0,.08-.05v-.09a.29.29,0,0,0-.12.14Zm0-.29v0s0,0,0,0Zm.1-.8v.09h-.08A.29.29,0,0,1,169.66,164.6Zm0,.73-.06.07,0,0S169.64,165.35,169.64,165.33Zm.06-.79s0,0,0,.06h-.06S169.68,164.54,169.7,164.54Zm0,1s.06,0,.06-.07A.07.07,0,0,0,169.66,165.55Zm.14-.73a.05.05,0,0,1,0,0s0,0,0,0A.12.12,0,0,0,169.8,164.82Zm-.06.64s.06,0,.06-.07S169.74,165.42,169.74,165.46Zm.14-.69a.15.15,0,0,0-.08,0A.1.1,0,0,0,169.88,164.77Zm-.08.62s.06,0,.08-.09A.18.18,0,0,0,169.8,165.39Zm.1-.69s0,0,0,0h0Zm0,.6s.06,0,.06-.07S169.88,165.26,169.88,165.3Zm.1-.84h0l0,0Zm0,.75s0,0,0,0Zm.14-.93c0,.09.08.08.12,0Zm.1.35a.26.26,0,0,0,.16-.21.23.23,0,0,0-.18.12v.09Zm0,2.25,0,0h0Zm4,.36c.07,0,.1,0,.1.08h-.18c-.05,0-.08,0-.08.11a.24.24,0,0,0-.14,0c-.05,0-.08,0-.08,0l0-.07a7.5,7.5,0,0,1-1.43.07c-.92,0-1.39,0-1.42,0a.15.15,0,0,0-.08,0h-.06a.09.09,0,0,0-.08,0l-.12,0a.22.22,0,0,1-.14-.08h-.2a.1.1,0,0,1-.08,0l.08-.07h0l.34,0,1.79,0Zm-3.93-3.06-.08.07S170.26,164.23,170.3,164.18Zm0-.06s0,0,0,.06,0,0,0,0Zm.06.3s0,0,0-.09A.18.18,0,0,0,170.4,164.42Zm0-.09s0,0,.08-.07A.07.07,0,0,0,170.44,164.33Zm.08-.09s.06,0,.06-.07S170.52,164.2,170.52,164.24Zm.08-.07,0,0v-.05Zm.08,3.44,0,0h.08s0,0,0,0l0,0,0,0Zm.08-4,0,0h0Zm0,3.88h0l0,0Zm.08-4a.07.07,0,0,0-.06.07S170.88,163.59,170.88,163.54Zm0,.6s0,0,0-.07l0,0Zm.08-.66,0,0,0,0h0S170.92,163.51,170.92,163.48Zm0,.59s0,0,.08-.07Zm0,3.51v0Zm0,0,0,0s0,0,0,0Zm0-3.6,0,0h0Zm.1-.64s0,0,0-.05h0Zm.06-.07,0,0,0,0,0,0Zm3,4.21s-.06,0-.06,0h.08l0,0S174.16,167.48,174.13,167.48Zm.34-.17.06.05v0a.22.22,0,0,1-.16.09c-.05,0-.07,0-.06-.08s0,0,0-.07Zm-.1,0h0Z"/>
      </g>
      <g>
        <path class="cls-2" d="M64.86,126.72h4.75V150H81.16v4.18H64.86Z"/>
        <path class="cls-2" d="M83.67,126h5v4.58h-5Zm.24,8.85h4.51v19.28H83.91Z"/>
        <path class="cls-2" d="M102.08,154.17H98l-7.12-19.28h4.67l3.22,9.58A42,42,0,0,1,100,149.3h.16a47.76,47.76,0,0,1,1.29-4.83l3.26-9.58h4.46Z"/>
        <path class="cls-2" d="M129.3,144.35a7.43,7.43,0,0,1-.08,1.33H114.33a5.8,5.8,0,0,0,5.75,5.63,5,5,0,0,0,4.31-2.17H129a9.28,9.28,0,0,1-8.94,5.72c-5.92,0-10.26-4.35-10.26-10.51,0-5.43,3.7-10.1,9.78-10.1C126.24,134.29,129.3,139.44,129.3,144.35Zm-14.93-1.93h10.42a5.23,5.23,0,0,0-10.42,0Z"/>
        <path class="cls-2" d="M139.21,126.72h7c5.68,0,9.26,2.5,9.26,7,0,3.1-2.18,5-4.71,5.8v.08c4.22.52,6.4,3.5,6.4,6.84,0,5.11-4.11,7.77-9.42,7.77h-8.49Zm6.8,3.78h-2.26V138h2.46c2.94,0,4.47-1.53,4.47-3.86S148.83,130.5,146,130.5Zm1.09,11.23h-3.35v8.62h3.71c3.22,0,4.83-1.65,4.83-4.31S150.44,141.73,147.1,141.73Z"/>
        <path class="cls-2" d="M179.37,144.35a7.43,7.43,0,0,1-.08,1.33H164.4a5.8,5.8,0,0,0,5.75,5.63,5,5,0,0,0,4.31-2.17h4.63a9.28,9.28,0,0,1-8.94,5.72c-5.92,0-10.26-4.35-10.26-10.51,0-5.43,3.7-10.1,9.78-10.1C176.31,134.29,179.37,139.44,179.37,144.35Zm-14.93-1.93h10.42a5.23,5.23,0,0,0-10.42,0Z"/>
        <path class="cls-2" d="M183.29,125.19h4.51v29h-4.51Z"/>
        <path class="cls-2" d="M212,153.57c0,7.08-3.22,11-10.18,11-5.4,0-8.86-3-9.62-7.57h4.51c.52,2.13,2,3.82,5.31,3.82,3.7,0,5.67-2.37,5.67-6.64v-2.41h-.08a8.4,8.4,0,0,1-6.56,3c-5.07,0-9.42-3.94-9.42-10.22,0-5.88,4.07-10.18,9.58-10.18a7.73,7.73,0,0,1,6.36,3.1h.12v-2.5H212Zm-10-2.82a5.86,5.86,0,0,0,5.75-6.2c0-3.86-2.49-6.4-5.67-6.4-3.91,0-5.88,3.22-5.88,6.32S198.11,150.75,202,150.75Z"/>
        <path class="cls-2" d="M228.62,138.59a14,14,0,0,0-2.25-.2c-3.06,0-4.87,2-4.87,6v9.74H217V134.89h4.43v2.74h.12a6.27,6.27,0,0,1,5.39-3.34,9.72,9.72,0,0,1,1.69.12Z"/>
        <path class="cls-2" d="M250.69,154.17h-4.38v-2.45h-.13a8.14,8.14,0,0,1-6.6,3.14c-4.34,0-9.25-3.47-9.25-10.35,0-6.12,4.34-10.22,9.58-10.22a7.61,7.61,0,0,1,6.31,3.22h.09v-2.62h4.38Zm-9.9-3.26a6,6,0,0,0,5.72-6.28c0-3.9-2.54-6.48-5.68-6.48-4,0-5.87,3.22-5.87,6.36S236.81,150.91,240.79,150.91Z"/>
        <path class="cls-2" d="M255.7,134.89h4.47v2.42h.08a7,7,0,0,1,5.88-3.06c4,0,7.49,2.61,7.49,8.81v11.11h-4.51V143.3c0-3.3-1.57-5.07-4.15-5.07-2.82,0-4.75,2-4.75,5.72v10.22H255.7Z"/>
        <path class="cls-2" d="M287.48,134.25a10,10,0,0,1,10.3,10.26,10.31,10.31,0,1,1-20.61,0A10,10,0,0,1,287.48,134.25Zm0,16.58c3.42,0,5.75-2.74,5.75-6.32,0-3.42-2.17-6.28-5.75-6.28s-5.72,2.7-5.72,6.28S284.38,150.83,287.48,150.83Z"/>
      </g>
    </g>
  </g>
</svg>
