<svg id="Layer_1" data-name="Layer 1" xmlns="http://www.w3.org/2000/svg" xmlns:xlink="http://www.w3.org/1999/xlink" viewBox="0 0 268.81 296.68">
  <defs>
    <style>
      .cls-1 {
        fill: none;
      }

      .cls-2 {
        clip-path: url(#clip-path);
      }

      .cls-3 {
        fill: #231f20;
      }

      .cls-4 {
        fill: #ddd;
      }
    </style>
    <clipPath id="clip-path">
      <rect class="cls-1" x="998.65" y="-1170.54" width="1080" height="1920"/>
    </clipPath>
  </defs>
  <title>ICONOS</title>
  <g>
    <circle class="cls-3" cx="135.92" cy="139.15" r="42.05"/>
    <path class="cls-4" d="M135.92,116.48a58.78,58.78,0,0,0-12.78,1.23,16.11,16.11,0,0,0-4,1.4,4.17,4.17,0,0,0-1.18.9,1.87,1.87,0,0,0-.5,1.21v28.43a1.8,1.8,0,0,0,.5,1.18,4.38,4.38,0,0,0,1.18.91,15.74,15.74,0,0,0,4,1.39c.78.19,1.63.37,2.55.51L121.26,161a.52.52,0,0,0,.06.74.54.54,0,0,0,.75-.06.64.64,0,0,0,.08-.14l1.43-2.37h24.68l1.43,2.37a.52.52,0,0,0,.69.28.53.53,0,0,0,.28-.69l-.08-.13-4.43-7.31c.92-.14,1.77-.32,2.55-.51a15.74,15.74,0,0,0,4-1.39,4.38,4.38,0,0,0,1.18-.91,1.8,1.8,0,0,0,.5-1.18V121.22a1.87,1.87,0,0,0-.5-1.21,4.17,4.17,0,0,0-1.18-.9,16.11,16.11,0,0,0-4-1.4A58.78,58.78,0,0,0,135.92,116.48Zm0,1a57.47,57.47,0,0,1,12.55,1.22,15,15,0,0,1,3.69,1.28,3.42,3.42,0,0,1,.9.68.74.74,0,0,1,.23.51v28.43a.73.73,0,0,1-.23.49,3.42,3.42,0,0,1-.9.67,14.52,14.52,0,0,1-3.69,1.3,57.47,57.47,0,0,1-12.55,1.22,57.41,57.41,0,0,1-12.55-1.22,14.52,14.52,0,0,1-3.69-1.3,3.11,3.11,0,0,1-.9-.67.76.76,0,0,1-.24-.49V121.22a.76.76,0,0,1,.24-.51,3.11,3.11,0,0,1,.9-.68,15,15,0,0,1,3.69-1.28A57.41,57.41,0,0,1,135.92,117.53Zm-4.74,1.58a2.63,2.63,0,1,0,0,5.26h9.48a2.63,2.63,0,1,0,0-5.26Zm0,1h9.48a1.58,1.58,0,1,1,0,3.16h-9.48a1.58,1.58,0,0,1,0-3.16ZM120.55,126a.54.54,0,0,0-.43.53v14.74a.53.53,0,0,0,.53.53h30.54a.52.52,0,0,0,.52-.53V126.48a.52.52,0,0,0-.52-.53H120.55Zm.63,1.06h29.48V140.7H121.18Zm3.68,17.37A2.64,2.64,0,1,0,127.5,147,2.65,2.65,0,0,0,124.86,144.38Zm22.12,0a2.64,2.64,0,1,0,2.63,2.63A2.65,2.65,0,0,0,147,144.38Zm-22.12,1.05a1.58,1.58,0,1,1-1.58,1.58A1.58,1.58,0,0,1,124.86,145.43Zm22.12,0A1.58,1.58,0,1,1,145.4,147,1.58,1.58,0,0,1,147,145.43Zm-20.18,8.38a73.17,73.17,0,0,0,18.23,0l2.59,4.26h-23.4Z"/>
  </g>
</svg>
