<svg id="Layer_1" data-name="Layer 1" xmlns="http://www.w3.org/2000/svg" viewBox="0 0 258.19 212.41">
  <defs>
    <style>
      .cls-1 {
        font-size: 18.9px;
        font-family: HarmoniaSansStd-Regular, Harmonia Sans Std;
        letter-spacing: 0em;
      }

      .cls-1, .cls-20 {
        fill: #d6d6d6;
      }

      .cls-2 {
        letter-spacing: -0.01em;
      }

      .cls-3 {
        letter-spacing: -0.02em;
      }

      .cls-4 {
        letter-spacing: 0em;
      }

      .cls-5 {
        letter-spacing: -0.01em;
      }

      .cls-6 {
        letter-spacing: 0em;
      }

      .cls-7 {
        letter-spacing: 0em;
      }

      .cls-19, .cls-8 {
        letter-spacing: 0.01em;
      }

      .cls-9 {
        letter-spacing: 0.01em;
      }

      .cls-10 {
        letter-spacing: 0em;
      }

      .cls-11 {
        letter-spacing: 0em;
      }

      .cls-12 {
        letter-spacing: -0.01em;
      }

      .cls-13 {
        letter-spacing: 0em;
      }

      .cls-14, .cls-15, .cls-16, .cls-17, .cls-18, .cls-19 {
        font-family: HarmoniaSansStd-Bold, Harmonia Sans Std;
        font-weight: 700;
      }

      .cls-14 {
        letter-spacing: -0.02em;
      }

      .cls-15 {
        letter-spacing: 0em;
      }

      .cls-16 {
        letter-spacing: 0em;
      }

      .cls-17 {
        letter-spacing: 0em;
      }

      .cls-18 {
        letter-spacing: -0.07em;
      }
    </style>
  </defs>
  <title>ICONOS</title>
  <g>
    <text class="cls-1" transform="translate(128.06 101.77)">I<tspan class="cls-2" x="4.38" y="0">n</tspan><tspan class="cls-3" x="14.72" y="0">t</tspan><tspan class="cls-4" x="20.39" y="0">e</tspan><tspan class="cls-5" x="30.78" y="0">r</tspan><tspan class="cls-6" x="37.08" y="0">i</tspan><tspan class="cls-7" x="41.17" y="0">o</tspan><tspan class="cls-8" x="52.25" y="0">r </tspan><tspan class="cls-9" x="63.63" y="0">D</tspan><tspan class="cls-2" x="77.07" y="0">e</tspan><tspan class="cls-10" x="87.29" y="0">si</tspan><tspan class="cls-11" x="99.39" y="0">g</tspan><tspan class="cls-8" x="110.84" y="0">n </tspan><tspan class="cls-12"><tspan x="0" y="21.76">B</tspan><tspan class="cls-13" x="10.05" y="21.76">y </tspan><tspan class="cls-14" x="23.13" y="21.76">W</tspan><tspan class="cls-15" x="39.23" y="21.76">al</tspan><tspan class="cls-16" x="55.35" y="21.76">m</tspan><tspan class="cls-17" x="71.8" y="21.76">e</tspan><tspan class="cls-18" x="82.23" y="21.76">r</tspan><tspan class="cls-19" x="88.54" y="21.76">.</tspan></tspan></text>
    <g>
      <path class="cls-20" d="M61.43,131a2.85,2.85,0,0,0-2.89,2.84,2.86,2.86,0,1,0,5.71.06A2.92,2.92,0,0,0,61.43,131Z"/>
      <path class="cls-20" d="M81.84,118.4c0-.45-.39-.52-.74-.52H81v1h.1C81.45,118.91,81.84,118.85,81.84,118.4Z"/>
      <path class="cls-20" d="M81.37,122.19a3.07,3.07,0,1,0-3.07-3.07A3.06,3.06,0,0,0,81.37,122.19Zm-1.44-5.12h1.6c.81,0,1.43.39,1.43,1.26a1.1,1.1,0,0,1-.9,1.16l1.29,1.69H82l-1-1.58h0v1.58H79.93Z"/>
      <path class="cls-20" d="M55.59,136.79h0v.3h0c.1,0,.22,0,.22-.15S55.69,136.79,55.59,136.79Z"/>
      <path class="cls-20" d="M55.67,136.25a.91.91,0,1,0,.9.9A.9.9,0,0,0,55.67,136.25Zm.19,1.51-.3-.46h0v.46h-.32v-1.21h.47c.24,0,.43.11.43.37a.33.33,0,0,1-.27.34l.38.5Z"/>
      <path class="cls-20" d="M31.55,69.24v79.23h79.23V69.24ZM51,138.2v-8.48l-4.6,8.48H44.9V126.67h1.63v8.55l4.53-8.56h1.46v8.56L58,126.67h1.88L52.5,138.2Zm4.65.11a1.16,1.16,0,1,1,1.15-1.16A1.16,1.16,0,0,1,55.67,138.31Zm10-.28H64.16v-.94a3.83,3.83,0,0,1-2.77,1.11A4.42,4.42,0,0,1,58,136.8a4,4,0,0,1-1.1-3.1,4.49,4.49,0,0,1,.87-2.57,4,4,0,0,1,3.42-1.67,3.49,3.49,0,0,1,2.95,1.26v-1H65.7Zm2.75.07H66.88V126.34h1.57Zm12.93,0H79.84v-4.83c0-2.09-1.37-2.23-1.75-2.23-.92,0-1.86.26-1.86,2.4v4.66H74.69v-4.66c0-2-.91-2.4-1.8-2.4s-1.82.39-1.82,2.65v4.41h-1.5v-8.33h1.37v.86a2.42,2.42,0,0,1,2.12-1A2.52,2.52,0,0,1,75.58,131a2.63,2.63,0,0,1,2.62-1.42,3,3,0,0,1,3.18,3.13Zm-3.93-19A3.92,3.92,0,1,1,81.37,123,3.93,3.93,0,0,1,77.45,119.12Zm13.21,15.35H83.6a2.7,2.7,0,0,0,2.7,2.25,2.56,2.56,0,0,0,2.35-1.34h1.78a4.38,4.38,0,0,1-8.19.12h0v0a2.43,2.43,0,0,1-.16-.49v0a4.36,4.36,0,0,1-.14-1.1,4.86,4.86,0,0,1,.12-1v0A4.37,4.37,0,0,1,90.66,134Zm2.66-.71v4.61H91.78v-8.32h1.45V131a2.24,2.24,0,0,1,2-1.08v1.64C94.51,131.58,93.32,131.7,93.32,133.76Zm-22.66-11.1h-5V93.94L50.07,122.66H44.9v-39h5.55v28.94l15.31-29h5v29L89.28,83.62h6.38Z"/>
      <path class="cls-20" d="M86.35,131a2.75,2.75,0,0,0-2.71,2.07h5.28A2.62,2.62,0,0,0,86.35,131Z"/>
    </g>
  </g>
</svg>
