<?xml version="1.0" standalone="no"?>
<!DOCTYPE svg PUBLIC "-//W3C//DTD SVG 1.1//EN" "http://www.w3.org/Graphics/SVG/1.1/DTD/svg11.dtd" >
<svg xmlns="http://www.w3.org/2000/svg" xmlns:xlink="http://www.w3.org/1999/xlink" version="1.1">
<metadata></metadata>
<defs>
<font id="tt_commonsregular" horiz-adv-x="901" >
<font-face units-per-em="2048" ascent="1434" descent="-614" />
<missing-glyph horiz-adv-x="440" />
<glyph unicode="&#xfb01;" horiz-adv-x="972" d="M51 778v144h113v71q0 70 21.5 126.5t58.5 96t85 62t101 22.5q23 0 40 -3t30 -7q12 -6 22 -10v-133q-6 2 -14 4q-6 2 -16.5 4t-20.5 2q-70 0 -112 -43t-42 -121v-71h523v-922h-154v778h-369v-778h-153v778h-113zM666 1182q0 43 27.5 70.5t68.5 27.5q43 0 70.5 -27.5 t27.5 -70.5q0 -41 -27.5 -69t-70.5 -28q-41 0 -68.5 28t-27.5 69z" />
<glyph unicode="&#xfb02;" horiz-adv-x="993" d="M51 778v144h113v41q0 74 27.5 137t76.5 110t117 74t147 27q39 0 69 -5.5t52 -11.5q25 -8 43 -14h154v-1280h-154v1126q-18 12 -43 21q-23 8 -52.5 14t-68.5 6q-100 0 -157.5 -56t-57.5 -148v-41h205v-144h-205v-778h-153v778h-113z" />
<glyph unicode="&#xfb03;" horiz-adv-x="1495" d="M51 778v144h113v30q0 70 21.5 126.5t58.5 96t85 62.5t101 23q23 0 40 -3.5t30 -7.5q12 -6 22 -10v-133q-6 2 -14 4q-6 2 -16.5 4t-20.5 2q-70 0 -112 -43t-42 -121v-30h369v71q0 70 21.5 126.5t58.5 96t85 62t101 22.5q23 0 40.5 -3t29.5 -7q12 -6 22 -10v-133 q-6 2 -14 4q-6 2 -16 4t-21 2q-70 0 -111.5 -43t-41.5 -121v-71h522v-922h-154v778h-368v-778h-154v778h-369v-778h-153v778h-113zM1188 1182q0 43 27.5 70.5t68.5 27.5q43 0 70.5 -27.5t27.5 -70.5q0 -41 -27.5 -69t-70.5 -28q-41 0 -68.5 28t-27.5 69z" />
<glyph unicode="&#xfb04;" horiz-adv-x="1515" d="M51 778v144h113v30q0 70 21.5 126.5t58.5 96t85 62.5t101 23q23 0 40 -3.5t30 -7.5q12 -6 22 -10v-133q-6 2 -14 4q-6 2 -16.5 4t-20.5 2q-70 0 -112 -43t-42 -121v-30h369v41q0 74 27.5 137t77 110t117 74t147.5 27q39 0 68.5 -5.5t52.5 -11.5q25 -8 43 -14h153v-1280 h-153v1126q-18 12 -43 21q-23 8 -52.5 14t-68.5 6q-100 0 -157.5 -56t-57.5 -148v-41h204v-144h-204v-778h-154v778h-369v-778h-153v778h-113z" />
<glyph horiz-adv-x="0" />
<glyph horiz-adv-x="0" />
<glyph unicode="&#xd;" horiz-adv-x="0" />
<glyph unicode=" "  horiz-adv-x="440" />
<glyph unicode="&#x09;" horiz-adv-x="440" />
<glyph unicode="&#xa0;" horiz-adv-x="440" />
<glyph unicode="!" horiz-adv-x="532" d="M164 92q0 47 27.5 75t74.5 28t75 -28t28 -75t-28 -74.5t-75 -27.5t-74.5 27.5t-27.5 74.5zM164 1290h205l-41 -983h-123z" />
<glyph unicode="&#x22;" horiz-adv-x="624" d="M102 911v379h144v-379h-144zM379 911v379h143v-379h-143z" />
<glyph unicode="#" horiz-adv-x="1228" d="M41 369l31 123h235l62 307h-246l31 123h235l72 368h123l-72 -368h307l72 368h123l-72 -368h246l-31 -123h-235l-62 -307h246l-31 -123h-235l-72 -369h-123l72 369h-307l-72 -369h-123l72 369h-246zM430 492h307l62 307h-307z" />
<glyph unicode="$" horiz-adv-x="1013" d="M82 379h164q0 -117 67.5 -181.5t198.5 -64.5t198.5 59.5t67.5 145.5q0 80 -51 124t-127 73.5t-165 55t-164.5 67.5t-127 111t-51.5 183q0 57 24.5 114.5t70.5 105t110.5 80t142.5 42.5v181h144v-181q70 -12 130 -47t104 -85t68.5 -114.5t24.5 -136.5h-163 q0 109 -68 177.5t-168 68.5q-57 0 -104.5 -17.5t-81 -46t-52 -65.5t-18.5 -76q0 -80 51 -124t127 -73.5t165 -55t165 -67.5t127 -110.5t51 -183.5q0 -63 -24.5 -120.5t-70.5 -103.5t-112.5 -78t-150.5 -42v-178h-144v178q-84 10 -150.5 43t-112.5 83t-70.5 115.5 t-24.5 143.5z" />
<glyph unicode="%" horiz-adv-x="1228" d="M61 1034q0 53 19.5 100.5t54.5 82t82 54t100 19.5t100.5 -19.5t82.5 -54t54 -82t19 -100.5t-19 -100t-54 -82t-82 -54.5t-101 -19.5q-53 0 -100 19.5t-82 54.5t-54.5 82t-19.5 100zM164 0l788 1290h113l-789 -1290h-112zM164 1034q0 -70 46 -117t107 -47t107.5 47.5 t46.5 116.5q0 70 -46 117t-108 47q-61 0 -107 -47t-46 -117zM655 256q0 53 19.5 100t54.5 82t82 54.5t100 19.5t100.5 -19.5t82 -54.5t54 -82t19.5 -100t-19.5 -100t-54 -82t-81.5 -54.5t-101 -19.5q-53 0 -100 19.5t-82 54.5t-54.5 82t-19.5 100zM758 256q0 -70 46 -117 t107 -47t107.5 47t46.5 117t-46 117t-108 47q-61 0 -107 -47t-46 -117z" />
<glyph unicode="&#x26;" horiz-adv-x="1085" d="M92 297q0 80 35 146.5t78 113.5q49 55 112 98l-92 103q-29 27 -51 63q-20 31 -35.5 75t-15.5 97q0 57 24.5 110.5t67.5 95.5t98.5 66.5t116.5 24.5t115.5 -23.5t94.5 -63.5t63.5 -94t23.5 -116q0 -53 -21.5 -100t-46.5 -82q-29 -41 -65 -74l-90 -82l264 -266l123 205h174 l-195 -307l277 -287h-195l-174 174q-37 -53 -90 -92q-45 -35 -108.5 -63.5t-149.5 -28.5q-78 0 -139.5 23.5t-106.5 64.5t-68.5 97t-23.5 122zM246 297q0 -70 49 -122t135 -52q55 0 104.5 21.5t83.5 50.5q41 31 78 71l-276 287q-51 -31 -88 -70q-33 -35 -59.5 -82 t-26.5 -104zM266 993q0 -35 12.5 -65.5t28.5 -55.5q18 -29 41 -53l72 -71l82 71q23 23 41 49q16 23 28.5 54.5t12.5 70.5q0 61 -42 107.5t-112 46.5t-117 -46t-47 -108z" />
<glyph unicode="'" horiz-adv-x="348" d="M102 911v379h144v-379h-144z" />
<glyph unicode="(" horiz-adv-x="542" d="M113 461q0 188 45 346t98 272q63 133 143 242l103 -72q-70 -111 -123 -237q-47 -111 -85 -252t-38 -299q0 -160 38 -300.5t85 -250.5q53 -127 123 -238l-103 -71q-80 109 -143 241q-53 115 -98 271.5t-45 347.5z" />
<glyph unicode=")" horiz-adv-x="542" d="M41 -328q70 111 123 238q47 111 85 251t38 300q0 158 -38 299t-85 252q-53 127 -123 237l102 72q80 -109 144 -242q53 -115 98 -272.5t45 -345.5q0 -190 -45 -347t-98 -272q-63 -133 -144 -241z" />
<glyph unicode="*" horiz-adv-x="675" d="M51 1024l41 113l195 -72l-11 225h123l-10 -225l195 72l41 -113l-215 -51l143 -174l-113 -72l-102 186l-102 -186l-113 72l143 174z" />
<glyph unicode="+" d="M61 461v133h318v338h143v-338h318v-133h-318v-338h-143v338h-318z" />
<glyph unicode="," horiz-adv-x="348" d="M72 92q0 47 27.5 75t74.5 28t74.5 -28t27.5 -75q0 -74 -25.5 -128t-55.5 -89q-37 -41 -82 -70l-21 31q20 20 37 43q14 20 27.5 48t17.5 63q-47 0 -74.5 27.5t-27.5 74.5z" />
<glyph unicode="-" horiz-adv-x="706" d="M72 461v133h563v-133h-563z" />
<glyph unicode="." horiz-adv-x="348" d="M72 92q0 47 27.5 75t74.5 28t74.5 -28t27.5 -75t-27.5 -74.5t-74.5 -27.5t-74.5 27.5t-27.5 74.5z" />
<glyph unicode="/" horiz-adv-x="675" d="M0 -369l532 1659h144l-533 -1659h-143z" />
<glyph unicode="0" horiz-adv-x="1146" d="M72 645q0 158 41 280t109.5 205.5t159.5 126.5t191 43t190.5 -43t160 -126.5t110.5 -205.5t41 -280t-41 -279.5t-110.5 -205.5t-159.5 -127t-191 -43q-100 0 -191 43t-159.5 127t-109.5 205.5t-41 279.5zM236 645q0 -131 28.5 -227t75.5 -159.5t107.5 -94.5t125.5 -31 q66 0 126.5 31t107.5 94.5t75.5 159.5t28.5 227t-28.5 227.5t-75.5 160t-107.5 94t-126.5 30.5t-126 -30.5t-107 -94t-75.5 -160t-28.5 -227.5z" />
<glyph unicode="1" horiz-adv-x="634" d="M51 1065l318 225h102v-1290h-164v1065l-184 -123z" />
<glyph unicode="2" horiz-adv-x="983" d="M82 911q0 80 30.5 152t86 124t130 82.5t163.5 30.5q88 0 161.5 -28.5t125.5 -77.5t82 -113.5t30 -138.5q0 -70 -27.5 -133.5t-60.5 -110.5q-37 -55 -86 -104l-410 -451h584v-143h-799v123l512 563q35 37 62 78q23 35 42 81t19 97q0 92 -63.5 153.5t-171.5 61.5 q-109 0 -177.5 -68.5t-68.5 -177.5h-164z" />
<glyph unicode="3" horiz-adv-x="993" d="M61 328h164q16 -78 82 -136.5t174 -58.5q123 0 195 66.5t72 158.5q0 94 -72 160t-195 66h-71v143h61q109 0 172.5 61.5t63.5 153.5t-63.5 153.5t-172.5 61.5q-49 0 -91 -16.5t-73 -43t-49 -61.5t-22 -73h-164q8 70 39.5 131t83 107t122 72.5t154.5 26.5q88 0 162 -28.5 t126 -77.5t81.5 -113.5t29.5 -138.5q0 -70 -28.5 -120t-63.5 -83q-41 -37 -92 -63q61 -27 113 -70q41 -37 76.5 -98.5t35.5 -149.5q0 -74 -30.5 -140t-88 -116.5t-136 -81t-175.5 -30.5q-88 0 -160.5 26.5t-126 72.5t-87 107.5t-46.5 131.5z" />
<glyph unicode="4" horiz-adv-x="983" d="M51 276v134l543 880h194v-870h144v-144h-144v-276h-163v276h-574zM236 420h389v635z" />
<glyph unicode="5" horiz-adv-x="1024" d="M92 328h164q16 -78 81.5 -136.5t174.5 -58.5q57 0 105.5 20.5t84 57.5t56 90t20.5 119q0 131 -74.5 209t-191.5 78q-70 0 -117 -25t-76 -53q-35 -35 -53 -76h-143l82 737h655v-153h-512l-41 -369q25 23 60 41q29 16 70.5 28.5t94.5 12.5q84 0 159 -33t130.5 -90t88 -136 t32.5 -171t-32.5 -171t-90 -136.5t-136.5 -90t-171 -32.5q-88 0 -160.5 26.5t-126 72.5t-87.5 107.5t-46 131.5z" />
<glyph unicode="6" horiz-adv-x="1013" d="M72 430q0 61 16 116.5t39 98.5q25 49 57 92l369 553h174l-287 -430q10 2 21 4q10 2 22.5 4t28.5 2q92 0 172 -33.5t140.5 -94t94 -140.5t33.5 -172t-33.5 -172t-94 -140.5t-140.5 -94t-172 -33.5t-172 33.5t-140.5 94t-94 140.5t-33.5 172zM236 430q0 -66 21.5 -120 t59 -93t88 -61.5t107.5 -22.5t107.5 21.5t88 61.5t59 94.5t21.5 119.5q0 61 -21.5 113.5t-59 91.5t-88 60.5t-107.5 21.5t-107.5 -21.5t-88 -60.5t-59 -91.5t-21.5 -113.5z" />
<glyph unicode="7" d="M72 1147v143h778v-112l-543 -1178h-174l533 1147h-594z" />
<glyph unicode="8" horiz-adv-x="1003" d="M72 369q0 92 34.5 154.5t77.5 101.5q49 45 113 71q-51 18 -88 56q-33 31 -59.5 82t-26.5 129q0 66 28.5 126t80 107t121 75.5t149.5 28.5t149.5 -28.5t120.5 -75.5t80 -107.5t29 -125.5q0 -78 -28 -129.5t-60 -81.5q-37 -37 -86 -56q61 -27 112 -71q41 -39 77 -101.5 t36 -154.5q0 -78 -31 -146.5t-88 -120t-136 -82t-175 -30.5t-175 30.5t-136.5 82t-88 120t-30.5 146.5zM236 379q0 -109 71.5 -177.5t194.5 -68.5t194.5 68.5t71.5 177.5q0 100 -71.5 167.5t-194.5 67.5t-194.5 -67.5t-71.5 -167.5zM287 952q0 -39 16 -73.5t45 -61t68 -43 t86 -16.5q45 0 85 16.5t68.5 43t45 61t16.5 73.5q0 43 -16.5 80t-45 64.5t-68.5 44t-85 16.5q-47 0 -86 -16.5t-68 -44t-45 -64.5t-16 -80z" />
<glyph unicode="9" horiz-adv-x="1013" d="M61 860q0 92 34 172t94.5 140.5t140.5 94t172 33.5t172 -33.5t140 -94t94 -140.5t34 -172q0 -61 -17.5 -117.5t-39.5 -97.5q-25 -51 -56 -92l-368 -553h-174l286 430q-10 -4 -20 -6t-22.5 -3t-28.5 -1q-92 0 -172 33.5t-140.5 94t-94.5 140.5t-34 172zM225 860 q0 -61 21.5 -113.5t59.5 -91.5t88 -60.5t108 -21.5q57 0 107 21.5t88 60.5t59.5 91.5t21.5 113.5q0 63 -21.5 118.5t-59.5 94.5t-88 61.5t-107 22.5t-107.5 -21.5t-88.5 -61.5t-59.5 -94t-21.5 -120z" />
<glyph unicode=":" horiz-adv-x="348" d="M72 92q0 47 27.5 75t74.5 28t74.5 -28t27.5 -75t-27.5 -74.5t-74.5 -27.5t-74.5 27.5t-27.5 74.5zM72 819q0 47 27.5 75t74.5 28t74.5 -28t27.5 -75t-27.5 -74.5t-74.5 -27.5t-74.5 27.5t-27.5 74.5z" />
<glyph unicode=";" horiz-adv-x="348" d="M72 92q0 47 27.5 75t74.5 28t74.5 -28t27.5 -75q0 -74 -25.5 -128t-55.5 -89q-37 -41 -82 -70l-21 31q20 20 37 43q14 20 27.5 48t17.5 63q-47 0 -74.5 27.5t-27.5 74.5zM72 819q0 47 27.5 75t74.5 28t74.5 -28t27.5 -75t-27.5 -74.5t-74.5 -27.5t-74.5 27.5t-27.5 74.5z " />
<glyph unicode="&#x3c;" d="M92 399v103l717 389v-154l-543 -286l543 -287v-154z" />
<glyph unicode="=" horiz-adv-x="890" d="M61 266v144h768v-144h-768zM61 645v143h768v-143h-768z" />
<glyph unicode="&#x3e;" d="M92 10v154l543 287l-543 286v154l717 -389v-103z" />
<glyph unicode="?" horiz-adv-x="880" d="M72 881v20q0 193 104.5 296t274.5 103q76 0 142 -25.5t113.5 -70.5t75 -107t27.5 -136q0 -82 -21.5 -136.5t-55.5 -95.5t-71.5 -74.5t-71.5 -74.5t-55.5 -95.5t-21.5 -136.5v-10h-164v10q0 96 21.5 161.5t55.5 112t72 80t71.5 69.5t55 80t21.5 110q0 86 -54 141t-140 55 q-100 0 -157.5 -62.5t-57.5 -193.5v-20h-164zM328 92q0 47 27.5 75t74.5 28t74.5 -28t27.5 -75t-27.5 -74.5t-74.5 -27.5t-74.5 27.5t-27.5 74.5z" />
<glyph unicode="@" horiz-adv-x="1515" d="M82 461q0 141 54 266t147.5 218t218.5 147.5t266 54.5t266 -53.5t218.5 -144.5t147.5 -212t54 -256q0 -92 -21.5 -160.5t-59.5 -114.5t-88 -69.5t-107 -23.5q-59 0 -99.5 19.5t-66.5 41.5q-31 27 -49 64q-25 -37 -60 -64q-29 -23 -74 -42t-102 -19q-61 0 -116.5 25.5 t-98.5 71.5t-67.5 109.5t-24.5 141.5q0 76 24.5 140.5t67.5 110.5t98.5 71.5t116.5 25.5q53 0 93 -17.5t69 -39.5q31 -25 53 -56l31 103h92v-404q0 -90 32.5 -130t80.5 -40q31 0 57.5 13.5t44.5 43t29.5 79t11.5 120.5q0 111 -45 211.5t-121 176t-176 120.5t-211 45 t-211 -45t-176 -123t-121 -182t-45 -223t45 -223.5t121 -182.5t176 -123t211 -45q61 0 113.5 14.5t91.5 30.5q45 20 82 48l61 -103q-49 -29 -104 -51q-47 -20 -110.5 -35.5t-133.5 -15.5q-141 0 -266 54t-218.5 147.5t-147.5 218t-54 266.5zM543 461q0 -100 59.5 -162.5 t145.5 -62.5q90 0 147 59t57 166q0 106 -57 165.5t-147 59.5q-86 0 -145.5 -62.5t-59.5 -162.5z" />
<glyph unicode="A" horiz-adv-x="1126" d="M0 0l492 1290h143l491 -1290h-174l-123 317h-532l-123 -317h-174zM348 461h430l-215 563z" />
<glyph unicode="B" horiz-adv-x="1146" d="M164 0v1290h481q80 0 147.5 -26.5t116.5 -73.5t77 -110.5t28 -137.5q0 -70 -22.5 -118t-49.5 -79q-33 -36 -72 -59q53 -27 97 -70q37 -37 67.5 -98t30.5 -149q0 -72 -30.5 -138.5t-86 -118t-130.5 -82t-163 -30.5h-491zM328 143h327q109 0 177.5 68t68.5 168 q0 45 -18.5 86t-51 71.5t-77.5 49t-99 18.5h-327v-461zM328 748h317q45 0 85 16t68.5 43t45 61.5t16.5 73.5q0 43 -16.5 80t-45 64.5t-68.5 44t-85 16.5h-317v-399z" />
<glyph unicode="C" horiz-adv-x="1290" d="M72 645q0 137 50 257t133 209t192.5 139t228.5 50q104 0 191 -33.5t157 -94t119 -140.5t76 -172h-175q-16 61 -47.5 115.5t-79 94.5t-107.5 63.5t-134 23.5q-84 0 -164 -38t-141.5 -106.5t-98 -162.5t-36.5 -205t36.5 -205t98 -162.5t141.5 -106.5t164 -38 q76 0 139.5 23.5t111.5 63.5t79.5 94.5t48.5 115.5h174q-27 -92 -76 -172t-119.5 -140.5t-161 -94t-196.5 -33.5q-119 0 -228.5 50t-192.5 139t-133 208t-50 258z" />
<glyph unicode="D" horiz-adv-x="1218" d="M164 0v1290h358q127 0 238.5 -49t195.5 -135t132.5 -205t48.5 -256q0 -139 -48.5 -257t-132.5 -204t-195.5 -135t-238.5 -49h-358zM328 143h194q88 0 170 38t144.5 105.5t99.5 159t37 199.5q0 106 -37 198.5t-99.5 160t-144.5 105.5t-170 38h-194v-1004z" />
<glyph unicode="E" horiz-adv-x="1105" d="M164 0v1290h819v-143h-655v-410h604v-143h-604v-451h676v-143h-840z" />
<glyph unicode="F" horiz-adv-x="1024" d="M164 0v1290h788v-143h-624v-430h512v-144h-512v-573h-164z" />
<glyph unicode="G" horiz-adv-x="1382" d="M82 645q0 137 50 257t133 209t192.5 139t228.5 50q106 0 193.5 -30.5t155 -87t115.5 -133t79 -168.5h-174q-39 123 -127 199.5t-242 76.5q-84 0 -164 -38t-141.5 -106.5t-98 -162.5t-36.5 -205t36.5 -205t98 -162.5t141.5 -106.5t164 -38q76 0 146.5 32t125 84t86 117.5 t31.5 135.5h-379v143h543v-645h-123l-41 154q-45 -45 -102 -82q-51 -31 -123 -56.5t-164 -25.5q-119 0 -228.5 50t-192.5 139t-133 208t-50 258z" />
<glyph unicode="H" horiz-adv-x="1280" d="M164 0v1290h164v-563h624v563h164v-1290h-164v584h-624v-584h-164z" />
<glyph unicode="I" horiz-adv-x="491" d="M164 0v1290h164v-1290h-164z" />
<glyph unicode="J" horiz-adv-x="942" d="M20 348h164q8 -92 70.5 -153.5t155.5 -61.5q100 0 162.5 61.5t62.5 153.5v944h164v-944q0 -74 -29 -138.5t-81 -113.5t-123.5 -77.5t-155.5 -28.5t-156 28.5t-124 77.5t-81 113.5t-29 138.5z" />
<glyph unicode="K" horiz-adv-x="1054" d="M164 0v1290h164v-1290h-164zM328 655l501 635h195l-512 -635l553 -655h-195z" />
<glyph unicode="L" horiz-adv-x="962" d="M164 0v1290h164v-1147h614v-143h-778z" />
<glyph unicode="M" horiz-adv-x="1556" d="M164 0v1290h133l481 -1034l482 1034h133v-1290h-164v870l-400 -870h-102l-399 870v-870h-164z" />
<glyph unicode="N" horiz-adv-x="1280" d="M164 0v1290h143l645 -973v973h164v-1290h-143l-645 973v-973h-164z" />
<glyph unicode="O" horiz-adv-x="1351" d="M72 645q0 137 50 257t133 209t192.5 139t228.5 50t228.5 -50t192.5 -139t133 -209t50 -257q0 -139 -50 -258t-133 -208t-192.5 -139t-228.5 -50t-228.5 50t-192.5 139t-133 208t-50 258zM236 645q0 -111 36.5 -205t98 -162.5t141.5 -106.5t164 -38t164 38t141 106.5 t98 163t37 204.5q0 111 -37 205t-98 162.5t-141 106.5t-164 38t-164 -38t-141.5 -106.5t-98 -162.5t-36.5 -205z" />
<glyph unicode="P" horiz-adv-x="1095" d="M164 0v1290h440q84 0 159 -31.5t130 -87t88 -128t33 -152.5t-33 -152.5t-88 -128t-130 -87t-159 -31.5h-276v-492h-164zM328 635h276q49 0 94 19.5t79 54t53.5 82t19.5 100.5t-19.5 100t-53.5 82t-79 54.5t-94 19.5h-276v-512z" />
<glyph unicode="Q" horiz-adv-x="1372" d="M72 645q0 137 50 257t133 209t192.5 139t228.5 50t228.5 -50t192.5 -139t133 -209t50 -257q0 -104 -25.5 -185t-56.5 -138q-37 -68 -82 -117l144 -144l-103 -112l-153 153q-39 -33 -91 -57q-43 -23 -104 -39t-133 -16q-119 0 -228.5 50t-192.5 139t-133 208t-50 258z M236 645q0 -111 36.5 -205t98 -162.5t141.5 -106.5t164 -38q49 0 91 10.5t71 24.5q35 16 63 37l-133 133l102 113l144 -144q29 37 51 88q18 43 34.5 105.5t16.5 144.5q0 111 -37 205t-98 162.5t-141 106.5t-164 38t-164 -38t-141.5 -106.5t-98 -162.5t-36.5 -205z" />
<glyph unicode="R" horiz-adv-x="1136" d="M164 0v1290h481q80 0 151.5 -30.5t124 -82t83 -121t30.5 -145.5q0 -113 -45 -183.5t-98 -111.5q-63 -49 -141 -73l315 -543h-184l-308 532h-245v-532h-164zM328 676h317q45 0 86 18.5t72 50t49 74.5t18 92t-18 92.5t-49 75t-72 50t-86 18.5h-317v-471z" />
<glyph unicode="S" horiz-adv-x="1013" d="M82 379h164q0 -117 67.5 -181.5t198.5 -64.5t198.5 59.5t67.5 145.5q0 80 -51 124t-127 73.5t-165 55t-164.5 67.5t-127 110.5t-51.5 183.5q0 66 31 128.5t87 111.5t133 78.5t169 29.5q84 0 156.5 -30.5t127 -82.5t85 -124t30.5 -152h-163q0 109 -68 177.5t-168 68.5 q-57 0 -104.5 -17.5t-81 -46t-52 -65.5t-18.5 -76q0 -80 51 -124t127 -73.5t165 -55t165 -67.5t127 -110.5t51 -183.5q0 -70 -29.5 -132.5t-85 -110.5t-135.5 -76.5t-180 -28.5t-180 28.5t-135.5 81t-85 124t-29.5 155.5z" />
<glyph unicode="T" horiz-adv-x="1003" d="M31 1147v143h942v-143h-389v-1147h-164v1147h-389z" />
<glyph unicode="U" horiz-adv-x="1228" d="M143 451v839h164v-839q0 -147 84 -232.5t223 -85.5t223.5 85t84.5 233v839h163v-839q0 -100 -34.5 -184.5t-97 -146t-149 -96t-190.5 -34.5t-190 34.5t-148.5 96t-97.5 145.5t-35 185z" />
<glyph unicode="V" horiz-adv-x="1146" d="M20 1290h175l378 -1054l379 1054h174l-471 -1290h-163z" />
<glyph unicode="W" horiz-adv-x="1597" d="M20 1290h175l286 -932l267 932h102l266 -932l287 932h174l-399 -1290h-113l-266 932l-267 -932h-112z" />
<glyph unicode="X" horiz-adv-x="1064" d="M20 0l420 655l-399 635h184l307 -491l308 491h184l-399 -635l419 -655h-194l-318 512l-317 -512h-195z" />
<glyph unicode="Y" horiz-adv-x="1024" d="M20 1290h175l317 -614l317 614h175l-410 -788v-502h-164v502z" />
<glyph unicode="Z" horiz-adv-x="993" d="M61 0v102l635 1045h-614v143h819v-102l-635 -1045h666v-143h-871z" />
<glyph unicode="[" horiz-adv-x="583" d="M164 -369v1659h379v-133h-236v-1393h236v-133h-379z" />
<glyph unicode="\" horiz-adv-x="675" d="M0 1290h143l533 -1659h-144z" />
<glyph unicode="]" horiz-adv-x="583" d="M41 -236h235v1393h-235v133h379v-1659h-379v133z" />
<glyph unicode="^" horiz-adv-x="778" d="M82 707l276 583h62l276 -583h-123l-184 389l-184 -389h-123z" />
<glyph unicode="_" horiz-adv-x="532" d="M-41 -215h614v-123h-614v123z" />
<glyph unicode="`" horiz-adv-x="399" d="M61 1290h154l123 -246h-102z" />
<glyph unicode="a" horiz-adv-x="952" d="M92 266q0 66 26.5 120t92 94t179.5 61.5t286 21.5v51q0 70 -54.5 122t-140.5 52t-127 -35.5t-57 -97.5h-164q8 57 35 107.5t71 88.5t104 59.5t138 21.5q76 0 140.5 -25.5t110.5 -68.5t71.5 -100.5t25.5 -123.5v-614h-112l-41 102q-31 -33 -70 -57q-35 -23 -86 -39 t-121 -16t-126 21.5t-96 59.5t-62.5 88t-22.5 107zM246 256q0 -47 41.5 -85t111.5 -38q61 0 112.5 19.5t87.5 50t56.5 68.5t20.5 77v72q-139 0 -223 -11.5t-130.5 -33t-61.5 -51t-15 -68.5z" />
<glyph unicode="b" horiz-adv-x="1075" d="M143 0v1290h154v-481q29 35 70 61q35 23 86 42.5t120 19.5q88 0 167 -35t137.5 -97.5t92.5 -148.5t34 -190t-34 -190.5t-92.5 -149t-137 -97t-167.5 -34.5q-70 0 -121 16.5t-85 38.5q-41 25 -70 57l-41 -102h-113zM276 461q0 -74 24 -134.5t62.5 -103.5t91 -66.5 t109.5 -23.5t109.5 23.5t91.5 66.5t62.5 103.5t23.5 134.5t-23.5 134t-62.5 103t-91 66.5t-110 23.5q-57 0 -109.5 -23.5t-91 -66.5t-62.5 -103t-24 -134z" />
<glyph unicode="c" horiz-adv-x="962" d="M72 461q0 104 33.5 190t92 148.5t137.5 97.5t167 35q76 0 142.5 -26.5t118.5 -73t87 -107.5t51 -131h-153q-12 39 -35 73.5t-54.5 61.5t-71.5 43t-85 16q-53 0 -103.5 -23.5t-89.5 -66.5t-61.5 -103t-22.5 -134t22.5 -134.5t61.5 -103.5t89.5 -66.5t103.5 -23.5 q45 0 85 16.5t71.5 43t54 61.5t35.5 74h153q-16 -70 -51 -131.5t-87 -107.5t-118.5 -72.5t-142.5 -26.5q-88 0 -167 34.5t-137.5 97t-92 148.5t-33.5 191z" />
<glyph unicode="d" horiz-adv-x="1075" d="M72 461q0 104 33.5 190t92 148.5t137.5 97.5t167 35q70 0 121 -19.5t86 -42.5q39 -27 69 -61v481h154v-1290h-113l-41 102q-31 -33 -69 -57q-35 -23 -86.5 -39t-120.5 -16q-88 0 -167 34.5t-137.5 97t-92 148.5t-33.5 191zM225 461q0 -74 23.5 -134.5t62.5 -103.5 t91.5 -66.5t109.5 -23.5t109.5 23.5t91.5 66.5t62.5 103.5t23.5 134.5t-23.5 134t-62.5 103t-91.5 66.5t-109.5 23.5t-109.5 -23.5t-91.5 -66.5t-62.5 -103t-23.5 -134z" />
<glyph unicode="e" horiz-adv-x="972" d="M72 461q0 104 33.5 190t91 148.5t134.5 97.5t161 35t158.5 -33t130 -93.5t88 -145.5t32.5 -189q0 -20 -2 -34.5t-4 -24.5q-2 -12 -4 -23h-655q4 -49 27.5 -96t59 -82t83 -56.5t96.5 -21.5q43 0 76.5 12.5t61.5 28.5t46.5 35.5t30.5 36.5h164q-23 -49 -58 -96.5t-82 -82 t-106.5 -56t-132.5 -21.5q-88 0 -167 34.5t-137.5 97t-92 148.5t-33.5 191zM236 522h501q-16 123 -84.5 194.5t-160.5 71.5q-47 0 -89.5 -20t-77 -55t-58 -84t-31.5 -107z" />
<glyph unicode="f" horiz-adv-x="563" d="M51 778v144h113v71q0 70 21.5 126.5t58.5 96t85 62t101 22.5q23 0 40 -3t30 -7q12 -6 22 -10v-133q-6 2 -14 4q-6 2 -16.5 4t-20.5 2q-70 0 -112 -43t-42 -121v-71h205v-144h-205v-778h-153v778h-113z" />
<glyph unicode="g" horiz-adv-x="1034" d="M72 481q0 100 32.5 183.5t89 142.5t133 92t165.5 33q70 0 120 -17.5t82 -40.5q37 -25 64 -55l41 103h112v-891q0 -80 -29.5 -149.5t-83 -121t-129 -80t-167.5 -28.5q-80 0 -143.5 21.5t-110.5 59.5t-79 88t-46 107h153q23 -53 74 -93t152 -40q117 0 186.5 67.5 t69.5 168.5v123q-27 -35 -64 -62q-33 -23 -83 -42t-119 -19q-88 0 -165 32.5t-133.5 92t-89 142.5t-32.5 183zM225 481q0 -70 21.5 -126t59.5 -96t88 -62.5t108 -22.5q57 0 107 22.5t88 62.5t59.5 96.5t21.5 125.5q0 70 -21.5 126.5t-59.5 96t-88 62t-107 22.5t-107.5 -22.5 t-88.5 -62t-59.5 -96t-21.5 -126.5z" />
<glyph unicode="h" horiz-adv-x="1044" d="M143 0v1290h154v-481q29 35 68 61q35 23 83.5 42.5t114.5 19.5q74 0 138.5 -30t113.5 -82t78 -125.5t29 -162.5v-532h-154v532q0 57 -18.5 104.5t-49 81.5t-71.5 52t-86 18q-109 0 -177.5 -69.5t-68.5 -186.5v-532h-154z" />
<glyph unicode="i" horiz-adv-x="419" d="M113 1182q0 43 27.5 70.5t68.5 27.5q43 0 70.5 -27.5t27.5 -70.5q0 -41 -27.5 -69t-70.5 -28q-41 0 -68.5 28t-27.5 69zM133 0v922h154v-922h-154z" />
<glyph unicode="j" horiz-adv-x="419" d="M-72 -184q6 -4 15 -6q16 -4 37 -5q70 0 111.5 43t41.5 121v953h154v-953q0 -70 -21.5 -126t-58.5 -96t-85 -62.5t-102 -22.5q-45 0 -69 10q-14 4 -23 11v133zM113 1182q0 43 27.5 70.5t68.5 27.5q43 0 70.5 -27.5t27.5 -70.5q0 -41 -27.5 -69t-70.5 -28q-41 0 -68.5 28 t-27.5 69z" />
<glyph unicode="k" horiz-adv-x="860" d="M143 0v1290h154v-1290h-154zM297 481l348 441h174l-348 -430l399 -492h-184z" />
<glyph unicode="l" horiz-adv-x="440" d="M143 0v1290h154v-1290h-154z" />
<glyph unicode="m" horiz-adv-x="1474" d="M133 0v922h113l41 -103q23 31 55 55q29 23 70 40.5t100 17.5q70 0 118 -25.5t79 -56.5q37 -37 59 -82q27 45 66 82q35 31 85.5 56.5t124.5 25.5q61 0 117 -25.5t99 -75t67.5 -120t24.5 -158.5v-553h-154v553q0 117 -53 176t-131 59t-136.5 -63t-58.5 -172v-553h-153v553 q0 117 -53.5 176t-131.5 59q-37 0 -72.5 -17t-62.5 -49t-43 -75t-16 -94v-553h-154z" />
<glyph unicode="n" horiz-adv-x="1034" d="M133 0v922h113l41 -103q29 31 67 55q35 23 84 40.5t115 17.5q74 0 138.5 -30t113.5 -82t77.5 -125.5t28.5 -162.5v-532h-153v532q0 57 -18.5 104.5t-49.5 81.5t-71.5 52t-86.5 18q-109 0 -177 -69.5t-68 -186.5v-532h-154z" />
<glyph unicode="o" horiz-adv-x="1003" d="M72 461q0 104 33.5 190t92 148.5t137.5 97.5t167 35t167 -35t137 -97.5t92 -148.5t34 -190t-34 -190.5t-92 -149t-137 -97t-167 -34.5t-167 34.5t-137.5 97t-92 148.5t-33.5 191zM225 461q0 -74 22.5 -134.5t61.5 -103.5t89.5 -66.5t103.5 -23.5t103 23.5t88 66.5 t61.5 103.5t23.5 134.5t-23.5 134t-61.5 103t-88 66.5t-103 23.5t-103.5 -23.5t-89.5 -66.5t-61.5 -103t-22.5 -134z" />
<glyph unicode="p" horiz-adv-x="1064" d="M133 -328v1250h113l41 -103q29 31 69 55q35 23 86.5 40.5t120.5 17.5q88 0 167 -35t137.5 -97.5t92 -148.5t33.5 -190t-33.5 -190.5t-92 -149t-137.5 -97t-167 -34.5q-70 0 -121 19.5t-86 41.5q-41 27 -69 62v-441h-154zM266 461q0 -74 23.5 -134.5t62.5 -103.5 t91.5 -66.5t109.5 -23.5t109.5 23.5t91.5 66.5t62.5 103.5t23.5 134.5t-23.5 134t-62.5 103t-91.5 66.5t-109.5 23.5t-109.5 -23.5t-91.5 -66.5t-62.5 -103t-23.5 -134z" />
<glyph unicode="q" horiz-adv-x="1064" d="M72 461q0 104 33.5 190t92 148.5t137.5 97.5t167 35q70 0 121 -17.5t86 -40.5q39 -25 69 -55l41 103h113v-1250h-154v441q-31 -35 -69 -62q-35 -23 -86.5 -42t-120.5 -19q-88 0 -167 34.5t-137.5 97t-92 148.5t-33.5 191zM225 461q0 -74 23.5 -134.5t62.5 -103.5 t91.5 -66.5t109.5 -23.5t109.5 23.5t91.5 66.5t62.5 103.5t23.5 134.5t-23.5 134t-62.5 103t-91.5 66.5t-109.5 23.5t-109.5 -23.5t-91.5 -66.5t-62.5 -103t-23.5 -134z" />
<glyph unicode="r" horiz-adv-x="614" d="M133 0v922h113l41 -103q29 31 67 55q35 23 84 40.5t115 17.5h20v-154h-41q-109 0 -177 -69.5t-68 -186.5v-522h-154z" />
<glyph unicode="s" horiz-adv-x="808" d="M82 276h154q8 -61 53 -102t131 -41q78 0 121 40t43 93q0 51 -36 77t-89 41t-115.5 28.5t-116 40t-89.5 76t-36 137.5q0 53 22.5 101t62.5 85t96.5 58.5t126.5 21.5q147 0 228 -77t89 -200h-154q-8 61 -47 97t-116 36q-70 0 -112 -37.5t-42 -84.5q0 -51 36 -77t89 -41.5 t115.5 -28.5t116 -39.5t89 -77t35.5 -136.5q0 -57 -22.5 -107t-63.5 -88t-99 -59.5t-132 -21.5q-154 0 -242 82t-96 204z" />
<glyph unicode="t" horiz-adv-x="655" d="M41 778v144h72q113 0 112 112v133h133v-245h205v-144h-205v-481q0 -78 42 -121t112 -43q20 0 37 4q8 2 14 6v-133q-10 -6 -22 -10q-27 -10 -70 -10q-53 0 -101 22.5t-85 62.5t-58.5 96t-21.5 126v481h-164z" />
<glyph unicode="u" horiz-adv-x="1044" d="M133 389v533h154v-533q0 -57 17.5 -104t48 -81t71.5 -52.5t88 -18.5q109 0 177.5 69.5t68.5 186.5v533h153v-922h-112l-41 102q-29 -33 -68 -57q-35 -23 -83.5 -39t-114.5 -16q-74 0 -138.5 29.5t-114 82t-78 126t-28.5 161.5z" />
<glyph unicode="v" horiz-adv-x="921" d="M20 922h164l277 -707l276 707h164l-369 -922h-143z" />
<glyph unicode="w" horiz-adv-x="1310" d="M20 922h164l215 -656l205 656h103l204 -656l215 656h164l-307 -922h-123l-205 655l-204 -655h-123z" />
<glyph unicode="x" horiz-adv-x="839" d="M0 0l328 471l-308 451h175l225 -338l225 338h174l-307 -451l328 -471h-174l-246 358l-246 -358h-174z" />
<glyph unicode="y" horiz-adv-x="921" d="M20 922h164l277 -707l276 707h164l-399 -1004q-55 -139 -115.5 -197.5t-150.5 -58.5q-12 0 -22.5 1t-20.5 3t-19 6v123q70 0 104.5 31t59.5 92l41 102z" />
<glyph unicode="z" horiz-adv-x="778" d="M61 0v133l451 645h-451v144h635v-134l-450 -645h471v-143h-656z" />
<glyph unicode="{" horiz-adv-x="614" d="M92 399v123q113 0 113 113v399q0 123 67.5 189.5t198.5 66.5h102v-133h-106q-51 0 -85 -35t-34 -88v-399q0 -53 -19.5 -88t-41.5 -53q-27 -23 -62 -33q35 -10 62 -33q23 -20 42 -54t19 -87v-400q0 -53 34 -88t85 -35h106v-133h-102q-131 0 -198.5 66.5t-67.5 189.5v400 q0 113 -113 112z" />
<glyph unicode="|" horiz-adv-x="634" d="M246 -328v1618h143v-1618h-143z" />
<glyph unicode="}" horiz-adv-x="614" d="M41 -236h106q51 0 85 35t34 88v400q0 53 19.5 87t42.5 54q27 23 61 33q-35 10 -61 33q-23 18 -42.5 53t-19.5 88v399q0 53 -33.5 88t-85.5 35h-106v133h102q131 0 199 -66.5t68 -189.5v-399q0 -113 112 -113v-123q-113 0 -112 -112v-400q0 -123 -68 -189.5t-199 -66.5 h-102v133z" />
<glyph unicode="~" d="M0 420q0 131 63.5 198.5t172.5 67.5q53 0 112.5 -22.5t116.5 -49t106.5 -49t83.5 -22.5q53 0 88 35.5t35 97.5h123q0 -131 -64.5 -198.5t-181.5 -67.5q-49 0 -106 22.5t-114.5 49t-108.5 49t-90 22.5q-47 0 -80 -36t-33 -97h-123z" />
<glyph unicode="&#xa1;" horiz-adv-x="532" d="M164 -328l41 942h123l41 -942h-205zM164 829q0 47 27.5 75t74.5 28t75 -27.5t28 -75.5q0 -47 -28 -74.5t-75 -27.5t-74.5 27.5t-27.5 74.5z" />
<glyph unicode="&#xa2;" horiz-adv-x="962" d="M72 461q0 100 28.5 180t77.5 138.5t113.5 94t138.5 48.5v184h154v-184q123 -31 204.5 -114t112.5 -214h-153q-12 39 -35 73.5t-54.5 61.5t-71.5 43t-85 16q-53 0 -103.5 -23.5t-89.5 -66.5t-61.5 -103t-22.5 -134t22.5 -134.5t61.5 -103.5t89.5 -66.5t103.5 -23.5 q45 0 85 16.5t71.5 43t54 61.5t35.5 74h153q-31 -131 -112.5 -214t-204.5 -114v-184h-154v184q-74 12 -138.5 48t-113.5 94.5t-77.5 138t-28.5 180.5z" />
<glyph unicode="&#xa3;" horiz-adv-x="1075" d="M102 0v143q47 0 85 41t38 103v225h-112v143h112v267q0 76 31 145.5t84 120.5t126 81.5t159 30.5q76 0 145.5 -29.5t121.5 -79.5t85 -114.5t37 -134.5h-164q-8 92 -70.5 153.5t-154.5 61.5q-49 0 -92.5 -18.5t-75 -50t-50 -74.5t-18.5 -92v-267h348v-143h-348v-225 q0 -39 -12 -66.5t-29 -44.5q-18 -20 -41 -33h686v-143h-891z" />
<glyph unicode="&#xa4;" horiz-adv-x="1126" d="M51 205v143h154v164h-154v143h154v635h430q88 0 163 -30q75 -31 130 -83t86 -124t30 -152q0 -80 -30 -151q-31 -72 -86 -124t-130 -83t-163 -31h-266v-164h389v-143h-389v-205h-164v205h-154zM369 655h266q109 0 177 69q69 69 69 177q0 109 -68 177q-68 69 -178 69h-266 v-492z" />
<glyph unicode="&#xa5;" horiz-adv-x="1044" d="M31 1290h174l317 -614l318 614h174l-338 -655h205v-143h-277v-134h275v-143h-275v-215h-164v215h-276v143h276v134h-276v143h205z" />
<glyph unicode="&#xa6;" horiz-adv-x="655" d="M246 307h164v-635h-164v635zM246 655v635h143v-635h-143z" />
<glyph unicode="&#xa7;" horiz-adv-x="962" d="M92 543q0 72 33 124t74 87q47 39 108 65q-39 14 -67 43q-25 25 -45.5 66t-20.5 106q0 49 23.5 97.5t63.5 86t94.5 60t115.5 22.5q139 0 220 -74.5t97 -191.5h-143q-8 53 -52 93t-122 40q-70 0 -112 -40t-42 -93q0 -59 41 -95t102.5 -63.5t133.5 -54t133 -65.5t102 -99.5 t41 -154.5q0 -74 -33.5 -124t-74.5 -83q-47 -37 -107 -59q41 -14 76 -41q29 -23 53.5 -63t24.5 -101q0 -53 -23.5 -103.5t-65.5 -89.5t-100.5 -61.5t-127.5 -22.5q-139 0 -225.5 82t-102.5 205h143q8 -61 57.5 -107.5t127.5 -46.5q86 0 130 41t44 103q0 57 -42 90 t-106.5 58.5t-138.5 50t-138.5 62.5t-106.5 97.5t-42 153.5zM246 543q0 -43 12 -75t43 -57.5t82 -48t129 -45.5q57 12 102 35q39 20 71 55t32 95q0 43 -13.5 75.5t-44 60.5t-82 52.5t-126.5 46.5q-57 -14 -103 -39q-39 -23 -70.5 -60.5t-31.5 -94.5z" />
<glyph unicode="&#xa8;" horiz-adv-x="614" d="M61 1188q0 39 27 65.5t66 26.5t65.5 -26.5t26.5 -65.5t-26.5 -65.5t-65.5 -26.5t-66 26.5t-27 65.5zM369 1188q0 39 26.5 65.5t65.5 26.5t65.5 -26.5t26.5 -65.5t-26.5 -65.5t-65.5 -26.5t-65.5 26.5t-26.5 65.5z" />
<glyph unicode="&#xa9;" horiz-adv-x="1413" d="M82 645q0 137 50 257t135 209t199 139t241 50t240.5 -50t198.5 -139t135 -209t50 -257q0 -139 -50 -258t-135 -208t-198.5 -139t-240.5 -50t-241 50t-199 139t-135 208t-50 258zM205 645q0 -115 41 -214t109.5 -172t159.5 -115t192 -42q100 0 190 42t159.5 115t110.5 172 t41 214t-41 214t-110.5 172t-159.5 115t-190 42t-191.5 -42t-160 -115t-109.5 -172t-41 -214zM399 645q0 74 27 137.5t71 110.5t101 73.5t119 26.5q53 0 100 -19.5t85 -52t63.5 -75.5t38.5 -88h-123q-16 53 -56.5 88t-117.5 35q-37 0 -72 -17.5t-62.5 -48.5t-44 -74 t-16.5 -96t16.5 -96t44 -74t62.5 -48t72 -17q78 0 117.5 34.5t56.5 87.5h123q-12 -47 -38 -89t-64 -74.5t-85 -52t-100 -19.5q-61 0 -118.5 26.5t-101.5 73.5t-71 110.5t-27 137.5z" />
<glyph unicode="&#xaa;" horiz-adv-x="573" d="M72 911q0 43 15 77t52 57.5t100.5 37t159.5 13.5v10q0 39 -27.5 65.5t-74.5 26.5t-70.5 -19.5t-31.5 -41.5h-103q0 61 56.5 112t148.5 51q45 0 85 -16t68.5 -43t45 -61.5t16.5 -73.5v-328h-82l-20 62q-16 -20 -39 -37q-20 -14 -48 -24.5t-67 -10.5q-84 0 -134 42t-50 101 zM174 932q0 -31 24.5 -51.5t77.5 -20.5t88 35t35 88v31q-70 0 -113.5 -7.5t-68 -18.5t-34 -26.5t-9.5 -29.5z" />
<glyph unicode="&#xab;" d="M72 461l225 327h154l-226 -327l226 -328h-154zM451 461l225 327h153l-225 -327l225 -328h-153z" />
<glyph unicode="&#xac;" d="M31 645v133h839v-409h-143v276h-696z" />
<glyph unicode="&#xad;" horiz-adv-x="706" d="M72 461v133h563v-133h-563z" />
<glyph unicode="&#xae;" horiz-adv-x="1413" d="M82 645q0 137 50 257t135 209t199 139t241 50t240.5 -50t198.5 -139t135 -209t50 -257q0 -139 -50 -258t-135 -208t-198.5 -139t-240.5 -50t-241 50t-199 139t-135 208t-50 258zM205 645q0 -115 41 -214t109.5 -172t159.5 -115t192 -42q100 0 190 42t159.5 115t110.5 172 t41 214t-41 214t-110.5 172t-159.5 115t-190 42t-191.5 -42t-160 -115t-109.5 -172t-41 -214zM492 307v676h235q45 0 86 -17.5t71.5 -47t49 -68.5t18.5 -82q0 -59 -24.5 -96t-53.5 -60q-35 -25 -75 -39l174 -266h-123l-164 246h-82v-246h-112zM604 655h123q47 0 80 33t33 80 t-33 80t-80 33h-123v-226z" />
<glyph unicode="&#xaf;" horiz-adv-x="614" d="M61 1106v123h492v-123h-492z" />
<glyph unicode="&#xb0;" horiz-adv-x="634" d="M72 1055q0 49 19.5 94t53 79t78.5 53t94 19t94.5 -19t79 -53t53 -79t19.5 -94t-19.5 -94.5t-53 -79t-78.5 -53t-95 -19.5q-49 0 -94 19.5t-78.5 53t-53 79t-19.5 94.5zM195 1055q0 -27 10 -51.5t27.5 -43t40 -28.5t44.5 -10q23 0 45.5 10t40 28.5t27.5 43t10 51.5t-10 51 t-27.5 42.5t-40 29t-45.5 10.5t-45 -10.5t-39.5 -29t-27.5 -42.5t-10 -51z" />
<glyph unicode="&#xb1;" d="M61 61v134h318v348h-318v133h318v338h143v-338h318v-133h-318v-348h318v-134h-779z" />
<glyph unicode="&#xb2;" horiz-adv-x="522" d="M61 881v82l226 235q23 23 42 48.5t19 53.5q0 82 -92 82t-92 -92h-103q0 86 54.5 140.5t140.5 54.5q92 0 148.5 -53.5t56.5 -131.5q0 -47 -22.5 -76.5t-39.5 -45.5l-180 -195h242v-102h-400z" />
<glyph unicode="&#xb3;" horiz-adv-x="542" d="M61 1065h103q0 -37 27.5 -64.5t74.5 -27.5t75 25.5t28 56.5q0 39 -28 65.5t-75 26.5h-53v92h53q39 0 60.5 20.5t21.5 51.5t-21.5 51t-60.5 20q-92 0 -92 -82h-102q0 78 54 131.5t140 53.5t140.5 -52.5t54.5 -121.5q0 -31 -10.5 -52.5t-20.5 -35.5q-15 -17 -31 -25 q23 -8 41 -29q16 -16 28.5 -44.5t12.5 -69.5q0 -78 -56 -131.5t-149 -53.5q-100 0 -157.5 54.5t-57.5 140.5z" />
<glyph unicode="&#xb4;" horiz-adv-x="399" d="M61 1044l123 246h154l-174 -246h-103z" />
<glyph unicode="&#xb5;" horiz-adv-x="1044" d="M133 -328v1250h154v-533q0 -57 17.5 -104t48 -81t71.5 -52.5t88 -18.5q109 0 177.5 69.5t68.5 186.5v533h153v-922h-112l-41 102q-29 -33 -68 -57q-35 -23 -83.5 -39t-114.5 -16q-53 0 -93.5 13t-67 28.5t-41.5 28.5l-14 14v-402h-143z" />
<glyph unicode="&#xb6;" horiz-adv-x="1024" d="M82 991q0 59 24.5 113.5t67.5 95.5t98.5 65.5t116.5 24.5h481v-1474h-133v1337h-215v-1337h-133v880q-61 0 -116.5 24.5t-98.5 65.5t-67.5 94.5t-24.5 110.5z" />
<glyph unicode="&#xb7;" horiz-adv-x="440" d="M123 645q0 47 27.5 75t74.5 28t75 -28t28 -75t-28 -74.5t-75 -27.5t-74.5 27.5t-27.5 74.5z" />
<glyph unicode="&#xb8;" horiz-adv-x="399" d="M61 -256q10 -4 25 -6q10 -2 25.5 -3t31.5 -1q47 0 70 19.5t23 41.5q0 23 -23 42.5t-70 19.5q-12 0 -21 -2t-16 -5q-8 -2 -14 -4l64 154h90l-41 -82q61 -8 97 -44t36 -89t-46 -93t-138 -40q-20 0 -37 1t-29 3q-14 2 -27 6v82z" />
<glyph unicode="&#xb9;" horiz-adv-x="419" d="M41 1372l164 103h82v-594h-113v450l-82 -41z" />
<glyph unicode="&#xba;" horiz-adv-x="634" d="M61 1034q0 53 21.5 101.5t56.5 85t82 58t96 21.5t96.5 -21.5t82 -58t56 -85t21.5 -101.5t-21.5 -101t-56 -85t-81.5 -58.5t-97 -21.5q-49 0 -96 21.5t-82 58.5t-56.5 85t-21.5 101zM174 1034q0 -31 12.5 -58.5t33 -49t46 -33.5t51.5 -12q27 0 52.5 12t46 33.5t33 49.5 t12.5 58q0 31 -12.5 58.5t-33 49t-46 34t-52.5 12.5t-52 -12.5t-45.5 -34t-33 -49t-12.5 -58.5z" />
<glyph unicode="&#xbb;" d="M72 133l225 328l-225 327h153l226 -327l-226 -328h-153zM451 133l225 328l-225 327h153l225 -327l-225 -328h-153z" />
<glyph unicode="&#xbc;" horiz-adv-x="1136" d="M41 1188l164 102h82v-594h-113v451l-82 -41zM92 0l789 1290h133l-789 -1290h-133zM635 113v82l246 399h123v-379h71v-102h-71v-113h-113v113h-256zM758 215h133v215z" />
<glyph unicode="&#xbd;" horiz-adv-x="1177" d="M41 1188l164 102h82v-594h-113v451l-82 -41zM92 0l789 1290h133l-789 -1290h-133zM717 0v82l225 235q23 23 42.5 48.5t19.5 54.5q0 82 -93 82q-92 0 -92 -92h-102q0 86 54 140t140 54q92 0 148.5 -53t56.5 -131q0 -47 -22.5 -77t-38.5 -46l-181 -195h242v-102h-399z" />
<glyph unicode="&#xbe;" horiz-adv-x="1259" d="M61 881h103q0 -37 27.5 -65t74.5 -28t75 26t28 56q0 39 -28 66t-75 27h-53v92h53q39 0 60.5 20.5t21.5 50.5q0 31 -21.5 51.5t-60.5 20.5q-92 0 -92 -82h-102q0 78 54 131t140 53t140.5 -52t54.5 -122q0 -31 -10.5 -52t-20.5 -36q-15 -16 -31 -24q23 -8 41 -29 q16 -16 28.5 -45t12.5 -70q0 -78 -56 -131t-149 -53q-100 0 -157.5 54.5t-57.5 140.5zM215 0l789 1290h133l-789 -1290h-133zM758 113v82l246 399h122v-379h72v-102h-72v-113h-112v113h-256zM881 215h133v215z" />
<glyph unicode="&#xbf;" horiz-adv-x="880" d="M82 2q0 82 21.5 134t55.5 91t71.5 70t71.5 70t55.5 92t21.5 135v10h164v-10q0 -96 -21.5 -159.5t-55.5 -107.5t-72 -76t-71.5 -64.5t-55 -75.5t-21.5 -109q0 -39 13 -75t38 -62.5t60.5 -43t82.5 -16.5q100 0 157.5 62.5t57.5 193.5v21h164v-21q0 -193 -104.5 -296 t-274.5 -103q-80 0 -146.5 26.5t-113.5 72.5t-72.5 108.5t-25.5 132.5zM358 829q0 47 28 75t75 28t74.5 -28t27.5 -75t-27.5 -74.5t-74.5 -27.5t-75 27.5t-28 74.5z" />
<glyph unicode="&#xc0;" horiz-adv-x="1126" d="M0 0l492 1290h143l491 -1290h-174l-123 317h-532l-123 -317h-174zM317 1690h154l123 -246h-102zM348 461h430l-215 563z" />
<glyph unicode="&#xc1;" horiz-adv-x="1126" d="M0 0l492 1290h143l491 -1290h-174l-123 317h-532l-123 -317h-174zM348 461h430l-215 563zM522 1444l123 246h154l-174 -246h-103z" />
<glyph unicode="&#xc2;" horiz-adv-x="1126" d="M0 0l492 1290h143l491 -1290h-174l-123 317h-532l-123 -317h-174zM307 1434l185 245h143l184 -245h-153l-103 143l-102 -143h-154zM348 461h430l-215 563z" />
<glyph unicode="&#xc3;" horiz-adv-x="1126" d="M0 0l492 1290h143l491 -1290h-174l-123 317h-532l-123 -317h-174zM276 1423q0 117 53 176q52 59 122 60q45 0 76 -21q32 -20 56 -46t45 -46t48 -20q31 0 56 30q26 31 26 93h92q0 -117 -52 -176t-122 -60q-47 0 -78 21q-31 20 -54 46q-24 26 -45 46q-22 20 -48 20 q-31 0 -57 -30q-26 -31 -25 -93h-93zM348 461h430l-215 563z" />
<glyph unicode="&#xc4;" horiz-adv-x="1126" d="M0 0l492 1290h143l491 -1290h-174l-123 317h-532l-123 -317h-174zM317 1556q0 39 27 66t66 27t65 -27q27 -27 27 -66t-27 -65q-26 -27 -65 -27t-66 27t-27 65zM348 461h430l-215 563zM625 1556q0 39 26 66q27 27 66 27t65 -27q27 -27 27 -66t-27 -65q-26 -27 -65 -27 t-66 27t-26 65z" />
<glyph unicode="&#xc5;" horiz-adv-x="1126" d="M0 0l492 1290h143l491 -1290h-174l-123 317h-532l-123 -317h-174zM348 461h430l-215 563zM399 1567q0 70 47 116q47 47 117 48q70 0 117 -48q47 -46 47 -116t-47 -117t-117 -47t-117 47t-47 117zM492 1567q0 -31 20 -51t51 -21q31 0 51 21q20 20 21 51q0 31 -21 51 q-20 20 -51 20t-51 -20t-20 -51z" />
<glyph unicode="&#xc6;" horiz-adv-x="1648" d="M-61 0l727 1290h860v-143h-574v-410h523v-143h-523v-451h594v-143h-758v328h-481l-184 -328h-184zM389 471h399v676h-20z" />
<glyph unicode="&#xc7;" horiz-adv-x="1300" d="M82 645q0 137 50 257t133 209t192.5 139t228.5 50q104 0 191.5 -33.5t157 -94t118.5 -140.5t76 -172h-174q-16 61 -48 115.5t-79 94.5t-107.5 63.5t-134.5 23.5q-84 0 -164 -38t-141.5 -106.5t-98 -162.5t-36.5 -205t36.5 -205t98 -162.5t141.5 -106.5t164 -38 q76 0 139.5 23.5t111.5 63.5t80 94.5t48 115.5h174q-27 -92 -75 -171t-113.5 -137.5t-149.5 -93t-184 -38.5l-31 -72q61 -8 97 -44t36 -89t-46 -93t-138 -40q-20 0 -36.5 1t-29.5 3q-14 2 -26 6v82q10 -4 24 -6q10 -2 25.5 -3t32.5 -1q47 0 69.5 19.5t22.5 41.5 q0 23 -22.5 42.5t-69.5 19.5q-12 0 -21.5 -2t-15.5 -5q-8 -2 -15 -4l62 144q-109 12 -208 65.5t-176 139.5t-123 200.5t-46 249.5z" />
<glyph unicode="&#xc8;" horiz-adv-x="1105" d="M164 0v1290h819v-143h-655v-410h604v-143h-604v-451h676v-143h-840zM379 1690h153l123 -246h-102z" />
<glyph unicode="&#xc9;" horiz-adv-x="1105" d="M164 0v1290h819v-143h-655v-410h604v-143h-604v-451h676v-143h-840zM512 1444l123 246h153l-174 -246h-102z" />
<glyph unicode="&#xca;" horiz-adv-x="1105" d="M164 0v1290h819v-143h-655v-410h604v-143h-604v-451h676v-143h-840zM317 1434l185 245h143l184 -245h-153l-103 143l-102 -143h-154z" />
<glyph unicode="&#xcb;" horiz-adv-x="1105" d="M164 0v1290h819v-143h-655v-410h604v-143h-604v-451h676v-143h-840zM328 1556q0 39 26 66q27 27 66 27t65 -27q27 -27 27 -66t-27 -65q-26 -27 -65 -27t-66 27t-26 65zM635 1556q0 39 27 66t65 27q39 0 66 -27t26 -66q0 -39 -26 -65q-27 -27 -66 -27t-65 27 q-27 27 -27 65z" />
<glyph unicode="&#xcc;" horiz-adv-x="491" d="M10 1690h154l123 -246h-103zM164 0v1290h164v-1290h-164z" />
<glyph unicode="&#xcd;" horiz-adv-x="491" d="M164 0v1290h164v-1290h-164zM195 1444l122 246h154l-174 -246h-102z" />
<glyph unicode="&#xce;" horiz-adv-x="491" d="M-10 1434l184 245h143l185 -245h-154l-102 143l-103 -143h-153zM164 0v1290h164v-1290h-164z" />
<glyph unicode="&#xcf;" horiz-adv-x="491" d="M10 1556q0 39 27 66t65 27q39 0 66 -27t27 -66t-27 -65q-27 -27 -66 -27t-65 27q-27 27 -27 65zM164 0v1290h164v-1290h-164zM317 1556q0 39 27 66t66 27t65 -27q27 -27 27 -66t-27 -65q-26 -27 -65 -27t-66 27t-27 65z" />
<glyph unicode="&#xd0;" horiz-adv-x="1269" d="M31 563v144h184v583h358q127 0 239 -49t196 -135t132 -205t48 -256q0 -139 -48 -257t-132 -204t-196 -135t-239 -49h-358v563h-184zM379 143h194q88 0 170 38t144.5 105.5t99.5 159t37 199.5q0 106 -37 198.5t-99.5 160t-144 105.5t-170.5 38h-194v-440h246v-144h-246 v-420z" />
<glyph unicode="&#xd1;" horiz-adv-x="1280" d="M164 0v1290h143l645 -973v973h164v-1290h-143l-645 973v-973h-164zM358 1444q0 117 53 176q52 59 121 59q45 0 77 -20t56 -46t45 -46q21 -21 48 -21q31 0 56 31q26 31 26 92h92q0 -117 -52 -176t-122 -59q-47 0 -78 20t-54 46q-24 26 -45 46q-22 20 -49 21q-31 0 -56 -31 q-26 -31 -25 -92h-93z" />
<glyph unicode="&#xd2;" horiz-adv-x="1351" d="M72 645q0 137 50 257t133 209t192 139q110 50 229 50t228 -50q110 -50 193 -139t133 -209t50 -257q0 -139 -50 -258t-133 -208t-193 -139t-228 -50q-119 0 -229 50t-192 139q-83 89 -133 208t-50 258zM236 645q0 -111 36 -205q37 -94 99 -162q61 -69 141 -107t164 -38 t164 38t141 107t98 162q37 94 37 205t-37 205t-98 163t-141 106q-80 38 -164 38t-164 -38t-141 -106q-61 -69 -99 -163q-36 -94 -36 -205zM451 1690h153l123 -246h-102z" />
<glyph unicode="&#xd3;" horiz-adv-x="1351" d="M72 645q0 137 50 257t133 209t192 139q110 50 229 50t228 -50q110 -50 193 -139t133 -209t50 -257q0 -139 -50 -258t-133 -208t-193 -139t-228 -50q-119 0 -229 50t-192 139q-83 89 -133 208t-50 258zM236 645q0 -111 36 -205q37 -94 99 -162q61 -69 141 -107t164 -38 t164 38t141 107t98 162q37 94 37 205t-37 205t-98 163t-141 106q-80 38 -164 38t-164 -38t-141 -106q-61 -69 -99 -163q-36 -94 -36 -205zM625 1444l123 246h153l-174 -246h-102z" />
<glyph unicode="&#xd4;" horiz-adv-x="1351" d="M72 645q0 137 50 257t133 209t192 139q110 50 229 50t228 -50q110 -50 193 -139t133 -209t50 -257q0 -139 -50 -258t-133 -208t-193 -139t-228 -50q-119 0 -229 50t-192 139q-83 89 -133 208t-50 258zM236 645q0 -111 36 -205q37 -94 99 -162q61 -69 141 -107t164 -38 t164 38t141 107t98 162q37 94 37 205t-37 205t-98 163t-141 106q-80 38 -164 38t-164 -38t-141 -106q-61 -69 -99 -163q-36 -94 -36 -205zM420 1434l184 245h144l184 -245h-154l-102 143l-103 -143h-153z" />
<glyph unicode="&#xd5;" horiz-adv-x="1351" d="M72 645q0 137 50 257t133 209t192 139q110 50 229 50t228 -50q110 -50 193 -139t133 -209t50 -257q0 -139 -50 -258t-133 -208t-193 -139t-228 -50q-119 0 -229 50t-192 139q-83 89 -133 208t-50 258zM236 645q0 -111 36 -205q37 -94 99 -162q61 -69 141 -107t164 -38 t164 38t141 107t98 162q37 94 37 205t-37 205t-98 163t-141 106q-80 38 -164 38t-164 -38t-141 -106q-61 -69 -99 -163q-36 -94 -36 -205zM389 1444q0 117 52 176t122 59q45 0 77 -20t55 -46q24 -26 45 -46q21 -21 48 -21q31 0 57 31t25 92h93q0 -117 -53 -176 q-52 -59 -122 -59q-47 0 -77 20q-31 20 -55 46t-45 46q-22 20 -48 21q-31 0 -56 -31q-26 -31 -26 -92h-92z" />
<glyph unicode="&#xd6;" horiz-adv-x="1351" d="M72 645q0 137 50 257t133 209t192 139q110 50 229 50t228 -50q110 -50 193 -139t133 -209t50 -257q0 -139 -50 -258t-133 -208t-193 -139t-228 -50q-119 0 -229 50t-192 139q-83 89 -133 208t-50 258zM236 645q0 -111 36 -205q37 -94 99 -162q61 -69 141 -107t164 -38 t164 38t141 107t98 162q37 94 37 205t-37 205t-98 163t-141 106q-80 38 -164 38t-164 -38t-141 -106q-61 -69 -99 -163q-36 -94 -36 -205zM430 1556q0 39 27 66t65 27q39 0 66 -27t26 -66q0 -39 -26 -65q-27 -27 -66 -27t-65 27q-27 27 -27 65zM737 1556q0 39 27 66t65 27 q39 0 66 -27t27 -66t-27 -65q-27 -27 -66 -27t-65 27q-27 27 -27 65z" />
<glyph unicode="&#xd7;" d="M123 285l235 235l-235 236l92 92l236 -236l235 236l92 -92l-235 -236l235 -235l-92 -92l-235 235l-236 -235z" />
<glyph unicode="&#xd8;" horiz-adv-x="1372" d="M41 123l154 143q-33 45 -58 105q-23 49 -39 118.5t-16 155.5q0 137 50 257t133 209t192.5 139t228.5 50q96 0 170 -25.5t125 -55.5q59 -37 104 -82l144 133l102 -103l-153 -143q31 -47 55 -104q23 -51 40 -120t17 -155q0 -139 -50 -258t-133 -208t-192.5 -139t-228.5 -50 q-98 0 -171 25.5t-124 56.5q-59 37 -104 82l-144 -134zM246 645q0 -61 9 -110.5t21 -83.5q12 -41 31 -72l666 655q-31 35 -74 62q-37 23 -90 42t-123 19q-84 0 -164 -38t-141.5 -106.5t-98 -162.5t-36.5 -205zM399 256q31 -35 74 -61q37 -23 90 -42.5t123 -19.5q84 0 164 38 t141.5 106.5t98 163t36.5 204.5q0 61 -10 110.5t-20 84.5q-14 39 -31 71z" />
<glyph unicode="&#xd9;" horiz-adv-x="1228" d="M143 451v839h164v-839q0 -147 84 -233q84 -85 223 -85t224 85q84 85 84 233v839h163v-839q0 -100 -34 -185q-35 -84 -98 -145q-62 -61 -148 -96q-87 -35 -191 -35t-190 35t-149 96q-62 61 -97 145t-35 185zM410 1690h153l123 -246h-102z" />
<glyph unicode="&#xda;" horiz-adv-x="1228" d="M143 451v839h164v-839q0 -147 84 -233q84 -85 223 -85t224 85q84 85 84 233v839h163v-839q0 -100 -34 -185q-35 -84 -98 -145q-62 -61 -148 -96q-87 -35 -191 -35t-190 35t-149 96q-62 61 -97 145t-35 185zM543 1444l123 246h153l-174 -246h-102z" />
<glyph unicode="&#xdb;" horiz-adv-x="1228" d="M143 451v839h164v-839q0 -147 84 -233q84 -85 223 -85t224 85q84 85 84 233v839h163v-839q0 -100 -34 -185q-35 -84 -98 -145q-62 -61 -148 -96q-87 -35 -191 -35t-190 35t-149 96q-62 61 -97 145t-35 185zM348 1434l184 245h144l184 -245h-153l-103 143l-102 -143h-154z " />
<glyph unicode="&#xdc;" horiz-adv-x="1228" d="M143 451v839h164v-839q0 -147 84 -233q84 -85 223 -85t224 85q84 85 84 233v839h163v-839q0 -100 -34 -185q-35 -84 -98 -145q-62 -61 -148 -96q-87 -35 -191 -35t-190 35t-149 96q-62 61 -97 145t-35 185zM369 1556q0 39 26 66q27 27 66 27t65 -27q27 -27 27 -66 t-27 -65q-26 -27 -65 -27t-66 27t-26 65zM676 1556q0 39 26 66q27 27 66 27t66 -27t26 -66q0 -39 -26 -65q-27 -27 -66 -27t-66 27t-26 65z" />
<glyph unicode="&#xdd;" horiz-adv-x="1024" d="M20 1290h175l317 -614l317 614h175l-410 -788v-502h-164v502zM471 1444l123 246h154l-175 -246h-102z" />
<glyph unicode="&#xde;" horiz-adv-x="1198" d="M164 0v1290h164v-225h368q84 0 159 -32t130 -86t88 -124.5t33 -146.5q0 -78 -33 -147.5t-88 -124t-130 -86t-159 -31.5h-368v-287h-164zM328 430h368q49 0 94.5 19.5t79 53.5t53 79t19.5 94t-19.5 94t-53 79t-79 53.5t-94.5 19.5h-368v-492z" />
<glyph unicode="&#xdf;" horiz-adv-x="1044" d="M143 0v952q0 70 29 132.5t79 110.5t116.5 76.5t144.5 28.5q76 0 142.5 -27.5t113.5 -74.5t74.5 -113.5t27.5 -142.5q0 -70 -19.5 -118t-41.5 -79q-26 -36 -61 -59q59 -25 106 -68q41 -37 75 -100t34 -160q0 -78 -27 -143t-74 -112.5t-110.5 -75t-137.5 -27.5h-102v133 h102q84 0 139.5 62.5t55.5 162.5q0 109 -54.5 167.5t-140.5 58.5h-102v133q86 0 145.5 62.5t59.5 162.5t-59.5 162.5t-145.5 62.5q-43 0 -82 -17t-68.5 -47t-47 -69t-17.5 -82v-952h-154z" />
<glyph unicode="&#xe0;" horiz-adv-x="952" d="M92 266q0 66 27 120t92 94q66 40 179 62q114 22 286 21v51q0 70 -54 122t-141 52q-86 0 -127 -35q-41 -36 -57 -98h-164q8 57 35 108q27 50 71 88t104 59q60 22 138 22q76 0 141 -26t110 -68q46 -43 72 -101q26 -57 25 -123v-614h-112l-41 102q-31 -33 -70 -57 q-35 -23 -86 -39t-121 -16t-126 21q-56 22 -96 60t-62 88q-23 50 -23 107zM246 256q0 -47 42 -85q41 -38 111 -38q61 0 113 20q51 19 87 50t56 68q20 38 21 77v72q-139 0 -223 -11t-130 -33t-62 -51q-15 -30 -15 -69zM266 1319h154l123 -246h-103z" />
<glyph unicode="&#xe1;" horiz-adv-x="952" d="M92 266q0 66 27 120t92 94q66 40 179 62q114 22 286 21v51q0 70 -54 122t-141 52q-86 0 -127 -35q-41 -36 -57 -98h-164q8 57 35 108q27 50 71 88t104 59q60 22 138 22q76 0 141 -26t110 -68q46 -43 72 -101q26 -57 25 -123v-614h-112l-41 102q-31 -33 -70 -57 q-35 -23 -86 -39t-121 -16t-126 21q-56 22 -96 60t-62 88q-23 50 -23 107zM246 256q0 -47 42 -85q41 -38 111 -38q61 0 113 20q51 19 87 50t56 68q20 38 21 77v72q-139 0 -223 -11t-130 -33t-62 -51q-15 -30 -15 -69zM440 1073l123 246h154l-174 -246h-103z" />
<glyph unicode="&#xe2;" horiz-adv-x="952" d="M92 266q0 66 27 120t92 94q66 40 179 62q114 22 286 21v51q0 70 -54 122t-141 52q-86 0 -127 -35q-41 -36 -57 -98h-164q8 57 35 108q27 50 71 88t104 59q60 22 138 22q76 0 141 -26t110 -68q46 -43 72 -101q26 -57 25 -123v-614h-112l-41 102q-31 -33 -70 -57 q-35 -23 -86 -39t-121 -16t-126 21q-56 22 -96 60t-62 88q-23 50 -23 107zM236 1065l184 246h143l185 -246h-154l-102 143l-103 -143h-153zM246 256q0 -47 42 -85q41 -38 111 -38q61 0 113 20q51 19 87 50t56 68q20 38 21 77v72q-139 0 -223 -11t-130 -33t-62 -51 q-15 -30 -15 -69z" />
<glyph unicode="&#xe3;" horiz-adv-x="952" d="M92 266q0 66 27 120t92 94q66 40 179 62q114 22 286 21v51q0 70 -54 122t-141 52q-86 0 -127 -35q-41 -36 -57 -98h-164q8 57 35 108q27 50 71 88t104 59q60 22 138 22q76 0 141 -26t110 -68q46 -43 72 -101q26 -57 25 -123v-614h-112l-41 102q-31 -33 -70 -57 q-35 -23 -86 -39t-121 -16t-126 21q-56 22 -96 60t-62 88q-23 50 -23 107zM205 1055q0 117 52 176t122 59q45 0 77 -20t55 -46q24 -26 45 -46q21 -21 48 -21q31 0 56 31q26 31 26 92h92q0 -117 -52 -176t-122 -60q-47 0 -78 21q-31 20 -54 46q-24 26 -45 46q-22 20 -48 21 q-31 0 -56 -31q-26 -31 -26 -92h-92zM246 256q0 -47 42 -85q41 -38 111 -38q61 0 113 20q51 19 87 50t56 68q20 38 21 77v72q-139 0 -223 -11t-130 -33t-62 -51q-15 -30 -15 -69z" />
<glyph unicode="&#xe4;" horiz-adv-x="952" d="M92 266q0 66 27 120t92 94q66 40 179 62q114 22 286 21v51q0 70 -54 122t-141 52q-86 0 -127 -35q-41 -36 -57 -98h-164q8 57 35 108q27 50 71 88t104 59q60 22 138 22q76 0 141 -26t110 -68q46 -43 72 -101q26 -57 25 -123v-614h-112l-41 102q-31 -33 -70 -57 q-35 -23 -86 -39t-121 -16t-126 21q-56 22 -96 60t-62 88q-23 50 -23 107zM236 1188q0 39 26 65q27 27 66 27t65 -27q27 -27 27 -65q0 -39 -27 -66q-26 -26 -65 -26t-66 26q-27 27 -26 66zM246 256q0 -47 42 -85q41 -38 111 -38q61 0 113 20q51 19 87 50t56 68q20 38 21 77 v72q-139 0 -223 -11t-130 -33t-62 -51q-15 -30 -15 -69zM543 1188q0 39 26 65q27 27 66 27t65 -27q27 -27 27 -65q0 -39 -27 -66q-26 -26 -65 -26t-66 26q-27 27 -26 66z" />
<glyph unicode="&#xe5;" horiz-adv-x="952" d="M92 266q0 66 27 120t92 94q66 40 179 62q114 22 286 21v51q0 70 -54 122t-141 52q-86 0 -127 -35q-41 -36 -57 -98h-164q8 57 35 108q27 50 71 88t104 59q60 22 138 22q76 0 141 -26t110 -68q46 -43 72 -101q26 -57 25 -123v-614h-112l-41 102q-31 -33 -70 -57 q-35 -23 -86 -39t-121 -16t-126 21q-56 22 -96 60t-62 88q-23 50 -23 107zM246 256q0 -47 42 -85q41 -38 111 -38q61 0 113 20q51 19 87 50t56 68q20 38 21 77v72q-139 0 -223 -11t-130 -33t-62 -51q-15 -30 -15 -69zM328 1208q0 70 47 117t117 47t116 -47q47 -47 47 -117 t-47 -116q-47 -47 -116 -48q-70 0 -117 48q-47 47 -47 116zM420 1208q0 -31 20 -51t52 -20q31 0 51 20t20 51t-20 52q-20 20 -51 20t-52 -20q-20 -21 -20 -52z" />
<glyph unicode="&#xe6;" horiz-adv-x="1515" d="M92 246q0 66 25.5 120t90 94t173 61.5t274.5 21.5v71q0 70 -53 122t-131 52t-118 -35.5t-56 -97.5h-164q8 57 35 107.5t70 88.5t101 59.5t132 21.5q72 0 127 -22.5t90 -49.5q41 -33 70 -72q33 39 76 72q37 27 92 49.5t129 22.5q80 0 151.5 -32t123.5 -90t83 -141t31 -188 q0 -20 -2 -34.5t-4 -24.5q-2 -12 -4 -23h-615q4 -57 25.5 -106t55.5 -84t76 -55.5t89 -20.5q78 0 125 37t70 76h163q-18 -49 -51 -96.5t-78 -82t-102 -56t-127 -21.5q-82 0 -140.5 28.5t-99.5 63.5q-47 39 -77 92q-35 -53 -86 -92q-43 -35 -109 -63.5t-154 -28.5 q-70 0 -126 21.5t-96 56t-62.5 82t-22.5 96.5zM246 246q0 -39 41.5 -76t111.5 -37q57 0 104.5 17.5t81 47t52 68.5t18.5 82v51q-131 0 -210.5 -11t-124 -30.5t-59.5 -48t-15 -63.5zM819 532h461q-8 117 -73.5 186.5t-151.5 69.5q-43 0 -83 -19t-73 -54t-54.5 -82t-25.5 -101 z" />
<glyph unicode="&#xe7;" horiz-adv-x="962" d="M72 461q0 104 33.5 190t92 148.5t137.5 97.5t167 35q76 0 142.5 -26.5t118.5 -73t87 -107.5t51 -131h-153q-12 39 -35 73.5t-54.5 61.5t-71.5 43t-85 16q-53 0 -103.5 -23.5t-89.5 -66.5t-61.5 -103t-22.5 -134t22.5 -134.5t61.5 -103.5t89.5 -66.5t103.5 -23.5 q45 0 85 16.5t71.5 43t54 61.5t35.5 74h153q-16 -70 -49 -129.5t-80 -104.5t-105.5 -72.5t-123.5 -31.5l-41 -72q61 -8 97 -44t36 -89t-46 -93t-138 -40q-20 0 -37 1t-29 3q-14 2 -27 6v82q10 -4 25 -6q10 -2 25.5 -3t31.5 -1q47 0 69.5 19.5t22.5 41.5q0 23 -22.5 42.5 t-69.5 19.5q-12 0 -21 -2t-16 -5q-8 -2 -14 -4l62 144q-78 12 -146.5 49t-120 97.5t-82 142t-30.5 182.5z" />
<glyph unicode="&#xe8;" horiz-adv-x="972" d="M72 461q0 104 33 190q34 86 92 149q57 62 134 97t161 35t158 -33q75 -33 130 -93t88 -146q33 -85 33 -189q0 -20 -2 -35q-2 -14 -4 -24q-2 -12 -4 -23h-655q4 -49 27 -96q24 -47 60 -82t83 -56q47 -22 96 -22q43 0 77 12t61 29q28 16 46 36q18 19 31 36h164 q-23 -49 -58 -96t-82 -82t-106 -57t-133 -21q-88 0 -167 35t-137 97t-93 148q-34 86 -33 191zM236 522h501q-16 123 -85 195q-68 71 -160 71q-47 0 -90 -20q-42 -20 -76 -55q-35 -35 -59 -84t-31 -107zM266 1319h154l123 -246h-103z" />
<glyph unicode="&#xe9;" horiz-adv-x="972" d="M72 461q0 104 33 190q34 86 92 149q57 62 134 97t161 35t158 -33q75 -33 130 -93t88 -146q33 -85 33 -189q0 -20 -2 -35q-2 -14 -4 -24q-2 -12 -4 -23h-655q4 -49 27 -96q24 -47 60 -82t83 -56q47 -22 96 -22q43 0 77 12t61 29q28 16 46 36q18 19 31 36h164 q-23 -49 -58 -96t-82 -82t-106 -57t-133 -21q-88 0 -167 35t-137 97t-93 148q-34 86 -33 191zM236 522h501q-16 123 -85 195q-68 71 -160 71q-47 0 -90 -20q-42 -20 -76 -55q-35 -35 -59 -84t-31 -107zM440 1073l123 246h154l-174 -246h-103z" />
<glyph unicode="&#xea;" horiz-adv-x="972" d="M72 461q0 104 33 190q34 86 92 149q57 62 134 97t161 35t158 -33q75 -33 130 -93t88 -146q33 -85 33 -189q0 -20 -2 -35q-2 -14 -4 -24q-2 -12 -4 -23h-655q4 -49 27 -96q24 -47 60 -82t83 -56q47 -22 96 -22q43 0 77 12t61 29q28 16 46 36q18 19 31 36h164 q-23 -49 -58 -96t-82 -82t-106 -57t-133 -21q-88 0 -167 35t-137 97t-93 148q-34 86 -33 191zM236 522h501q-16 123 -85 195q-68 71 -160 71q-47 0 -90 -20q-42 -20 -76 -55q-35 -35 -59 -84t-31 -107zM236 1065l184 246h143l185 -246h-154l-102 143l-103 -143h-153z" />
<glyph unicode="&#xeb;" horiz-adv-x="972" d="M72 461q0 104 33 190q34 86 92 149q57 62 134 97t161 35t158 -33q75 -33 130 -93t88 -146q33 -85 33 -189q0 -20 -2 -35q-2 -14 -4 -24q-2 -12 -4 -23h-655q4 -49 27 -96q24 -47 60 -82t83 -56q47 -22 96 -22q43 0 77 12t61 29q28 16 46 36q18 19 31 36h164 q-23 -49 -58 -96t-82 -82t-106 -57t-133 -21q-88 0 -167 35t-137 97t-93 148q-34 86 -33 191zM236 522h501q-16 123 -85 195q-68 71 -160 71q-47 0 -90 -20q-42 -20 -76 -55q-35 -35 -59 -84t-31 -107zM246 1188q0 39 26 65q27 27 66 27t65 -27q27 -27 27 -65q0 -39 -27 -66 q-26 -26 -65 -26t-66 26q-27 27 -26 66zM553 1188q0 39 27 65q27 27 65 27q39 0 66 -27t26 -65q0 -39 -26 -66q-27 -26 -66 -26t-65 26q-27 27 -27 66z" />
<glyph unicode="&#xec;" horiz-adv-x="419" d="M-10 1311h153l123 -246h-102zM133 0v922h154v-922h-154z" />
<glyph unicode="&#xed;" horiz-adv-x="419" d="M133 0v922h154v-922h-154zM154 1065l122 246h154l-174 -246h-102z" />
<glyph unicode="&#xee;" horiz-adv-x="419" d="M-51 1065l184 246h143l185 -246h-154l-102 143l-103 -143h-153zM133 0v922h154v-922h-154z" />
<glyph unicode="&#xef;" horiz-adv-x="419" d="M-41 1188q0 39 27 65q27 27 65 27q39 0 66 -27t26 -65q0 -39 -26 -66q-27 -26 -66 -26t-65 26q-27 27 -27 66zM133 0v922h154v-922h-154zM266 1188q0 39 27 65q27 27 65 27q39 0 66 -27t27 -65q0 -39 -27 -66q-27 -26 -66 -26t-65 26q-27 27 -27 66z" />
<glyph unicode="&#xf0;" horiz-adv-x="1044" d="M72 440q0 96 33.5 178t91 142.5t134.5 95.5t161 35q78 0 133 -19.5t92 -42.5q43 -27 71 -61q-16 80 -47.5 144.5t-64.5 109.5q-37 53 -82 94l-184 -123l-72 103l154 102q-35 23 -72 40t-70 30q-37 12 -74 22l52 123q49 -16 100 -39q41 -18 89 -41.5t87 -52.5l164 113 l72 -103l-144 -92q72 -68 127 -166q47 -86 88 -214t41 -306q0 -123 -32.5 -220t-91 -164t-139.5 -102.5t-177 -35.5q-92 0 -172 34.5t-140.5 95t-94 142.5t-33.5 178zM225 440q0 -66 23.5 -122t62.5 -97t91.5 -64.5t109.5 -23.5t109.5 23.5t91.5 64.5t62.5 97.5t23.5 121.5 q0 66 -23.5 122t-62.5 97t-91.5 65t-109.5 24t-109.5 -24t-91.5 -65t-62.5 -97t-23.5 -122z" />
<glyph unicode="&#xf1;" horiz-adv-x="1034" d="M133 0v922h113l41 -103q29 31 67 55q35 23 84 40q49 18 115 18q74 0 138 -30q65 -30 114 -82t78 -126t28 -162v-532h-153v532q0 57 -19 105q-18 47 -49 81t-72 52t-86 18q-109 0 -177 -69q-69 -70 -68 -187v-532h-154zM246 1075q0 117 52 176t122 60q45 0 77 -21 q32 -20 55 -46q24 -26 45 -46t48 -20q31 0 56 30q26 31 26 92h92q0 -117 -52 -176t-122 -59q-47 0 -78 20t-54 47q-24 26 -45 46q-22 20 -48 20q-31 0 -56 -31q-26 -31 -26 -92h-92z" />
<glyph unicode="&#xf2;" horiz-adv-x="1003" d="M72 461q0 104 33 190q34 86 93 149q58 62 137 97t167 35t167 -35t137 -97t92 -149q34 -86 34 -190t-34 -191q-34 -86 -92 -148t-137 -97t-167 -35t-167 35t-137 97t-93 148q-34 86 -33 191zM225 461q0 -74 23 -134t61 -104q39 -43 89 -66q50 -24 104 -24q53 0 103 24 t88 66q38 43 62 104q24 60 23 134q0 74 -23 134q-24 60 -62 103t-88 67t-103 23q-53 0 -104 -23q-50 -24 -89 -67t-61 -103q-23 -60 -23 -134zM287 1311h153l123 -246h-102z" />
<glyph unicode="&#xf3;" horiz-adv-x="1003" d="M72 461q0 104 33 190q34 86 93 149q58 62 137 97t167 35t167 -35t137 -97t92 -149q34 -86 34 -190t-34 -191q-34 -86 -92 -148t-137 -97t-167 -35t-167 35t-137 97t-93 148q-34 86 -33 191zM225 461q0 -74 23 -134t61 -104q39 -43 89 -66q50 -24 104 -24q53 0 103 24 t88 66q38 43 62 104q24 60 23 134q0 74 -23 134q-24 60 -62 103t-88 67t-103 23q-53 0 -104 -23q-50 -24 -89 -67t-61 -103q-23 -60 -23 -134zM461 1065l123 246h153l-174 -246h-102z" />
<glyph unicode="&#xf4;" horiz-adv-x="1003" d="M72 461q0 104 33 190q34 86 93 149q58 62 137 97t167 35t167 -35t137 -97t92 -149q34 -86 34 -190t-34 -191q-34 -86 -92 -148t-137 -97t-167 -35t-167 35t-137 97t-93 148q-34 86 -33 191zM225 461q0 -74 23 -134t61 -104q39 -43 89 -66q50 -24 104 -24q53 0 103 24 t88 66q38 43 62 104q24 60 23 134q0 74 -23 134q-24 60 -62 103t-88 67t-103 23q-53 0 -104 -23q-50 -24 -89 -67t-61 -103q-23 -60 -23 -134zM246 1065l184 246h143l185 -246h-154l-102 143l-103 -143h-153z" />
<glyph unicode="&#xf5;" horiz-adv-x="1003" d="M72 461q0 104 33 190q34 86 93 149q58 62 137 97t167 35t167 -35t137 -97t92 -149q34 -86 34 -190t-34 -191q-34 -86 -92 -148t-137 -97t-167 -35t-167 35t-137 97t-93 148q-34 86 -33 191zM215 1055q0 117 52 176t122 59q45 0 77 -20t55 -46q24 -26 45 -46 q21 -21 48 -21q31 0 57 31t25 92h92q0 -117 -52 -176t-122 -60q-47 0 -77 21q-31 20 -55 46t-45 46q-22 20 -48 21q-31 0 -56 -31q-26 -31 -26 -92h-92zM225 461q0 -74 23 -134t61 -104q39 -43 89 -66q50 -24 104 -24q53 0 103 24t88 66q38 43 62 104q24 60 23 134 q0 74 -23 134q-24 60 -62 103t-88 67t-103 23q-53 0 -104 -23q-50 -24 -89 -67t-61 -103q-23 -60 -23 -134z" />
<glyph unicode="&#xf6;" horiz-adv-x="1003" d="M72 461q0 104 33 190q34 86 93 149q58 62 137 97t167 35t167 -35t137 -97t92 -149q34 -86 34 -190t-34 -191q-34 -86 -92 -148t-137 -97t-167 -35t-167 35t-137 97t-93 148q-34 86 -33 191zM225 461q0 -74 23 -134t61 -104q39 -43 89 -66q50 -24 104 -24q53 0 103 24 t88 66q38 43 62 104q24 60 23 134q0 74 -23 134q-24 60 -62 103t-88 67t-103 23q-53 0 -104 -23q-50 -24 -89 -67t-61 -103q-23 -60 -23 -134zM256 1188q0 39 27 65q27 27 65 27q39 0 66 -27t26 -65q0 -39 -26 -66q-27 -26 -66 -26t-65 26q-27 27 -27 66zM563 1188 q0 39 27 65q27 27 65 27q39 0 66 -27t27 -65q0 -39 -27 -66q-27 -26 -66 -26t-65 26q-27 27 -27 66z" />
<glyph unicode="&#xf7;" d="M72 461v133h757v-133h-757zM348 195q0 47 28 74.5t75 27.5t74.5 -27.5t27.5 -74.5t-27.5 -75t-74.5 -28t-75 27.5t-28 75.5zM348 860q0 47 27.5 75t75.5 28q47 0 74.5 -28t27.5 -75t-27.5 -74.5t-74.5 -27.5t-75 27.5t-28 74.5z" />
<glyph unicode="&#xf8;" horiz-adv-x="1044" d="M41 102l113 103q-18 31 -31 69q-12 35 -21.5 81t-9.5 106q0 104 34 190t92 148.5t137 97.5t167 35q70 0 123 -17.5t90 -40.5q43 -25 74 -55l102 103l93 -103l-113 -102q16 -31 31 -70q10 -35 20 -82t10 -104q0 -104 -33.5 -190.5t-92 -149t-137.5 -97t-167 -34.5 q-70 0 -123 16.5t-90 38.5q-43 25 -73 57l-103 -102zM246 461q0 -29 4 -53.5t10 -45.5q8 -23 16 -45l420 400q-23 18 -49 35q-23 14 -54.5 25t-70.5 11q-53 0 -103 -23.5t-89 -66.5t-61.5 -103t-22.5 -134zM348 205q23 -20 49 -37q23 -14 54.5 -24.5t70.5 -10.5 q53 0 103.5 23.5t88.5 66.5t61.5 103.5t23.5 134.5q0 27 -5.5 52.5t-11.5 45.5q-8 23 -14 45z" />
<glyph unicode="&#xf9;" horiz-adv-x="1034" d="M133 389v533h154v-533q0 -57 17 -104t48 -81t72 -52t88 -19q109 0 177 70q69 70 69 186v533h153v-922h-112l-41 102q-29 -33 -68 -57q-35 -23 -84 -39q-48 -16 -114 -16q-74 0 -139 29q-65 30 -113 82q-49 52 -78 126t-29 162zM328 1319h153l123 -246h-102z" />
<glyph unicode="&#xfa;" horiz-adv-x="1034" d="M133 389v533h154v-533q0 -57 17 -104t48 -81t72 -52t88 -19q109 0 177 70q69 70 69 186v533h153v-922h-112l-41 102q-29 -33 -68 -57q-35 -23 -84 -39q-48 -16 -114 -16q-74 0 -139 29q-65 30 -113 82q-49 52 -78 126t-29 162zM461 1075l123 246h153l-174 -246h-102z" />
<glyph unicode="&#xfb;" horiz-adv-x="1034" d="M133 389v533h154v-533q0 -57 17 -104t48 -81t72 -52t88 -19q109 0 177 70q69 70 69 186v533h153v-922h-112l-41 102q-29 -33 -68 -57q-35 -23 -84 -39q-48 -16 -114 -16q-74 0 -139 29q-65 30 -113 82q-49 52 -78 126t-29 162zM256 1065l184 246h144l184 -246h-154 l-102 143l-102 -143h-154z" />
<glyph unicode="&#xfc;" horiz-adv-x="1034" d="M133 389v533h154v-533q0 -57 17 -104t48 -81t72 -52t88 -19q109 0 177 70q69 70 69 186v533h153v-922h-112l-41 102q-29 -33 -68 -57q-35 -23 -84 -39q-48 -16 -114 -16q-74 0 -139 29q-65 30 -113 82q-49 52 -78 126t-29 162zM266 1188q0 39 27 65q27 27 65 27 q39 0 66 -27t27 -65q0 -39 -27 -66q-27 -26 -66 -26t-65 26q-27 27 -27 66zM573 1188q0 39 27 65q27 27 66 27t65 -27q27 -27 27 -65q0 -39 -27 -66q-26 -26 -65 -26t-66 26q-27 27 -27 66z" />
<glyph unicode="&#xfd;" horiz-adv-x="921" d="M20 922h164l277 -707l276 707h164l-399 -1004q-55 -139 -116 -198q-60 -58 -150 -58q-12 0 -23 1q-10 1 -20 3t-19 6v123q70 0 105 31t59 92l41 102zM410 1073l122 246h154l-174 -246h-102z" />
<glyph unicode="&#xfe;" horiz-adv-x="1085" d="M143 -328v1618h154v-481q29 35 70 61q35 23 86 42.5t120 19.5q88 0 167 -35t137.5 -97.5t92.5 -148.5t34 -190t-34 -190.5t-92.5 -149t-137 -97t-167.5 -34.5q-70 0 -121 19.5t-85 41.5q-41 27 -70 62v-441h-154zM276 461q0 -74 24 -134.5t62.5 -103.5t91 -66.5 t109.5 -23.5t109.5 23.5t91.5 66.5t62.5 103.5t23.5 134.5t-23.5 134t-62.5 103t-91 66.5t-110 23.5q-57 0 -109.5 -23.5t-91 -66.5t-62.5 -103t-24 -134z" />
<glyph unicode="&#xff;" horiz-adv-x="921" d="M20 922h164l277 -707l276 707h164l-399 -1004q-55 -139 -116 -198q-60 -58 -150 -58q-12 0 -23 1q-10 1 -20 3t-19 6v123q70 0 105 31t59 92l41 102zM215 1188q0 39 27 65q27 27 65 27q39 0 66 -27t26 -65q0 -39 -26 -66q-27 -26 -66 -26t-65 26q-27 27 -27 66zM522 1188 q0 39 27 65q27 27 65 27q39 0 66 -27t27 -65q0 -39 -27 -66q-27 -26 -66 -26t-65 26q-27 27 -27 66z" />
<glyph unicode="&#x152;" horiz-adv-x="1720" d="M82 645q0 135 50 252t133 205t192.5 138t228.5 50h901v-143h-583v-410h532v-143h-532v-451h604v-143h-922q-121 0 -229.5 50t-192.5 137t-133 205t-49 253zM246 645q0 -109 36.5 -200t98 -158.5t141.5 -105.5t164 -38h154v1004h-154q-84 0 -164 -38t-141.5 -105.5 t-98 -160t-36.5 -198.5z" />
<glyph unicode="&#x153;" horiz-adv-x="1617" d="M72 461q0 104 33.5 190t91 148.5t134.5 97.5t161 35q86 0 148 -31t105 -67q49 -43 84 -97q33 53 80 97q41 37 101.5 67.5t146.5 30.5q80 0 151.5 -32t124 -91t83 -145t30.5 -193q0 -20 -2 -34.5t-4 -24.5q-2 -12 -4 -23h-614q4 -53 25.5 -100t55 -82t75.5 -54.5t89 -19.5 q78 0 125 37t70 76h164q-18 -49 -51 -96.5t-78 -82t-102.5 -56t-127.5 -21.5q-86 0 -149.5 29.5t-104.5 66.5q-51 43 -84 98q-35 -55 -84 -98q-43 -37 -105 -66.5t-148 -29.5q-84 0 -161 34.5t-134.5 97t-91 148.5t-33.5 191zM225 461q0 -74 22.5 -134.5t60.5 -103.5 t86 -66.5t98 -23.5q49 0 97 23.5t86 66.5t60.5 103.5t22.5 134.5t-22.5 134t-60.5 103t-86 66.5t-97 23.5t-97.5 -23.5t-86.5 -66.5t-60.5 -103t-22.5 -134zM922 522h460q-8 123 -73.5 194.5t-151.5 71.5q-43 0 -83 -20t-72.5 -55t-54 -84t-25.5 -107z" />
<glyph unicode="&#x178;" horiz-adv-x="1024" d="M20 1290h175l317 -614l317 614h175l-410 -788v-502h-164v502zM266 1556q0 39 27 66t65 27q39 0 66 -27t27 -66t-27 -65q-27 -27 -66 -27t-65 27q-27 27 -27 65zM573 1556q0 39 27 66t66 27t65 -27q27 -27 27 -66t-27 -65q-26 -27 -65 -27t-66 27t-27 65z" />
<glyph unicode="&#x2c6;" horiz-adv-x="634" d="M61 1034l185 246h143l184 -246h-153l-103 144l-102 -144h-154z" />
<glyph unicode="&#x2dc;" horiz-adv-x="696" d="M61 1055q0 117 52.5 176t122.5 59q45 0 76.5 -20.5t55 -46t45 -46t48.5 -20.5q31 0 56.5 31t25.5 92h92q0 -117 -52.5 -176.5t-121.5 -59.5q-47 0 -78 20.5t-54.5 46.5t-45 46.5t-47.5 20.5q-31 0 -56.5 -31t-25.5 -92h-93z" />
<glyph unicode="&#x2000;" horiz-adv-x="865" />
<glyph unicode="&#x2001;" horiz-adv-x="1731" />
<glyph unicode="&#x2002;" horiz-adv-x="865" />
<glyph unicode="&#x2003;" horiz-adv-x="1731" />
<glyph unicode="&#x2004;" horiz-adv-x="577" />
<glyph unicode="&#x2005;" horiz-adv-x="432" />
<glyph unicode="&#x2006;" horiz-adv-x="288" />
<glyph unicode="&#x2007;" horiz-adv-x="288" />
<glyph unicode="&#x2008;" horiz-adv-x="216" />
<glyph unicode="&#x2009;" horiz-adv-x="346" />
<glyph unicode="&#x200a;" horiz-adv-x="96" />
<glyph unicode="&#x2010;" horiz-adv-x="706" d="M72 461v133h563v-133h-563z" />
<glyph unicode="&#x2011;" horiz-adv-x="706" d="M72 461v133h563v-133h-563z" />
<glyph unicode="&#x2012;" horiz-adv-x="706" d="M72 461v133h563v-133h-563z" />
<glyph unicode="&#x2013;" horiz-adv-x="952" d="M72 451v143h809v-143h-809z" />
<glyph unicode="&#x2014;" horiz-adv-x="1454" d="M72 451v143h1310v-143h-1310z" />
<glyph unicode="&#x2018;" horiz-adv-x="348" d="M72 1014q0 72 25.5 127t56.5 90q37 41 82 69l20 -30q-20 -20 -37 -43q-14 -20 -27.5 -48t-17.5 -63q47 0 74.5 -27.5t27.5 -74.5t-27.5 -75t-74.5 -28t-74.5 28t-27.5 75z" />
<glyph unicode="&#x2019;" horiz-adv-x="348" d="M72 1198q0 47 27.5 74.5t74.5 27.5t74.5 -27.5t27.5 -74.5q0 -74 -25.5 -128t-55.5 -89q-37 -41 -82 -70l-21 31q20 20 37 43q14 20 27.5 48t17.5 63q-47 0 -74.5 27.5t-27.5 74.5z" />
<glyph unicode="&#x201a;" horiz-adv-x="348" d="M72 92q0 47 27.5 75t74.5 28t74.5 -28t27.5 -75q0 -74 -25.5 -128t-55.5 -89q-37 -41 -82 -70l-21 31q20 20 37 43q14 20 27.5 48t17.5 63q-47 0 -74.5 27.5t-27.5 74.5z" />
<glyph unicode="&#x201c;" horiz-adv-x="624" d="M72 1014q0 72 25.5 127t56.5 90q37 41 82 69l20 -30q-20 -20 -37 -43q-14 -20 -27.5 -48t-17.5 -63q47 0 74.5 -27.5t27.5 -74.5t-27.5 -75t-74.5 -28t-74.5 28t-27.5 75zM348 1014q0 72 25.5 127t56.5 90q37 41 82 69l20 -30q-20 -20 -36 -43q-14 -20 -27.5 -48 t-17.5 -63q47 0 74.5 -27.5t27.5 -74.5t-27.5 -75t-74.5 -28t-75 28t-28 75z" />
<glyph unicode="&#x201d;" horiz-adv-x="624" d="M72 1198q0 47 27.5 74.5t74.5 27.5t74.5 -27.5t27.5 -74.5q0 -74 -25.5 -128t-55.5 -89q-37 -41 -82 -70l-21 31q20 20 37 43q14 20 27.5 48t17.5 63q-47 0 -74.5 27.5t-27.5 74.5zM348 1198q0 47 27.5 74.5t75.5 27.5q47 0 74.5 -27.5t27.5 -74.5q0 -74 -25.5 -128 t-56.5 -89q-37 -41 -82 -70l-20 31q20 20 37 43q14 20 27.5 48t17.5 63q-47 0 -75 27.5t-28 74.5z" />
<glyph unicode="&#x201e;" horiz-adv-x="634" d="M72 92q0 47 27.5 75t74.5 28t74.5 -28t27.5 -75q0 -74 -25.5 -128t-55.5 -89q-37 -41 -82 -70l-21 31q20 20 37 43q14 20 27.5 48t17.5 63q-47 0 -74.5 27.5t-27.5 74.5zM358 92q0 47 28 75t75 28t74.5 -28t27.5 -75q0 -74 -25.5 -128t-56.5 -89q-37 -41 -82 -70l-20 31 q20 20 37 43q14 20 27.5 48t17.5 63q-47 0 -75 27.5t-28 74.5z" />
<glyph unicode="&#x2022;" horiz-adv-x="778" d="M205 553q0 78 53 131t131 53t131 -53t53 -131t-53 -131t-131 -53t-131 53t-53 131z" />
<glyph unicode="&#x2026;" horiz-adv-x="1126" d="M72 92q0 47 27.5 75t74.5 28t74.5 -28t27.5 -75t-27.5 -74.5t-74.5 -27.5t-74.5 27.5t-27.5 74.5zM461 92q0 47 27.5 75t74.5 28t75 -28t28 -75t-28 -74.5t-75 -27.5t-74.5 27.5t-27.5 74.5zM850 92q0 47 27.5 75t74.5 28t75 -28t28 -75t-28 -74.5t-75 -27.5t-74.5 27.5 t-27.5 74.5z" />
<glyph unicode="&#x202f;" horiz-adv-x="346" />
<glyph unicode="&#x2039;" horiz-adv-x="522" d="M72 461l225 327h154l-226 -327l226 -328h-154z" />
<glyph unicode="&#x203a;" horiz-adv-x="522" d="M72 133l225 328l-225 327h153l226 -327l-226 -328h-153z" />
<glyph unicode="&#x205f;" horiz-adv-x="432" />
<glyph unicode="&#x20ac;" horiz-adv-x="1351" d="M41 420v133h154q-2 10 -2 25q-2 10 -2.5 25t-0.5 32v28.5t3 22.5q0 10 2 21h-154v133h170q29 100 79 184t119.5 145.5t156.5 96t192 34.5q104 0 191 -33.5t156 -94t116 -140.5t69 -172h-174q-12 61 -42 115.5t-76 94.5t-106.5 63.5t-133.5 23.5q-139 0 -235.5 -89 t-139.5 -228h385v-133h-410q-2 -10 -2 -21q-2 -10 -2 -22.5v-28.5v-31.5t2 -25.5q0 -14 2 -25h410v-133h-373q16 -57 49 -109.5t80 -91.5t105.5 -62.5t128.5 -23.5q74 0 134 23.5t106 63.5t76 94.5t42 115.5h174q-23 -92 -69.5 -172t-115.5 -140.5t-156 -94t-191 -33.5 t-191.5 33.5t-156 92t-116.5 137.5t-73 167h-180z" />
<glyph unicode="&#x2122;" horiz-adv-x="1085" d="M20 1198v92h410v-92h-154v-430h-102v430h-154zM512 768v522h82l164 -235l164 235h82v-522h-103v328l-113 -164h-61l-113 164v-328h-102z" />
<glyph unicode="&#x25fc;" horiz-adv-x="920" d="M0 0v920h920v-920h-920z" />
</font>
</defs>
</svg>
