<?xml version="1.0" encoding="utf-8"?>
<!-- Generator: Adobe Illustrator 16.0.0, SVG Export Plug-In . SVG Version: 6.00 Build 0)  -->
<!DOCTYPE svg PUBLIC "-//W3C//DTD SVG 1.1//EN" "http://www.w3.org/Graphics/SVG/1.1/DTD/svg11.dtd">
<svg version="1.1" id="Layer_1" xmlns="http://www.w3.org/2000/svg" xmlns:xlink="http://www.w3.org/1999/xlink" x="0px" y="0px"
	 width="160px" height="30px" viewBox="0 0 160 30" enable-background="new 0 0 160 30" xml:space="preserve">
<g>
	<g>
		<g>
			<g>
				<g>
					<path fill="#FFFFFF" d="M19.802,28.371V13.763l-6.184,14.608h-2.912L4.578,13.817v14.554H1.304V8.527h4.477l6.438,15.141
						l6.354-15.141h4.56v19.844H19.802z"/>
					<path fill="#FFFFFF" d="M38.412,24.48c-0.727,2.377-2.881,4.309-6.155,4.309c-3.695,0-6.969-2.686-6.969-7.303
						c0-4.312,3.19-7.166,6.631-7.166c4.199,0,6.662,2.771,6.662,7.082c0,0.531-0.057,0.979-0.086,1.035h-9.961
						c0.084,2.069,1.707,3.555,3.722,3.555c1.959,0,2.965-1.035,3.415-2.379L38.412,24.48z M35.309,20.059
						c-0.057-1.594-1.121-3.022-3.357-3.022c-2.045,0-3.221,1.567-3.332,3.022H35.309z"/>
					<path fill="#FFFFFF" d="M53.998,25.879c0,1.232,0.113,2.268,0.141,2.492h-3.105c-0.057-0.309-0.139-1.203-0.139-1.764
						c-0.645,1.146-2.072,2.098-4.004,2.098c-3.918,0-6.549-3.076-6.549-7.191c0-3.918,2.659-7.136,6.495-7.136
						c2.377,0,3.58,1.091,4,1.958V8.108h3.162L53.998,25.879L53.998,25.879z M47.254,25.852c2.127,0,3.611-1.764,3.611-4.365
						c0-2.604-1.457-4.227-3.584-4.227c-2.127,0-3.693,1.652-3.693,4.254C43.588,24.116,45.043,25.852,47.254,25.852z"/>
					<path fill="#FFFFFF" d="M58.588,7.83c1.176,0,2.127,0.951,2.127,2.126s-0.951,2.098-2.127,2.098c-1.148,0-2.1-0.923-2.1-2.098
						S57.439,7.83,58.588,7.83z M56.994,28.371V14.742h3.217v13.629H56.994z"/>
					<path fill="#FFFFFF" d="M67.008,20.564l3.5-0.535c0.786-0.111,1.008-0.504,1.008-0.979c0-1.147-0.783-2.069-2.578-2.069
						c-1.705,0-2.656,1.09-2.795,2.463l-2.967-0.672c0.25-2.353,2.377-4.451,5.734-4.451c4.199,0,5.795,2.378,5.795,5.093v6.773
						c0,1.231,0.141,2.043,0.17,2.184h-3.023c-0.029-0.086-0.141-0.645-0.141-1.736c-0.643,1.035-1.986,2.154-4.199,2.154
						c-2.854,0-4.62-1.959-4.62-4.113C62.893,22.242,64.686,20.898,67.008,20.564z M71.516,22.717v-0.615l-3.555,0.531
						c-1.008,0.17-1.818,0.729-1.818,1.848c0,0.924,0.699,1.763,1.986,1.763C69.948,26.242,71.516,25.375,71.516,22.717z"/>
					<path fill="#FFFFFF" d="M91.059,28.371v-8.48H81.74v8.48h-3.359V8.527h3.359v8.202h9.318V8.527h3.387v19.844H91.059z"/>
					<path fill="#FFFFFF" d="M100.938,20.564l3.5-0.535c0.781-0.111,1.008-0.504,1.008-0.979c0-1.147-0.786-2.069-2.575-2.069
						c-1.707,0-2.658,1.09-2.8,2.463l-2.967-0.672c0.254-2.353,2.379-4.451,5.738-4.451c4.197,0,5.791,2.378,5.791,5.093v6.773
						c0,1.231,0.141,2.043,0.172,2.184h-3.025c-0.028-0.086-0.139-0.645-0.139-1.736c-0.645,1.035-1.988,2.154-4.199,2.154
						c-2.854,0-4.616-1.959-4.616-4.113C96.824,22.242,98.615,20.898,100.938,20.564z M105.445,22.717v-0.615l-3.557,0.531
						c-1.007,0.17-1.818,0.729-1.818,1.848c0,0.924,0.699,1.763,1.986,1.763C103.877,26.242,105.445,25.375,105.445,22.717z"/>
					<path fill="#FFFFFF" d="M115.745,28.764c-3.249,0-5.151-2.408-5.151-5.43v-8.592h3.246v8.004c0,1.678,0.783,3.105,2.743,3.105
						c1.875,0,2.854-1.261,2.854-3.05v-8.061h3.248v11.137c0,1.121,0.084,1.988,0.141,2.492h-3.107
						c-0.055-0.31-0.113-0.951-0.113-1.515C118.936,28.09,117.339,28.764,115.745,28.764z"/>
					<path fill="#FFFFFF" d="M127.809,23.893c0.108,1.232,1.032,2.322,2.77,2.322c1.344,0,2.043-0.727,2.043-1.564
						c0-0.729-0.506-1.289-1.596-1.514l-2.017-0.447c-2.405-0.532-3.663-2.1-3.663-3.975c0-2.379,2.18-4.394,5.006-4.394
						c3.807,0,5.039,2.462,5.264,3.806l-2.744,0.785c-0.109-0.785-0.699-2.043-2.52-2.043c-1.146,0-1.957,0.727-1.957,1.564
						c0,0.729,0.53,1.26,1.371,1.428l2.069,0.422c2.574,0.561,3.92,2.125,3.92,4.141c0,2.072-1.68,4.365-5.151,4.365
						c-3.945,0-5.455-2.574-5.623-4.113L127.809,23.893z"/>
				</g>
			</g>
		</g>
	</g>
	<g>
		<g>
			<path fill="#00A1FF" d="M146.814,14.878c-0.385,0.213-0.698,0.028-0.698-0.412V7.151c0-0.44,0.313-0.625,0.698-0.412l6.64,3.682
				c0.385,0.213,0.385,0.563,0,0.776L146.814,14.878z"/>
		</g>
		
			<circle fill="none" stroke="#00A1FF" stroke-width="2" stroke-linecap="round" stroke-linejoin="round" stroke-miterlimit="10" cx="149.193" cy="10.713" r="9.502"/>
	</g>
</g>
</svg>
