<svg id="Layer_1" data-name="Layer 1" xmlns="http://www.w3.org/2000/svg" viewBox="0 0 258.19 212.41">
  <defs>
    <style>
      .cls-1 {
        font-size: 25px;
        font-family: HarmoniaSansStd-Regular, Harmonia Sans Std;
        letter-spacing: 0em;
      }

      .cls-1, .cls-11 {
        fill: #ddd;
      }

      .cls-2 {
        letter-spacing: -0.01em;
      }

      .cls-3 {
        letter-spacing: 0em;
      }

      .cls-4 {
        letter-spacing: 0em;
      }

      .cls-5 {
        letter-spacing: -0.01em;
      }

      .cls-6 {
        letter-spacing: -0.02em;
      }

      .cls-7 {
        letter-spacing: 0em;
      }

      .cls-8 {
        letter-spacing: 0em;
      }

      .cls-9 {
        letter-spacing: 0em;
      }

      .cls-10 {
        letter-spacing: 0.01em;
      }
    </style>
  </defs>
  <title>ICONOS</title>
  <text class="cls-1" transform="translate(43.17 59.1)">D<tspan class="cls-2" x="17.72" y="0">e</tspan><tspan class="cls-3" x="31.2" y="0">s</tspan><tspan class="cls-4" x="41.74" y="0">a</tspan><tspan class="cls-5" x="56.84" y="0">r</tspan><tspan class="cls-6" x="65.12" y="0">r</tspan><tspan class="cls-7" x="73.08" y="0">o</tspan><tspan class="cls-8" x="87.68" y="0">l</tspan><tspan class="cls-9" x="93" y="0">l</tspan><tspan class="cls-10" x="98.44" y="0">a</tspan></text>
  <g>
    <g>
      <path class="cls-11" d="M116.66,128.63l-2.78-1.14c-1.81-.74-2.69-1.64-2.69-2.76a2.52,2.52,0,0,1,1-2,4.28,4.28,0,0,1,4.56-.37h0a5.09,5.09,0,0,1,1.62,2l.29.51,4.42-2.62-.29-.5c-1.91-3.3-4.62-5-8-5a9.25,9.25,0,0,0-6.37,2.28,7.27,7.27,0,0,0-2.6,5.69c0,3.35,2,5.92,6.09,7.63l2.69,1.12a10.51,10.51,0,0,1,1.72.9,5.42,5.42,0,0,1,1.12,1,3.4,3.4,0,0,1,.6,1.06,4.19,4.19,0,0,1,.19,1.31,4,4,0,0,1-1.13,2.94,4.24,4.24,0,0,1-6.2-.42v0a6.53,6.53,0,0,1-.9-3.11l-.07-.64-5.43,1.2.08.53a10.56,10.56,0,0,0,3.1,6.41,9.16,9.16,0,0,0,6.4,2.32,9.43,9.43,0,0,0,6.83-2.7,9.15,9.15,0,0,0,2.75-6.79,8.15,8.15,0,0,0-1.71-5.22,12.4,12.4,0,0,0-5.21-3.54"/>
      <path class="cls-11" d="M142.44,132.17a12.4,12.4,0,0,0-5.21-3.54l-2.79-1.14c-1.8-.74-2.68-1.65-2.68-2.76a2.52,2.52,0,0,1,1-2,3.75,3.75,0,0,1,2.54-.85,3.69,3.69,0,0,1,2,.49h0a5.18,5.18,0,0,1,1.62,2l.29.51,4.42-2.62-.29-.5c-1.91-3.3-4.62-5-8.05-5a9.29,9.29,0,0,0-6.37,2.27,7.31,7.31,0,0,0-2.6,5.7c0,3.35,2,5.92,6.09,7.63l2.69,1.12a11.4,11.4,0,0,1,1.72.9,5.42,5.42,0,0,1,1.12,1,3.19,3.19,0,0,1,.59,1.06,4.14,4.14,0,0,1,.2,1.31,4,4,0,0,1-1.13,2.94,3.85,3.85,0,0,1-2.87,1.15,3.8,3.8,0,0,1-3.33-1.57v0a6.53,6.53,0,0,1-.9-3.11l-.07-.64-5.43,1.2.08.53a10.56,10.56,0,0,0,3.1,6.41,9.14,9.14,0,0,0,6.4,2.32,9.43,9.43,0,0,0,6.83-2.7,9.16,9.16,0,0,0,2.74-6.79,8.14,8.14,0,0,0-1.7-5.22"/>
      <polygon class="cls-11" points="68.22 117.25 59.62 136.06 51.31 117.25 49.13 117.25 43.44 146.33 48.99 146.33 51.74 130.88 58.57 146.33 60.52 146.33 67.54 130.91 70.01 146.33 75.51 146.33 70.4 117.25 68.22 117.25"/>
      <path class="cls-11" d="M90.2,117.25,76.66,146.33h5.82l3.1-6.74H96.79l2.91,6.74h5.89L92.53,117.25Zm-2.34,17.21,3.43-7.5,3.27,7.5Z"/>
      <path class="cls-11" d="M217.09,117.25h-2.34l-13.53,29.08H207l3.09-6.74h11.21l2.91,6.74h5.9Zm-4.67,17.21,3.43-7.5,3.27,7.5Z"/>
      <polygon class="cls-11" points="194.68 117.27 194.68 135.82 176.93 117.25 174.3 117.25 174.3 146.28 179.68 146.28 179.68 127.67 197.51 146.28 198.73 146.28 198.73 146.33 200.06 146.33 200.06 117.27 194.68 117.27"/>
      <path class="cls-11" d="M143.12,146.32h5.82l3.09-6.73h11.21l2.9,6.73H172L157.83,114.7Zm11.19-11.86,3.43-7.5,3.27,7.5Z"/>
      <path class="cls-11" d="M230.08,120a2.88,2.88,0,1,1-5.76,0,2.76,2.76,0,0,1,.27-1.22,2.88,2.88,0,0,1,.77-1,2.82,2.82,0,0,1,3-.41,2.71,2.71,0,0,1,1.24,1.06,2.86,2.86,0,0,1,.47,1.57m-2.9-2.47a2.29,2.29,0,0,0-1.69.73,2.5,2.5,0,0,0,0,3.49,2.38,2.38,0,0,0,3.41,0,2.38,2.38,0,0,0,.71-1.75,2.58,2.58,0,0,0-.28-1.14,2.37,2.37,0,0,0-.72-.87,2.44,2.44,0,0,0-1.43-.46m.3,2.75,1.08,1.39h-.77l-1-1.32v1.32h-.64v-3.33h.67a1.61,1.61,0,0,1,1,.25.91.91,0,0,1,.36.75,1,1,0,0,1-.19.58.89.89,0,0,1-.48.34Zm-.69-.46h.11c.46,0,.69-.16.69-.47s-.22-.44-.67-.44h-.13Z"/>
    </g>
    <g>
      <g>
        <path class="cls-11" d="M71.61,94.63v.88c0,7.69-4.7,14.83-13.92,14.83-8.37,0-14.12-6.58-14.12-14.36,0-8.17,6-14.51,14.12-14.51,6.62,0,11.17,3.31,13,8.21H65.59c-1.32-2.51-4.11-4.15-7.78-4.15-5.54,0-9.41,4.27-9.41,10.33,0,6.39,4.11,10.41,9.65,10.41a8.43,8.43,0,0,0,8.54-7.65H56.34v-4Z"/>
        <path class="cls-11" d="M57.69,110.75c-8.28,0-14.52-6.35-14.52-14.77s6.24-14.92,14.52-14.92c6.49,0,11.37,3.09,13.38,8.48l.21.55H65.35l-.12-.22c-1.31-2.5-4-3.93-7.42-3.93-5.3,0-9,4.08-9,9.92s3.72,10,9.25,10A8,8,0,0,0,66.12,99H55.93v-4.8H72v1.29C72,102.85,67.53,110.75,57.69,110.75Zm0-28.88C49.87,81.87,44,87.94,44,96s5.89,14,13.71,14c6.73,0,13.52-4.46,13.52-14.43V95H56.74v3.18H67l-.05.45a8.79,8.79,0,0,1-8.94,8c-5.92,0-10-4.45-10-10.82s4-10.73,9.81-10.73c3.57,0,6.54,1.55,8,4.15H70.1C68.09,84.56,63.6,81.87,57.69,81.87Z"/>
      </g>
      <g>
        <path class="cls-11" d="M96.07,109.51H90.41l-7.74-11H80.08v11H75.37V82.3h8.22c7.3,0,9.89,4,9.89,8.18a7.63,7.63,0,0,1-5.87,7.46ZM83.91,86.25H80.08v8.58H84c3,0,4.66-1.8,4.66-4.23C88.61,87.85,86.94,86.25,83.91,86.25Z"/>
        <path class="cls-11" d="M96.87,109.91H90.2l-7.74-11h-2v11H75v-28h8.62c6.44,0,10.29,3.21,10.29,8.58a8,8,0,0,1-5.6,7.69Zm-6.25-.81h4.65L86.93,97.69l.59-.14a7.23,7.23,0,0,0,5.55-7.07c0-2.34-.92-7.77-9.48-7.77H75.77V109.1h3.9v-11h3.21ZM84,95.23H79.67V85.85h4.24c3.24,0,5.11,1.73,5.11,4.75C89,93.41,87,95.23,84,95.23Zm-3.47-.81H84c2.62,0,4.26-1.46,4.26-3.82,0-2.54-1.53-3.94-4.3-3.94H80.48Z"/>
      </g>
      <g>
        <path class="cls-11" d="M97.59,98.7V82.3h4.71V99.14c0,4.34,2,7.17,5.5,7.17,4,0,5.46-3.07,5.46-7.17V82.3h4.67V98.62c0,8.53-4.39,11.76-10.13,11.76C102.42,110.38,97.59,107.35,97.59,98.7Z"/>
        <path class="cls-11" d="M107.8,110.79c-3.19,0-10.61-1.18-10.61-12.09V81.9h5.51V99.14c0,4.17,2,6.77,5.1,6.77,3.36,0,5.06-2.28,5.06-6.77V81.9h5.48V98.62C118.34,106.46,114.59,110.79,107.8,110.79ZM98,82.71v16c0,9.81,6.15,11.28,9.81,11.28,4.44,0,9.73-2,9.73-11.36V82.71h-3.86V99.14c0,5-2,7.58-5.87,7.58-3.64,0-5.91-2.91-5.91-7.58V82.71Z"/>
      </g>
      <g>
        <path class="cls-11" d="M123,82.3h8.38c5.82,0,10.17,2.72,10.17,8.58,0,5.38-3.27,8.69-10.41,8.69h-3.43v9.94H123Zm8.42,4h-3.71v9.42h3.63c4.31,0,5.42-2.24,5.42-4.71C136.77,88.33,135.26,86.25,131.43,86.25Z"/>
        <path class="cls-11" d="M128.12,109.91h-5.51v-28h8.78c6.62,0,10.57,3.36,10.57,9,0,5.87-3.84,9.1-10.81,9.1h-3Zm-4.7-.81h3.9V99.17h3.83c6.55,0,10-2.87,10-8.29,0-5.19-3.56-8.17-9.77-8.17h-8Zm7.93-13h-4V85.85h4.11c3.65,0,5.75,1.86,5.75,5.11S135.16,96.07,131.35,96.07Zm-3.23-.81h3.23c3.38,0,5-1.41,5-4.3s-1.76-4.3-4.94-4.3h-3.31Z"/>
      </g>
      <g>
        <path class="cls-11" d="M157.9,81.43c8.94,0,14.36,6.9,14.36,14.47a14.31,14.31,0,0,1-14.4,14.48c-10,0-14.43-7.73-14.43-14.48A14.34,14.34,0,0,1,157.9,81.43Zm-.08,24.72c5.47,0,9.62-4.38,9.62-10.25s-3.83-10.25-9.58-10.25c-5.42,0-9.61,4.35-9.61,10.25S152.4,106.15,157.82,106.15Z"/>
        <path class="cls-11" d="M157.86,110.79c-9.74,0-14.84-7.49-14.84-14.89A14.73,14.73,0,0,1,157.9,81c9.59,0,14.77,7.67,14.77,14.88A14.69,14.69,0,0,1,157.86,110.79Zm0-29A13.92,13.92,0,0,0,143.83,95.9c0,9.67,7.27,14.08,14,14.08a13.89,13.89,0,0,0,14-14.08C171.86,89.08,167,81.83,157.9,81.83Zm-.08,24.73c-5.68,0-10-4.58-10-10.66s4.3-10.65,10-10.65,10,4.48,10,10.65S163.53,106.56,157.82,106.56Zm0-20.5c-5.25,0-9.2,4.23-9.2,9.84s3.94,9.85,9.16,9.85S167,101.52,167,95.9,163.18,86.06,157.86,86.06Z"/>
      </g>
    </g>
  </g>
</svg>
