<svg id="Layer_1" data-name="Layer 1" xmlns="http://www.w3.org/2000/svg" viewBox="0 0 349.77 333.84">
  <defs>
    <style>
      .cls-1 {
        fill: #cdb1a6;
      }

      .cls-2 {
        fill: #89472a;
      }

      .cls-3 {
        font-size: 16.4px;
      }

      .cls-3, .cls-4 {
        fill: #ddd;
        font-family: HarmoniaSansProCyr-Bold, Harmonia Sans Pro Cyr;
        font-weight: 700;
      }

      .cls-4 {
        font-size: 16px;
      }
    </style>
  </defs>
  <title>ICONOS</title>
  <path class="cls-1" d="M172.89,165.26V12.56c74.21,0,135.73,50.71,149.89,123.56Z"/>
  <path class="cls-2" d="M172.89,165.26l149.89-29.14a152.69,152.69,0,1,1-179-120.75,147.57,147.57,0,0,1,29.13-2.81Z"/>
  <g>
    <text class="cls-3" transform="translate(266.26 117) rotate(-118.3)"> </text>
    <text class="cls-3" transform="translate(264.19 113.15) rotate(-120.39)"> </text>
    <text class="cls-3" transform="translate(261.98 109.39) rotate(-122.47)"> </text>
    <text class="cls-3" transform="matrix(-0.57, -0.82, 0.82, -0.57, 259.64, 105.72)"> </text>
    <text class="cls-3" transform="matrix(-0.6, -0.8, 0.8, -0.6, 257.16, 102.14)"> </text>
    <text class="cls-3" transform="matrix(-0.63, -0.78, 0.78, -0.63, 254.56, 98.64)"> </text>
    <text class="cls-3" transform="translate(251.84 95.25) rotate(-130.76)"> </text>
    <text class="cls-3" transform="matrix(-0.68, -0.73, 0.73, -0.68, 248.99, 91.95)"> </text>
    <text class="cls-3" transform="translate(246.04 88.77) rotate(-134.89)"> </text>
    <text class="cls-3" transform="matrix(-0.73, -0.68, 0.68, -0.73, 242.95, 85.69)"> </text>
    <text class="cls-3" transform="matrix(-0.76, -0.66, 0.66, -0.76, 239.76, 82.72)"> </text>
    <text class="cls-3" transform="translate(236.47 79.86) rotate(-141.11)"> </text>
    <text class="cls-3" transform="matrix(-0.8, -0.6, 0.6, -0.8, 233.06, 77.12)"> </text>
    <text class="cls-3" transform="translate(229.58 74.52) rotate(-145.26)"> </text>
    <text class="cls-3" transform="matrix(-0.84, -0.54, 0.54, -0.84, 226, 72.04)"> </text>
    <text class="cls-3" transform="translate(222.31 69.68) rotate(-149.43)"> </text>
    <text class="cls-3" transform="translate(218.56 67.47) rotate(-151.51)"> </text>
    <text class="cls-3" transform="matrix(-0.9, -0.44, 0.44, -0.9, 214.73, 65.4)"> </text>
    <text class="cls-3" transform="matrix(-0.91, -0.41, 0.41, -0.91, 210.82, 63.46)"> </text>
    <text class="cls-3" transform="matrix(-0.93, -0.38, 0.38, -0.93, 206.85, 61.68)"> </text>
    <text class="cls-3" transform="matrix(-0.94, -0.34, 0.34, -0.94, 202.82, 60.04)"> </text>
    <text class="cls-3" transform="matrix(-0.95, -0.31, 0.31, -0.95, 198.72, 58.54)"> </text>
    <text class="cls-3" transform="matrix(-0.96, -0.27, 0.27, -0.96, 194.58, 57.2)"> </text>
    <text class="cls-3" transform="translate(190.39 56.01) rotate(-166.17)"> </text>
    <text class="cls-3" transform="translate(186.14 54.97) rotate(-168.28)"> </text>
    <text class="cls-3" transform="translate(181.88 54.09) rotate(-170.37)"> </text>
    <text class="cls-3" transform="translate(177.59 53.36) rotate(-172.45)"> </text>
    <text class="cls-3" transform="matrix(-1, -0.1, 0.1, -1, 173.27, 52.8)"> </text>
    <text class="cls-3" transform="translate(168.92 52.38) rotate(-176.6)"> </text>
    <text class="cls-3" transform="translate(164.58 52.13) rotate(-178.65)"> </text>
    <text class="cls-3" transform="translate(160.2 52.02) rotate(179.07)"> </text>
    <text class="cls-3" transform="translate(155.89 52.09) rotate(177.27)"> </text>
    <text class="cls-3" transform="translate(151.55 52.3) rotate(175.21)"> </text>
    <text class="cls-3" transform="translate(147.19 52.67) rotate(173.13)"> </text>
    <text class="cls-3" transform="matrix(-0.99, 0.16, -0.16, -0.99, 142.86, 53.2)"> </text>
    <text class="cls-3" transform="matrix(-0.98, 0.19, -0.19, -0.98, 138.56, 53.88)"> </text>
    <text class="cls-3" transform="translate(134.3 54.72) rotate(166.87)"> </text>
    <text class="cls-3" transform="translate(130.06 55.71) rotate(164.77)"> </text>
    <text class="cls-3" transform="translate(125.85 56.86) rotate(162.67)"> </text>
    <text class="cls-3" transform="translate(121.68 58.17) rotate(160.56)"> </text>
    <text class="cls-3" transform="translate(117.58 59.62) rotate(158.47)"> </text>
    <text class="cls-3" transform="matrix(-0.92, 0.4, -0.4, -0.92, 113.52, 61.22)"> </text>
    <text class="cls-3" transform="translate(109.52 62.98) rotate(154.27)"> </text>
    <text class="cls-3" transform="translate(105.6 64.88) rotate(152.18)"> </text>
    <text class="cls-3" transform="translate(101.75 66.91) rotate(150.1)"> </text>
    <text class="cls-3" transform="matrix(-0.85, 0.53, -0.53, -0.85, 97.99, 69.08)"> </text>
    <text class="cls-3" transform="matrix(-0.83, 0.56, -0.56, -0.83, 94.28, 71.4)"> </text>
    <text class="cls-3" transform="matrix(-0.81, 0.59, -0.59, -0.81, 90.68, 73.84)"> </text>
    <text class="cls-3" transform="translate(87.16 76.42) rotate(141.78)"> </text>
    <text class="cls-3" transform="matrix(-0.76, 0.65, -0.65, -0.76, 83.75, 79.11)"> </text>
    <text class="cls-3" transform="translate(80.42 81.93) rotate(137.65)"> </text>
    <text class="cls-3" transform="translate(77.2 84.88) rotate(135.58)"> </text>
    <text class="cls-3" transform="translate(74.09 87.93) rotate(133.51)"> </text>
    <text class="cls-3" transform="matrix(-0.66, 0.75, -0.75, -0.66, 71.09, 91.1)"> </text>
    <text class="cls-3" transform="translate(68.21 94.37) rotate(129.36)"> </text>
    <text class="cls-3" transform="matrix(-0.61, 0.8, -0.8, -0.61, 65.46, 97.73)"> </text>
    <text class="cls-3" transform="translate(62.83 101.19) rotate(125.22)"> </text>
    <text class="cls-3" transform="matrix(-0.55, 0.84, -0.84, -0.55, 60.32, 104.75)"> </text>
    <text class="cls-3" transform="matrix(-0.52, 0.86, -0.86, -0.52, 57.94, 108.4)"> </text>
    <text class="cls-3" transform="translate(55.69 112.15) rotate(118.98)"> </text>
    <text class="cls-3" transform="translate(53.58 115.98) rotate(116.88)"> </text>
    <text class="cls-3" transform="translate(51.61 119.87) rotate(114.79)"> </text>
    <text class="cls-3" transform="translate(49.8 123.8) rotate(112.71)"> </text>
    <text class="cls-3" transform="translate(48.12 127.83) rotate(110.61)"> </text>
    <text class="cls-3" transform="matrix(-0.32, 0.95, -0.95, -0.32, 46.59, 131.91)"> </text>
    <text class="cls-3" transform="matrix(-0.28, 0.96, -0.96, -0.28, 45.21, 136.04)"> </text>
    <text class="cls-3" transform="translate(43.98 140.24) rotate(104.31)"> </text>
    <text class="cls-3" transform="matrix(-0.21, 0.98, -0.98, -0.21, 42.91, 144.45)"> </text>
    <text class="cls-3" transform="matrix(-0.18, 0.98, -0.98, -0.18, 41.99, 148.72)"> </text>
    <text class="cls-3" transform="translate(41.23 153.03) rotate(98.02)"> </text>
    <text class="cls-3" transform="translate(40.62 157.34) rotate(95.95)"> </text>
    <text class="cls-3" transform="translate(40.18 161.67) rotate(93.88)"> </text>
    <text class="cls-3" transform="translate(39.89 166.03) rotate(91.81)"> </text>
    <text class="cls-3" transform="translate(39.73 170.45) rotate(89.07)"> </text>
    <text class="cls-3" transform="matrix(0.04, 1, -1, 0.04, 39.78, 174.72)"> </text>
    <text class="cls-3" transform="translate(39.95 179.07) rotate(85.67)"> </text>
    <text class="cls-3" transform="matrix(0.11, 0.99, -0.99, 0.11, 40.29, 183.41)"> </text>
    <text class="cls-3" transform="matrix(0.15, 0.99, -0.99, 0.15, 40.78, 187.75)"> </text>
    <text class="cls-3" transform="matrix(0.18, 0.98, -0.98, 0.18, 41.42, 192.05)"> </text>
    <text class="cls-3" transform="translate(42.23 196.34) rotate(77.34)"> </text>
    <text class="cls-3" transform="matrix(0.28, 0.96, -0.96, 0.28, 43.16, 200.78)">7</text>
    <text class="cls-3" transform="translate(45.78 209.84) rotate(69.34)">8</text>
    <text class="cls-3" transform="translate(49.16 219.04) rotate(63.67)">%</text>
    <text class="cls-3" transform="translate(55.53 231.46) rotate(59.21)"> </text>
    <text class="cls-3" transform="translate(57.79 235.4) rotate(55.57)">V</text>
    <text class="cls-3" transform="translate(63.97 244.33) rotate(50.72)">E</text>
    <text class="cls-3" transform="matrix(0.69, 0.72, -0.72, 0.69, 69.97, 251.67)">R</text>
    <text class="cls-3" transform="matrix(0.76, 0.65, -0.65, 0.76, 77.35, 259.31)">D</text>
    <text class="cls-3" transform="matrix(0.82, 0.58, -0.58, 0.82, 86.72, 267.21)">E</text>
    <text class="cls-3" transform="translate(94.4 272.56) rotate(32.04)"> </text>
    <text class="cls-3" transform="matrix(0.87, 0.5, -0.5, 0.87, 98.08, 274.86)"> </text>
  </g>
  <g>
    <text class="cls-4" transform="translate(165.45 42.62) rotate(-3.79)"> </text>
    <text class="cls-4" transform="translate(169.37 42.36) rotate(-1.93)"> </text>
    <text class="cls-4" transform="translate(173.26 42.25) rotate(-0.93)"> </text>
    <text class="cls-4" transform="matrix(1, 0.03, -0.03, 1, 177.2, 42.22)"> </text>
    <text class="cls-4" transform="translate(181.11 42.33) rotate(3.59)"> </text>
    <text class="cls-4" transform="translate(185.01 42.58) rotate(5.45)"> </text>
    <text class="cls-4" transform="translate(188.9 42.95) rotate(7.31)"> </text>
    <text class="cls-4" transform="translate(192.78 43.44) rotate(9.18)"> </text>
    <text class="cls-4" transform="matrix(0.98, 0.19, -0.19, 0.98, 196.67, 44.07)"> </text>
    <text class="cls-4" transform="matrix(0.97, 0.22, -0.22, 0.97, 200.51, 44.82)"> </text>
    <text class="cls-4" transform="translate(204.29 45.62) rotate(16.05)">2</text>
    <text class="cls-4" transform="translate(212.59 47.98) rotate(20.21)">2</text>
    <text class="cls-4" transform="matrix(0.9, 0.43, -0.43, 0.9, 220.77, 50.88)">%</text>
    <text class="cls-4" transform="translate(232.35 56.52) rotate(29.31)"> </text>
    <text class="cls-4" transform="matrix(0.84, 0.54, -0.54, 0.84, 235.75, 58.35)">P</text>
    <text class="cls-4" transform="translate(243.09 62.97) rotate(36.65)">R</text>
    <text class="cls-4" transform="translate(250.71 68.73) rotate(39.95)">I</text>
    <text class="cls-4" transform="translate(254.02 71.39) rotate(43.29)">V</text>
    <text class="cls-4" transform="translate(260.56 77.47) rotate(47.67)">A</text>
    <text class="cls-4" transform="matrix(0.61, 0.8, -0.8, 0.61, 267.53, 85.08)">D</text>
    <text class="cls-4" transform="translate(274.27 93.88) rotate(58.33)">O</text>
    <text class="cls-4" transform="translate(280.69 104.55) rotate(62.23)"> </text>
    <text class="cls-4" transform="translate(282.51 108.01) rotate(64.1)"> </text>
    <text class="cls-4" transform="translate(284.22 111.53) rotate(65.98)"> </text>
    <text class="cls-4" transform="translate(285.82 115.11) rotate(67.86)"> </text>
    <text class="cls-4" transform="matrix(0.35, 0.94, -0.94, 0.35, 287.3, 118.73)"> </text>
    <text class="cls-4" transform="translate(288.66 122.41) rotate(71.64)"> </text>
    <text class="cls-4" transform="translate(289.89 126.13) rotate(73.52)"> </text>
    <text class="cls-4" transform="translate(291 129.88) rotate(75.4)"> </text>
    <text class="cls-4" transform="translate(291.99 133.67) rotate(77.29)"> </text>
    <text class="cls-4" transform="translate(292.86 137.5) rotate(79.18)"> </text>
    <text class="cls-4" transform="translate(293.59 141.32) rotate(81.04)"> </text>
    <text class="cls-4" transform="translate(294.2 145.19) rotate(82.91)"> </text>
    <text class="cls-4" transform="translate(294.69 149.09) rotate(84.79)"> </text>
    <text class="cls-4" transform="translate(295.04 152.99) rotate(86.65)"> </text>
    <text class="cls-4" transform="translate(295.27 156.9) rotate(88.49)"> </text>
    <text class="cls-4" transform="translate(295.4 160.79) rotate(90.93)"> </text>
    <text class="cls-4" transform="translate(295.36 164.72) rotate(92.17)"> </text>
    <text class="cls-4" transform="translate(295.21 168.63) rotate(94.01)"> </text>
    <text class="cls-4" transform="translate(294.94 172.55) rotate(95.88)"> </text>
    <text class="cls-4" transform="translate(294.54 176.43) rotate(97.74)"> </text>
    <text class="cls-4" transform="matrix(-0.17, 0.99, -0.99, -0.17, 294.01, 180.32)"> </text>
    <text class="cls-4" transform="translate(293.36 184.18) rotate(101.5)"> </text>
    <text class="cls-4" transform="translate(292.58 188.01) rotate(103.38)"> </text>
    <text class="cls-4" transform="matrix(-0.26, 0.96, -0.96, -0.26, 291.68, 191.82)"> </text>
    <text class="cls-4" transform="matrix(-0.29, 0.96, -0.96, -0.29, 290.65, 195.59)"> </text>
    <text class="cls-4" transform="translate(289.49 199.35) rotate(109.04)"> </text>
    <text class="cls-4" transform="translate(288.21 203.05) rotate(110.93)"> </text>
    <text class="cls-4" transform="translate(286.82 206.7) rotate(112.81)"> </text>
    <text class="cls-4" transform="translate(285.31 210.3) rotate(114.68)"> </text>
    <text class="cls-4" transform="translate(283.67 213.87) rotate(116.57)"> </text>
    <text class="cls-4" transform="translate(281.92 217.38) rotate(118.45)"> </text>
    <text class="cls-4" transform="matrix(-0.5, 0.86, -0.86, -0.5, 280.06, 220.8)"> </text>
    <text class="cls-4" transform="matrix(-0.53, 0.85, -0.85, -0.53, 278.08, 224.2)"> </text>
    <text class="cls-4" transform="matrix(-0.56, 0.83, -0.83, -0.56, 275.99, 227.52)"> </text>
    <text class="cls-4" transform="matrix(-0.59, 0.81, -0.81, -0.59, 273.81, 230.76)"> </text>
    <text class="cls-4" transform="translate(271.51 233.93) rotate(127.79)"> </text>
    <text class="cls-4" transform="matrix(-0.64, 0.77, -0.77, -0.64, 269.11, 237.02)"> </text>
    <text class="cls-4" transform="matrix(-0.66, 0.75, -0.75, -0.66, 266.61, 240.04)"> </text>
    <text class="cls-4" transform="translate(264.02 242.97) rotate(133.37)"> </text>
    <text class="cls-4" transform="translate(261.32 245.83) rotate(135.24)"> </text>
    <text class="cls-4" transform="matrix(-0.73, 0.68, -0.68, -0.73, 258.55, 248.58)"> </text>
    <text class="cls-4" transform="translate(255.68 251.25) rotate(138.95)"> </text>
    <text class="cls-4" transform="matrix(-0.78, 0.63, -0.63, -0.78, 252.73, 253.82)"> </text>
    <text class="cls-4" transform="translate(249.7 256.29) rotate(142.67)"> </text>
    <text class="cls-4" transform="translate(246.58 258.67) rotate(144.54)"> </text>
    <text class="cls-4" transform="matrix(-0.83, 0.55, -0.55, -0.83, 243.39, 260.95)"> </text>
    <text class="cls-4" transform="matrix(-0.85, 0.53, -0.53, -0.85, 240.14, 263.11)"> </text>
    <text class="cls-4" transform="translate(236.81 265.17) rotate(150.14)"> </text>
    <text class="cls-4" transform="translate(233.41 267.12) rotate(152.02)"> </text>
    <text class="cls-4" transform="translate(229.95 268.96) rotate(153.9)"> </text>
    <text class="cls-4" transform="translate(226.43 270.68) rotate(155.78)"> </text>
    <text class="cls-4" transform="translate(222.86 272.29) rotate(157.67)"> </text>
    <text class="cls-4" transform="translate(219.26 273.77) rotate(159.54)"> </text>
    <text class="cls-4" transform="translate(215.59 275.15) rotate(161.43)"> </text>
    <text class="cls-4" transform="translate(211.88 276.4) rotate(163.31)"> </text>
    <text class="cls-4" transform="translate(208.14 277.52) rotate(165.19)"> </text>
    <text class="cls-4" transform="translate(204.34 278.52) rotate(167.08)"> </text>
    <text class="cls-4" transform="translate(200.53 279.4) rotate(168.96)"> </text>
    <text class="cls-4" transform="translate(196.69 280.15) rotate(170.84)"> </text>
    <text class="cls-4" transform="translate(192.82 280.77) rotate(172.71)"> </text>
    <text class="cls-4" transform="translate(188.92 281.27) rotate(174.59)"> </text>
    <text class="cls-4" transform="translate(185.03 281.64) rotate(176.44)"> </text>
    <text class="cls-4" transform="translate(181.13 281.89) rotate(178.29)"> </text>
    <text class="cls-4" transform="translate(177.19 282.03) rotate(-179.07)"> </text>
    <text class="cls-4" transform="translate(173.3 282) rotate(-178.04)"> </text>
    <text class="cls-4" transform="matrix(-1, -0.07, 0.07, -1, 169.39, 281.87)"> </text>
    <text class="cls-4" transform="translate(165.47 281.61) rotate(-174.33)"> </text>
    <text class="cls-4" transform="translate(161.58 281.22) rotate(-172.46)"> </text>
    <text class="cls-4" transform="translate(157.68 280.71) rotate(-170.58)"> </text>
    <text class="cls-4" transform="translate(153.82 280.07) rotate(-168.7)"> </text>
    <text class="cls-4" transform="translate(149.99 279.3) rotate(-166.82)"> </text>
    <text class="cls-4" transform="matrix(-0.97, -0.26, 0.26, -0.97, 146.17, 278.41)"> </text>
  </g>
</svg>
